<?xml version="1.0" encoding="UTF-8" standalone="no"?>
<svg
   viewBox="0 0 980 980"
   fill="none"
   shape-rendering="auto"
   width="512"
   height="512"
   version="1.1"
   id="svg13"
   sodipodi:docname="AdventurersGuild.svg"
   inkscape:version="1.3.1 (91b66b0783, 2023-11-16)"
   xmlns:inkscape="http://www.inkscape.org/namespaces/inkscape"
   xmlns:sodipodi="http://sodipodi.sourceforge.net/DTD/sodipodi-0.dtd"
   xmlns="http://www.w3.org/2000/svg"
   xmlns:svg="http://www.w3.org/2000/svg"
   xmlns:rdf="http://www.w3.org/1999/02/22-rdf-syntax-ns#"
   xmlns:cc="http://creativecommons.org/ns#"
   xmlns:dc="http://purl.org/dc/elements/1.1/">
  <defs
     id="defs13" />
  <sodipodi:namedview
     id="namedview13"
     pagecolor="#ffffff"
     bordercolor="#000000"
     borderopacity="0.25"
     inkscape:showpageshadow="2"
     inkscape:pageopacity="0.0"
     inkscape:pagecheckerboard="0"
     inkscape:deskcolor="#d1d1d1"
     inkscape:zoom="1.1376953"
     inkscape:cx="47.024893"
     inkscape:cy="298.4103"
     inkscape:window-width="2560"
     inkscape:window-height="1371"
     inkscape:window-x="0"
     inkscape:window-y="0"
     inkscape:window-maximized="1"
     inkscape:current-layer="svg13" />
  <desc
     id="desc1">&quot;Lorelei&quot; by &quot;Lisa Wischofsky&quot;, licensed under &quot;CC0 1.0&quot;. / Remix of the original. - Created with dicebear.com</desc>
  <metadata
     id="metadata1">
    <rdf:RDF>
      <cc:Work>
        <dc:title>Lorelei</dc:title>
        <dc:creator>
          <cc:Agent
             rdf:about="https://www.instagram.com/lischi_art/">
            <dc:title>Lisa Wischofsky</dc:title>
          </cc:Agent>
        </dc:creator>
        <dc:source>https://www.figma.com/community/file/1198749693280469639</dc:source>
        <cc:license
           rdf:resource="https://creativecommons.org/licenses/zero/1.0/" />
      </cc:Work>
    </rdf:RDF>
  </metadata>
  <mask
     id="viewboxMask">
    <rect
       width="980"
       height="980"
       rx="0"
       ry="0"
       x="0"
       y="0"
       fill="#fff"
       id="rect1" />
  </mask>
  <g
     mask="url(#viewboxMask)"
     id="g13"
     transform="translate(4.3138993,-17.722191)">
    <g
       transform="translate(10,-60)"
       id="g11">
      <path
         d="m 614,167 8,5 c 1,1 2,2 1,4 l -6,3 -32,14 c -14,7 -28,16 -40,26 l 18,-1 c 32,0 63,10 90,26 22,14 41,32 53,55 11,20 16,43 14,65 l 1,5 a 163,163 0 0 1 17,63 c 0,13 -3,27 -9,39 -4,9 -9,18 -16,25 -8,6 -16,13 -26,14 -3,0 -8,-1 -9,-4 -2,-2 -1,-6 -1,-9 l 11,-56 c -8,9 -17,17 -28,23 -4,3 -8,3 -12,3 l -1,-5 c 1,-11 0,-22 -1,-33 -5,-28 -14,-57 -32,-79 l 3,30 c 0,20 -4,41 -12,59 -6,15 -15,29 -27,39 -3,2 -6,4 -10,4 -2,0 -4,-1 -3,-3 3,-16 4,-32 4,-49 -10,21 -28,36 -47,46 -6,3 -12,6 -19,2 v -9 a 293,293 0 0 0 8,-79 c -8,15 -19,29 -31,41 -13,12 -27,23 -42,32 -9,5 -20,11 -31,11 -5,0 -9,-1 -13,-3 v -1 l 3,-16 c 2,-12 3,-25 2,-37 l -5,20 c -4,10 -9,19 -16,27 l -8,5 c -2,0 -3,0 -3,-2 l 6,-12 c 7,-14 11,-28 12,-44 a 327,327 0 0 1 -39,62 l -5,6 -1,18 -1,17 c 14,18 24,39 31,61 a 203,203 0 0 1 -12,121 c 5,16 5,34 0,50 -8,23 -23,43 -41,59 -14,12 -30,23 -47,29 -10,4 -22,7 -33,5 -4,0 -6,-2 -9,-4 2,-3 4,-6 4,-10 2,-6 1,-13 0,-19 -2,-13 -7,-25 -14,-36 l -18,-27 c -5,-9 -10,-18 -12,-28 l -1,-22 -4,15 c -3,12 -3,25 -1,37 1,7 4,14 8,20 l 8,10 c -3,1 -6,-1 -9,-3 -7,-4 -12,-10 -15,-17 a 91,91 0 0 1 13,-92 c 8,-11 19,-19 31,-24 l 17,-4 c 10,-3 20,-4 31,-3 -24,-28 -43,-61 -55,-96 A 247,247 0 0 1 225,345 226,226 0 0 1 349,239 c 22,-9 45,-16 68,-19 15,-2 32,-3 46,1 a 155,155 0 0 1 115,-57 c 12,-1 25,0 36,3 z m 50,455 c 7,-1 15,2 21,6 7,5 12,12 17,19 l 10,18 c 9,16 15,34 16,53 0,18 -4,37 -14,52 -8,9 -16,18 -27,23 l 11,13 c 2,1 4,4 3,6 0,2 -3,2 -5,3 -13,3 -26,-1 -37,-7 -14,-6 -26,-17 -33,-31 l 10,24 c 2,4 5,7 4,12 -2,0 -4,0 -6,-2 -7,-4 -12,-11 -16,-17 -6,-10 -10,-21 -12,-32 -3,-16 -1,-33 3,-48 l 4,-17 c 6,-21 15,-41 28,-58 5,-8 13,-16 23,-17 z"
         fill="#000000"
         id="path2" />
      <path
         d="m 528,244 c 41,6 80,22 113,47 28,21 50,49 65,81 13,28 20,60 19,91 -1,15 -3,30 -8,44 h -2 l 1,-21 c 1,-30 -2,-59 -13,-87 -10,-30 -28,-57 -50,-79 -42,-40 -98,-62 -156,-63 a 243,243 0 0 0 -196,94 207,207 0 0 0 -40,139 l 2,25 c 8,0 19,0 25,7 l -3,3 -17,1 c -12,1 -24,5 -33,13 a 64,64 0 0 0 -17,39 c -5,32 12,65 39,83 16,10 36,15 55,9 4,-2 9,-5 14,-3 3,1 4,4 5,7 a 251,251 0 0 0 90,100 c 8,7 18,13 28,18 18,8 38,14 57,19 l 32,8 c 5,1 9,1 13,3 l -4,1 c -25,2 -48,-3 -72,-10 -12,-3 -23,-7 -34,-12 a 306,306 0 0 1 -84,-63 l 2,28 c 1,17 0,35 -6,52 -4,12 -11,24 -19,34 -10,10 -22,19 -34,26 -10,7 -21,14 -32,18 l -16,5 9,-9 31,-20 22,-17 a 95,95 0 0 0 32,-56 c 2,-14 2,-28 2,-43 v -27 c -10,-14 -22,-29 -27,-46 -17,8 -38,7 -55,-1 -17,-7 -32,-19 -43,-33 -12,-17 -19,-36 -21,-56 -2,-20 2,-40 15,-56 9,-10 22,-18 35,-21 -4,-14 -6,-29 -6,-44 a 234,234 0 0 1 83,-173 249,249 0 0 1 199,-55 z"
         fill="#000000"
         id="path3" />
      <path
         d="m 653,320 c 22,22 40,49 50,79 11,28 14,57 13,87 l -1,21 -5,15 -2,13 2,56 c 0,21 1,42 -1,63 l -3,47 c -2,16 -7,31 -14,45 -11,18 -26,33 -44,44 -13,8 -27,12 -41,16 l -38,11 -17,3 c 0,1 1,2 3,2 8,5 17,5 26,4 -3,7 -4,14 -2,22 3,7 11,11 17,14 12,6 24,7 36,9 7,6 14,14 16,24 2,8 2,16 -2,23 -5,10 -14,18 -24,23 -13,8 -27,14 -42,18 a 468,468 0 0 1 -222,-1 c -17,-4 -33,-9 -48,-17 -12,-6 -23,-13 -32,-22 -5,-7 -9,-14 -10,-23 11,-4 22,-11 32,-18 12,-7 24,-16 34,-26 8,-10 15,-22 19,-34 6,-17 7,-35 6,-52 l -2,-28 22,23 c 19,15 40,30 62,40 11,5 22,9 34,12 24,7 47,12 72,10 l 4,-1 c -4,-2 -8,-2 -13,-3 l -32,-8 c -19,-5 -39,-11 -57,-19 l -29,-17 c -11,-9 -23,-17 -33,-27 a 251,251 0 0 1 -56,-74 c -1,-3 -2,-6 -5,-7 -5,-2 -10,1 -14,3 -19,6 -39,1 -55,-9 a 88,88 0 0 1 -39,-83 c 1,-14 7,-28 17,-39 9,-8 21,-12 33,-13 l 17,-1 3,-3 c -6,-7 -17,-7 -25,-7 l -2,-25 a 207,207 0 0 1 40,-139 243,243 0 0 1 196,-94 c 58,1 114,23 156,63 z"
         fill="#ffffff"
         id="path4" />
      <path
         d="m 710,522 c 3,0 3,4 4,6 3,11 4,23 5,34 l 2,21 c 1,22 2,43 1,65 -1,21 -1,44 -5,65 a 136,136 0 0 1 -80,99 c -15,7 -31,11 -48,13 v 15 c 1,3 3,4 5,6 12,6 23,8 36,11 12,3 24,5 36,11 -3,3 -7,4 -11,4 -7,1 -15,-1 -23,-1 -12,-2 -24,-3 -36,-9 -6,-3 -14,-7 -17,-14 -2,-8 -1,-15 2,-22 -9,1 -18,1 -26,-4 -2,0 -3,-1 -3,-2 l 17,-3 38,-11 c 14,-4 28,-8 41,-16 18,-11 33,-26 44,-44 7,-14 12,-29 14,-45 l 3,-47 c 2,-21 1,-42 1,-63 l -2,-56 z m -458,27 c 8,0 17,1 23,7 5,4 10,9 12,15 1,3 0,6 -2,8 l -13,8 c -7,6 -7,19 0,25 6,5 14,8 21,11 2,0 5,1 6,3 -1,2 -3,3 -5,3 -10,0 -20,-3 -28,-9 -5,-3 -8,-8 -9,-13 -2,-8 -2,-17 4,-24 4,-6 11,-9 18,-12 -4,-5 -7,-11 -14,-13 -7,-3 -15,-3 -22,-5 z"
         fill="#000000"
         id="path5" />
      <path
         d="m 669,473 c 8,-1 16,1 22,6 3,3 6,7 6,11 1,5 -4,10 -9,10 -4,-1 -6,-3 -8,-6 l -10,-7 c 9,16 4,38 -10,49 -7,6 -18,8 -25,1 -6,-5 -8,-12 -8,-20 -2,5 -5,9 -6,14 -1,2 -1,4 -3,4 -2,-5 -1,-11 1,-17 6,-16 17,-30 32,-38 5,-4 11,-6 18,-7 z m -212,11 c 27,1 53,18 64,42 2,2 4,6 1,9 -3,0 -5,-4 -7,-6 -4,-8 -10,-14 -17,-19 2,11 2,21 -4,31 -5,8 -16,13 -25,12 -7,-2 -14,-5 -19,-11 -6,-6 -8,-16 -8,-24 0,-7 3,-13 6,-18 -14,3 -28,9 -39,18 -3,1 -5,3 -8,3 -4,-1 -6,-4 -6,-8 0,-3 2,-6 4,-8 8,-6 16,-12 26,-16 10,-4 21,-6 32,-5 z"
         fill="#000000"
         id="path6" />
      <path
         d="m 503,394 c 7,0 14,2 19,6 4,2 7,4 8,8 1,2 0,5 -2,6 -5,1 -10,-2 -14,-3 l -9,-1 c -13,-1 -26,1 -39,4 a 169,169 0 0 0 -60,31 c -4,2 -9,5 -14,4 -3,0 -3,-4 -2,-7 1,-6 7,-11 12,-16 10,-9 23,-15 35,-20 20,-9 44,-14 66,-12 z m 156,2 c 7,-2 14,-1 20,3 4,3 8,6 9,11 1,3 1,6 -2,7 -3,1 -7,1 -10,-1 -5,-3 -9,-6 -15,-6 -5,0 -10,1 -14,3 -8,4 -16,11 -20,19 l -6,9 h -3 v -6 c 2,-8 7,-16 13,-22 7,-8 17,-15 28,-17 z"
         fill="#000000"
         id="path7" />
      <path
         d="m 597,505 h 1 l 3,15 3,26 8,13 6,12 c 2,5 2,10 5,14 3,5 5,10 5,16 0,9 -6,17 -14,20 l -19,8 c -5,3 -9,5 -15,5 -5,0 -11,0 -13,-5 -2,-2 0,-4 2,-5 l 12,-3 16,-5 13,-5 c 6,-2 9,-8 7,-14 l -5,-8 -7,-17 -7,-19 c -4,-8 -6,-17 -5,-26 0,-7 1,-15 4,-22 z"
         fill="#000000"
         id="path8" />
      <path
         d="m 714,580 a 143,143 0 0 1 12,75 l 15,-2 c 4,-1 7,1 7,5 l -3,6 -25,26 21,2 c 11,-1 22,-1 33,1 3,0 6,1 9,4 2,3 2,7 -1,10 -2,5 -7,8 -11,11 -11,7 -23,13 -34,21 7,4 15,6 23,8 3,1 6,2 8,5 3,3 2,8 0,12 l -14,10 c -10,6 -21,11 -32,15 -9,3 -19,4 -28,6 2,5 5,10 9,14 l 13,11 c 2,4 3,9 0,13 -3,2 -5,3 -9,3 a 300,300 0 0 1 -91,-3 l -22,-4 c -1,5 0,11 -4,14 -3,3 -7,4 -11,3 -10,0 -20,-3 -29,-5 l -50,-12 c -4,-1 -10,-3 -14,-1 -4,2 -5,8 -5,12 -1,4 -4,7 -8,8 -4,1 -9,-1 -13,-3 -8,-4 -16,-9 -23,-15 l -23,-21 c -9,-9 -18,-19 -28,-26 l -4,6 h -8 l -8,-9 c -7,-10 -12,-21 -18,-32 -5,-8 -8,-18 -11,-27 l -4,-7 -10,-1 c -4,-2 -6,-7 -6,-11 0,-11 2,-22 6,-33 -4,-1 -6,-4 -8,-8 -2,-2 -3,-4 -3,-7 -1,-5 0,-9 1,-14 l -3,2 c -4,-2 -5,-9 -5,-13 1,-14 5,-29 11,-42 1,-2 2,-5 4,-6 1,-2 3,-2 4,0 2,1 2,5 2,7 l -4,21 9,-15 c 2,-1 5,-3 7,-1 l -1,7 -6,24 c 3,-5 5,-10 9,-13 2,-2 5,-1 5,1 1,4 0,9 -1,13 l 4,-6 c 6,-6 11,-13 18,-17 l 10,-2 c 10,0 21,2 31,4 12,2 23,6 36,7 l -10,-6 c -2,-3 -1,-8 3,-9 6,-3 14,-1 20,0 l 34,6 38,14 c 15,6 29,13 43,21 15,-6 31,-10 45,-18 l 25,-11 c 3,-2 7,-3 10,0 2,2 1,4 1,7 l 21,-17 19,-15 c 5,-6 15,-7 22,-3 z"
         fill="#000000"
         id="path9" />
      <path
         d="m 476,660 c 3,0 5,2 7,4 l 13,7 c 11,5 23,8 34,11 15,5 30,6 45,6 12,1 23,2 34,1 l 4,2 c -18,9 -41,11 -61,10 -23,-1 -46,-8 -66,-18 -6,-4 -13,-8 -14,-16 -1,-3 1,-7 4,-7 z"
         fill="#ffffff"
         id="path10" />
      <path
         d="m 593,164 c 7,0 15,1 22,4 l 9,5 c -1,4 -4,4 -6,6 l -33,14 c -14,7 -28,16 -40,26 a 169,169 0 0 1 139,50 123,123 0 0 1 29,130 c -9,26 -28,50 -52,65 -4,3 -8,3 -13,3 l -1,-2 c 2,-15 0,-29 -3,-44 -4,-26 -14,-50 -30,-71 4,21 4,43 -1,64 -4,20 -13,42 -28,57 -4,4 -9,9 -14,10 -2,0 -6,1 -6,-1 l 2,-16 c 2,-11 2,-22 2,-34 a 99,99 0 0 1 -57,50 l -9,-2 c -1,-4 0,-8 1,-13 a 309,309 0 0 0 7,-75 c -10,20 -26,37 -43,52 -11,9 -23,18 -36,24 -8,4 -16,8 -25,8 -5,0 -9,-1 -13,-3 a 168,168 0 0 0 5,-55 c -1,7 -3,15 -6,22 -3,9 -8,17 -14,25 l -8,6 c -2,0 -3,1 -4,-1 1,-5 4,-9 6,-13 7,-14 11,-29 12,-44 a 273,273 0 0 1 -42,67 c -2,1 -2,3 -2,4 l -3,42 v 46 c 0,4 1,9 -1,12 -2,2 -5,2 -8,3 -9,2 -17,-1 -25,-4 -8,-3 -15,-8 -21,-15 -6,-6 -11,-13 -15,-21 l -7,-6 A 138,138 0 0 1 210,428 c 0,-27 8,-53 19,-77 A 254,254 0 0 1 410,220 c 17,-2 36,-3 53,1 l 16,-17 a 151,151 0 0 1 114,-40 z"
         fill="#000000"
         id="path11" />
    </g>
    <g
       transform="translate(10,-60)"
       id="g12" />
  </g>
</svg>
