<svg width="512" height="512" fill="none" shape-rendering="auto" version="1.1" viewBox="0 0 980 980" xml:space="preserve" xmlns="http://www.w3.org/2000/svg"><desc>"Lorelei" by "Lisa Wischofsky", licensed under "CC0 1.0". / Remix of the original. - Created with dicebear.com</desc><mask id="a"><rect width="980" height="980" rx="0" ry="0" fill="#fff"/></mask><g mask="url(#a)"><g transform="translate(10,-60)"><path d="m432 130a43 43 0 00-30-7c-2 1-5 1-6 3l5 1 11 3c7 3 13 9 17 16 9 10 14 23 17 36l-10-10a125 125 0 00-83-27l-14 2-10 2c-11 2-21 8-30 14-26 20-50 44-67 73-7 13-13 26-14 41-1 10 1 19 5 28 4 10 12 17 21 21a210 210 0 00-36 109 341 341 0 0067 223c10 13 22 26 36 36-14 6-27 16-34 29-2 6-3 11-1 17l1 2h1l11-11c11-8 25-11 38-11 7-1 13 0 20 1h2l9 2 7 2 7 1h5c5 1 11 1 17-1l1-7c-7-26-22-47-40-67l-11-11c-10-10-20-20-29-32-6-7-11-16-16-25l-3-6c7 4 14 7 21 8 6 1 14 1 19-3 2-2 2-6 2-9v-1a2119 2119 0 000-47 884 884 0 015-47 359 359 0 0042-66c-1 15-6 31-13 45l-2 2-3 10c3 2 6-1 8-3 9-9 16-21 20-33l4-14v21l-4 24-1 2v5c5 2 9 4 14 3 11-1 21-6 30-11a224 224 0 0073-73 415 415 0 01-7 75l-2 11c0 2 2 3 3 3h2c3 2 6 1 9-1h1c6-2 12-6 17-10 15-9 27-22 35-37 0 16-1 31-4 47 0 2 0 4 2 4 5 0 9-2 13-5 15-14 25-33 31-52 7-25 7-50 3-75 8 9 14 21 19 32a203 203 0 0114 81c0 1 0 4 2 4 8 0 13-3 19-7l1-2 20-17 1 6 5 21c2 4 3 8 7 11 2 1 5 0 7-1 10-7 18-18 23-30 7-17 8-36 4-53-2-11-6-23-12-32l-3-9c-1-13-3-27-8-39-10-28-30-51-54-67a179 179 0 00-114-29 203 203 0 0157-33l17-8h1c1-1 4-2 4-4-7-8-19-9-28-10-25-2-51 1-74 11-21 10-41 25-57 43 4-17 3-35-3-52-6-15-16-28-30-36zm-179 120c4-18 11-35 21-50l-13 15c-9 12-16 25-22 38-4 10-6 22-4 33 1 7 3 14 8 19l12 7 8-10c-5-6-9-12-11-20-3-11-2-21 1-32z" clip-rule="evenodd" fill="#000" fill-rule="evenodd"/><path d="m495 234c28 1 56 6 84 15a201 201 0 01100 65c19 25 31 55 35 86a361 361 0 012 101l-5 34-4 20c-1 2-1 2-3 2-2-4-2-8-2-12-1-15 1-29 2-44 1-24 3-48 1-72l-6-45c-7-28-20-54-40-75-18-18-40-33-63-43-22-9-44-15-67-19-18-3-36-4-54-4a277 277 0 00-128 29c-13 9-25 20-35 32a276 276 0 00-55 139c-1 24 0 47 8 70l7 15 12 1 1 3c-3 2-7 2-11 3-10 2-20 6-29 12-7 5-14 11-18 19-5 10-3 22-1 33 5 19 17 37 33 49 11 9 25 14 39 16 10 2 20 0 30-1 5 4 8 12 11 17l18 27a136 136 0 0066 50c22 9 45 14 68 19l41 8 17 5v4h-12a535 535 0 01-67-8 255 255 0 01-84-33c-11-7-21-16-29-27a214 214 0 01-16 123c-15 27-40 48-70 57-3 1-7 2-10 1-2 0-2-1-2-3 1-3 4-5 6-6 12-8 26-14 38-23 13-11 24-23 31-38 6-15 10-32 12-49 2-13 3-26 2-40l-4-38-18-36-19 4a88 88 0 01-75-38 93 93 0 01-20-58c0-9 3-18 8-25s12-13 19-17c5-4 12-6 18-8l-9-24c-5-22-5-45-2-67a292 292 0 0163-149c9-10 18-19 29-26 7-4 14-5 20-9 43-19 90-25 137-22z" fill="#000"/><path d="m475 243a276 276 0 01121 23c23 10 45 25 63 43 20 21 33 47 40 75l6 45c2 24 0 48-1 72-1 15-3 29-2 44 0 4 0 8 2 12l-1 20c-2 5-2 10-2 16-2 24-2 49-6 74-1 12-3 25-8 36-3 9-8 17-15 24-12 13-27 24-43 33-19 11-39 16-58 24-5 2-10 4-13 8 8 1 15 0 23-2-5 12-6 24-6 36 0 5-1 11 1 16 3 5 8 9 13 12l35 13c22 8 43 18 65 27 2 4 5 7 6 12 6 11 7 23 3 35-5 13-15 24-27 31-16 11-36 19-55 24a494 494 0 01-235-7c-20-7-40-14-58-24-14-8-29-18-40-31-6-8-11-19-12-29a122 122 0 0086-107c4-24 4-49 0-73 8 11 18 20 29 27l27 14a331 331 0 00124 27h12v-4l-17-5-41-8c-23-5-46-10-68-19-13-6-27-13-39-21-10-9-19-18-27-29l-18-27c-3-5-6-13-11-17-10 1-20 3-30 1-14-2-28-7-39-16a94 94 0 01-33-49c-2-11-4-23 1-33 4-8 11-14 18-19 9-6 19-10 29-12 4-1 8-1 11-3l-1-3-12-1-7-15c-8-23-9-46-7-70a276 276 0 0154-139c10-12 22-23 35-32a277 277 0 01128-30z" fill="#fff"/><g fill="#000"><path d="m260 571c4 0 7 0 11 2 5 1 11 4 14 8 2 3 2 7 0 10-5 6-12 10-16 16 6 4 14 6 21 9 4 1 8 3 11 6l1 3-8-2-24-7c-4-1-8-3-9-7-1-3 1-7 3-10l15-13c-4-7-15-8-19-15zm443 6 2 3 2 16a483 483 0 01-2 89c-2 11-5 23-10 33a198 198 0 01-106 71c-1 14-3 31-2 47l5 5c8 6 18 9 27 12a451 451 0 0168 28c7 4 13 9 18 15-5 1-10-1-16-2-22-9-43-19-65-27l-35-13c-5-3-10-7-13-12-2-5-1-11-1-16 0-12 1-24 6-36-8 2-15 3-23 2 3-4 8-6 13-8 19-8 39-13 58-24 16-9 31-20 43-33 7-7 12-15 15-24 5-11 7-24 8-36 4-25 4-50 6-74 0-6 0-11 2-16z"/><path d="m669 473c8-1 16 1 22 6 3 3 6 7 6 12s-5 9-10 8c-6-1-7-6-11-9-3-2-6-3-10-3 7 10 7 23 3 34-2 9-8 16-16 19-7 3-14 0-18-5-5-5-7-13-7-20l-7 15c-1 2 0 4-3 5-2-6-1-11 1-17 6-16 17-30 32-38 5-4 11-6 18-7zm-212 11c26 1 51 17 63 40 2 2 4 6 3 9 0 2-1 2-3 1-3-2-4-5-6-8l-12-13c2 11 0 23-7 32-6 7-16 11-25 10-13-2-25-13-27-26-3-10 0-21 6-30-14 3-27 9-39 18-2 1-2 4-1 6l8 11c11 10 24 17 37 21l11 4c-5 3-12 3-18 2-13-3-25-10-34-19-6-5-11-12-14-19-1-4-4-6-4-10 0-5 5-9 9-12 15-12 34-18 53-17z"/><path d="m670 530c2 4 0 9-2 12-5 5-12 9-19 10-8 1-17 2-25-2-1-1-4-3-2-5h7c11 1 22-3 31-8z"/><path d="m688 421 1 2-13 14c-7 6-14 10-22 14l-26 19-13 6-9 1-10 20-1 1-1-1c-2-5 0-13 1-19 2-6 2-12 8-16 3-3 7-3 10-5l31-20c8-6 16-11 25-13zm-317 9c9 0 19 0 28 2 9 1 17 4 26 6 5 2 10 1 15 2 8 0 15-1 23 2 8 2 16 3 23 6 12 3 24 5 35 11 0-2 0-4 2-6 2-1 5 0 6 2 5 7 8 17 11 25 1 4-2 9-6 9-5 1-8-4-12-6-5-2-7-7-12-9l-49-14-15-3-15-4-24-9-30-9z"/><path d="m676 575c3-2 7 0 7 4 0 3-3 4-6 4-3-1-4-6-1-8zm-310 8c2-1 5 0 7 1 2 3 2 7 0 10-3 2-6 2-9 0-3-3-2-9 2-11zm258 1c1-1 4-1 5 1 0 2 0 4-2 4-3 1-5-3-3-5zm25 0c5-2 10 3 8 7s-7 6-10 3-2-8 2-10zm-174 2c2-1 6 1 5 3 1 2-1 4-4 4-3-1-3-5-1-7zm216 1c3-2 7 0 7 3 1 3-3 5-6 4-2-1-2-5-1-7zm-279 0c5 0 8 6 6 10-1 2-4 3-6 4-2-1-5-2-6-4-2-4 2-10 6-10zm-73 8c4-1 7 1 7 5-1 4-5 5-8 3-2-2-2-6 1-8zm331 5c4-2 8 1 8 5s-5 7-8 4c-3-2-3-7 0-9zm-220 4c3 0 3 2 5 4l-2 3c-3 3-7 1-8-2 0-3 2-6 5-5zm-66 13c4 0 7 2 8 6 0 4-3 8-7 8-3 0-6-2-7-5-1-4 2-9 6-9z"/><path d="m607 606c0 3-2 6-4 9-4 6-11 10-18 12-5 1-9-2-13 0-4 0-8 1-12-1-2-1-2-4 0-6 3-4 8-7 12-7 4-1 7-1 10 2l1 7c5-2 7-5 11-8z"/><path d="m608 667c2 0 4 0 5 2l-1 15c5-1 10-4 16-2 0 4-4 7-7 9l-35 12c-17 4-34 7-51 8-7 1-15-1-22-3-2-1-4-1-4-4 4-2 9 0 12-1 2-5 7-7 11-10l31-19c3-1 7-4 10-4 4-1 7 4 11 4 8-2 16-7 24-7zm-1 45c1 4 1 8-1 11-2 5-7 9-12 11-6 2-12 3-18 2-2 0-6-2-6-5 1-2 5-2 7-3 8-4 18-7 25-13 2-1 3-3 5-3z"/><path d="m720 460c9 0 17 1 26 4 3 1 5 4 4 8l-4 3-3 3-9 4v21l-2 19-1 6c-1 7-2 14-5 21-3 10-10 17-19 22-5 3-10 5-16 6l-4 1c-12 3-25 2-37 1l-15-2c-7-1-14-6-18-12-5-4-6-9-9-15v-1c-3-7-3-15-4-23v-4a74 74 0 011-16c-8-4-17-3-25-2h-3l-12 5a169 169 0 01-8 52c-3 6-7 11-12 16l-1 1c-6 7-15 11-23 14a256 256 0 01-89 9l-27-6a53 53 0 01-22-17 99 99 0 01-18-50c-1-11-2-21-1-32-6-1-11-2-15-6 0-3 2-5 3-7l11-4 2-2c14-5 28-7 42-10l31-3c16-1 31-2 47-1h10l24 2h3c10 1 20 2 28 6l10 6 6 5 4 5 12 2h5l7 1 12 1 1-5c1-3 2-6 5-9a57 57 0 0126-11l21-4a302 302 0 0018-1l38-2zm-20 12h23c-2 9-3 18-3 28l-2 19c0 8-1 17-4 25-1 6-3 11-8 15-7 6-15 8-23 11-11 1-22 1-32-1l-4-1c-6-1-13-3-16-7-5-6-7-14-9-21v-2c-2-14 0-29 2-43l1-8 9-3 8-2c7-3 13-5 20-5 13-3 25-5 38-5zm-148 18c-3-5-7-7-12-8a554 554 0 00-130-1l-27 4-1 10v14c0 12 1 24 4 36 2 6 5 12 9 17l1 3 9 12c5 4 12 7 18 9a153 153 0 0062 0l26-7c7-2 15-5 20-11 5-5 9-13 11-20l3-21 2-13 1-6c1-6 1-12 4-18z" clip-rule="evenodd" fill-rule="evenodd"/><path d="m593 164c7 0 15 1 22 4l9 5c-1 4-4 4-6 6l-33 14c-14 7-28 16-40 26a169 169 0 01139 50 123 123 0 0129 130c-9 26-28 50-52 65-4 3-8 3-13 3l-1-2c2-15 0-29-3-44-4-26-14-50-30-71 4 21 4 43-1 64-4 20-13 42-28 57-4 4-9 9-14 10-2 0-6 1-6-1l2-16c2-11 2-22 2-34a99 99 0 01-57 50l-9-2c-1-4 0-8 1-13a309 309 0 007-75c-10 20-26 37-43 52-11 9-23 18-36 24-8 4-16 8-25 8-5 0-9-1-13-3a168 168 0 005-55c-1 7-3 15-6 22-3 9-8 17-14 25l-8 6c-2 0-3 1-4-1 1-5 4-9 6-13 7-14 11-29 12-44a273 273 0 01-42 67c-2 1-2 3-2 4l-3 42v46c0 4 1 9-1 12-2 2-5 2-8 3-9 2-17-1-25-4s-15-8-21-15c-6-6-11-13-15-21l-7-6a138 138 0 01-51-111c0-27 8-53 19-77a254 254 0 01181-131c17-2 36-3 53 1l16-17a151 151 0 01114-40z"/></g></g></g></svg>
