<svg xmlns="http://www.w3.org/2000/svg" viewBox="0 0 980 980" fill="none" shape-rendering="auto" width="512" height="512"><desc>"Lorelei" by "Lisa Wischofsky", licensed under "CC0 1.0". / Remix of the original. - Created with dicebear.com</desc><metadata xmlns:dc="http://purl.org/dc/elements/1.1/" xmlns:cc="http://creativecommons.org/ns#" xmlns:rdf="http://www.w3.org/1999/02/22-rdf-syntax-ns#"><rdf:RDF><cc:Work><dc:title>Lorelei</dc:title><dc:creator><cc:Agent rdf:about="https://www.instagram.com/lischi_art/"><dc:title>Lisa Wischofsky</dc:title></cc:Agent></dc:creator><dc:source>https://www.figma.com/community/file/1198749693280469639</dc:source><cc:license rdf:resource="https://creativecommons.org/licenses/zero/1.0/" /></cc:Work></rdf:RDF></metadata><mask id="viewboxMask"><rect width="980" height="980" rx="0" ry="0" x="0" y="0" fill="#fff" /></mask><g mask="url(#viewboxMask)"><rect fill="#d1fae5" width="980" height="980" x="0" y="0" /><g transform="translate(10 -60)"><path d="M486 236c57-2 115 18 159 56a209 209 0 0 1 73 190c-1 4-1 8-4 12l-1-3v-33a215 215 0 0 0-172-206 235 235 0 0 0-270 153c-12 37-14 78-6 116 6-2 12-2 17-2 2 1 5 1 6 3s0 3-1 4l-12 4c-14 3-27 8-37 18a63 63 0 0 0-22 45c0 12 3 24 8 35 8 13 19 24 33 31 18 10 41 13 62 7 2-1 4-2 6-1s3 4 4 6l15 30a215 215 0 0 0 72 63c28 15 59 21 90 26 3 1 8 1 10 4 1 2 0 3-2 4l-11 1a231 231 0 0 1-147-62c5 18 8 36 8 54 0 12-2 23-6 34-5 10-11 18-19 26a196 196 0 0 1-60 43c-1-1 1-2 2-3l17-14c13-12 25-23 35-38a93 93 0 0 0 17-65l-4-39-2-10-12-17c-5-10-11-20-13-31a93 93 0 0 1-96-31 81 81 0 0 1-19-51c0-12 3-23 8-34 9-16 23-29 40-36-8-31-8-62-3-93 8-40 26-77 51-108 45-54 115-87 186-88Z" fill="#000"/><path d="M541 252a214 214 0 0 1 172 206v33c-1 5-2 10-1 15-2 2-3 3-3 5-3 18-1 37 1 55 4 29 6 59 2 88-3 28-13 56-30 79-16 21-38 34-62 43-15 6-30 9-45 13-11 2-22 4-32 8 1 2 4 1 6 2 12 1 24-1 36-2-5 8-8 17-9 26-2 10 2 19 9 26 6 7 15 11 24 14 5 2 11 3 17 3 7 9 13 18 14 30 2 12-1 24-8 34-9 14-22 23-37 30-18 9-38 15-57 18a352 352 0 0 1-192-23c-18-10-38-23-48-42-4-7-8-16-6-24 18-10 33-23 47-38 8-8 14-16 19-26 4-11 6-22 6-34 0-18-3-36-8-54a235 235 0 0 0 147 62l11-1c2-1 3-2 2-4-2-3-7-3-10-4-31-5-62-11-90-26-18-10-36-22-50-37-8-8-16-17-22-26l-15-30c-1-2-2-5-4-6s-4 0-6 1a82 82 0 0 1-95-38c-5-11-8-23-8-35 1-17 9-34 22-45 10-10 23-15 37-18l12-4c1-1 2-2 1-4s-4-2-6-3c-5 0-11 0-17 2-8-38-6-79 6-116a236 236 0 0 1 270-153Z" fill="#ffffff"/><path d="m712 506 3 3 1 13 3 45c3 20 5 40 5 60 0 16-1 32-5 47-6 28-20 56-40 76a174 174 0 0 1-88 46c-1 9-4 16-4 25-1 6 2 10 5 15 8 8 18 14 28 19l18 9c-3 3-8 1-12 2-6 0-12-1-17-3-9-3-18-7-24-14-7-7-11-16-9-26 1-9 4-18 9-26-12 1-24 3-36 2-2-1-5 0-6-2 10-4 21-6 32-8 15-4 30-7 45-13 24-9 46-22 62-43 17-23 27-51 30-79 4-29 2-59-2-88-2-18-4-37-1-55 0-2 1-3 3-5ZM262 566c6 0 12 1 15 6 2 3 2 7 1 10-3 8-9 14-11 22-1 4 0 7 3 9 7 5 16 7 24 10l-2 2h-11c-6-1-12-2-17-5-5-4-9-11-7-18 2-9 9-15 12-23-7-4-14-2-20-8 3-4 8-6 13-5Z" fill="#000"/><path d="m693 510-2 7c-3 5-6 9-11 12s-11 4-17 5l-18 2c-5 0-8 3-10 6l-7 7c-2 1-5-1-4-3 1-8 7-14 11-20 3-3 7-7 12-7l30-5c5-1 10-4 16-4ZM388 514c12-1 21 3 32 4 15 2 30 4 45 4l24 2c8 1 17 0 24 4s12 10 16 16c1 2 2 4 0 7-1 1-3 0-4-1-4-2-7-6-11-7l-12-1-28-1-22-1c-10-1-20-1-30-5-7-2-12-6-19-9l-12-9c-2-1-3-1-3-3Z" fill="#000000"/><path d="M503 394c7 0 14 2 19 6 4 2 7 4 8 8 1 2 0 5-2 6-5 1-10-2-14-3l-9-1c-13-1-26 1-39 4a169 169 0 0 0-60 31c-4 2-9 5-14 4-3 0-3-4-2-7 1-6 7-11 12-16 10-9 23-15 35-20 20-9 44-14 66-12ZM659 396c7-2 14-1 20 3 4 3 8 6 9 11 1 3 1 6-2 7s-7 1-10-1c-5-3-9-6-15-6-5 0-10 1-14 3-8 4-16 11-20 19l-6 9h-3v-6c2-8 7-16 13-22 7-8 17-15 28-17Z" fill="#000000"/><path d="M603 613v1c-4 8-11 15-20 18-3 1-7 1-9-1v-4c7-5 16-9 24-12l5-2Z" fill="#000000"/><path d="M478 678c3-1 5 0 5 2 0 3-3 6-6 7-3-3-2-7 1-9ZM503 690l36 7 30 2c7 1 13 0 19 2-1 2-3 3-6 4a158 158 0 0 1-74-6c-3-1-7-3-8-6-1-2 1-4 3-3Z" fill="#000000"/><path fill-rule="evenodd" clip-rule="evenodd" d="M686 525h37a1149 1149 0 0 0 13 1c7 0 13 1 17 6 3 3 3 7 0 9-4 4-10 4-16 3 2 11 1 21-5 31-4 6-10 9-17 12-14 7-30 11-45 12-9 1-17 0-24-2-7-1-15-3-21-7a35 35 0 0 1-14-24l-2-4-11-2h-1a81 81 0 0 0-23 1h-4l-15 2-2 3-2 4-1 4v3c-2 10-8 18-16 23-9 6-21 9-32 11a183 183 0 0 1-83-10c-6-4-12-8-15-15-4-8-4-17-2-25h-4l-9-1c-3-1-4-3-3-6 2-4 8-6 12-8 6-2 12-4 19-4l55-7c24-3 48-3 72 1l9 4 7 3h3l9 2 23-1 4-1c3 1 5-2 8-4l5-4c7-3 15-4 22-5l6-1 32-3 14-1Zm38 18v8c0 4 0 10-2 14-1 4-4 6-7 8-13 6-27 10-42 12-11 2-22 0-33-3-9-2-16-9-18-18-2-4-2-9-2-13v-3a1133 1133 0 0 0 37-2l17-2a258 258 0 0 1 40-1h10Zm-197 8h-10c-13-1-27 0-40 1l-19 2a1435 1435 0 0 1-41 5l1 8 1 11c1 6 6 8 10 11a86 86 0 0 0 29 8c21 3 41 4 61-3 8-3 15-7 19-14 4-9 4-20 3-29h-14Z" fill="#000000"/><path d="M365 270c2 2 4 4 4 7 0 7-6 12-8 18 0 4 0 8 2 11 5 10 13 15 19 23 3 2 4 7 1 10l-13 8-6 10c-6 12-10 26-12 39l-2 14c-2 4-4 7-8 10-8 4-14 10-20 16-5 7-10 14-13 23-3 11-1 25 2 37 2 0 6 0 8 3-4 7-13 11-21 15 6-1 11-3 17-1 1 1 4 1 3 3-3 6-10 9-16 13-8 3-16 3-24 1l-15-4c-2-1-5-1-7-3-11-11-19-24-24-39a168 168 0 0 1-1-97c9-31 25-59 47-82 12-12 26-22 41-29s30-10 46-6ZM333 526c0 2-2 4-4 5-5 6-14 8-22 9-3 1-8 1-11-1 1-4 5-7 8-9 9-5 19-8 29-4Z" fill="#000000"/></g><g transform="translate(10 -60)"></g></g></svg>