<?xml version="1.0" encoding="UTF-8" standalone="no"?>
<!-- Created with Inkscape (http://www.inkscape.org/) -->

<svg width="31.9999mm" height="32mm" viewBox="0 0 31.9999 32" version="1.1" id="svg1" xmlns="http://www.w3.org/2000/svg" xmlns:svg="http://www.w3.org/2000/svg">
<defs id="defs1" />
<g id="layer1" transform="translate(-77.8537,-195.588)">
<g id="g15" transform="matrix(1.00822,0,0,0.962681,-0.640218,7.29919)">
<path id="path2-6-8" style="fill:#00ac00;fill-opacity:1;stroke-width:1.53281;paint-order:markers fill stroke" d="m 109.593,214.854 c 0,7.718 -7.105,13.974 -15.8689,13.974 -8.7648,0 -15.8702,-6.255 -15.8701,-13.974 1e-4,-4.662 2.9512,-8.69 6.1325,-11.994 3.034,-3.15 13.1802,-8.269 13.4488,-7.103 0.2854,1.239 3.6747,4.778 5.6477,6.84 3.316,3.462 6.51,7.388 6.51,12.257 z" />
<g id="g6-8-4" transform="translate(-6.83935,87.0966)">
<circle style="fill:#1a1a1a;fill-opacity:1;stroke-width:2.11666;paint-order:markers fill stroke" id="path3-9-5" cx="88.7874" cy="121.448" r="3.07927" />
<circle style="fill:#f9f9f9;fill-opacity:1;stroke-width:1.79031;paint-order:markers fill stroke" id="path4-7-0" cx="89.6269" cy="123.236" r="0.917357" />
<circle style="fill:#f9f9f9;fill-opacity:1;stroke-width:2.11666;paint-order:markers fill stroke" id="path5-3-3" cx="88.3876" cy="120.402" r="1.70317" />
</g>
<g id="g5-6-6" transform="translate(-1.19216,81.6428)">
<circle style="fill:#1a1a1a;fill-opacity:1;stroke-width:2.11666;paint-order:markers fill stroke" id="path3-2-1-1" cx="95.1543" cy="127.433" r="3.07927" />
<circle style="fill:#f9f9f9;fill-opacity:1;stroke-width:1.79031;paint-order:markers fill stroke" id="path4-9-2-0" cx="96.0175" cy="129.19" r="0.917357" />
<circle style="fill:#f9f9f9;fill-opacity:1;stroke-width:2.11666;paint-order:markers fill stroke" id="path5-1-9-6" cx="95.0484" cy="126.26" r="1.70317" />
</g>
</g>
</g>
</svg>
