<?xml version="1.0" encoding="UTF-8" standalone="no"?>
<svg
   xml:space="preserve"
   fill-rule="evenodd"
   stroke-linejoin="round"
   stroke-miterlimit="1.414"
   clip-rule="evenodd"
   viewBox="0 0 379.99998 314.42451"
   version="1.1"
   id="svg17"
   sodipodi:docname="ferris.svg"
   width="380"
   height="314.4245"
   inkscape:version="1.3.2 (091e20ef0f, 2023-11-25)"
   xmlns:inkscape="http://www.inkscape.org/namespaces/inkscape"
   xmlns:sodipodi="http://sodipodi.sourceforge.net/DTD/sodipodi-0.dtd"
   xmlns="http://www.w3.org/2000/svg"
   xmlns:svg="http://www.w3.org/2000/svg"><sodipodi:namedview
     id="namedview17"
     pagecolor="#ffffff"
     bordercolor="#000000"
     borderopacity="0.25"
     inkscape:showpageshadow="2"
     inkscape:pageopacity="0.0"
     inkscape:pagecheckerboard="0"
     inkscape:deskcolor="#d1d1d1"
     inkscape:zoom="0.52440488"
     inkscape:cx="831.41866"
     inkscape:cy="693.1667"
     inkscape:window-width="2560"
     inkscape:window-height="1371"
     inkscape:window-x="0"
     inkscape:window-y="0"
     inkscape:window-maximized="1"
     inkscape:current-layer="svg17" /><defs
     id="defs3"><linearGradient
       id="a"
       x1="0"
       x2="1"
       y1="0"
       y2="0"
       gradientTransform="scale(1,-1)"
       gradientUnits="userSpaceOnUse"><stop
         offset="0"
         stop-color="#f74c00"
         id="stop1" /><stop
         offset=".33"
         stop-color="#f74c00"
         id="stop2" /><stop
         offset="1"
         stop-color="#f49600"
         id="stop3" /></linearGradient></defs><g
     stroke="#000000"
     stroke-width="0.05"
     id="g7"
     transform="matrix(0.28309765,0,0,0.28309765,0.00721219,0.00697702)"><path
       fill="#f49400"
       d="m 206.539,457.514 a 10.646,10.646 0 0 0 -8.12,-0.621 l -40.429,13.24 c -5.586,1.823 -8.63,7.834 -6.797,13.417 l 42.117,128.585 c 1.82,5.576 7.824,8.618 13.41,6.794 l 40.429,-13.24 c 5.571,-1.831 8.616,-7.84 6.796,-13.416 L 211.828,463.687 a 10.607,10.607 0 0 0 -5.29,-6.173 z"
       id="path3" /><path
       fill="#ccd1d9"
       d="m 101.599,58.714 a 10.741,10.741 0 0 0 -3.297,-4.85 L 36.714,2.46 A 10.69,10.69 0 0 0 26.587,0.525 10.622,10.622 0 0 0 19.573,8.078 L 0.31,85.948 a 10.6,10.6 0 0 0 0.22,5.858 l 120.518,368.037 c 1.835,5.584 7.838,8.625 13.425,6.801 l 80.853,-26.473 a 10.63,10.63 0 0 0 6.797,-13.417 z"
       id="path4" /><path
       fill="#ffffff"
       d="M 26.587,0.525 A 10.622,10.622 0 0 0 19.572,8.079 L 0.31,85.95 a 10.6,10.6 0 0 0 0.22,5.858 l 120.518,368.036 c 1.835,5.584 7.838,8.625 13.425,6.801 l 80.853,-26.473 a 10.63,10.63 0 0 0 6.797,-13.417 L 101.599,58.714 a 10.741,10.741 0 0 0 -3.297,-4.85 L 36.714,2.46 A 10.686,10.686 0 0 0 26.587,0.525 Z m 3.304,10.11 61.595,51.39 L 212.013,430.06 131.156,456.54 10.636,88.51 Z"
       opacity="0.2"
       id="path5" /><path
       fill="#aab2bc"
       d="m 174.896,453.411 a 10.647,10.647 0 0 1 -13.423,-6.8 L 76.687,187.685 c -1.823,-5.587 1.218,-11.59 6.794,-13.41 5.583,-1.835 11.594,1.21 13.417,6.797 l 84.795,258.921 c 1.822,5.577 -1.22,11.58 -6.797,13.418 z"
       id="path6" /><path
       fill="#f65a00"
       d="m 175.733,558.482 40.779,-80.496 -4.683,-14.3 a 10.612,10.612 0 0 0 -8.281,-7.163 l -37.172,73.374 z m 51.28,-48.449 -40.782,80.503 7.08,21.6 a 10.593,10.593 0 0 0 3.339,4.887 l 39.72,-78.405 z"
       id="path7" /></g><g
     fill-rule="nonzero"
     stroke="#000000"
     stroke-width="0.05"
     id="g16"
     transform="matrix(0.28309765,0,0,0.28309765,0.00721219,0.00697702)"><path
       fill="#a52b00"
       d="m 782.686,705.871 c -121.238,0 -231.39,14.576 -312.94,38.329 l -0.998,199.508 c 81.549,23.754 192.7,41.722 313.938,41.722 138.76,0 288.216,-31.459 371.66,-61.553 l -25.23,-168.817 c -83.443,-30.095 -207.67,-49.189 -346.43,-49.189"
       id="path8" /><path
       fill="#a52b00"
       d="m 1254.092,870.732 -14.211,-29.441 c 0.073,-1.118 0.13,-2.237 0.13,-3.36 0,-33.375 -34.705,-64.135 -93.096,-88.762 v 177.526 c 27.245,-11.492 49.348,-24.317 65.156,-38.125 -4.652,18.707 -20.564,56.553 -33.25,83.168 -20.85,38.066 -28.4,71.203 -27.432,72.844 0.617,1.033 7.73,-9.94 18.219,-27.721 24.41,-34.78 70.664,-101.182 79.909,-118.096 10.472,-19.174 4.575,-28.033 4.575,-28.033 M 334.406,839.877 c 0,6.428 1.293,12.76 3.788,18.97 l -8.511,15.15 c 0,0 -6.818,8.845 5.188,27.507 10.59,16.455 63.635,80.867 91.632,114.598 12.026,17.293 20.179,27.945 20.893,26.916 1.124,-1.633 -7.476,-34.1 -31.36,-71.14 -11.143,-19.896 -24.453,-46.253 -32.441,-65.722 22.303,14.116 51.483,26.92 86.152,37.94 V 735.661 c -83.544,26.548 -135.341,63.433 -135.341,104.216"
       id="path9" /><path
       fill="url(#a)"
       stroke="none"
       d="M 0.991,-0.034 0.933,0.008 V 0.026 L 0.99,0.069 A 0.018,0.018 0 0 1 0.998,0.087 0.022,0.022 0 0 1 0.986,0.103 L 0.92,0.133 A 0.085,0.085 0 0 1 0.916,0.15 L 0.964,0.203 C 0.968,0.208 0.97,0.216 0.968,0.222 A 0.023,0.023 0 0 1 0.953,0.236 L 0.882,0.254 0.875,0.27 0.91,0.33 a 0.018,0.018 0 0 1 0,0.02 C 0.907,0.356 0.9,0.36 0.893,0.361 L 0.82,0.365 0.81,0.379 0.832,0.445 C 0.835,0.452 0.833,0.459 0.828,0.465 A 0.022,0.022 0 0 1 0.809,0.472 L 0.737,0.462 A 0.154,0.154 0 0 1 0.724,0.474 l 0.009,0.07 A 0.018,0.018 0 0 1 0.725,0.562 C 0.719,0.566 0.711,0.568 0.704,0.565 L 0.636,0.542 0.621,0.552 0.615,0.621 a 0.02,0.02 0 0 1 -0.011,0.017 0.026,0.026 0 0 1 -0.021,0 L 0.521,0.602 0.518,0.603 0.406,0.729 c 0,0 -0.012,0.018 -0.047,-0.004 C 0.329,0.705 0.206,0.599 0.141,0.543 A 0.267,0.267 0 0 1 0.09,0.502 c 0.003,-0.003 0.059,0.007 0.127,0.052 0.061,0.034 0.154,0.077 0.163,0.065 0,0 0.016,-0.015 0.026,-0.044 10e-4,0.001 10e-4,0.001 0,0 0,0 -0.315,-0.551 -0.101,-1.106 C 0.311,-0.593 0.275,-0.627 0.275,-0.627 0.266,-0.639 0.178,-0.598 0.12,-0.566 0.055,-0.523 0.002,-0.513 0,-0.516 A 0.245,0.245 0 0 1 0.049,-0.555 C 0.11,-0.608 0.227,-0.707 0.256,-0.726 0.289,-0.748 0.301,-0.73 0.301,-0.73 l 0.101,0.115 0.013,0.002 0.055,-0.045 c 0.005,-0.005 0.013,-0.006 0.02,-0.004 a 0.02,0.02 0 0 1 0.014,0.014 l 0.018,0.068 0.016,0.006 0.064,-0.034 a 0.02,0.02 0 0 1 0.021,0 c 0.006,0.003 0.01,0.009 0.01,0.016 l 0.004,0.07 0.015,0.01 0.069,-0.022 a 0.023,0.023 0 0 1 0.02,0.003 0.02,0.02 0 0 1 0.008,0.019 l -0.011,0.069 0.013,0.012 0.072,-0.008 a 0.023,0.023 0 0 1 0.019,0.007 0.018,0.018 0 0 1 0.003,0.02 l -0.024,0.065 0.01,0.015 0.072,0.005 a 0.02,0.02 0 0 1 0.017,0.011 0.018,0.018 0 0 1 0,0.02 l -0.037,0.06 0.006,0.016 0.07,0.018 a 0.021,0.021 0 0 1 0.015,0.014 0.021,0.021 0 0 1 -0.005,0.02 l -0.049,0.052 0.004,0.017 0.064,0.031 A 0.02,0.02 0 0 1 1,-0.052 c 10e-4,0.007 -0.003,0.014 -0.009,0.018 z M 0.406,0.575 Z"
       transform="matrix(-65.802586,-752.127,-752.127,65.802586,806.66746,1144.5869)"
       id="path10"
       style="fill:url(#a)" /><path
       d="m 862.734,765.957 c 0,0 43.486,-47.615 86.974,0 0,0 34.17,63.492 0,95.234 0,0 -55.912,44.444 -86.974,0 0,0 -37.275,-34.921 0,-95.234"
       id="path11" /><path
       fill="#ffffff"
       d="m 913.08,783.621 c 0,18.541 -10.93,33.572 -24.408,33.572 -13.477,0 -24.406,-15.031 -24.406,-33.572 0,-18.541 10.929,-33.574 24.406,-33.574 13.478,0 24.408,15.033 24.408,33.574"
       id="path12" /><path
       d="m 668.642,752.955 c 0,0 74.596,-33.028 94.956,40.691 0,0 21.327,85.926 -61.26,90.776 0,0 -105.31,-20.283 -33.696,-131.467"
       id="path13" /><path
       fill="#ffffff"
       d="m 706.108,784.838 c 0,19.119 -11.27,34.627 -25.173,34.627 -13.898,0 -25.171,-15.508 -25.171,-34.627 0,-19.124 11.273,-34.627 25.17,-34.627 13.904,0 25.174,15.503 25.174,34.627"
       id="path14" /><path
       d="m 239.342,641.087 c 1.372,1.703 2.19,2.599 2.19,2.599 l 15.67,-142.159 c 150.07,120.53 25.311,210.217 11.377,219.745 l -31.463,-0.883 z"
       id="path15" /><path
       fill="#f65b00"
       stroke="none"
       d="M 200.431,719.027 C 29.598,577.937 171.66,517.363 171.66,517.363 c 6.455,76.698 55.825,132.363 55.825,132.363 14.282,-91.42 16.726,-144.435 16.726,-144.435 158.546,127.355 9.049,222.87 9.049,222.87 8.382,25.104 42.308,51.641 73.795,71.415 l 20.32,76.848 C 200.745,784.554 200.432,719.027 200.432,719.027 Z"
       id="path16" /></g><path
     fill="#f74c00"
     stroke="#000000"
     stroke-width="0.05"
     d="m 73.396315,114.21084 -51.500559,16.86639 c -1.579684,0.51722 -2.440301,2.21666 -1.923082,3.79634 l 2.809461,8.58409 c 0.519484,1.58082 2.21892,2.44172 3.79634,1.92336 L 78.079317,128.5152 a 3.009328,3.009328 0 0 0 1.924214,-3.79832 l -2.810593,-8.58268 c -0.515804,-1.57826 -2.21892,-2.44115 -3.796623,-1.92336 z"
     id="path17" /></svg>
