<svg xmlns="http://www.w3.org/2000/svg" xml:space="preserve" fill-rule="evenodd" stroke-linejoin="round" stroke-miterlimit="1.414" clip-rule="evenodd" viewBox="0 0 1342.706 1110.783"><defs><linearGradient id="a" x1="0" x2="1" y1="0" y2="0" gradientTransform="scale(1 -1)" gradientUnits="userSpaceOnUse"><stop offset="0" stop-color="#f74c00"/><stop offset=".33" stop-color="#f74c00"/><stop offset="1" stop-color="#f49600"/></linearGradient></defs><g stroke="#000" stroke-width=".05"><path fill="#f49400" d="M206.539 457.514a10.646 10.646 0 0 0-8.12-.621l-40.429 13.24c-5.586 1.823-8.63 7.834-6.797 13.417l42.117 128.585c1.82 5.576 7.824 8.618 13.41 6.794l40.429-13.24c5.571-1.831 8.616-7.84 6.796-13.416l-42.117-128.586a10.607 10.607 0 0 0-5.29-6.173z"/><path fill="#ccd1d9" d="M101.599 58.714a10.741 10.741 0 0 0-3.297-4.85L36.714 2.46A10.69 10.69 0 0 0 26.587.525a10.622 10.622 0 0 0-7.014 7.553L.31 85.948a10.6 10.6 0 0 0 .22 5.858l120.518 368.037c1.835 5.584 7.838 8.625 13.425 6.801l80.853-26.473a10.63 10.63 0 0 0 6.797-13.417z"/><path fill="#fff" d="M26.587.525a10.622 10.622 0 0 0-7.015 7.554L.31 85.95a10.6 10.6 0 0 0 .22 5.858l120.518 368.036c1.835 5.584 7.838 8.625 13.425 6.801l80.853-26.473a10.63 10.63 0 0 0 6.797-13.417L101.599 58.714a10.741 10.741 0 0 0-3.297-4.85L36.714 2.46A10.686 10.686 0 0 0 26.587.525zm3.304 10.11 61.595 51.39L212.013 430.06l-80.857 26.48L10.636 88.51Z" opacity=".2"/><path fill="#aab2bc" d="M174.896 453.411a10.647 10.647 0 0 1-13.423-6.8L76.687 187.685c-1.823-5.587 1.218-11.59 6.794-13.41 5.583-1.835 11.594 1.21 13.417 6.797l84.795 258.921c1.822 5.577-1.22 11.58-6.797 13.418z"/><path fill="#f65a00" d="m175.733 558.482 40.779-80.496-4.683-14.3a10.612 10.612 0 0 0-8.281-7.163l-37.172 73.374Zm51.28-48.449-40.782 80.503 7.08 21.6a10.593 10.593 0 0 0 3.339 4.887l39.72-78.405z"/></g><g fill-rule="nonzero" stroke="#000" stroke-width=".05"><path fill="#a52b00" d="M782.686 705.871c-121.238 0-231.39 14.576-312.94 38.329l-.998 199.508c81.549 23.754 192.7 41.722 313.938 41.722 138.76 0 288.216-31.459 371.66-61.553l-25.23-168.817c-83.443-30.095-207.67-49.189-346.43-49.189"/><path fill="#a52b00" d="m1254.092 870.732-14.211-29.441c.073-1.118.13-2.237.13-3.36 0-33.375-34.705-64.135-93.096-88.762v177.526c27.245-11.492 49.348-24.317 65.156-38.125-4.652 18.707-20.564 56.553-33.25 83.168-20.85 38.066-28.4 71.203-27.432 72.844.617 1.033 7.73-9.94 18.219-27.721 24.41-34.78 70.664-101.182 79.909-118.096 10.472-19.174 4.575-28.033 4.575-28.033m-919.686-30.855c0 6.428 1.293 12.76 3.788 18.97l-8.511 15.15s-6.818 8.845 5.188 27.507c10.59 16.455 63.635 80.867 91.632 114.598 12.026 17.293 20.179 27.945 20.893 26.916 1.124-1.633-7.476-34.1-31.36-71.14-11.143-19.896-24.453-46.253-32.441-65.722 22.303 14.116 51.483 26.92 86.152 37.94V735.661c-83.544 26.548-135.341 63.433-135.341 104.216"/><path fill="url(#a)" stroke="none" d="M.991-.034.933.008v.018L.99.069a.018.018 0 0 1 .008.018.022.022 0 0 1-.012.016L.92.133A.085.085 0 0 1 .916.15l.048.053C.968.208.97.216.968.222a.023.023 0 0 1-.015.014L.882.254.875.27.91.33a.018.018 0 0 1 0 .02C.907.356.9.36.893.361L.82.365.81.379l.022.066c.003.007.001.014-.004.02a.022.022 0 0 1-.019.007L.737.462a.154.154 0 0 1-.013.012l.009.07a.018.018 0 0 1-.008.018C.719.566.711.568.704.565L.636.542l-.015.01-.006.069a.02.02 0 0 1-.011.017.026.026 0 0 1-.021 0L.521.602.518.603.406.729S.394.747.359.725C.329.705.206.599.141.543A.267.267 0 0 1 .09.502C.093.499.149.509.217.554.278.588.371.631.38.619c0 0 .016-.015.026-.044.001.001.001.001 0 0 0 0-.315-.551-.101-1.106.006-.062-.03-.096-.03-.096C.266-.639.178-.598.12-.566c-.065.043-.118.053-.12.05a.245.245 0 0 1 .049-.039C.11-.608.227-.707.256-.726.289-.748.301-.73.301-.73l.101.115.013.002.055-.045c.005-.005.013-.006.02-.004a.02.02 0 0 1 .014.014l.018.068.016.006.064-.034a.02.02 0 0 1 .021 0c.006.003.01.009.01.016l.004.07.015.01.069-.022a.023.023 0 0 1 .02.003.02.02 0 0 1 .008.019l-.011.069.013.012.072-.008a.023.023 0 0 1 .019.007.018.018 0 0 1 .003.02l-.024.065.01.015.072.005a.02.02 0 0 1 .017.011.018.018 0 0 1 0 .02l-.037.06.006.016.07.018a.021.021 0 0 1 .015.014.021.021 0 0 1-.005.02L.92-.116l.004.017.064.031A.02.02 0 0 1 1-.052c.001.007-.003.014-.009.018ZM.406.575z" transform="scale(-755 755) rotate(-85 .293 1.341)"/><path d="M862.734 765.957s43.486-47.615 86.974 0c0 0 34.17 63.492 0 95.234 0 0-55.912 44.444-86.974 0 0 0-37.275-34.921 0-95.234"/><path fill="#fff" d="M913.08 783.621c0 18.541-10.93 33.572-24.408 33.572-13.477 0-24.406-15.031-24.406-33.572 0-18.541 10.929-33.574 24.406-33.574 13.478 0 24.408 15.033 24.408 33.574"/><path d="M668.642 752.955s74.596-33.028 94.956 40.691c0 0 21.327 85.926-61.26 90.776 0 0-105.31-20.283-33.696-131.467"/><path fill="#fff" d="M706.108 784.838c0 19.119-11.27 34.627-25.173 34.627-13.898 0-25.171-15.508-25.171-34.627 0-19.124 11.273-34.627 25.17-34.627 13.904 0 25.174 15.503 25.174 34.627"/><path d="M239.342 641.087c1.372 1.703 2.19 2.599 2.19 2.599l15.67-142.159c150.07 120.53 25.311 210.217 11.377 219.745l-31.463-.883z"/><path fill="#f65b00" stroke="none" d="M200.431 719.027C29.598 577.937 171.66 517.363 171.66 517.363c6.455 76.698 55.825 132.363 55.825 132.363 14.282-91.42 16.726-144.435 16.726-144.435 158.546 127.355 9.049 222.87 9.049 222.87 8.382 25.104 42.308 51.641 73.795 71.415l20.32 76.848c-146.63-91.87-146.943-157.397-146.943-157.397Z"/></g><path fill="#f74c00" stroke="#000" stroke-width=".05" d="M259.236 403.408 77.318 462.986c-5.58 1.827-8.62 7.83-6.793 13.41l9.924 30.322c1.835 5.584 7.838 8.625 13.41 6.794l181.919-59.576a10.63 10.63 0 0 0 6.797-13.417l-9.928-30.317c-1.822-5.575-7.838-8.623-13.411-6.794z"/></svg>