<svg xmlns="http://www.w3.org/2000/svg" viewBox="0 0 119.75 125.56"><g transform="translate(-4.25 1.56)"><g fill="#c62828"><path d="M12.53 106.01a6.3 6.3 0 0 1-6.28-6.29V61.34a6.3 6.3 0 0 1 6.28-6.28h3.55v50.96h-3.55z"/><path d="M14.08 57.05v46.96h-1.55a4.3 4.3 0 0 1-4.28-4.29V61.34a4.28 4.28 0 0 1 4.28-4.28h1.55m4-4.01h-5.55a8.29 8.29 0 0 0-8.28 8.28v38.38a8.3 8.3 0 0 0 8.28 8.29h5.55z"/></g><g fill="#c62828"><path d="M112.17 106.01V55.05h3.55a6.3 6.3 0 0 1 6.28 6.28v38.38a6.3 6.3 0 0 1-6.28 6.29h-3.55z"/><path d="M115.72 57.05a4.28 4.28 0 0 1 4.28 4.28v38.38a4.29 4.29 0 0 1-4.28 4.29h-1.55V57.05h1.55m0-4h-5.55v54.96h5.55a8.3 8.3 0 0 0 8.28-8.29V61.34a8.3 8.3 0 0 0-8.28-8.29z"/></g><g fill="#90a4ae"><path d="M22.78 122a5.8 5.8 0 0 1-5.82-5.76V44.46a5.8 5.8 0 0 1 5.82-5.75h40.16V25.8l-1.38-.45a7.65 7.65 0 0 1-5.31-7.26A7.7 7.7 0 0 1 64 10.44a7.7 7.7 0 0 1 7.74 7.65c0 3.3-2.14 6.21-5.31 7.26l-1.38.45v12.9l40.17-.01a5.8 5.8 0 0 1 5.83 5.75l.12 9.98v52.43h-.12v9.37a5.8 5.8 0 0 1-5.83 5.76H22.78Z"/><path d="M64 12.44a5.7 5.7 0 0 1 5.74 5.65c0 2.43-1.58 4.6-3.94 5.36l-1.81.59-1.81-.59a5.66 5.66 0 0 1-3.94-5.36A5.72 5.72 0 0 1 64 12.44m41.22 28.26a3.81 3.81 0 0 1 3.83 3.8l.12 9.91v50.46h-.12v11.37a3.8 3.8 0 0 1-3.82 3.76H22.78a3.8 3.8 0 0 1-3.82-3.76V44.46a3.8 3.8 0 0 1 3.82-3.75h44.27l38.17-.01M64 8.44s-4.76 4.73-9.75 9.65a9.69 9.69 0 0 0 6.69 9.16v9.46H22.78a7.8 7.8 0 0 0-7.82 7.75v71.78a7.8 7.8 0 0 0 7.82 7.76h82.45a7.8 7.8 0 0 0 7.82-7.76v-7.37h.12V54.41l-.12-9.96a7.8 7.8 0 0 0-7.82-7.75l-38.17.01v-9.46a9.69 9.69 0 0 0 6.69-9.16C68.69 13.19 64 8.44 64 8.44Z"/></g><path fill="#fff" stroke="#363636" stroke-miterlimit="10" stroke-width="4" d="M42.64 78.31c6.34 0 11.5-5.16 11.5-11.5s-5.16-11.5-11.5-11.5-11.5 5.16-11.5 11.5 5.16 11.5 11.5 11.5zm42.31-23.03c-6.34 0-11.5 5.16-11.5 11.5s5.16 11.5 11.5 11.5 11.5-5.16 11.5-11.5a11.5 11.5 0 0 0-11.5-11.5zm-1.1 52.27h-39.7a6.27 6.27 0 0 1-6.27-6.27v-.56a6.27 6.27 0 0 1 6.27-6.27h39.71a6.27 6.27 0 0 1 6.27 6.27v.56a6.28 6.28 0 0 1-6.28 6.27z"/><path fill="#363636" stroke="#363636" stroke-miterlimit="10" d="M53.81 95.35h2.64v11.71h-2.64zm9.65 0h2.64v11.71h-2.64zm9.65 0h2.64v11.71h-2.64zm9.65 0h2.64v11.71h-2.64zm-38.6-.02h2.64v11.72h-2.64z"/><circle cx="64" cy="17.97" r="4.03" fill="#c62828"/><path fill="#c62828" d="M58.67 86.83a2.5 2.5 0 0 1-2.23-3.63l2.74-5.41 2.6-4.82a2.5 2.5 0 0 1 4.42.03l5.32 10.17a2.5 2.5 0 0 1-2.22 3.66z"/><path fill="#c1272d" d="M63.99 73.16a1 1 0 0 1 .89.54l2.61 4.98 2.71 5.19a1 1 0 0 1-.89 1.46H58.67a1 1 0 0 1-.89-1.45l2.74-5.41 2.59-4.79a1 1 0 0 1 .88-.52m0-3c-1.47 0-2.82.8-3.52 2.1l-2.59 4.79-.02.03-.02.03-2.74 5.41a3.99 3.99 0 0 0 3.57 5.81h10.64c1.41 0 2.69-.72 3.42-1.93s.78-2.68.12-3.93l-2.71-5.19-2.61-4.98a3.98 3.98 0 0 0-3.54-2.14z"/></g><g fill="#90a4ae" paint-order="markers fill stroke"><path d="m84.36 35.62-24.34-24.9 4.61-4.88 24.34 24.9Z"/><path d="M30.36 30.53 55.26 6.2l4.88 4.61-24.9 24.34Z"/><path d="m54.87 6.58 5.26-5.26 5.38 5.38-5.26 5.27z"/></g></svg>