<?xml version="1.0" encoding="UTF-8" standalone="no"?>
<!-- Created with Inkscape (http://www.inkscape.org/) -->

<svg width="31.9999mm" height="32mm" viewBox="0 0 31.9999 32" version="1.1" id="svg1" inkscape:version="1.3.2 (091e20ef0f, 2023-11-25)" sodipodi:docname="Slime.svg" xmlns:inkscape="http://www.inkscape.org/namespaces/inkscape" xmlns:sodipodi="http://sodipodi.sourceforge.net/DTD/sodipodi-0.dtd" xmlns="http://www.w3.org/2000/svg" xmlns:svg="http://www.w3.org/2000/svg">
<sodipodi:namedview id="namedview1" pagecolor="#ffffff" bordercolor="#000000" borderopacity="0.25" inkscape:showpageshadow="2" inkscape:pageopacity="0.0" inkscape:pagecheckerboard="0" inkscape:deskcolor="#d1d1d1" inkscape:document-units="mm" inkscape:zoom="1.43427" inkscape:cx="-162.8" inkscape:cy="-112.601" inkscape:window-width="2560" inkscape:window-height="1371" inkscape:window-x="0" inkscape:window-y="0" inkscape:window-maximized="1" inkscape:current-layer="layer1" />
<defs id="defs1" />
<g inkscape:label="Layer 1" inkscape:groupmode="layer" id="layer1" transform="translate(-77.8537,-195.588)">
<ellipse style="fill:green;fill-opacity:0;stroke-width:2.11666;paint-order:markers fill stroke" id="path1" cx="105.421" cy="93.7523" rx="19.1699" ry="18.8568" />
<g id="g15" transform="matrix(1.00822,0,0,0.962681,-0.640218,7.29919)">
<path id="path2-6-8" style="fill:#00ac00;fill-opacity:1;stroke-width:1.53281;paint-order:markers fill stroke" d="m 109.593,214.854 c 0,7.718 -7.105,13.974 -15.8689,13.974 -8.7648,0 -15.8702,-6.255 -15.8701,-13.974 1e-4,-4.662 2.9512,-8.69 6.1325,-11.994 3.034,-3.15 13.1802,-8.269 13.4488,-7.103 0.2854,1.239 3.6747,4.778 5.6477,6.84 3.316,3.462 6.51,7.388 6.51,12.257 z" sodipodi:nodetypes="sssssss" />
<g id="g6-8-4" transform="translate(-4.12232,87.0966)">
<circle style="fill:#1a1a1a;fill-opacity:1;stroke-width:2.11666;paint-order:markers fill stroke" id="path3-9-5" cx="88.7874" cy="121.448" r="3.07927" />
<circle style="fill:#f9f9f9;fill-opacity:1;stroke-width:1.79031;paint-order:markers fill stroke" id="path4-7-0" cx="89.6269" cy="123.236" r="0.917357" />
<circle style="fill:#f9f9f9;fill-opacity:1;stroke-width:2.11666;paint-order:markers fill stroke" id="path5-3-3" cx="88.3876" cy="120.402" r="1.70317" />
</g>
<g id="g5-6-6" transform="translate(1.52488,81.6428)">
<circle style="fill:#1a1a1a;fill-opacity:1;stroke-width:2.11666;paint-order:markers fill stroke" id="path3-2-1-1" cx="95.1543" cy="127.433" r="3.07927" />
<circle style="fill:#f9f9f9;fill-opacity:1;stroke-width:1.79031;paint-order:markers fill stroke" id="path4-9-2-0" cx="96.0175" cy="129.19" r="0.917357" />
<circle style="fill:#f9f9f9;fill-opacity:1;stroke-width:2.11666;paint-order:markers fill stroke" id="path5-1-9-6" cx="95.0484" cy="126.26" r="1.70317" />
</g>
</g>
</g>
</svg>
