<?xml version="1.0" encoding="UTF-8" standalone="no"?>
<!-- Created with Inkscape (http://www.inkscape.org/) -->

<svg version="1.1" id="svg1" width="1500" height="900" viewBox="0 0 1500 900" sodipodi:docname="box-apples-18.svg" inkscape:version="1.3.2 (091e20ef0f, 2023-11-25)" xmlns:inkscape="http://www.inkscape.org/namespaces/inkscape" xmlns:sodipodi="http://sodipodi.sourceforge.net/DTD/sodipodi-0.dtd" xmlns="http://www.w3.org/2000/svg" xmlns:svg="http://www.w3.org/2000/svg">
<defs id="defs1" />
<sodipodi:namedview id="namedview1" pagecolor="#ffffff" bordercolor="#000000" borderopacity="0.25" inkscape:showpageshadow="2" inkscape:pageopacity="0.0" inkscape:pagecheckerboard="0" inkscape:deskcolor="#d1d1d1" inkscape:zoom="0.433408" inkscape:cx="464.919" inkscape:cy="684.112" inkscape:window-width="2560" inkscape:window-height="1371" inkscape:window-x="0" inkscape:window-y="0" inkscape:window-maximized="1" inkscape:current-layer="g1" />
<g inkscape:groupmode="layer" inkscape:label="Image" id="g1" transform="translate(-529,417)">
<path style="fill:black;stroke-width:8.92857" d="m 900.947,388.464 -1.546,-1.65 V 183.315 c 0,-163.5272 0.161,-203.6002 0.884,-204.0232 1.697,-0.989 6.871,-4.538 25.875,-17.75 17.045,-11.851 19.065,-13.464 19.676,-15.714 2.159,-7.956 14.198,-22.375 23.232,-27.825 7.623,-4.6 15.304,-6.092 22.611,-4.395 2.59,0.598 2.98,0.366 24.281,-14.3778 11.91,-8.244 22.94,-16.035 24.52,-17.314 1.57,-1.279 4.94,-3.61 7.5,-5.18 2.55,-1.57 49.4,-33.839 104.11,-71.708 54.71,-37.868 100.94,-69.775 102.73,-70.904 l 3.26,-2.054 8.4,0.5 8.4,0.5 1.22,-1.855 c 2.39,-3.651 10.87,-12.095 14.38,-14.317 5.83,-3.698 9.29,-4.745 15.66,-4.737 3.17,0 7.51,0.348 9.65,0.768 4.5,0.883 4.67,0.741 5.34,-4.287 0.25,-1.882 1.05,-4.163 1.79,-5.071 1.2,-1.491 1.5,-1.557 3.12,-0.687 0.99,0.527 2.12,0.759 2.52,0.518 0.89,-0.545 4.55,0.777 5.24,1.883 0.28,0.437 0.71,2.702 0.98,5.025 l 0.5,4.223 6.18,-0.491 c 7.64,-0.607 13.12,0.643 20.8,4.739 6.04,3.223 9.78,6.539 12.97,11.504 l 2.18,3.393 h 35.31 c 27.63,0 35.36,-0.197 35.55,-0.893 0.18,-0.491 0.63,-3.465 1.11,-6.607 1.56,-10.296 6.2,-19.114 14.95,-28.419 4.97,-5.283 9.75,-8.724 15.02,-10.789 3.65,-1.432 12.51,-1.655 18.58,-0.465 4.5,0.884 4.67,0.741 5.34,-4.286 0.27,-1.882 1.06,-4.164 1.79,-5.071 1.21,-1.491 1.51,-1.557 3.13,-0.687 0.98,0.526 2.12,0.759 2.52,0.518 0.89,-0.545 4.55,0.776 5.23,1.883 0.27,0.437 0.72,2.701 0.99,5.025 l 0.54,4.223 6.18,-0.491 c 7.68,-0.607 13.09,0.643 21.04,4.862 6.44,3.42 10.17,7.123 15,14.879 4.26,6.865 6.09,12.041 7.08,20.033 0.8,6.24 0.8,6.29 2.78,6.29 1.56,0 2.12,-0.411 2.47,-1.804 0.54,-2.33 2.46,-3.294 6,-3.086 1.55,0.09 3.03,-0.09 3.29,-0.304 0.94,-0.935 3.04,0.946 3.52,3.152 l 0.53,2.256 34.39,-0.393 c 37.26,-0.419 37.78,-0.375 38.72,3.366 0.27,0.954 0.1,2.796 -0.27,4.094 -0.44,1.35 -0.9,17.167 -1.14,37.002 -0.27,19.054 -1.21,83.5 -2.18,143.2138 -0.96,59.714 -1.97,123.306 -2.24,141.316 l -0.53,32.745 -3.34,4.041 c -1.83,2.2222 -20.37,26.2202 -41.19,53.3272 -42.68,55.562 -87.64,114.059 -141.36,183.965 -20.1,26.15 -37.14,48.49 -37.85,49.64 -0.73,1.16 -1.8,2.51 -2.39,3 -0.86,0.71 -54.37,0.89 -262.25,0.89 H 902.495 Z m 519.873,-18.03 c 0,-12.09 -0.1,-12.5 -1.36,-11.79 -0.93,0.53 -2.06,0.44 -3.59,0 -3.1,-1.08 -4.67,-0.54 -10.59,3.92 -5.29,3.94 -13.03,7.34 -18.34,8.04 -2.19,0.27 -4.41,-0.18 -8.98,-1.86 -12.17,-4.5 -11.75,-4.42 -16.1,-2.8 -5.22,1.96 -7.12,1.65 -7.12,-1.13 0,-1.77 0.47,-2.36 2.67,-3.4 1.46,-0.71 4.09,-1.63 5.83,-2.1 3.37,-0.9 3.03,-0.99 18.46,4.57 l 4.09,1.47 5.55,-1.96 c 3.23,-1.15 7.6,-3.46 10.46,-5.53 7.81,-5.67 12.3,-6.86 16.91,-4.47 l 2.11,1.09 v -13.59 -13.592 h -46.08 -46.07 v 22.852 22.86 H 1160.46 992.245 v -12.37 -12.37 l -6.133,-4.17 c -8.51,-5.78 -11.569,-10.85 -7.353,-12.19 1.004,-0.35 2.423,0.54 5.188,3.01 2.094,1.9 4.859,4.06 6.145,4.8 l 2.337,1.34 -0.312,-6.5 c -0.17,-3.584 -0.5,-6.7 -0.732,-6.932 -0.232,-0.268 -19.42,-0.179 -42.639,0.09 l -42.216,0.536 v 27.386 27.39 h 257.14 257.15 z m 61.83,-66.043 c 29.41,-38.304 78.07,-101.625 108.14,-140.714 l 54.67,-71.0722 0.1,-12.143 c 0,-6.678 0,-11.5 -0.27,-10.714 -0.44,1.661 -1.99,3.598 -15.94,20.039 -5.7,6.711 -15.65,18.4472 -22.11,26.0812 -6.46,7.634 -16.12,19.023 -21.46,25.309 -5.33,6.285 -14.99,17.696 -21.43,25.357 -6.46,7.66 -15.16,17.946 -19.36,22.857 -4.2,4.911 -13.32,15.678 -20.3,23.928 -6.96,8.25 -16.6,19.661 -21.41,25.358 -4.81,5.696 -23.73,28.035 -42.03,49.642 l -33.3,39.286 v 23.889 c 0,13.24 0.25,23.59 0.59,23.22 0.34,-0.36 24.67,-32.02 54.08,-70.323 z m -160.41,28.323 v -33.832 l -4.82,-0.447 c -2.65,-0.267 -7.01,-0.446 -9.69,-0.446 -4.69,0 -7.41,-0.804 -8.51,-2.437 -0.29,-0.447 -0.53,-5.045 -0.54,-10.25 v -9.465 h -150 -149.995 v 45.357 45.36 h 161.785 161.79 z m -236.33,26.03 c -0.8,-0.53 -0.6,-2.21 1.22,-9.81 4.53,-18.927 7.31,-31.954 7.73,-36.213 0.5,-5.062 1.16,-6.187 3.59,-6.187 2.53,0 4.28,1.143 4.78,3.125 l 0.44,1.741 3.75,-1.473 c 5.35,-2.09 13.96,-2.161 16.69,-0.179 3.15,2.348 4.69,4.902 5.09,8.455 0.85,7.527 -4.89,14.981 -15.62,20.291 -6.55,3.25 -11.48,4.3 -14.79,3.14 -2.56,-0.9 -2.25,-1.47 -4.76,9.02 -1.59,6.64 -2.11,7.9 -3.44,8.25 -2.16,0.54 -3.53,0.54 -4.68,-0.17 z m 23.46,-25.11 c 2.54,-1.21 5.96,-3.279 7.58,-4.618 7.16,-5.857 7.01,-14.625 -0.24,-14.625 -1.69,0 -4.92,1.098 -8.79,3 l -6.13,2.991 -1.65,6.473 c -0.91,3.554 -1.8,6.839 -1.97,7.299 -0.17,0.44 0.27,0.98 0.99,1.17 3.14,0.8 5.89,0.35 10.21,-1.69 z m 23.68,25.11 c -0.81,-0.53 -0.6,-2.21 1.22,-9.81 4.53,-18.927 7.31,-31.954 7.73,-36.213 0.5,-5.062 1.16,-6.187 3.59,-6.187 2.54,0 4.29,1.143 4.78,3.125 l 0.44,1.741 3.75,-1.473 c 5.35,-2.09 13.97,-2.161 16.69,-0.179 3.16,2.348 4.7,4.902 5.1,8.455 0.84,7.527 -4.89,14.981 -15.63,20.291 -6.55,3.25 -11.47,4.3 -14.79,3.14 -2.56,-0.9 -2.25,-1.47 -4.76,9.02 -1.59,6.64 -2.11,7.9 -3.43,8.25 -2.17,0.54 -3.54,0.54 -4.69,-0.17 z m 23.46,-25.11 c 2.55,-1.21 5.96,-3.279 7.59,-4.618 7.15,-5.857 7.01,-14.625 -0.25,-14.625 -1.69,0 -4.92,1.098 -8.79,3 l -6.12,2.991 -1.66,6.473 c -0.91,3.554 -1.79,6.839 -1.97,7.299 -0.17,0.44 0.27,0.98 0.99,1.17 3.14,0.8 5.89,0.35 10.21,-1.69 z m 29.22,8.52 c -2.07,-2.06 -1.83,-3.4 5.05,-27.951 3.16,-11.294 5.75,-21.196 5.75,-22 0,-0.803 0.49,-2.401 1.09,-3.562 1.27,-2.456 3.64,-2.795 5.98,-0.893 l 1.51,1.25 -5.72,20.545 c -3.15,11.294 -6.05,22.861 -6.45,25.691 -1.13,7.97 -3.69,10.42 -7.21,6.89 z m -154.29,-1.09 c -1.65,-1.99 -1.15,-9.24 1,-14.396 5.17,-12.393 20.56,-31.197 29.05,-35.474 8.2,-4.142 15.25,-2.901 18.49,3.25 3.27,6.224 1.14,21.17 -5.5,38.63 -2.97,7.83 -4.53,9.65 -7.57,8.89 -2.83,-0.72 -2.92,-3.14 -0.36,-9.09 1.99,-4.617 4.98,-13.644 4.98,-15.046 0,-0.625 -3.41,-0.178 -14.21,2.009 -5.54,1.116 -9.84,1.616 -11.49,1.34 l -2.63,-0.447 -1.98,4.402 c -1.08,2.42 -2.4,6.852 -2.92,9.832 -0.95,5.48 -2.1,7.28 -4.67,7.28 -0.66,0 -1.65,-0.53 -2.19,-1.18 z m 33.57,-29.218 c 4.18,-0.625 7.88,-1.411 8.23,-1.75 0.36,-0.357 0.68,-3.027 0.72,-5.946 0.1,-4.295 -0.19,-5.607 -1.29,-6.822 -3.12,-3.455 -10.08,-0.446 -17.58,7.581 -7.38,7.91 -7.42,8.053 -2.07,8.053 2.42,0 7.82,-0.535 11.99,-1.116 z m 147.19,29.728 c -4.9,-1.49 -7.36,-4.67 -6.99,-8.99 0.12,-1.318 0,-2.631 -0.3,-2.916 -1.06,-1.054 -0.47,-3.786 1.09,-5.054 0.88,-0.714 2.79,-2.848 4.23,-4.741 6.35,-8.304 14.97,-12.116 21.93,-9.688 2.42,0.804 4.38,3.75 4.37,6.492 0,2.375 -2.47,6.071 -5.17,7.741 -2.56,1.58 -9.63,3.776 -15.18,4.723 -3.49,0.625 -3.57,0.714 -3.57,3.093 0,3.35 2.15,4.47 7.86,4.08 3.1,-0.18 5.72,-1.02 9.45,-2.9 2.83,-1.42 5.62,-2.595 6.2,-2.595 1.63,0 2.06,1.335 1.14,3.545 -2.12,5.11 -17.44,9.52 -25.05,7.21 z m 10.43,-19.719 c 4.65,-1.196 7.21,-3.125 6.52,-4.902 -1,-2.607 -7.24,-0.714 -11.15,3.42 -2.91,3.054 -2.24,3.268 4.63,1.482 z m 24.62,19.139 c -1.38,-0.71 -2.58,-1.73 -2.68,-2.32 -0.38,-2.25 0.97,-2.87 6.65,-3.1 3.79,-0.18 6.79,-0.72 9.06,-1.75 5.28,-2.335 4.56,-3.96 -3.09,-6.951 -5.43,-2.134 -7.63,-4.071 -8.23,-7.241 -0.62,-3.295 1.97,-6.545 8.13,-10.188 5.14,-3.044 9.28,-4.08 13.31,-3.321 4.36,0.804 6.02,4.071 3.68,7.241 -1,1.357 -1.07,1.357 -3.53,0 -1.74,-0.929 -3.22,-1.196 -4.87,-0.893 -3.29,0.625 -9.86,4.527 -9.86,5.848 0,0.625 1.2,1.581 2.67,2.179 12.31,4.982 13.51,6.25 11.34,11.916 -1.39,3.66 -5.16,6.33 -11.77,8.38 -5.58,1.72 -7.61,1.75 -10.81,0.18 z M 992.245,295.105 v -25.714 h 156.245 156.25 l 11.97,11.919 11.96,11.911 v 7.089 7.09 l 1.69,-1.099 c 0.93,-0.625 3.54,-1.642 5.8,-2.303 5.11,-1.482 9.92,-0.714 17.7,2.83 3.85,1.75 6.74,2.509 11.03,2.893 l 5.81,0.536 3.23,-2.973 c 3.85,-3.554 6.39,-3.741 6.76,-0.536 0.39,3.455 -6.85,9.214 -11.59,9.205 -5.47,0 -12.62,-1.598 -18.14,-4.035 -6.81,-3.009 -11.45,-3.465 -15.65,-1.536 -3.16,1.455 -6.64,6.044 -6.64,8.768 v 1.893 l 32.26,-0.447 c 17.75,-0.268 38.48,-0.446 46.07,-0.446 h 13.82 v -60.348 -60.358 h -9.65 -9.64 v 21.809 c 0,24.718 -0.21,26.031 -4.65,27.879 -2.17,0.911 -7.13,1.027 -33.41,0.714 -16.98,-0.178 -31.83,-0.268 -33.01,-0.268 -1.18,0 -16.05,0 -33.04,0 -37.2,0 -29.58,0 -66.78,0 -16.99,0 -31.86,0 -33.04,0 -1.18,0 -16.52,0 -34.11,0 -17.58,0 -32.92,0 -34.1,0 -1.18,0 -16.13,0 -33.22,0 -38.45,0 -30.7,0 -66.96,0 -16.99,0 -31.857,0 -33.036,0 -1.179,0 -15.804,0 -32.5,0.268 -33.516,0.357 -34.871,0.268 -37.174,-3.527 -1.301,-2.134 -1.392,-3.741 -1.395,-24.607 v -22.321 h -9.288 -9.286 v 60.714 60.714 h 42.857 42.857 z m -53.959,-10.786 c -5.945,-1.375 -11.056,-7.696 -11.024,-13.651 0,-8.027 6.61,-14.295 14.983,-14.295 6.075,0 11.25,3.17 13.65,8.375 5.021,10.875 -5.343,22.393 -17.609,19.571 z m 7.139,-8.08 c 4.348,-1.821 5.363,-6.679 2.08,-9.964 -4.093,-4.098 -12.402,-1.518 -12.402,3.839 0,3.089 1.153,4.938 3.806,6.089 2.891,1.259 3.571,1.268 6.516,0 z m 437.145,7.366 c -5.94,-1.375 -11.05,-7.696 -11.02,-13.652 0,-8.026 6.61,-14.294 14.98,-14.294 6.07,0 11.25,3.169 13.65,8.375 5.02,10.875 -5.34,22.393 -17.61,19.571 z m 7.14,-8.08 c 4.35,-1.822 5.36,-6.679 2.08,-9.965 -4.09,-4.098 -12.4,-1.517 -12.4,3.84 0,3.089 1.15,4.937 3.8,6.089 2.89,1.259 3.58,1.268 6.52,0 z m 53.3,24.58 c 11.51,-13.723 44.25,-52.545 57.83,-68.571 3.82,-4.518 16.03,-18.982 27.13,-32.143 11.09,-13.161 23.3,-27.625 27.12,-32.143 3.82,-4.518 14.27,-16.893 23.22,-27.5 8.96,-10.607 21.18,-25.071 27.16,-32.143 14.1,-16.6702 34.42,-40.7442 37.07,-43.9312 1.15,-1.373 2.27,-2.444 2.5,-2.379 0.27,0.09 0.45,-2.505 0.54,-5.714 0,-3.208 0.44,-21.101 0.91,-39.762 0.45,-18.65998 0.71,-36.026 0.62,-38.591 l -0.17,-4.662 -12.5,13.268 c -46.92,49.804 -140.78,149.3742 -156.2,165.7002 -10.19,10.803 -25.66,27.196 -34.36,36.428 l -15.84,16.786 v 55.42 c 0,30.473 0.21,55.634 0.48,55.91 0.62,0.625 0.62,0.625 14.56,-15.973 z m 8.03,-25.723 c -5.89,-2.366 -4.5,-11.795 3.61,-24.447 3.01,-4.705 7.88,-8.625 17.17,-13.83 7.86,-4.402 10.03,-7 13.65,-16.337 1.51,-3.892 3.3,-7.291 4.16,-7.892 3.03,-2.125 7.61,-0.831 7.61,2.158 0,1.707 -2.01,3.425 -3.57,3.045 -0.44,-0.107 -1.68,2.125 -2.79,4.954 -4.24,10.76 -7.21,14.126 -17.53,19.876 -8.43,4.687 -13.71,9.893 -17.02,16.768 -2.79,5.812 -3.94,10 -2.75,10 1.19,0 5.85,-5.161 6.88,-7.617 1.72,-4.116 6.78,-5.035 6.78,-1.232 0,3.679 -7.41,12.92 -11.65,14.518 -2.33,0.893 -2.47,0.893 -4.55,0 z m 70.25,-129.038 c -0.27,-0.259 -0.45,-1.342 -0.45,-2.398 0,-2.494 6.57,-9.719 14.5,-15.946 7.68,-6.027 9.47,-8.009 14.95,-16.538 5.5,-8.561 7.57,-10.4672 16.09,-14.8682 3.98,-2.055 7.14,-4.22 8.07,-5.542 1.71,-2.394 3.92,-2.595 5.25,-0.473 0.63,0.975 0.45,1.858 -0.62,3.929 -1.15,2.149 -2.75,3.368 -8.22,6.242 -9.46,4.9782 -10.64,5.9492 -14.28,11.7432 -5.97,9.495 -9.93,14.212 -15.54,18.484 -3.04,2.322 -8.03,6.837 -11.08,10.033 -5.04,5.279 -7.29,6.672 -8.63,5.335 z m 38.38,-56.9832 c -0.9,-2.269 0.27,-3.684 5.31,-6.45 7.79,-4.292 17.82,-12.906 18.7,-16.059 0.35,-1.393 0.71,-2.947 0.71,-3.454 0,-3.532 6.49,-11.178 13.01,-15.345 2.9,-1.858 5.37,-4.434 9.14,-9.567 2.84,-3.863 6.15,-8.068 7.36,-9.345 2.44,-2.572 5.07,-3.017 6.12,-1.038 0.54,1.043 -0.8,3.228 -7.05,11.608 -6.35,8.462 -8.52,10.815 -12.04,13.05 -5.16,3.266 -9.89,8.216 -10.51,10.981 -1.29,5.69 -1.87,7.333 -3.2,9.016 -2.82,3.593 -14.4,12.686 -19.28,15.141 -5.32,2.682 -7.65,3.094 -8.27,1.462 z M 1317.24,291.337 c 0,-0.09 -2.73,-2.91 -6.07,-6.232 l -6.07,-6.036 v 6.233 6.232 h 6.07 c 3.34,0 6.07,-0.09 6.07,-0.179 z M 991.45,242.703 c 0.589,-0.714 0.759,-12.187 0.625,-41.607 l -0.187,-40.634 h -30 -30 l -0.187,41.026 c -0.143,32.349 0,41.144 0.714,41.599 0.491,0.357 13.797,0.536 29.562,0.625 23.33,0 28.812,-0.178 29.47,-0.964 z m -43.347,-4.169 c -1.424,-1.42 -0.981,-3.027 1.498,-5.429 l 2.355,-2.286 h 8.745 c 7.224,0 9.213,0.268 11.442,1.375 5.637,2.875 5.795,6 0.339,6.741 -5.971,0.804 -23.449,0.536 -24.382,-0.446 z m -5.687,-5.688 c -0.643,-0.625 -0.884,-4.652 -0.884,-14.619 0,-11.533 0.179,-13.914 1.122,-14.857 1.671,-1.669 2.392,-1.418 5.499,1.914 l 2.832,3.035 -0.375,9.897 c -0.366,9.63 -0.429,9.969 -2.479,12.496 -2.254,2.795 -4.291,3.554 -5.713,2.134 z m 32.247,-1.812 -2.418,-2.634 v -8.455 c 0,-7.968 0.125,-8.694 2.14,-12.691 2.217,-4.39 4.085,-6.027 6.029,-5.282 1.814,0.697 2.054,3.263 1.517,16.242 -0.661,16.034 -2.061,18.507 -7.268,12.82 z m -32.01,-31.337 c -0.94,-0.941 -1.122,-3.291 -1.122,-14.5 0,-9.453 0.25,-13.629 0.857,-14.235 1.615,-1.615 3.979,-0.93 6.234,1.806 2.176,2.64 2.195,2.734 2.195,11.1 0,8.903 -0.897,12.134 -4.315,15.552 -1.693,1.693 -2.383,1.742 -3.849,0.277 z m 33.054,-1.853 c -3.071,-3.327 -3.179,-4.164 -2.107,-16.372 0.446,-5.116 0.866,-6.563 2.512,-8.722 2.459,-3.224 4.349,-3.902 6.205,-2.223 1.244,1.125 1.361,1.977 1.071,7.742 -0.178,3.564 -0.348,9.452 -0.375,13.086 0,5.614 -0.268,6.822 -1.479,8.036 -2.01,2.01 -2.712,1.824 -5.824,-1.547 z M 950.52,171.011 c -4.437,-2.499 -5.471,-4.016 -3.846,-5.641 1.002,-1.001 3.374,-1.244 15,-1.536 12.132,-0.304 13.928,-0.206 14.771,0.812 1.347,1.624 0.473,4.057 -2.224,6.176 -2.11,1.659 -2.904,1.799 -11.23,1.978 -8.639,0.187 -9.086,0.125 -12.471,-1.786 z m 108.07,71.692 c 0.59,-0.714 0.76,-12.187 0.63,-41.607 l -0.19,-40.634 h -30 -29.999 l -0.187,41.026 c -0.143,32.349 0,41.144 0.714,41.599 0.492,0.357 13.792,0.536 29.562,0.625 23.33,0 28.81,-0.178 29.47,-0.964 z m -42.77,-3.66 c -1.31,-1.581 -0.35,-4.125 2.29,-6.108 2.12,-1.58 3.13,-1.776 10.21,-1.955 7.46,-0.178 8.05,-0.09 11.78,1.866 4.31,2.25 5.48,4.616 3.15,6.331 -1.97,1.437 -26.22,1.321 -27.43,-0.179 z m -5.64,-5.625 c -1.15,-1.393 -1.19,-28.048 0,-29.435 1.43,-1.716 3.25,-1.154 5.95,1.838 l 2.58,2.86 v 8.879 c 0,9.599 -0.51,11.849 -3.39,14.867 -2.05,2.151 -3.85,2.5 -5.1,0.991 z m 32.12,-1.688 c -2.18,-2.643 -2.2,-2.741 -2.2,-11.094 0,-7.942 0.13,-8.673 2.14,-12.667 3,-5.937 6.53,-7.362 7.61,-3.068 0.84,3.329 -0.48,26.133 -1.6,27.883 -1.5,2.33 -3.45,1.982 -5.95,-1.054 z m -32.13,-31.181 c -0.57,-0.688 -0.75,-5.313 -0.62,-15.179 l 0.2,-14.193 2.15,-0.215 c 1.68,-0.169 2.69,0.348 4.64,2.367 l 2.49,2.578 -0.15,8.802 c -0.13,7.59 -0.38,9.182 -1.73,11.561 -3.01,5.265 -5.09,6.544 -6.97,4.275 z m 33.31,-2.051 -2.83,-3.036 0.38,-9.052 c 0.4,-9.389 0.86,-11.042 3.93,-14.341 2.14,-2.292 3.73,-2.483 5.39,-0.651 0.97,1.071 1.14,2.43 0.9,7.321 -0.16,3.304 -0.33,9.14 -0.37,12.971 -0.1,5.956 -0.28,7.171 -1.5,8.392 -2.01,2.015 -2.7,1.826 -5.9,-1.607 z m -25.31,-26.671 c -4.11,-1.992 -5.33,-4.054 -3.48,-5.908 0.99,-0.986 3.33,-1.206 14.77,-1.393 14.28,-0.232 15.64,0 15.64,2.892 0,0.785 -1.19,2.511 -2.64,3.841 l -2.64,2.418 h -8.96 c -8.09,0 -9.34,-0.206 -12.69,-1.824 z m 107.57,70.876 c 0.58,-0.714 0.75,-12.187 0.62,-41.607 l -0.19,-40.634 h -30 -30 l -0.18,41.026 c -0.15,32.349 0,41.144 0.71,41.599 0.49,0.357 13.8,0.536 29.56,0.625 23.33,0 28.81,-0.178 29.47,-0.964 z m -43.35,-3.455 c -1.43,-1.42 -0.98,-3.027 1.5,-5.429 l 2.35,-2.285 h 8.75 c 7.22,0 9.21,0.268 11.44,1.375 5.64,2.875 5.79,6 0.34,6.741 -5.97,0.803 -23.45,0.535 -24.38,-0.447 z m -5.69,-5.688 c -0.64,-0.625 -0.88,-4.651 -0.88,-14.618 0,-11.534 0.18,-13.915 1.12,-14.857 1.67,-1.67 2.39,-1.419 5.5,1.913 l 2.83,3.036 -0.38,9.896 c -0.36,9.63 -0.42,9.97 -2.47,12.497 -2.26,2.794 -4.29,3.553 -5.72,2.133 z m 32.17,-1.848 -2.49,-2.678 0.34,-8.96 c 0.32,-8.465 0.47,-9.186 2.64,-13.036 1.75,-3.095 2.7,-4.076 3.93,-4.076 3.16,0 3.33,1.025 2.61,15.776 -0.58,11.93 -0.84,13.912 -1.94,14.724 -1.87,1.366 -2.35,1.197 -5.09,-1.75 z m -31.93,-31.301 c -0.94,-0.941 -1.12,-3.291 -1.12,-14.5 0,-9.452 0.25,-13.629 0.85,-14.234 1.62,-1.616 3.98,-0.931 6.24,1.805 2.17,2.64 2.19,2.735 2.19,11.1 0,8.903 -0.89,12.134 -4.31,15.553 -1.7,1.692 -2.39,1.742 -3.85,0.276 z m 33.14,-1.866 c -2.92,-3.184 -3.1,-4.236 -2.33,-14.03 0.59,-7.563 0.87,-8.713 2.61,-11.009 2.31,-3.023 3.63,-3.662 5.51,-2.659 1.27,0.679 1.37,1.59 1.33,12.319 -0.1,15.044 -0.42,17.225 -3,17.522 -1.46,0.17 -2.49,-0.366 -4.12,-2.143 z m -25.27,-26.819 c -4.44,-2.499 -5.48,-4.016 -3.85,-5.641 1,-1.002 3.37,-1.245 15,-1.537 12.13,-0.304 13.93,-0.205 14.77,0.812 1.35,1.625 0.47,4.058 -2.22,6.176 -2.11,1.659 -2.91,1.799 -11.23,1.978 -8.64,0.188 -9.09,0.125 -12.47,-1.786 z m 175.21,70.977 c 0.59,-0.714 0.76,-12.187 0.63,-41.607 l -0.19,-40.634 h -30 -30 l -0.19,41.026 c -0.14,32.349 0,41.144 0.72,41.599 0.49,0.357 13.79,0.536 29.56,0.625 23.33,0 28.81,-0.178 29.47,-0.964 z m -42.63,-2.741 c -1.43,-1.419 -0.98,-3.027 1.5,-5.428 l 2.35,-2.286 h 8.75 c 7.22,0 9.21,0.268 11.44,1.375 5.64,2.875 5.79,6 0.34,6.741 -5.97,0.804 -23.45,0.536 -24.38,-0.446 z m -5.69,-5.687 c -0.64,-0.625 -0.88,-4.652 -0.88,-14.619 0,-11.534 0.18,-13.914 1.12,-14.857 1.67,-1.67 2.39,-1.419 5.5,1.913 l 2.83,3.036 -0.38,9.896 c -0.36,9.631 -0.42,9.97 -2.47,12.497 -2.26,2.794 -4.29,3.553 -5.72,2.134 z m 32.17,-1.848 -2.49,-2.679 0.34,-8.96 c 0.32,-8.465 0.47,-9.186 2.64,-13.036 1.75,-3.095 2.7,-4.075 3.93,-4.075 3.16,0 3.33,1.025 2.61,15.775 -0.58,11.93 -0.84,13.912 -1.94,14.725 -1.87,1.366 -2.35,1.196 -5.09,-1.75 z m -31.93,-31.301 c -0.94,-0.941 -1.12,-3.291 -1.12,-14.5 0,-9.453 0.25,-13.63 0.85,-14.235 1.62,-1.615 3.98,-0.931 6.24,1.805 2.17,2.64 2.19,2.735 2.19,11.1 0,8.904 -0.89,12.134 -4.31,15.553 -1.7,1.693 -2.39,1.742 -3.85,0.277 z m 33.14,-1.866 c -2.92,-3.184 -3.1,-4.237 -2.33,-14.031 0.59,-7.563 0.87,-8.713 2.61,-11.009 2.31,-3.023 3.63,-3.662 5.51,-2.659 1.27,0.679 1.37,1.591 1.33,12.319 -0.1,15.045 -0.42,17.225 -3,17.522 -1.46,0.17 -2.49,-0.366 -4.12,-2.142 z m -25.27,-26.82 c -4.44,-2.499 -5.48,-4.016 -3.85,-5.641 1,-1.002 3.37,-1.245 15,-1.537 12.13,-0.303 13.93,-0.205 14.77,0.813 1.35,1.624 0.47,4.057 -2.22,6.176 -2.11,1.659 -2.91,1.799 -11.23,1.977 -8.64,0.188 -9.09,0.125 -12.47,-1.785 z m 107.35,70.263 c 0.59,-0.714 0.76,-12.187 0.63,-41.607 l -0.19,-40.634 h -30 -30 l -0.19,41.026 c -0.14,32.349 0,41.144 0.72,41.599 0.49,0.357 13.8,0.536 29.56,0.625 23.33,0 28.81,-0.178 29.47,-0.964 z m -16.86,-11.705 -2.49,-2.679 0.34,-8.959 c 0.32,-8.466 0.47,-9.186 2.64,-13.036 1.75,-3.096 2.69,-4.076 3.93,-4.076 3.16,0 3.33,1.025 2.61,15.776 -0.58,11.929 -0.84,13.911 -1.95,14.724 -1.86,1.366 -2.34,1.196 -5.08,-1.75 z m 1.21,-33.167 c -2.92,-3.184 -3.1,-4.237 -2.33,-14.03 0.59,-7.564 0.86,-8.714 2.61,-11.009 2.31,-3.023 3.63,-3.663 5.51,-2.659 1.27,0.678 1.37,1.59 1.33,12.319 -0.1,15.044 -0.43,17.225 -3,17.522 -1.46,0.17 -2.49,-0.366 -4.12,-2.143 z m 82.8,44.872 c 0.59,-0.714 0.76,-12.187 0.62,-41.607 l -0.19,-40.634 h -30 -30 l -0.18,41.026 c -0.15,32.349 0,41.144 0.71,41.599 0.49,0.357 13.8,0.536 29.56,0.625 23.33,0 28.82,-0.178 29.47,-0.964 z m -43.35,-3.455 c -1.42,-1.42 -0.98,-3.027 1.5,-5.429 l 2.35,-2.285 h 8.75 c 7.22,0 9.21,0.268 11.44,1.375 5.64,2.875 5.79,6 0.34,6.741 -5.97,0.803 -23.45,0.535 -24.38,-0.447 z m -5.69,-5.688 c -0.64,-0.625 -0.88,-4.651 -0.88,-14.618 0,-11.534 0.18,-13.915 1.12,-14.857 1.67,-1.67 2.39,-1.419 5.5,1.913 l 2.83,3.036 -0.37,9.896 c -0.37,9.63 -0.43,9.97 -2.48,12.497 -2.26,2.794 -4.29,3.553 -5.72,2.133 z m 32.18,-1.848 -2.5,-2.678 0.34,-8.96 c 0.32,-8.465 0.48,-9.186 2.64,-13.036 1.75,-3.095 2.7,-4.076 3.93,-4.076 3.16,0 3.33,1.025 2.61,15.776 -0.58,11.93 -0.84,13.912 -1.94,14.724 -1.87,1.366 -2.34,1.197 -5.09,-1.75 z m -16.72,-24.985 c -2.36,-0.188 -3.77,-0.768 -4.95,-2.019 l -1.65,-1.756 2.09,-2.212 2.1,-2.213 6.63,0.331 c 5.7,0.286 6.89,0.571 8.4,1.994 l 1.77,1.66 -2.29,2.366 c -2.44,2.514 -2.88,2.582 -12.1,1.845 z m -15.22,-6.316 c -0.94,-0.941 -1.12,-3.291 -1.12,-14.5 0,-9.452 0.25,-13.629 0.85,-14.234 1.62,-1.616 3.98,-0.931 6.24,1.805 2.17,2.64 2.19,2.735 2.19,11.1 0,8.903 -0.89,12.134 -4.31,15.553 -1.69,1.692 -2.38,1.742 -3.85,0.276 z m 33.14,-1.866 c -2.92,-3.184 -3.09,-4.236 -2.33,-14.03 0.59,-7.563 0.87,-8.713 2.62,-11.009 2.3,-3.023 3.62,-3.662 5.5,-2.659 1.27,0.679 1.37,1.59 1.34,12.319 -0.1,15.044 -0.43,17.225 -3,17.522 -1.47,0.17 -2.5,-0.366 -4.13,-2.143 z m -25.27,-26.819 c -4.44,-2.499 -5.47,-4.016 -3.85,-5.641 1,-1.002 3.37,-1.245 15,-1.537 12.13,-0.304 13.93,-0.205 14.77,0.812 1.35,1.625 0.47,4.058 -2.22,6.176 -2.11,1.659 -2.91,1.799 -11.23,1.978 -8.64,0.188 -9.09,0.125 -12.47,-1.786 z m -160.42,29.8 v -41.437 l -29.82,0.188 -29.82,0.187 -0.19,40.357 c -0.1,22.197 0,40.757 0.16,41.248 0.27,0.715 6.93,0.893 30.01,0.893 h 29.66 z m -44.14,37.722 c -1.43,-1.42 -0.98,-3.027 1.49,-5.429 l 2.36,-2.285 h 8.74 c 7.23,0 9.22,0.268 11.45,1.375 5.63,2.875 5.79,6 0.34,6.741 -5.97,0.803 -23.45,0.535 -24.39,-0.447 z m -5.69,-5.688 c -0.64,-0.625 -0.88,-4.651 -0.88,-14.618 0,-11.534 0.17,-13.915 1.12,-14.857 1.67,-1.67 2.39,-1.419 5.5,1.913 l 2.83,3.036 -0.38,9.896 c -0.36,9.63 -0.43,9.97 -2.48,12.497 -2.25,2.794 -4.29,3.553 -5.71,2.133 z m 32.17,-1.848 -2.49,-2.678 0.34,-8.96 c 0.32,-8.465 0.47,-9.186 2.64,-13.036 1.75,-3.095 2.69,-4.076 3.93,-4.076 3.16,0 3.33,1.025 2.61,15.776 -0.58,11.93 -0.84,13.912 -1.94,14.724 -1.87,1.366 -2.35,1.197 -5.09,-1.75 z m -31.93,-31.301 c -0.94,-0.941 -1.13,-3.291 -1.13,-14.5 0,-9.452 0.25,-13.629 0.86,-14.234 1.62,-1.616 3.98,-0.931 6.24,1.805 2.17,2.64 2.19,2.735 2.19,11.1 0,8.903 -0.9,12.134 -4.31,15.553 -1.7,1.692 -2.39,1.742 -3.85,0.276 z m 33.14,-1.866 c -2.92,-3.184 -3.1,-4.236 -2.33,-14.03 0.59,-7.563 0.86,-8.713 2.61,-11.009 2.31,-3.023 3.63,-3.662 5.51,-2.659 1.27,0.679 1.37,1.59 1.33,12.319 -0.1,15.044 -0.43,17.225 -3,17.522 -1.46,0.17 -2.49,-0.366 -4.12,-2.143 z m -25.28,-26.819 c -4.43,-2.499 -5.47,-4.016 -3.84,-5.641 1,-1.002 3.37,-1.245 15,-1.537 12.13,-0.304 13.93,-0.205 14.77,0.812 1.35,1.625 0.47,4.058 -2.22,6.176 -2.11,1.659 -2.91,1.799 -11.24,1.978 -8.63,0.188 -9.08,0.125 -12.47,-1.786 z m -226.125,4.272 c 0,-15.562 0.116,-17.154 1.397,-19.249 2.275,-3.732 3.889,-3.883 37.358,-3.501 16.594,0.187 31.296,0.295 32.671,0.232 1.375,-0.09 16.079,-0.09 32.679,-0.09 35.08,0.09 28.66,0 66.78,0 16.6,0 31.47,0 33.04,0 1.57,0 17,0 34.29,0 17.28,0 32.71,0 34.28,0 1.57,0 16.44,0 33.04,0 16.6,0 31.62,0 33.39,0 1.77,0 16.88,0 33.57,0 36.91,0 30.9,0 67.57,-0.09 33.46,-0.09 33.19,-0.108 35.26,4.254 0.89,1.889 1.1,5.424 1.1,18.825 v 16.581 h 9.64 9.65 v -24.906 -24.907 l -4.92,-0.482 c -2.7,-0.268 -5.69,-0.286 -6.64,-0.09 -2.44,0.616 -4.59,-1.783 -3.48,-3.866 1.08,-2.012 3.48,-2.484 9.74,-1.917 l 5.3,0.482 v -22.865 c 0,-20.0312 -0.14,-22.8142 -1.08,-22.4532 -0.77,0.295 -1.07,-0.09 -1.07,-1.38 0,-1.784 0,-1.794 -8.03,-2.188 -6.97,-0.339 -458.556,-3.412 -491.787,-3.343 h -12.322 v 53.9292 53.928 h 9.286 9.286 z m 456.035,-28.11 c -5.94,-1.37 -11.05,-7.697 -11.02,-13.647 0,-8.03 6.61,-14.301 14.98,-14.301 6.08,0 11.25,3.177 13.65,8.379 5.02,10.88 -5.34,22.398 -17.61,19.569 z m 7.14,-8.079 c 4.35,-1.817 5.36,-6.681 2.08,-9.964 -4.09,-4.093 -12.4,-1.518 -12.4,3.844 0,3.09 1.15,4.935 3.81,6.089 2.89,1.257 3.57,1.261 6.51,0 z M 939,146.46 c -5.945,-1.371 -11.055,-7.698 -11.024,-13.648 0,-8.03 6.611,-14.301 14.984,-14.301 6.074,0 11.249,3.177 13.65,8.38 5.02,10.879 -5.344,22.397 -17.61,19.569 z m 7.139,-8.08 c 4.348,-1.817 5.364,-6.68 2.081,-9.963 -4.093,-4.093 -12.403,-1.518 -12.403,3.844 0,3.09 1.153,4.934 3.806,6.089 2.891,1.257 3.572,1.26 6.516,0 z m 150.501,1.684 c -2.1,-0.375 -6.12,-1.704 -8.93,-2.954 -4.29,-1.91 -6.2,-2.323 -11.95,-2.574 -6.09,-0.268 -7.34,-0.1 -11.36,1.526 -4.84,1.953 -7.16,1.671 -7.16,-0.875 0,-2.734 4.78,-5.272 12.16,-6.46 5.94,-0.957 13.94,0.16 19.99,2.8 9.26,4.036 17.35,4.501 30.35,1.748 15.48,-3.278 16.58,-3.412 20.93,-2.539 2.22,0.447 5.28,1.641 6.82,2.659 2.54,1.679 3.34,1.829 8.51,1.601 4.84,-0.214 5.84,-0.09 6.51,0.998 1.03,1.612 -0.11,3.535 -2.48,4.199 -0.94,0.267 -3.99,0.509 -6.77,0.553 -4.55,0.09 -5.4,-0.161 -8.48,-2.199 -2.92,-1.932 -4.08,-2.27 -7.8,-2.268 -2.41,0 -8.07,0.884 -12.59,1.966 -9.11,2.177 -21.27,2.973 -27.75,1.817 z m 59.53,-11.4 c -2.75,-0.723 -6.89,-1.983 -9.22,-2.795 -5.72,-2.004 -10.69,-1.882 -17.54,0.428 -4.78,1.614 -5.83,1.762 -6.8,0.955 -2.94,-2.435 0.28,-5.504 7.82,-7.469 6.29,-1.637 12.14,-1.41 18.68,0.723 14.03,4.582 23.99,5.105 38.85,2.039 13.75,-2.836 22.92,-1.774 23.44,2.716 0.18,1.558 -0.13,2.021 -1.57,2.383 -0.99,0.25 -2.99,0.09 -4.44,-0.419 -3.17,-1.044 -9.19,-0.572 -18.79,1.458 -8.91,1.887 -23.23,1.879 -30.43,0 z m 290.85,46.244 c 23.7,-25.173 74.62,-79.2232 80.9,-85.8742 2.97,-3.143 27.77,-29.5 55.1,-58.572 27.34,-29.07098 52.61,-55.945 56.17,-59.719 3.56,-3.774 6.89,-7.632 7.41,-8.572 0.71,-1.318 1.14,-14.276 1.86,-56.709 0.54,-30.2498 0.9,-56.9108 0.72,-59.2478 l -0.18,-4.248 -6.79,7.495 c -3.73,4.121 -24.46,26.745 -46.07,50.275 -21.61,23.5298 -41.21,44.9098 -43.57,47.5118 -2.36,2.602 -27.27,29.763 -55.36,60.35602 -28.09,30.59498 -55.17,60.13198 -60.18,65.63998 l -9.11,10.012 v 23.4252 c 0,12.883 0.15,23.424 0.32,23.424 0.17,0 1.35,-1.457 2.63,-3.238 2.32,-3.231 6.61,-6.323 11.34,-8.174 4.37,-1.712 6.42,-3.603 8.62,-7.959 2.83,-5.608 6.87,-9.404 13.23,-12.4212 5.28,-2.509 7.38,-4.673 10.59,-10.929 1.72,-3.348 6.08,-7.993 7.5,-7.993 2.96,0 3.81,3.255 1.42,5.42 -0.81,0.75 -2.8,3.609 -4.38,6.361 -3.97,6.895 -6.45,9.3342 -12.78,12.5292 -6,3.041 -8.27,5.321 -11.36,11.446 -2.37,4.678 -3.87,5.91 -11.48,9.413 -4.67,2.149 -5.98,3.181 -9.36,7.414 -2.15,2.704 -4.46,5.358 -5.11,5.897 -0.93,0.777 -1.18,2.298 -1.18,7.432 v 6.452 l 2.74,-4.242 c 2.73,-4.211 7.12,-8.529 10.26,-10.086 0.91,-0.446 4.19,-1.957 7.29,-3.357 7.37,-3.319 11.32,-6.646 15.27,-12.842 5.58,-8.751 8.41,-10.824 10.2,-7.475 0.72,1.272 0.45,2.074 -1.66,5.179 -1.36,2.02 -3.13,4.798 -3.95,6.173 -1.91,3.199 -8.24,9.338 -11.93,11.564 -1.57,0.948 -5.31,2.775 -8.3,4.062 -6.07,2.613 -10.21,6.363 -14.42,13.06 -1.4,2.224 -3.2,4.254 -4.01,4.512 -1.44,0.456 -1.49,0.921 -1.49,16.178 0,10.29 0.25,15.556 0.72,15.267 0.44,-0.25 0.71,0.366 0.71,1.429 0,1.028 0.27,1.682 0.72,1.452 0.35,-0.232 8,-8.204 16.95,-17.721 z m 127.4,-161.1802 c -1.15,-2.143 -0.27,-3.196 4.19,-5.25798 4.94,-2.272 8.8,-5.852 12.97,-12.037 4.43,-6.56802 9.09,-11.86602 12.5,-14.21302 1.63,-1.126 6.31,-3.369 10.39,-4.985 12.03,-4.759 13.64,-6.265 16.68,-15.566 0.8,-2.462 1.07,-4.678 0.8,-6.319 -0.44,-2.439 -0.53,-2.483 -1.84,-1.288 -0.72,0.679 -1.57,2.299 -1.81,3.595 -0.62,3.262 -2.57,4.954 -4.53,3.909 -3.03,-1.622 -1.4,-7.972 3.2,-12.433 2.96,-2.874 5.08,-3.705 7.76,-3.034 5.89,1.479 3.31,20.979 -3.79,28.564 -2.58,2.766 -8.31,5.804 -17.16,9.097 -5.92,2.204 -10.9,6.73202 -17.25,15.679022 -5.43,7.670998 -9.11,11.188978 -14.51,13.879978 -4.3,2.142 -6.58,2.265 -7.57,0.411 z m -60.3,-0.857 c -0.8,-1.14 -0.89,-1.978 -0.36,-3.38498 2.36,-6.19 7.53,-11.051 16.05,-15.076 9.17,-4.334 11.92,-7.37602 13.95,-15.44302 1.38,-5.491 5.96,-9.581 13.51,-12.075 5.59,-1.844 6.38,-2.354 10.71,-6.96 3.72,-3.959 5.03,-4.92 6.43,-4.722 1.27,0.178 1.82,0.759 1.97,2.052 0.18,1.408 -0.94,3.007 -5,7.264 -4.24,4.435 -5.94,5.704 -9.12,6.767 -2.15,0.723 -5.53,2.111 -7.5,3.093 -3.1,1.544 -3.77,2.269 -4.92,5.358 -4.57,12.26602 -6.11,14.05402 -16.93,19.664022 -8.77,4.547998 -10.92,6.449998 -14.39,12.765978 -1.42,2.584 -2.92,2.821 -4.41,0.696 z m 43.83,-26.351 c -1.43,-1.431 -1.43,-1.529 -0.18,-3.667 2.2,-3.782 6.9,-7.329 12.09,-9.129 2.7,-0.935 5.76,-2.127 6.81,-2.649 2.36,-1.177 6.35,-7.645 8.69,-14.051 2,-5.526 5.03,-10.257 6.96,-10.869 4.17,-1.324 5.84,4.142 2.11,6.903 -1.47,1.083 -2.58,2.947 -3.6,6.003 -1.64,4.933 -5.53,11.792 -8.39,14.783 -1.06,1.124 -4.65,3.041 -8.4,4.493 -4.82,1.868 -7.27,3.293 -9.34,5.42 -4.01,4.136 -4.96,4.529 -6.73,2.763 z m -137.99,94.157 c 0.63,-0.634 0.86,-7.492 0.86,-26.429 v -25.571 h -15.18 c -8.35,0 -107.27,-0.5 -219.82,-1.072 -112.56,-0.571 -221.441,-1.045 -241.967,-1.054 h -37.322 v 25.714 c 0,14.143 0.09,25.754 0.179,25.804 0.41,0.206 425.93,3.278 467.36,3.375 34.19,0.09 45.24,-0.1 45.89,-0.75 z m -342.25,-8.525 c -2.93,-0.375 -7.24,-1.671 -10.72,-3.216 -5.01,-2.227 -6.76,-2.634 -12.6,-2.917 -5.8,-0.276 -8.25,0 -16.79,1.926 -15.27,3.443 -31.32,4.373 -37.16,2.151 -3.72,-1.412 -4.054,-6.419 -0.43,-6.419 1.07,0 2.35,0.401 2.84,0.892 0.65,0.643 3.49,0.849 10.02,0.733 8.63,-0.152 13.79,-0.9 28.66,-4.157 8.1,-1.775 18.92,-1.169 25,1.399 2.55,1.079 6.09,2.439 7.86,3.022 4.13,1.361 17.76,1.501 25.22,0.259 4.9,-0.813 5.72,-0.795 6.68,0.169 1.6,1.596 0.58,3.895 -2.11,4.768 -2.88,0.932 -14.1,2.22 -18.36,2.107 -1.77,-0.09 -5.42,-0.366 -8.11,-0.714 z m 291.25,-5.616 c -5.37,-0.786 -8.65,-2.002 -14.16,-5.25 -4.06,-2.394 -5.75,-2.966 -9.48,-3.203 -3.6,-0.232 -4.7,-0.581 -5.29,-1.693 -0.59,-1.092 -0.47,-1.726 0.55,-2.854 1.14,-1.261 1.93,-1.405 6.13,-1.107 4.07,0.286 5.68,0.84 10.36,3.547 5.6,3.245 9.36,4.422 16.77,5.258 3.83,0.428 4.5,0.259 10.36,-2.627 5.2,-2.567 7.12,-3.136 11.35,-3.369 5.49,-0.303 8.12,0.545 8.12,2.606 0,2.197 -1.58,2.975 -6.03,2.979 -3.64,0 -5.41,0.518 -11.11,3.211 -7.19,3.398 -9.36,3.707 -17.57,2.502 z m -437.25,-6.19 c -1.545,-0.625 -0.975,-3.387 1.254,-6.093 2.911,-3.53 7.254,-5.112 13.026,-4.744 3.76,0.241 5.102,0.705 7.978,2.763 3.451,2.472 3.469,2.476 11.045,2.389 5.173,-0.09 9.432,-0.572 13.378,-1.596 3.184,-0.83 8.838,-1.894 12.566,-2.364 7.157,-0.905 7.063,-0.917 19.833,2.611 8.09,2.234 17.47,0.241 20.1,-4.278 1.69,-2.89 1.66,-3.018 -0.75,-4.267 -3.85,-1.99 -9.1,-0.904 -8.27,1.71 1.1,3.468 -2.36,5.242 -5.03,2.575 -1.43,-1.433 -1.58,-2.011 -1.01,-3.982 1.96,-6.821 9.78,-9.132 17.57,-5.189 4.72,2.391 5.7,4.352 4.51,9.048 -0.97,3.88 -3.37,6.208 -9.23,8.969 -5.47,2.575 -15.1,2.636 -22.71,0.143 -4.61,-1.51 -6.094,-1.663 -12.859,-1.323 -4.57,0.232 -10.091,1.042 -13.719,2.019 -4.673,1.26 -8.056,1.647 -14.689,1.681 h -8.617 l -4.484,-2.764 c -4.011,-2.47 -4.86,-2.727 -8.036,-2.421 -2.875,0.277 -4.058,0.839 -6.214,2.941 -2.551,2.492 -3.681,2.918 -5.639,2.128 z m 427.99,-9.23 c -6.91,-4.172 -8.4,-4.582 -16.56,-4.582 -5.31,0 -9.84,0.509 -15.45,1.742 -12.3,2.696 -17.69,3.337 -21.69,2.579 -3.93,-0.75 -8.7,-2.515 -12.02,-4.458 -1.21,-0.705 -3.72,-1.494 -5.58,-1.748 -2.82,-0.384 -3.74,-0.205 -5.52,1.113 -2.39,1.77 -4.03,1.732 -5.2,-0.125 -0.95,-1.507 -0.16,-3.001 2.71,-5.143 1.52,-1.137 3.03,-1.464 6.78,-1.464 4.22,0 5.65,0.393 11.41,3.131 l 6.59,3.132 6.57,-0.384 c 3.62,-0.215 10.17,-1.221 14.57,-2.239 6.22,-1.442 9.88,-1.851 16.52,-1.851 9.58,0 12.13,0.643 18.79,4.759 4.12,2.538 4.43,2.616 7.64,1.888 1.84,-0.42 4.34,-1.172 5.56,-1.677 2.79,-1.158 4.57,-0.5 4.57,1.683 0,2.199 -1.69,3.639 -5.92,5.059 -5.54,1.858 -8.92,1.511 -13.77,-1.415 z m 82.42,6.521 c 5.37,-5.879 13.62,-14.891 18.34,-20.026 4.71,-5.133 15,-16.396 22.86,-25.027 7.85,-8.63098 16.39,-17.94298 18.96,-20.69298 2.57,-2.75002 7.73,-8.37502 11.47,-12.50002 3.74,-4.125 14.17,-15.553 23.19,-25.394 9,-9.842 22.81,-24.948 30.67,-33.57 7.85,-8.622 16.53,-18.093 19.28,-21.0478 2.75,-2.954 11.43,-12.434 19.29,-21.064 7.85,-8.63 16.53,-18.113 19.28,-21.073 15.9,-17.108 23.64,-26.052 24.13,-27.882 0.27,-1.136 0.44,-8.861 0.35,-17.168 l -0.17,-15.103 -110.9,115.1638 -110.89,115.164 v 22.079 22.081 l 2.19,-1.625 c 1.22,-0.894 6.6,-6.435 11.97,-12.315 z m -33.31,-39.853 c -0.17,-2.456 -0.35,-4.515 -0.4,-4.576 -0.1,-0.09 -110.6,-0.348 -245.67,-0.643 l -245.576,-0.527 0.223,3.854 0.224,3.852 44.642,0.206 c 41.267,0.187 383.637,1.941 427.547,2.186 l 19.33,0.107 z m 11.86,0 -0.21,-4.465 -2.68,-0.223 c -2.52,-0.205 -2.68,-0.1 -2.67,1.786 0,1.104 0.2,3.212 0.44,4.686 0.42,2.486 0.62,2.678 2.89,2.678 h 2.44 z m -509.853,-1.607 c 0,-3.89 0,-3.929 -2.143,-3.929 -2.091,0 -2.143,0.09 -2.143,3.521 0,3.649 -0.1,3.541 3.75,4.239 0.295,0.05 0.536,-1.671 0.536,-3.831 z M 1432.24,9.81982 v -3.59 l -2.11,2.473 c -1.64,1.91498 -2.12,3.18998 -2.14,5.64298 v 3.169 l 2.14,-2.053 c 1.82,-1.748 2.14,-2.586 2.14,-5.64198 z m -11.42,-13.643 V -14.1812 H 1163.67 906.531 v 9.64302 9.643 l 8.393,0.107 c 12.639,0.152 316.616,1.016 417.496,1.181 l 88.4,0.143 z m 119.94,-95.30802 97.92,-101.7378 v -5.949 -5.949 l -86.93,92.328 c -47.81,50.7818 -92.74,98.4848 -99.84,106.0078 l -12.9,13.677022 0.27,3.370998 0.27,3.37 1.64,-1.691 c 0.9,-0.93 45.71,-47.47202 99.57,-103.42702 z m -16.22,-2.0138 c 52.8,-56.08 102.81,-109.196 111.14,-118.035 l 15.13,-16.072 v -8.036 c 0,-4.419 -0.1,-8.035 -0.27,-8.035 -0.18,0 -23.06,24.177 -50.89,53.729 -27.84,29.551 -71.36,75.756 -96.73,102.6788 -25.35,26.921 -52.59,55.847 -60.53,64.278 l -14.42,15.329 v 8.06402 c 0,4.435 0.12,8.063002 0.28,8.063002 0.16,0 43.49,-45.883022 96.3,-101.963822 z m -584.08,78.0178 2.143,-1.753 v -8.507 c 0,-5.365 -0.259,-8.349 -0.697,-8.078 -4.564,2.797 -22.504,15.63 -23.586,16.872 -0.786,0.901 -2.072,1.996 -2.858,2.433 -1.092,0.607 1.431,0.795 10.715,0.786 11.829,0 12.198,-0.09 14.285,-1.757 z m 114.39,-2.482 c 1.17,-5.578 1.12,-14.599 -0.1,-19.817 -1.57,-6.641 -6.76,-16.464 -10.56,-19.965 -7.03,-6.473 -14.28,-9.504 -22.74,-9.504 h -4.95 l 0.13,3.463 c 0.1,1.904 -0.1,3.815 -0.37,4.245 -0.32,0.518 0.66,0.857 2.86,1.002 3.82,0.25 5.46,1.844 4.1,3.969 -1.18,1.836 -13.52,1.562 -20.13,-0.447 -7.008,-2.128 -12.961,-7.517 -11.92,-10.793 0.913,-2.88 3.139,-2.488 6.668,1.173 l 3.332,3.46 0.23,-3.21 c 0.2,-2.793 0,-3.452 -1.857,-5.076 -2.709,-2.421 -11.005,-4.498 -16.229,-4.065 -5.795,0.482 -12.222,4.093 -19.505,10.963 -9.372,8.839 -14.028,18.314 -15.531,31.605 -0.411,3.641 0.428,12.422 1.541,16.037 0.366,1.184 3.314,1.245 52.301,1.072 l 51.91,-0.184 z m 20.3,3.618 c -1.29,-0.822 -15.05,-0.777 -15.05,0.09 0,0.339 3.62,0.607 8.04,0.607 5.07,0 7.66,-0.25 7.01,-0.661 z m 43.52,0.09 c 0,-0.768 -1.5,-5.106 -1.76,-5.106 -0.11,0 -1.71,0.848 -3.56,1.877 -1.85,1.033 -4.7,2.297 -6.34,2.809 -2.89,0.904 -2.76,0.934 4.34,0.98 4.03,0 7.32,-0.223 7.32,-0.563 z m 83.57,-7.114 c 0,-14.215 4.38,-25.399 14.76,-37.749 1.71,-2.027 3.1,-3.915 3.1,-4.195 0,-1.174 -6.52,-9.52 -9.93,-12.706 -5.44,-5.081 -9.06,-6.474 -16.92,-6.519 -7.95,-0.09 -9.99,0.839 -11.06,4.801 -0.41,1.544 -0.57,2.987 -0.35,3.207 0.5,0.5 3.03,-0.768 5.44,-2.711 3.18,-2.574 6.26,0.438 3.99,3.905 -2.85,4.346 -12.2,6.269 -23.26,4.782 -6.99,-0.94 -9.62,-2.043 -9.92,-4.158 -0.23,-1.655 1.88,-3.304 3.56,-2.778 4.14,1.291 4.78,1.178 4.75,-0.83 0,-1.081 0.34,-2.895 0.79,-4.03 0.44,-1.134 0.72,-2.15 0.61,-2.258 -0.64,-0.625 -9.41,-2.462 -11.73,-2.453 -3.67,0 -11.12,1.812 -14.34,3.461 l -2.59,1.331 -0.12,11.705 c -0.1,8.598 -0.43,12.842 -1.33,15.984 -1.75,6.123 -6.95,16.77 -11.52,23.555 -2.15,3.211 -3.92,6.205 -3.92,6.654 0,0.446 0.67,2.596 1.48,4.772 l 1.48,3.956 h 38.52 38.52 z m 112.86,-1.042 c 0,-14.263 -2.98,-22.759 -11.41,-32.497 -3.4,-3.933 -6.1,-6.259 -9.1,-7.859 -4.61,-2.458 -11.77,-4.424 -16.17,-4.441 -2.31,0 -11.09,1.827 -11.73,2.454 -0.11,0.107 0.17,1.123 0.62,2.258 0.44,1.135 0.8,2.948 0.78,4.029 0,2.012 0.62,2.125 4.75,0.831 1.68,-0.527 3.8,1.122 3.56,2.777 -0.3,2.116 -2.93,3.218 -9.92,4.159 -11.06,1.487 -20.41,-0.438 -23.25,-4.783 -2.28,-3.467 0.8,-6.478 3.98,-3.904 2.41,1.945 4.95,3.209 5.45,2.711 0.22,-0.224 0.1,-1.664 -0.36,-3.207 -1.06,-3.952 -3.1,-4.842 -11.07,-4.826 -8.58,0 -12.75,1.951 -19.13,8.863 -9.26,10.037 -14.14,21.596 -14.14,33.49 0,3.546 0.2,6.955 0.44,7.576 0.39,1.016 5.77,1.13 53.57,1.13 h 53.13 z m 32.58,7.225 c -0.87,-1.235 -1.76,-1.523 -4.51,-1.463 -1.88,0 -5.68,0.125 -8.43,0.197 -3.19,0.09 -6.16,-0.313 -8.21,-1.084 -5.01,-1.869 -5.33,-1.798 -5.58,1.214 l -0.22,2.679 h 14.01 14.01 z m 91.45,-13.829 14.38,-15.323 -0.35,-4.833 c -0.18,-2.658 -0.98,-7.083 -1.77,-9.833 -3.04,-10.507 -12.8,-23.523 -20.45,-27.282 -3.61,-1.772 -4.87,-2.004 -10.93,-2.004 -8.35,0 -10.08,0.75 -11.18,4.864 -0.43,1.64 -0.7,3.073 -0.59,3.185 0.39,0.384 3.62,-1.252 5.61,-2.844 2.46,-1.972 4.44,-1.09 4.44,1.982 0,2.852 -4.36,5.797 -10.2,6.881 -7.31,1.362 -22.3,-0.83 -23.29,-3.403 -1.06,-2.767 1.62,-4.364 5.53,-3.285 l 2.44,0.678 0.49,-2.955 c 0.97,-5.888 1.05,-5.705 -2.82,-6.619 -12.5,-2.9468 -24.33,1.053 -33,11.164 -7.41,8.634 -10.61,16.938 -11.37,29.462 -0.46,7.779 0.98,18.992 3.21,24.823 0.83,2.161 2.82,5.456 4.42,7.322 l 2.92,3.393 h 34.05 34.05 z m -337.6,9.568 c 10.72,-1.782 18.79,-9.036 25.66,-23.082 5.41,-11.049 6.13,-14.161 6.12,-26.504 0,-12.322 -1.23,-16.744 -7.06,-25.6918 -4.93,-7.557 -6.38,-8.894 -13.65,-12.556 -6.2,-3.126 -12.65,-4.212 -19.19,-3.233 l -3.31,0.5 0.18,4.308 0.18,4.308 3,-0.402 c 4.38,-0.589 6.88,2.289 4.03,4.65 -0.87,0.733 -3.76,0.981 -11.25,0.981 -9.07,0 -10.44,-0.17 -13.82,-1.698 -3.45,-1.564 -8.03,-5.678 -8.03,-7.212 0,-0.978 2.12,-2.883 3.21,-2.883 0.54,0 2.16,1.125 3.62,2.5 3.66,3.447 4.63,3.312 3.77,-0.527 -0.98,-4.359 -2.2,-5.325 -7.91,-6.287 -8.77,-1.481 -10.7,-0.952 -19.82,5.434 -9.09,6.37 -13,10.825 -16.72,19.0528 -2.15,4.738 -4.53,13.831 -3.81,14.548 0.16,0.161 2.17,0.786 4.46,1.383 5.37,1.398 9.93,3.909 15.6,8.589 3.97,3.271 5.08,4.783 8.62,11.7 4.69,9.163 6.09,14.692 6.11,24.066 v 6.532 l 3.03,0.33 c 1.67,0.179 4.55,0 6.39,-0.393 2.85,-0.616 3.64,-0.526 5.35,0.599 1.11,0.723 3.14,1.535 4.51,1.794 3.03,0.572 15.29,0.1 20.72,-0.803 z m 241.88,-3.888 c -3.17,-8.256 -4.07,-26.141 -1.8,-35.926 0.42,-1.839 0.77,-4.147 0.79,-5.13 0.1,-5.008 12.91,-22.253 19.45,-26.087 2.88,-1.688 3.22,-2.1758 3.61,-5.2088 0.24,-1.84 0.85,-5.368 1.37,-7.838 l 0.94,-4.492 -3.12,-1.829 c -5.95,-3.486 -10.22,-4.696 -16.69,-4.732 -3.34,0 -6.76,0.187 -7.59,0.455 -1.39,0.447 -1.47,0.768 -0.88,3.407 0.36,1.605 0.48,3.457 0.28,4.116 -0.32,1.017 0.17,1.193 3.28,1.167 4.68,0 6.13,1.574 3.63,4.067 -1.52,1.524 -2.16,1.614 -11.06,1.554 -6.99,-0.09 -10.27,-0.375 -12.61,-1.263 -3.66,-1.391 -7.56,-4.187 -8.64,-6.203 -1.74,-3.256 3,-5.97 5.16,-2.949 0.52,0.714 1.87,1.915 3.01,2.657 l 2.08,1.351 -0.41,-3.071 c -0.22,-1.688 -0.94,-3.654 -1.59,-4.369 -2.94,-3.254 -15.15,-3.926 -21.24,-1.169 -5.05,2.284 -7.63,4.328 -12.72,10.092 l -4.27,4.847 1.66,2.213 c 5.16,6.8348 10.52,18.3638 11.52,24.7428 0.79,5.075 1.06,5.604 3.84,7.478 3.63,2.455 11.85,12.676 14.35,17.849 2.32,4.818 5.06,15.456 5.06,19.699 0,2.522 0.18,2.801 1.81,2.801 1,0 2.56,0.491 3.48,1.093 2.31,1.514 6.67,2.164 12.62,1.882 3.89,-0.187 4.97,-0.464 4.68,-1.205 z m 131.12,-44.162 c 4.6,-14.27 4.88,-16.349 3.57,-26.8938 -0.94,-7.562 -2.63,-12.46 -6.65,-19.192 -4.46,-7.467 -10.54,-13.879 -15.48,-16.304 -3.61,-1.772 -4.88,-2.004 -10.93,-2.004 -8.35,0 -10.08,0.75 -11.18,4.864 -0.45,1.64 -0.71,3.073 -0.62,3.185 0.35,0.384 3.61,-1.252 5.6,-2.844 2.47,-1.972 4.44,-1.089 4.44,1.982 0,2.852 -4.37,5.797 -10.2,6.881 -7.31,1.362 -22.3,-0.83 -23.29,-3.403 -1.06,-2.767 1.62,-4.364 5.53,-3.285 l 2.44,0.678 0.49,-2.955 c 0.97,-5.888 1.05,-5.705 -2.82,-6.619 -12.46,-2.936 -24.37,1.078 -32.97,11.116 -6.46,7.54 -10.96,17.829 -10.96,25.049 0,2.159 0.11,2.264 1.96,1.757 3.82,-1.048 13.75,-1.44 15.39,-0.607 0.86,0.446 2.71,1.009 4.09,1.257 l 2.52,0.455 0.84,-4.453 c 0.99,-5.19 2.2,-6.375 6.3,-6.162 1.6,0.09 3.25,-0.09 3.66,-0.313 0.41,-0.25 1.34,0 2.07,0.509 1.02,0.75 1.39,2.145 1.61,6.036 l 0.29,5.064 6.17,-0.437 c 12.95,-0.913 20.86,2.6928 29.54,13.4708 7.11,8.82 12.7,21.273 12.7,28.299 0,2.451 0,2.442 7.68,-5.569 4.22,-4.413 7.9,-8.715 8.17,-9.56 z m -212.47,8.999 c -1.73,-13.728 -3.82,-20.168 -5.16,-15.944 -1.02,3.227 0.41,13.287 2.37,16.659 1.71,2.952 3.2,2.572 2.79,-0.715 z m -251.39,-6.428 c 0.1,-3.045 0.36,-7.576 0.6,-10.07 0.4,-4.169 0.33,-4.513 -0.9,-4.277 -3.56,0.688 -4.21,19.882 -0.67,19.882 0.52,0 0.87,-1.997 0.97,-5.535 z m 223.14,-4.799 c 2.94,-0.687 6.61,-0.931 10.66,-0.705 l 6.16,0.339 0.49,-4.949 c 0.27,-2.723 0.88,-5.251 1.34,-5.618 1.35,-1.05 8.54,-0.92 10.22,0.187 1.04,0.679 1.77,2.337 2.37,5.392 0.8,4.017 1.01,4.369 2.43,3.981 7.99,-2.183 12.67,-2.178 22.8,0 1.9,0.411 1.95,0.348 1.52,-1.977 -0.65,-3.495 -4.72,-12.593 -7.76,-17.345 -5.89,-9.2038 -11.7,-12.8798 -21.62,-13.6728 -6.91,-0.554 -8.57,0.151 -10.06,4.281 -0.53,1.459 -0.8,2.809 -0.61,2.999 0.39,0.393 4.48,-1.378 6.39,-2.756 0.93,-0.67 1.57,-0.706 2.5,-0.116 2.17,1.361 1.9,3.554 -0.67,5.5 -5.86,4.4188 -15.02,4.4018 -27.92,-0.09 -2.49,-0.857 -3.54,-1.641 -3.84,-2.867 -0.67,-2.676 0.65,-3.405 4.68,-2.58 l 3.49,0.714 0.4,-2.895 c 0.23,-1.593 0.5,-3.501 0.62,-4.239 0.52,-3.325 -14.71,-5.505 -22.22,-3.182 l -3.14,0.973 -1.3,6.418 c -0.71,3.531 -2.15,8.441 -3.2,10.9098 -1.05,2.471 -1.78,4.566 -1.63,4.657 7.46,4.567 11.86,8.816 16.97,16.388 2.29,3.386 2.3,3.391 4.37,2.321 1.14,-0.589 4.09,-1.543 6.56,-2.119 z m -212.26,-8.416 c 0.47,-2.848 1.6,-7.026 2.51,-9.285 0.91,-2.259 1.54,-4.107 1.41,-4.107 -0.14,0 -2.49,1.541 -5.23,3.426 -4.58,3.156 -4.89,3.534 -3.98,4.78 0.59,0.812 0.98,3.147 0.98,5.859 0,4.285 0.1,4.506 1.73,4.506 1.58,0 1.79,-0.42 2.58,-5.179 z m 153.67,2.5 c 1.96,-3.371 3.39,-13.431 2.37,-16.658 -1.35,-4.2238 -3.43,2.216 -5.16,15.944 -0.41,3.287 1.07,3.667 2.79,0.714 z m 330.64,-24.3318 c 5.28,-5.624 9.98,-10.948 10.45,-11.833 1.49,-2.833 3.08,-11.098 3.08,-16.022 0,-14.559 -5.35,-26.369 -16.92,-37.372 -7.76,-7.381 -14.91,-9.55 -24.67,-7.489 -5.2,1.098 -6.82,2.423 -7.4,6.023 -0.63,3.744 0.18,3.832 3.96,0.429 3.09,-2.792 5.29,-2.855 6.13,-0.179 1.13,3.536 -6.02,8.552 -14,9.826 -6.65,1.063 -17.1,0.348 -18.74,-1.274 -2.51,-2.488 0.45,-4.938 5.08,-4.254 1.93,0.285 2,0.187 2.07,-2.957 0,-1.786 0.18,-3.72 0.26,-4.296 0.18,-0.795 -0.8,-1.172 -4.03,-1.559 -7.14,-0.857 -14,0.661 -20.69,4.566 -4.82,2.817 -7.06,5.019 -10.71,10.54 l -3.06,4.643 0.36,6.072 c 0.34,5.668 0.88,7.104 2.69,7.132 0.4,0 1.11,-1.992 1.57,-4.44 0.99,-5.189 2.2,-6.374 6.3,-6.161 1.6,0.09 3.24,-0.09 3.65,-0.313 0.45,-0.25 1.34,0 2.08,0.509 1.01,0.75 1.39,2.145 1.61,6.036 l 0.27,5.064 6.17,-0.437 c 15.63,-1.102 25.69,5.274 35.9,22.754 5.75,9.853 8.71,25.1078 6.86,35.4288 l -0.54,3.078 6.32,-6.65 c 3.47,-3.657 10.62,-11.2498 15.9,-16.8748 z m -104.24,18.9328 c 2.73,-3.766 3.79,-17.9928 1.34,-17.9928 -0.67,0 -1.15,0.803 -1.27,2.142 -0.11,1.179 -0.68,4.397 -1.26,7.1518 -1.67,7.839 -1.88,10.352 -0.86,10.326 0.49,0 1.41,-0.741 2.06,-1.627 z m -250.54,-9.188 c 5.19,-0.804 9.64,-0.455 15.94,1.267 1.42,0.384 1.63,0 2.42,-3.9808 0.6,-3.056 1.33,-4.71 2.37,-5.392 1.69,-1.104 8.88,-1.233 10.22,-0.188 0.47,0.366 1.07,2.852 1.33,5.52 l 0.48,4.8508 8.08,-0.09 8.08,-0.09 1.21,-2.5 c 3.03,-6.2878 4,-10.4668 4.39,-18.9278 0.35,-7.926 0.24,-9.052 -1.57,-14.95 -3.6,-11.76 -12.78,-24.054 -20.92,-28.037 -3.53,-1.727 -4.92,-1.989 -10.57,-2.001 -7.96,0 -10,0.875 -11.07,4.826 -0.41,1.544 -0.57,2.987 -0.35,3.207 0.5,0.5 3.03,-0.768 5.44,-2.711 3.18,-2.574 6.26,0.438 3.99,3.905 -2.85,4.346 -12.2,6.269 -23.26,4.782 -6.98,-0.94 -9.61,-2.043 -9.92,-4.158 -0.23,-1.655 1.88,-3.304 3.57,-2.778 4.13,1.291 4.77,1.178 4.74,-0.83 0,-1.081 0.33,-2.895 0.79,-4.03 0.44,-1.134 0.72,-2.15 0.61,-2.258 -0.64,-0.625 -9.41,-2.462 -11.73,-2.453 -4.4,0 -11.55,1.982 -16.17,4.44 -4.98,2.654 -12.87,11.259 -15.75,17.177 -2.19,4.508 -4.76,13.537 -4.76,16.751 0,2.165 0.17,2.335 2.35,2.335 5.81,0 15.89,4.089 22.48,9.119 2.89,2.201 10.02,12.526 12.27,17.7648 l 1.56,3.629 4.17,-1.683 c 2.29,-0.918 6.6,-2.054 9.58,-2.517 z m 93.8,-8.2698 c 1.57,-1.946 3.08,-5.681 3.76,-9.304 l 0.62,-3.308 -2.62,3.119 c -1.44,1.716 -2.99,4.112 -3.45,5.324 -1.72,4.519 -0.67,7.096 1.69,4.169 z m -160.74,-9.574 c -0.26,-3.595 -0.47,-8.12 -0.47,-10.053 0,-2.927 -0.2,-3.474 -1.22,-3.278 -1.69,0.321 -2.55,4.858 -2.07,10.941 0.43,5.484 1.67,8.914 3.22,8.923 0.82,0 0.92,-1.183 0.54,-6.533 z m 198.1,1.514 c 0,-0.285 -2.16,-0.866 -4.82,-1.284 -2.65,-0.42 -5.62,-0.959 -6.6,-1.194 -0.99,-0.232 0.14,0.402 2.49,1.416 2.36,1.014 4.75,2.31 5.32,2.879 0.9,0.904 1.2,0.884 2.32,-0.134 0.71,-0.641 1.29,-1.399 1.29,-1.683 z m 51.04,-8.368 c -0.27,-5.402 -0.6,-9.941 -0.74,-10.089 -0.12,-0.143 -0.7,-0.09 -1.28,0.134 -2.35,0.903 -2.35,14.438 0,18.031 2.2,3.358 2.53,2.014 2.02,-8.077 z m -66.44,4.477 c -1.21,-0.535 -2.61,-1.488 -3.12,-2.105 -0.51,-0.616 -1.3,-1.122 -1.75,-1.122 -0.45,0 -2,-0.804 -3.45,-1.786 -1.45,-0.982 -2.81,-1.786 -3.02,-1.786 -0.22,0 -0.4,1.591 -0.4,3.536 v 3.536 l 4.07,0.214 c 2.24,0.116 5.37,0.277 6.96,0.357 l 2.9,0.143 z m -24.98,-6.994 c 1.47,-4.502 2.7,-5.311 7.05,-4.606 1.85,0.304 2.45,0.09 3.09,-1.163 0.44,-0.848 1.93,-3.625 3.32,-6.179 3,-5.511 4.51,-11.119 5.13,-18.976 0.58,-7.381 -0.57,-14.166 -3.57,-21.082 -4.75,-10.924 -10.55,-18.094 -17.03,-21.05 -4.82,-2.199 -14.73,-3.109 -17.08,-1.569 -1.53,1.005 -3.89,5.984 -3.17,6.702 0.39,0.383 4.49,-1.378 6.39,-2.757 0.93,-0.669 1.58,-0.696 2.5,-0.116 2.18,1.362 1.91,3.555 -0.66,5.5 -5.86,4.42 -15.02,4.403 -27.93,-0.09 -2.48,-0.857 -3.53,-1.641 -3.84,-2.868 -0.68,-2.693 0.65,-3.405 4.76,-2.563 3.37,0.687 3.57,0.651 3.6,-0.75 0,-0.813 0.48,-2.287 1.04,-3.269 1.65,-2.883 1.31,-3.379 -3.39,-4.905 -8.75,-2.843 -16.49,-2.313 -25.54,1.752 -5.58,2.504 -13.59,10.781 -17.32,17.9 -3.18,6.077 -3.3,6.865 -0.88,6.258 2.77,-0.696 3.79,0.741 4.32,6.117 l 0.48,4.867 7.6,-0.09 c 5.43,-0.09 8.75,0.268 11.67,1.161 8.22,2.522 17.18,11.482 23.37,23.371 2.94,5.639 5.76,15.019 5.76,19.139 0,2.313 0.11,2.416 1.97,1.937 7.8,-2.013 15.37,-1.797 21.74,0.616 2.48,0.942 4.68,1.508 4.9,1.258 0.21,-0.25 0.99,-2.312 1.73,-4.579 z m 50.41,1.301 c 2.38,-1.748 5.46,-3.59 6.85,-4.092 2.84,-1.026 2.84,-1.091 0.56,-8.799 -0.88,-2.982 -1.25,-6.568 -1.22,-11.786 0.1,-15.902 4.54,-26.751 15.85,-38.776 5.48,-5.829 10.49,-9.26 16.11,-11.035 3.37,-1.064 4.09,-1.595 4.6,-3.403 0.73,-2.595 0.12,-3.222 -6.13,-6.201 -6.41,-3.061 -13.21,-3.827 -20.68,-2.331 -1.4,0.286 -1.48,0.554 -0.87,3.251 0.36,1.62 0.49,3.484 0.28,4.143 -0.32,1.018 0.17,1.194 3.28,1.168 4.69,0 6.13,1.573 3.64,4.067 -1.53,1.524 -2.16,1.613 -11.06,1.553 -7,-0.09 -10.27,-0.375 -12.61,-1.263 -3.67,-1.39 -7.56,-4.187 -8.64,-6.203 -1.74,-3.256 3,-5.969 5.15,-2.949 0.52,0.723 1.87,1.915 3.02,2.657 l 2.08,1.351 -0.41,-3.07 c -0.23,-1.689 -0.95,-3.655 -1.59,-4.37 -2.95,-3.253 -15.16,-3.926 -21.25,-1.169 -5.05,2.284 -7.62,4.329 -12.71,10.092 l -4.28,4.848 1.67,2.212 c 5.7,7.556 10.45,18.239 11.88,26.669 1.63,9.699 -0.6,24.027 -5.06,32.384 -2.16,4.05 -2.2,4.311 -1.03,5.611 1.78,1.97 10.3,6.291 14.78,7.494 2.11,0.572 6.01,1.054 8.66,1.08 4.61,0.09 5,-0.09 9.14,-3.133 z m 78.9,-0.375 c 0.7,-1.562 3.9,-5.821 7.1,-9.464 4.6,-5.234 6.78,-7.111 10.43,-8.952 6.74,-3.404 13.02,-5.17 18.37,-5.17 h 4.67 l -0.42,-6.25 c -0.57,-8.624 -2.56,-14.421 -7.55,-21.98 -4.59,-6.964 -6.83,-9.033 -13.4,-12.35 -6.03,-3.043 -11.59,-4.069 -17.77,-3.275 -4.42,0.572 -4.97,0.804 -4.79,2.07 0.12,0.786 0.25,2.713 0.3,4.285 l 0.1,2.857 3.32,-0.241 c 3.92,-0.286 5.61,1.016 4.35,3.359 -1.11,2.084 -3.02,2.454 -12.59,2.447 -7.89,0 -8.99,-0.178 -13.07,-2.005 -4.29,-1.925 -7.96,-5.191 -7.96,-7.078 0,-0.5 0.63,-1.48 1.41,-2.182 1.32,-1.195 1.52,-1.202 3.21,-0.1 1,0.652 1.81,1.427 1.81,1.726 0,0.294 1.01,1.142 2.25,1.873 l 2.25,1.329 -0.5,-3.139 c -0.75,-4.777 -2.6,-6.156 -9.36,-6.983 -6.77,-0.83 -11.46,-0.116 -15.71,2.371 -7.62,4.467 -15.92,14.333 -19.99,23.751 -1.89,4.387 -2.59,7.332 -3.28,13.792 -0.83,7.772 -0.8,8.561 0.74,14.643 2.22,8.831 2.29,8.926 6.3,8.944 1.85,0 5.38,0.437 7.85,0.954 5.03,1.054 4.5,1.525 5.54,-4.884 0.84,-5.153 1.27,-5.494 6.27,-4.963 5.72,0.607 6.79,1.666 7.38,7.297 l 0.46,4.464 2.57,-0.482 c 7.64,-1.436 16.95,0 23.41,3.711 2.29,1.303 4.36,2.39 4.6,2.415 0.23,0 1,-1.232 1.71,-2.795 z m -121.78,0.316 c 0,-0.849 -2.04,-0.206 -2.41,0.759 -0.34,0.884 -0.16,0.948 1,0.33 0.77,-0.42 1.41,-0.905 1.41,-1.088 z m -156.59,-2.119 c 0.73,-7.597 4.31,-18.795 7.5,-23.434 0.76,-1.103 1.27,-2.112 1.13,-2.242 -0.43,-0.393 -22.86,15.448 -22.45,15.859 0.21,0.214 2.05,0.643 4.1,0.97 2.04,0.322 4.13,1.008 4.65,1.523 0.51,0.518 1.14,2.951 1.4,5.415 0.42,4.026 0.62,4.459 1.97,4.266 1.09,-0.152 1.56,-0.804 1.7,-2.357 z m -17.27,-3.265 c 0.47,-2.525 0.73,-4.706 0.61,-4.845 -0.48,-0.527 -11,7.232 -10.63,7.836 0.21,0.348 1.42,0.651 2.67,0.678 1.25,0 2.92,0.322 3.71,0.661 2.33,0.997 2.76,0.482 3.64,-4.334 z m 463.75,-13.824 c 7.91,-8.417 14.4,-15.463 14.4,-15.658 0,-0.196 -2.29,-0.875 -5.08,-1.509 -5.46,-1.24 -9.57,-3.059 -13.36,-5.898 -1.31,-0.977 -2.48,-1.663 -2.59,-1.526 -0.1,0.134 -0.95,1.676 -1.82,3.417 -0.9,1.742 -3,5.278 -4.7,7.857 l -3.1,4.692 1.08,5.65 c 0.63,3.285 0.99,8.297 0.89,11.966 -0.1,3.474 -0.17,6.315 -0.17,6.314 0,-0 6.54,-6.889 14.46,-15.305 z m -282.94,14.158 c -0.24,-0.242 -0.86,-0.259 -1.37,-0.09 -0.57,0.223 -0.4,0.393 0.43,0.429 0.75,0 1.17,-0.134 0.93,-0.375 z m 170.28,-3.361 c 2.73,-3.766 3.79,-17.994 1.34,-17.994 -0.67,0 -1.15,0.804 -1.27,2.143 -0.11,1.179 -0.68,4.396 -1.26,7.152 -1.67,7.839 -1.88,10.352 -0.86,10.326 0.49,0 1.41,-0.741 2.06,-1.627 z m -272.11,-23.172 c 2.19,-3.771 3.52,-15.1 2.03,-17.322 -0.65,-0.953 -0.8,-0.953 -1.43,0 -0.38,0.589 -0.7,1.754 -0.71,2.589 0,0.83 -0.65,4.048 -1.43,7.142 -1.65,6.565 -1.82,9.555 -0.52,9.555 0.5,0 1.43,-0.884 2.06,-1.964 z m 370.98,-11.134 2.59,-4.883 -3.97,-7.975 c -2.19,-4.384 -5.01,-11.026 -6.27,-14.758 -2.16,-6.4 -2.29,-7.375 -2.29,-17.143 0,-7.009 0.36,-11.808 1.11,-14.845 l 1.12,-4.487 -3.13,-1.833 c -5.96,-3.491 -10.23,-4.701 -16.69,-4.737 -3.34,0 -6.76,0.187 -7.6,0.455 -1.38,0.447 -1.46,0.768 -0.89,3.407 0.36,1.605 0.44,3.457 0.27,4.116 -0.36,1.017 0.17,1.193 3.28,1.167 4.69,0 6.13,1.574 3.64,4.067 -1.53,1.525 -2.17,1.614 -11.07,1.554 -6.99,-0.09 -10.26,-0.375 -12.61,-1.263 -3.66,-1.391 -7.56,-4.187 -8.64,-6.203 -1.74,-3.256 3,-5.97 5.15,-2.949 0.54,0.723 1.88,1.915 3.02,2.657 l 2.08,1.351 -0.44,-3.071 c -0.54,-3.891 -1.97,-5.466 -5.9,-6.456 -10.72,-2.699 -20.37,0.67 -28.89,10.068 l -3.69,4.07 3.21,3.927 c 7.61,9.348 12.08,19.956 12.75,30.287 0.36,5.722 0.36,5.624 2.32,5.97 1.24,0.215 1.48,-0.312 2,-4.361 0.71,-5.502 1.37,-6.464 4.5,-6.464 1.31,0 3.21,-0.375 4.22,-0.839 2.63,-1.196 3.98,0.411 4.99,5.981 0.94,5.109 0.18,4.833 9.42,3.506 7.49,-1.077 13.07,-0.215 19,2.923 6.94,3.678 17.45,14.849 21.03,22.353 l 1.22,2.577 1.25,-1.643 c 0.72,-0.902 2.41,-3.839 3.84,-6.525 z m 65.38,-31.291 c 17.46,-18.521 31.83,-34.22 31.95,-34.888 0.27,-1.743 -6.3,-11.293 -10.56,-15.285 -5.54,-5.183 -9.01,-6.493 -17.22,-6.502 -8.35,0 -10.08,0.741 -11.18,4.856 -0.44,1.64 -0.71,3.073 -0.62,3.186 0.36,0.383 3.62,-1.253 5.61,-2.845 2.46,-1.972 4.43,-1.089 4.43,1.982 0,2.852 -4.36,5.797 -10.19,6.881 -7.32,1.362 -22.31,-0.83 -23.3,-3.403 -1.06,-2.767 1.63,-4.364 5.53,-3.285 l 2.44,0.67 0.44,-2.956 c 0.98,-5.888 1.06,-5.705 -2.82,-6.619 -12.45,-2.936 -24.36,1.078 -32.97,11.116 -8.49,9.912 -11.25,18.067 -11.23,33.262 0,9.013 0.18,10.564 1.97,15.714 3.62,10.596 7.41,17.478 12.18,22.17 4.85,4.755 7.76,6.387 14.69,8.245 9.03,2.415 5.24,5.417 40.77,-32.303 z m -168.99,22.658 c 6.27,-4.781 13.98,-8.069 21.84,-9.31 l 2.54,-0.402 -0.27,-4.457 c -0.8,-13.755 -11.54,-31.523 -22.17,-36.739 -3.6,-1.773 -4.87,-2.004 -10.93,-2.004 -8.34,0 -10.07,0.75 -11.17,4.863 -0.44,1.641 -0.71,3.074 -0.59,3.186 0.38,0.384 3.62,-1.253 5.61,-2.845 2.46,-1.971 4.43,-1.089 4.43,1.983 0,2.851 -4.36,5.797 -10.19,6.881 -7.32,1.361 -22.31,-0.831 -23.3,-3.404 -1.06,-2.767 1.63,-4.363 5.53,-3.285 l 2.44,0.67 0.49,-2.955 c 0.98,-5.889 1.05,-5.706 -2.82,-6.619 -8.25,-1.946 -15.99,-0.821 -24.17,3.505 -7.24,3.833 -16.87,16.777 -18.09,24.319 l -0.38,2.321 5.6,0.803 c 6.35,0.914 6.31,0.939 6.98,-4.107 0.25,-1.882 1.05,-4.163 1.79,-5.07 1.2,-1.492 1.5,-1.558 3.13,-0.688 0.98,0.527 2.12,0.759 2.51,0.518 0.89,-0.545 4.56,0.777 5.24,1.883 0.28,0.437 0.71,2.702 0.99,5.025 l 0.49,4.223 6.18,-0.491 c 4.72,-0.375 7.29,-0.205 10.82,0.696 5.78,1.482 14.48,6.068 18.06,9.527 3.13,3.022 9.17,12.156 11.25,17.01 l 1.42,3.313 2.15,-3.245 c 1.18,-1.784 3.25,-4.084 4.6,-5.111 z m -273.54,3.695 c 0.27,-1.67 1.57,-5.912 2.89,-9.428 1.32,-3.517 2.28,-6.505 2.15,-6.641 -0.23,-0.223 -23.45,15.6 -25.03,17.055 -0.39,0.366 1.56,0.464 4.64,0.241 3.5,-0.259 6.68,0 9.25,0.634 5.61,1.456 5.54,1.478 6.1,-1.858 z m 314.86,0.616 c 1.53,-2.327 2.18,-7.98 1.57,-13.613 -0.44,-3.964 -0.71,-4.68 -1.86,-4.68 -1.17,0 -1.38,0.527 -1.38,3.462 0,1.904 -0.18,6.404 -0.45,10 -0.53,6.867 0,8.039 2.14,4.831 z m -101.36,-20.973 c -0.49,-9.961 -0.99,-11.923 -2.63,-10.286 -0.6,0.598 -0.89,3.373 -0.89,8.536 0,6.28 0.24,7.993 1.33,9.607 0.73,1.08 1.63,1.964 2,1.964 0.41,0 0.48,-3.826 0.19,-9.821 z m -148.67,-3.412 c 1.96,-2.692 3.32,-7.181 3.82,-12.584 0.4,-4.23 0.3,-4.897 -0.7,-4.897 -0.69,0 -1.33,0.804 -1.58,1.964 -0.23,1.081 -1.37,4.876 -2.52,8.434 -1.15,3.558 -2.09,7.014 -2.09,7.679 0,1.751 1.58,1.444 3.07,-0.598 z m 41.93,-25.848 v -13.01 l -13.03,9.004 c -20.83,14.385 -19.11,12.938 -19.11,16.066 v 2.736 h 3.03 c 8.31,0.09 18.37,2.721 20.67,5.496 0.8,0.964 1.4,0.563 4.68,-3.096 l 3.76,-4.186 z m 46.04,9.974 c -0.28,-5.402 -0.61,-9.941 -0.74,-10.088 -0.13,-0.143 -0.71,-0.09 -1.28,0.134 -2.35,0.902 -2.35,14.437 0,18.031 2.2,3.358 2.53,2.013 2.01,-8.078 z m 349.16,-7.5 c 0.18,-3.437 0.18,-6.227 -0.1,-6.198 -0.27,0 -1.29,1.073 -2.32,2.321 -1.62,1.972 -1.92,3.095 -2.2,8.561 l -0.35,6.29 2.29,-2.361 c 2.15,-2.212 2.32,-2.762 2.65,-8.613 z m -440.59,5.013 c 1.48,-4.542 2.06,-4.917 7.26,-4.69 3.5,0.151 3.82,0 16.74,-9.052 7.25,-5.064 15.03,-10.497 17.28,-12.072 l 4.11,-2.864 v -5.846 c 0,-3.216 0.22,-6.924 0.48,-8.24 l 0.49,-2.394 -2.09,1.327 c -2.45,1.558 -63.99,43.998 -64.73,44.636 -0.27,0.241 1.66,0.482 4.29,0.545 3.14,0.09 6.38,0.723 9.43,1.883 2.55,0.975 4.81,1.568 5.03,1.318 0.21,-0.25 0.99,-2.299 1.72,-4.55 z m 129.31,0.895 c 0.71,-1.562 3.9,-5.821 7.1,-9.464 4.6,-5.234 6.79,-7.111 10.44,-8.952 6.74,-3.404 13.02,-5.17 18.37,-5.17 h 4.67 l -0.42,-6.25 c -0.58,-8.624 -2.57,-14.421 -7.55,-21.98 -4.59,-6.964 -6.84,-9.033 -13.41,-12.35 -6.03,-3.043 -11.59,-4.069 -17.76,-3.275 -4.43,0.572 -4.98,0.804 -4.79,2.07 0.12,0.786 0.25,2.713 0.3,4.285 l 0.1,2.857 3.31,-0.241 c 3.93,-0.286 5.61,1.016 4.36,3.359 -1.12,2.084 -3.02,2.454 -12.59,2.447 -7.89,0 -8.99,-0.179 -13.07,-2.005 -4.29,-1.925 -7.96,-5.191 -7.96,-7.078 0,-0.5 0.63,-1.48 1.41,-2.182 1.32,-1.196 1.52,-1.202 3.21,-0.1 0.99,0.651 1.81,1.426 1.81,1.726 0,0.303 1.01,1.142 2.25,1.873 l 2.25,1.329 -0.49,-3.139 c -0.75,-4.777 -2.61,-6.156 -9.37,-6.983 -6.76,-0.83 -11.45,-0.116 -15.7,2.37 -7.63,4.468 -15.93,14.333 -19.99,23.751 -1.89,4.388 -2.59,7.332 -3.28,13.793 -0.83,7.772 -0.79,8.561 0.74,14.643 2.22,8.83 2.28,8.926 6.3,8.944 1.85,0 5.38,0.437 7.84,0.953 5.04,1.055 4.51,1.525 5.55,-4.884 0.84,-5.152 1.26,-5.493 6.27,-4.962 5.71,0.607 6.78,1.666 7.37,7.297 l 0.47,4.464 2.57,-0.483 c 7.63,-1.435 16.95,0 23.41,3.712 2.29,1.303 4.36,2.389 4.59,2.415 0.24,0 1.01,-1.232 1.71,-2.795 z m -73,-3.229 c 3.71,-1.575 3.87,-2.07 2.23,-6.776 -0.62,-1.762 -1.47,-5.86 -1.9,-9.107 -0.74,-5.47 -0.92,-5.903 -2.45,-5.903 -1.54,0 -1.66,0.286 -1.66,4.175 0,2.296 -0.21,7.643 -0.47,11.883 -0.29,4.747 -0.21,7.603 0.21,7.432 0.37,-0.151 2.19,-0.918 4.04,-1.704 z m 128.46,-4.864 c 2.73,-3.766 3.79,-17.993 1.34,-17.993 -0.67,0 -1.15,0.803 -1.27,2.143 -0.11,1.178 -0.68,4.396 -1.26,7.151 -1.67,7.84 -1.88,10.352 -0.86,10.326 0.49,0 1.41,-0.741 2.05,-1.627 z m 88.8,-16.743 c -0.27,-5.402 -0.62,-9.941 -0.71,-10.089 -0.1,-0.143 -0.72,-0.09 -1.28,0.134 -2.36,0.903 -2.35,14.438 0,18.031 2.2,3.359 2.54,2.014 2.02,-8.077 z m -46.85,4.122 4.74,-4.984 -17.85,-0.196 c -9.83,-0.107 -18.42,-0.474 -19.11,-0.804 -1.1,-0.536 -1.25,-0.214 -1.25,2.683 v 3.295 l 5.98,-0.456 c 7.5,-0.58 14.02,0.59 18.71,3.352 1.93,1.141 3.64,2.081 3.78,2.087 0.18,0 2.4,-2.231 5,-4.973 z m -47.76,-2.872 c 0,-1.81 -0.27,-2.143 -1.78,-2.143 -1.41,0 -1.79,0.357 -1.79,1.726 0,0.95 0.4,1.888 0.89,2.086 2.02,0.813 2.68,0.402 2.68,-1.669 z m 132.49,-2.842 c 0.72,-1.563 3.91,-5.822 7.11,-9.465 4.6,-5.233 6.79,-7.11 10.43,-8.951 6.74,-3.405 13.02,-5.171 18.37,-5.171 h 4.68 l -0.45,-6.25 c -0.53,-8.624 -2.57,-14.42 -7.55,-21.979 -4.59,-6.965 -6.83,-9.033 -13.4,-12.35 -6.03,-3.044 -11.6,-4.07 -17.77,-3.275 -4.42,0.571 -4.98,0.803 -4.79,2.069 0.1,0.786 0.27,2.714 0.27,4.285 v 2.857 l 3.32,-0.241 c 3.93,-0.285 5.61,1.016 4.36,3.359 -1.12,2.084 -3.03,2.455 -12.6,2.447 -7.89,0 -8.98,-0.178 -13.06,-2.005 -4.29,-1.925 -7.97,-5.191 -7.97,-7.078 0,-0.5 0.63,-1.48 1.41,-2.182 1.32,-1.195 1.53,-1.201 3.22,-0.1 0.99,0.652 1.8,1.427 1.8,1.726 0,0.304 1.01,1.142 2.25,1.873 l 2.25,1.33 -0.45,-3.14 c -0.8,-4.776 -2.6,-6.156 -9.36,-6.983 -6.77,-0.83 -11.46,-0.116 -15.71,2.371 -7.62,4.468 -15.93,14.333 -19.99,23.751 -1.89,4.387 -2.59,7.332 -3.28,13.793 -0.8,7.771 -0.8,8.56 0.72,14.642 2.22,8.831 2.28,8.926 6.3,8.944 1.85,0 5.39,0.438 7.85,0.954 5.04,1.054 4.5,1.525 5.54,-4.884 0.8,-5.153 1.26,-5.494 6.27,-4.963 5.72,0.607 6.79,1.666 7.38,7.298 l 0.44,4.463 2.58,-0.482 c 7.63,-1.436 16.95,0 23.41,3.712 2.29,1.302 4.36,2.389 4.59,2.415 0.27,0 1,-1.232 1.71,-2.796 z m 107.52,1.056 c 0.71,-0.895 0.62,-1.071 -0.63,-1.071 -1.03,0 -1.36,0.33 -1.08,1.071 0.27,0.589 0.54,1.071 0.63,1.071 0.1,0 0.62,-0.482 1.08,-1.071 z m -361.45,-10.179 c 0.43,-2.259 1.41,-5.794 2.16,-7.857 l 1.38,-3.75 h -4.26 -4.27 v 7.857 7.858 h 2.1 c 1.98,0 2.13,-0.224 2.89,-4.108 z m 184.29,2.862 c 0,-0.295 -0.44,-1.928 -1.09,-3.622 -0.62,-1.696 -1.31,-4.749 -1.6,-6.786 l -0.54,-3.704 -33.47,-0.187 c -31.67,-0.179 -33.45,-0.116 -33.07,1.071 1.65,5.282 2.61,9.463 2.62,11.417 v 2.303 h 33.57 c 18.47,0 33.56,-0.223 33.56,-0.518 z m 183.78,-13.22 c -6.98,-0.294 -16.23,-0.455 -20.55,-0.357 l -7.86,0.179 3.62,2.235 c 1.99,1.229 5.51,4.191 7.82,6.581 l 4.19,4.346 6.11,0.206 6.12,0.205 6.62,-6.429 6.63,-6.428 z m -58.7,11.408 c 1.26,-1.783 2.79,-7.322 2.79,-10.166 0,-1.523 -0.27,-1.833 -1.56,-1.648 -1.22,0.179 -1.77,1.024 -2.48,3.8 -2.16,8.457 -1.61,12.017 1.25,8.014 z m -246.9,-33.192 c -0.49,-9.961 -1,-11.924 -2.63,-10.286 -0.61,0.607 -0.9,3.373 -0.9,8.536 0,6.28 0.24,7.992 1.34,9.607 0.73,1.08 1.63,1.964 2,1.964 0.41,0 0.48,-3.827 0.19,-9.821 z m 182.14,-26.429 c -0.44,-9.961 -1,-11.923 -2.63,-10.286 -0.63,0.607 -0.89,3.374 -0.89,8.536 0,6.28 0.26,7.993 1.33,9.607 0.71,1.081 1.63,1.964 2.01,1.964 0.44,0 0.44,-3.826 0.17,-9.821 z" id="path1" />
<rect style="fill:none;stroke:black;stroke-width:6.85982;stroke-linecap:round;stroke-linejoin:round;paint-order:markers fill stroke" id="rect1-1" width="1493.14" height="893.14" x="532.43" y="-413.57" />
</g>
</svg>
