<?xml version="1.0" encoding="UTF-8" standalone="no"?>
<!-- Created with Inkscape (http://www.inkscape.org/) -->

<svg version="1.1" id="svg1" width="1500.01" height="898.905" viewBox="0 0 1500.01 898.905" sodipodi:docname="box-empty.svg" inkscape:version="1.3.2 (091e20ef0f, 2023-11-25)" xml:space="preserve" xmlns:inkscape="http://www.inkscape.org/namespaces/inkscape" xmlns:sodipodi="http://sodipodi.sourceforge.net/DTD/sodipodi-0.dtd" xmlns="http://www.w3.org/2000/svg" xmlns:svg="http://www.w3.org/2000/svg"><defs id="defs1" /><sodipodi:namedview id="namedview1" pagecolor="#ffffff" bordercolor="#000000" borderopacity="0.25" inkscape:showpageshadow="2" inkscape:pageopacity="0.0" inkscape:pagecheckerboard="0" inkscape:deskcolor="#d1d1d1" inkscape:zoom="0.306466" inkscape:cx="500.871" inkscape:cy="549.816" inkscape:window-width="2560" inkscape:window-height="1371" inkscape:window-x="0" inkscape:window-y="0" inkscape:window-maximized="1" inkscape:current-layer="g1" /><g inkscape:groupmode="layer" inkscape:label="Image" id="g1" transform="translate(-5.00679e-6,-289.018)"><path style="fill:black;stroke-width:8.92859" d="m 371.96,1065.57 -1.545,-1.64 V 860.389 656.854 l 3.884,-2.5 c 2.136,-1.375 8.498,-5.745 14.139,-9.709 5.639,-3.966 14.271,-9.961 19.181,-13.323 4.911,-3.363 21.465,-14.846 36.786,-25.519 63.849,-44.476 275.783,-190.928 278.149,-192.21 1.411,-0.759 3.369,-1.996 4.351,-2.74 1.729,-1.31 3.228,-1.333 47.144,-0.732 24.946,0.339 114.339,0.598 198.652,0.563 113.269,0 153.699,0.151 154.829,0.75 1.95,1.046 2.6,3.716 1.6,6.579 -0.44,1.372 -0.8,8.193 -0.8,17.334 0,8.29 -1.13,84.179 -2.5,168.644 -1.37,84.465 -2.49,157.045 -2.49,161.291 0,7.551 0,7.76 -2.05,9.643 -1.11,1.058 -24.49,31.174 -51.94,66.924 -27.44,35.75 -74.479,96.982 -104.515,136.071 -30.036,39.09 -57.277,74.61 -60.527,78.93 -3.259,4.32 -6.417,8.42 -7.026,9.1 -1.052,1.19 -14.449,1.25 -262.413,1.25 H 373.505 Z m 519.868,-18.03 c 0,-12.09 -0.09,-12.5 -1.358,-11.79 -0.932,0.53 -2.058,0.44 -3.585,0 -3.107,-1.08 -4.672,-0.54 -10.594,3.92 -5.29,3.94 -13.031,7.34 -18.338,8.04 -2.189,0.27 -4.416,-0.18 -8.982,-1.86 -12.17,-4.5 -11.75,-4.42 -16.104,-2.8 -5.221,1.96 -7.111,1.65 -7.111,-1.13 0,-1.77 0.465,-2.36 2.664,-3.4 1.465,-0.71 4.091,-1.63 5.832,-2.1 3.367,-0.9 3.026,-0.99 18.458,4.57 l 4.095,1.47 5.548,-1.96 c 3.226,-1.15 7.601,-3.46 10.459,-5.53 7.805,-5.67 12.301,-6.86 16.909,-4.47 l 2.107,1.09 V 1018 1004.41 h -46.072 -46.072 v 22.85 22.86 H 631.47 463.255 v -12.37 -12.37 l -6.133,-4.17 c -8.51,-5.78 -11.569,-10.85 -7.353,-12.19 1.003,-0.35 2.423,0.54 5.188,3.01 2.094,1.9 4.859,4.06 6.145,4.8 l 2.337,1.34 -0.312,-6.5 c -0.17,-3.58 -0.5,-6.7 -0.732,-6.93 -0.232,-0.27 -19.42,-0.18 -42.639,0.1 l -42.217,0.54 v 27.38 27.39 h 257.144 257.144 z m 37.259,-34.26 C 965.712,965.587 1035.79,874.378 1081.4,815.068 l 34.34,-44.643 0.54,-5.356 c 0.53,-6.026 0.62,-20.421 0,-18.214 -0.45,1.654 -1.89,3.517 -15.92,20.039 -5.7,6.71 -15.65,18.446 -22.11,26.081 -6.47,7.633 -16.12,19.023 -21.46,25.309 -5.34,6.285 -14.99,17.696 -21.43,25.356 -6.46,7.661 -15.16,17.946 -19.36,22.858 -4.2,4.911 -13.32,15.678 -20.297,23.927 -6.965,8.251 -16.607,19.662 -21.411,25.359 -4.813,5.696 -23.732,28.035 -42.037,49.642 l -33.29,39.284 v 23.87 c 0,13.13 0.1,23.74 0.232,23.57 0.143,-0.18 13.577,-17.65 29.863,-38.87 z m -135.831,-3.46 v -33.831 l -4.821,-0.447 c -2.653,-0.267 -7.013,-0.446 -9.69,-0.446 -4.694,0 -7.411,-0.804 -8.515,-2.437 -0.285,-0.447 -0.526,-5.045 -0.535,-10.25 v -9.465 h -150 -150 v 45.357 45.359 H 631.47 793.256 Z M 463.255,972.212 v -25.714 h 156.25 156.251 l 11.965,11.919 11.963,11.911 v 7.089 7.09 l 1.686,-1.099 c 0.928,-0.625 3.538,-1.642 5.801,-2.303 5.108,-1.482 9.922,-0.714 17.7,2.83 3.852,1.75 6.743,2.509 11.03,2.893 l 5.808,0.536 3.234,-2.973 c 3.853,-3.554 6.387,-3.741 6.758,-0.536 0.393,3.455 -6.851,9.214 -11.588,9.205 -5.475,0 -12.627,-1.598 -18.138,-4.035 -6.813,-3.009 -11.451,-3.465 -15.654,-1.536 -3.157,1.455 -6.637,6.045 -6.637,8.768 v 1.893 l 32.261,-0.447 c 17.743,-0.268 38.476,-0.446 46.071,-0.446 h 13.812 v -60.348 -60.358 h -9.643 -9.644 v 22.179 c 0,24.393 -0.143,25.321 -4.303,27.473 -1.861,0.964 -6.221,1.072 -33.738,0.804 -17.38,-0.179 -32.163,-0.268 -32.852,-0.268 -4.194,0 -64.787,0.09 -66.249,0 -0.982,0 -16.169,0 -33.75,0 -17.581,0 -32.769,0 -33.751,0 -0.982,0 -16.009,0 -33.393,0 -17.384,0 -32.41,0 -33.392,0 -0.982,0 -16.089,0 -33.572,0 -17.482,0 -32.589,0 -33.571,0 -0.982,0 -16.09,0 -33.572,0 -17.482,0 -32.589,0 -33.571,0 -0.983,0 -16.323,0 -34.091,0 l -32.306,0.09 -1.98,-1.982 -1.98,-1.946 -0.207,-23.203 -0.207,-23.199 h -9.257 -9.259 v 60.714 60.714 h 42.858 42.857 z M 408.719,961.48 c -10.293,-3.089 -13.897,-15.518 -6.748,-23.268 9.139,-9.92 26.284,-3.84 26.284,9.313 0,4.446 -1.348,7.384 -4.84,10.535 -4.15,3.741 -9.478,4.982 -14.696,3.42 z m 9.715,-10.063 c 2.549,-2.705 2.51,-5.196 -0.125,-7.83 -1.638,-1.643 -2.729,-2.089 -5.055,-2.089 -2.327,0 -3.418,0.446 -5.056,2.089 -2.672,2.67 -2.762,5.615 -0.25,8.125 3.173,3.179 7.323,3.063 10.481,-0.268 z m 434.571,9.349 c -10.293,-3.09 -13.897,-15.518 -6.748,-23.268 9.139,-9.92 26.284,-3.839 26.284,9.312 0,4.447 -1.347,7.384 -4.839,10.536 -4.15,3.741 -9.48,4.982 -14.697,3.42 z m 9.716,-10.063 c 2.55,-2.705 2.51,-5.196 -0.125,-7.83 -1.638,-1.643 -2.73,-2.089 -5.057,-2.089 -2.326,0 -3.417,0.446 -5.054,2.089 -2.672,2.669 -2.762,5.616 -0.25,8.125 3.172,3.178 7.321,3.062 10.48,-0.268 z m 51.303,26.509 c 11.509,-13.723 44.25,-52.545 57.83,-68.571 3.822,-4.519 16.027,-18.983 27.125,-32.143 11.091,-13.161 23.301,-27.625 27.121,-32.144 3.82,-4.517 14.27,-16.892 23.22,-27.5 8.96,-10.606 21.18,-25.07 27.16,-32.143 14.1,-16.669 34.43,-40.744 37.08,-43.931 1.15,-1.373 2.27,-2.444 2.5,-2.379 0.27,0.09 0.45,-2.504 0.45,-5.713 0,-3.209 0.45,-22.985 0.93,-43.946 0.44,-20.964 0.8,-38.341 0.62,-38.617 -0.1,-0.276 -5.84,5.48 -12.71,12.792 -17.48,18.575 -133.737,141.934 -156.201,165.723 -10.196,10.804 -25.661,27.197 -34.366,36.429 l -15.835,16.786 v 55.42 c 0,30.473 0.206,55.634 0.473,55.911 0.625,0.625 0.608,0.625 14.558,-15.974 z m 8.027,-25.723 c -5.893,-2.367 -4.501,-11.795 3.607,-24.447 3.018,-4.705 7.884,-8.625 17.17,-13.83 7.866,-4.402 10.035,-7 13.651,-16.337 1.509,-3.892 3.304,-7.292 4.161,-7.893 3.027,-2.124 7.616,-0.83 7.616,2.159 0,1.707 -2.018,3.425 -3.571,3.045 -0.447,-0.107 -1.688,2.125 -2.795,4.954 -4.241,10.76 -7.205,14.126 -17.527,19.875 -8.428,4.688 -13.714,9.894 -17.017,16.769 -2.795,5.812 -3.947,10 -2.75,10 1.187,0 5.848,-5.161 6.875,-7.617 1.723,-4.117 6.785,-5.035 6.785,-1.232 0,3.679 -7.419,12.92 -11.652,14.518 -2.33,0.893 -2.473,0.893 -4.553,0 z m 70.25,-129.038 c -0.267,-0.259 -0.446,-1.342 -0.446,-2.398 0,-2.495 6.562,-9.719 14.495,-15.946 7.68,-6.027 9.47,-8.009 14.95,-16.539 5.5,-8.56 7.57,-10.466 16.09,-14.868 3.98,-2.055 7.14,-4.22 8.07,-5.541 1.71,-2.394 3.92,-2.595 5.25,-0.473 0.63,0.975 0.45,1.857 -0.62,3.928 -1.15,2.149 -2.75,3.368 -8.22,6.243 -9.46,4.978 -10.64,5.949 -14.28,11.742 -5.97,9.496 -9.93,14.212 -15.54,18.485 -3.04,2.322 -8.03,6.836 -11.08,10.032 -5.035,5.28 -7.285,6.673 -8.624,5.336 z m 38.379,-56.983 c -0.9,-2.269 0.27,-3.684 5.31,-6.451 7.79,-4.292 17.82,-12.905 18.7,-16.059 0.35,-1.393 0.71,-2.947 0.71,-3.454 0,-3.531 6.49,-11.178 13.01,-15.345 2.9,-1.857 5.37,-4.433 9.14,-9.567 2.84,-3.863 6.15,-8.067 7.36,-9.344 2.44,-2.572 5.07,-3.017 6.12,-1.038 0.54,1.043 -0.8,3.228 -7.05,11.607 -6.35,8.462 -8.52,10.815 -12.04,13.05 -5.16,3.267 -9.89,8.217 -10.51,10.981 -1.29,5.691 -1.87,7.334 -3.2,9.017 -2.82,3.593 -14.4,12.686 -19.28,15.141 -5.32,2.682 -7.65,3.094 -8.27,1.462 z M 788.256,968.444 c 0,-0.09 -2.733,-2.91 -6.072,-6.232 l -6.071,-6.036 v 6.233 6.232 h 6.071 c 3.339,0 6.072,-0.09 6.072,-0.179 z M 462.541,878.633 v -41.437 l -29.821,0.188 -29.822,0.187 -0.187,40.357 c -0.1,22.197 0,40.758 0.152,41.249 0.267,0.714 6.933,0.893 30.007,0.893 h 29.671 z m -43.563,36.802 c -1.312,-1.58 -0.357,-4.125 2.287,-6.107 2.114,-1.58 3.131,-1.777 10.205,-1.955 7.459,-0.179 8.056,-0.09 11.785,1.866 4.304,2.25 5.482,4.616 3.146,6.33 -1.97,1.438 -26.216,1.322 -27.423,-0.09 z m -5.641,-5.625 c -1.155,-1.393 -1.191,-28.047 0,-29.434 1.424,-1.717 3.243,-1.154 5.946,1.838 l 2.582,2.86 v 8.879 c 0,9.598 -0.509,11.848 -3.393,14.866 -2.051,2.152 -3.844,2.5 -5.096,0.991 z m 32.113,-1.687 c -2.192,-2.662 -2.195,-2.68 -2.192,-11.609 0,-8.82 0,-8.998 2.322,-12.797 2.77,-4.602 4.285,-5.761 6.067,-4.641 1.595,1 1.895,5.722 1.235,19.41 -0.509,10.628 -1.043,12.298 -3.911,12.298 -0.733,0 -2.314,-1.197 -3.521,-2.661 z m -32.122,-31.181 c -0.572,-0.689 -0.759,-5.313 -0.625,-15.18 l 0.196,-14.193 2.15,-0.214 c 1.684,-0.171 2.69,0.348 4.643,2.367 l 2.492,2.578 -0.152,8.8 c -0.134,7.592 -0.375,9.184 -1.729,11.563 -3.005,5.265 -5.09,6.544 -6.972,4.275 z m 33.286,-2.01 -2.848,-2.994 0.402,-9.094 c 0.223,-5.002 0.786,-9.842 1.261,-10.756 1.486,-2.887 4.459,-5.591 6.146,-5.591 2.986,0 3.36,2.092 2.856,15.991 -0.375,10.479 -0.678,13.064 -1.646,14.132 -1.773,1.957 -3.034,1.612 -6.173,-1.688 z M 421.327,848.22 c -4.115,-1.993 -5.33,-4.055 -3.479,-5.909 0.984,-0.985 3.32,-1.205 14.77,-1.393 14.275,-0.232 15.637,0 15.637,2.891 0,0.786 -1.187,2.512 -2.639,3.842 l -2.64,2.418 h -8.967 c -8.09,0 -9.331,-0.205 -12.682,-1.823 z m 108.357,30.413 v -41.437 l -29.821,0.188 -29.822,0.187 -0.187,40.357 c -0.1,22.197 0,40.758 0.151,41.249 0.268,0.714 6.933,0.893 30.008,0.893 h 29.671 z m -43.571,37.151 c -0.95,-1.777 -0.143,-3.438 2.895,-5.992 2.105,-1.776 2.621,-1.866 10.397,-1.866 7.312,0 8.558,0.179 11.706,1.786 4.304,2.179 5.36,3.813 3.856,5.964 -1.039,1.483 -1.565,1.536 -14.584,1.536 -12.775,0 -13.547,0 -14.27,-1.428 z m -4.623,-4.974 c -1.088,-1.205 -1.326,-3.268 -1.641,-14.26 -0.321,-11.193 -0.214,-13.084 0.821,-14.666 1.893,-2.888 4.228,-2.384 7.241,1.562 l 2.578,3.377 -0.5,8.944 c -0.562,10.115 -0.776,10.9 -3.776,14.124 -2.524,2.705 -3.014,2.803 -4.723,0.919 z m 31.727,-1.857 -2.462,-2.553 0.215,-9.057 c 0.205,-8.735 0.294,-9.198 2.5,-12.915 2.722,-4.592 4.244,-5.762 6.035,-4.638 1.594,1 1.894,5.722 1.234,19.411 -0.509,10.556 -1.05,12.297 -3.823,12.297 -0.678,0 -2.345,-1.143 -3.699,-2.545 z m -32.14,-31.427 c -1.048,-1.264 -1.912,-21.967 -1.097,-26.309 0.941,-5.021 4.575,-4.984 8.454,0.09 1.869,2.441 1.964,2.95 1.964,10.428 0,7.49 -0.107,8.054 -2.239,11.849 -1.232,2.193 -2.598,4.224 -3.036,4.513 -1.31,0.866 -3.062,0.616 -4.046,-0.571 z m 33.496,-1.774 -2.746,-2.885 v -8.011 c 0,-4.406 0.312,-9.113 0.705,-10.459 0.896,-3.124 4.803,-7.186 6.913,-7.186 2.977,0 3.351,2.1 2.849,15.991 -0.375,10.479 -0.679,13.064 -1.647,14.132 -1.76,1.946 -3.032,1.615 -6.071,-1.582 z m -25.96,-26.95 c -2.732,-1.489 -3.624,-2.399 -3.793,-3.864 -0.366,-3.171 1.269,-3.49 16.81,-3.277 l 14.125,0.194 0.215,2.236 c 0.178,1.85 -0.25,2.624 -2.485,4.466 l -2.702,2.227 h -9.301 c -8.762,0 -9.509,-0.125 -12.873,-1.965 z m 108.214,29.831 v -41.437 l -29.822,0.188 -29.821,0.187 -0.188,40.357 c -0.1,22.197 0,40.758 0.161,41.249 0.268,0.714 6.933,0.893 30.007,0.893 h 29.663 z m -43.564,37.517 c -1.311,-1.581 -0.357,-4.125 2.29,-6.108 2.111,-1.58 3.129,-1.776 10.202,-1.955 7.459,-0.178 8.057,-0.09 11.786,1.866 4.304,2.25 5.482,4.616 3.146,6.331 -1.97,1.437 -26.215,1.321 -27.424,-0.179 z m -5.641,-5.625 c -1.154,-1.393 -1.19,-28.048 0,-29.435 1.424,-1.716 3.243,-1.154 5.947,1.838 l 2.583,2.86 v 8.879 c 0,9.598 -0.508,11.849 -3.394,14.867 -2.051,2.151 -3.845,2.5 -5.096,0.991 z m 32.114,-1.688 c -2.176,-2.643 -2.195,-2.741 -2.195,-11.094 0,-7.943 0.125,-8.674 2.139,-12.667 2.998,-5.937 6.529,-7.362 7.606,-3.068 0.839,3.329 -0.473,26.133 -1.598,27.883 -1.499,2.33 -3.45,1.982 -5.952,-1.054 z m -32.123,-31.181 c -0.571,-0.688 -0.759,-5.313 -0.625,-15.179 l 0.197,-14.193 2.15,-0.215 c 1.684,-0.169 2.69,0.348 4.644,2.367 l 2.492,2.578 -0.152,8.801 c -0.134,7.591 -0.375,9.183 -1.73,11.562 -3.005,5.265 -5.09,6.544 -6.972,4.275 z m 33.306,-2.052 -2.832,-3.035 0.384,-9.052 c 0.401,-9.389 0.857,-11.042 3.93,-14.341 2.138,-2.293 3.731,-2.484 5.391,-0.651 0.97,1.071 1.135,2.43 0.894,7.321 -0.161,3.303 -0.331,9.14 -0.366,12.971 -0.09,5.955 -0.277,7.17 -1.498,8.392 -2.013,2.015 -2.705,1.826 -5.908,-1.608 z m -25.305,-26.67 c -4.117,-1.993 -5.331,-4.055 -3.48,-5.908 0.984,-0.986 3.321,-1.206 14.77,-1.393 14.275,-0.232 15.637,0 15.637,2.891 0,0.785 -1.187,2.511 -2.639,3.842 l -2.64,2.418 h -8.967 c -8.091,0 -9.332,-0.206 -12.681,-1.824 z m 108.356,29.707 v -41.429 h -29.566 c -26.302,0 -29.615,0.125 -30,1.13 -0.599,1.548 -0.554,80.655 0,81.253 0.259,0.268 13.762,0.446 30,0.446 h 29.566 z m -44.278,37.509 c -1.312,-1.581 -0.357,-4.125 2.288,-6.108 2.113,-1.58 3.131,-1.776 10.204,-1.955 7.459,-0.178 8.056,-0.09 11.787,1.866 4.302,2.25 5.48,4.616 3.144,6.331 -1.968,1.437 -26.216,1.321 -27.423,-0.179 z m -5.64,-5.625 c -1.155,-1.393 -1.19,-28.048 0,-29.435 1.424,-1.716 3.242,-1.154 5.945,1.838 l 2.583,2.86 v 8.879 c 0,9.598 -0.509,11.849 -3.393,14.867 -2.051,2.151 -3.844,2.5 -5.096,0.991 z m 32.112,-1.688 c -2.175,-2.643 -2.193,-2.741 -2.193,-11.094 0,-7.943 0.125,-8.674 2.138,-12.667 2.997,-5.937 6.528,-7.362 7.605,-3.068 0.84,3.329 -0.473,26.133 -1.599,27.883 -1.499,2.33 -3.448,1.982 -5.951,-1.054 z m -32.121,-31.181 c -0.571,-0.688 -0.759,-5.313 -0.625,-15.179 l 0.196,-14.193 2.15,-0.215 c 1.683,-0.169 2.69,0.348 4.642,2.367 l 2.492,2.581 -0.154,8.801 c -0.134,7.591 -0.375,9.183 -1.731,11.563 -3.004,5.265 -5.088,6.544 -6.97,4.275 z m 33.304,-2.052 -2.831,-3.035 0.384,-9.052 c 0.402,-9.389 0.857,-11.042 3.929,-14.341 2.138,-2.293 3.732,-2.484 5.392,-0.651 0.969,1.071 1.134,2.43 0.893,7.321 -0.16,3.303 -0.33,9.14 -0.366,12.971 -0.09,5.955 -0.277,7.17 -1.497,8.392 -2.014,2.015 -2.706,1.826 -5.908,-1.608 z m -25.305,-26.67 c -4.116,-1.993 -5.33,-4.055 -3.48,-5.908 0.984,-0.986 3.321,-1.206 14.77,-1.393 14.275,-0.232 15.638,0 15.638,2.891 0,0.785 -1.188,2.511 -2.64,3.842 l -2.639,2.418 h -8.968 c -8.09,0 -9.331,-0.206 -12.681,-1.824 z m 109.071,29.699 v -41.437 l -29.821,0.188 -29.821,0.187 -0.188,40.357 c -0.1,22.197 0,40.758 0.152,41.249 0.268,0.714 6.932,0.893 30.007,0.893 h 29.671 z m -42.849,38.231 c -1.311,-1.58 -0.357,-4.125 2.289,-6.107 2.111,-1.581 3.129,-1.777 10.203,-1.956 7.458,-0.178 8.056,-0.09 11.785,1.866 4.305,2.25 5.482,4.617 3.147,6.331 -1.971,1.437 -26.216,1.321 -27.424,-0.179 z m -5.642,-5.625 c -1.154,-1.393 -1.19,-28.047 0,-29.435 1.424,-1.716 3.244,-1.153 5.948,1.838 l 2.583,2.86 v 8.88 c 0,9.597 -0.509,11.848 -3.394,14.866 -2.051,2.152 -3.846,2.5 -5.097,0.991 z m 32.115,-1.688 c -2.177,-2.642 -2.196,-2.741 -2.196,-11.093 0,-7.944 0.125,-8.675 2.14,-12.668 2.998,-5.937 6.529,-7.362 7.605,-3.068 0.839,3.329 -0.474,26.133 -1.598,27.883 -1.5,2.33 -3.449,1.982 -5.951,-1.054 z M 682.613,878.37 c -0.571,-0.687 -0.759,-5.312 -0.625,-15.178 l 0.197,-14.194 2.15,-0.214 c 1.685,-0.17 2.691,0.348 4.644,2.367 l 2.492,2.577 -0.152,8.802 c -0.133,7.59 -0.374,9.182 -1.73,11.561 -3.004,5.266 -5.09,6.544 -6.972,4.276 z m 33.307,-2.052 -2.833,-3.034 0.383,-9.053 c 0.402,-9.389 0.859,-11.042 3.932,-14.34 2.137,-2.292 3.731,-2.483 5.39,-0.652 0.97,1.071 1.135,2.43 0.894,7.321 -0.161,3.303 -0.331,9.141 -0.366,12.971 -0.09,5.955 -0.277,7.171 -1.498,8.393 -2.013,2.014 -2.705,1.826 -5.907,-1.608 z m -25.306,-26.669 c -4.116,-1.992 -5.33,-4.056 -3.479,-5.91 0.984,-0.985 3.32,-1.205 14.77,-1.392 14.275,-0.232 15.637,0 15.637,2.891 0,0.786 -1.187,2.513 -2.639,3.842 l -2.641,2.418 h -8.966 c -8.092,0 -9.333,-0.206 -12.682,-1.823 z m 107.641,28.984 v -41.437 l -29.821,0.188 -29.822,0.187 -0.187,40.357 c -0.1,22.197 0,40.758 0.152,41.249 0.268,0.714 6.934,0.893 30.007,0.893 h 29.671 z m -44.277,36.802 c -1.312,-1.58 -0.358,-4.125 2.288,-6.107 2.114,-1.58 3.131,-1.777 10.204,-1.955 7.46,-0.179 8.057,-0.09 11.786,1.866 4.303,2.25 5.481,4.616 3.146,6.33 -1.97,1.438 -26.217,1.322 -27.424,-0.09 z m -5.64,-5.625 c -1.155,-1.393 -1.191,-28.047 0,-29.434 1.424,-1.717 3.241,-1.154 5.945,1.838 l 2.544,2.86 v 8.879 c 0,9.598 -0.509,11.848 -3.394,14.866 -2.051,2.152 -3.844,2.5 -5.095,0.991 z m 32.113,-1.687 c -2.176,-2.644 -2.195,-2.742 -2.195,-11.097 0,-7.668 0.17,-8.771 1.867,-12.159 3.168,-6.324 5.204,-7.625 7.826,-5.003 1.105,1.104 1.175,2.507 0.723,14.464 -0.535,14.313 -1.101,16.456 -4.31,16.456 -1.114,0 -2.488,-0.938 -3.911,-2.661 z m -32.122,-31.181 c -0.572,-0.689 -0.759,-5.313 -0.625,-15.18 l 0.195,-14.193 2.15,-0.214 c 1.683,-0.171 2.689,0.348 4.642,2.367 l 2.493,2.578 -0.152,8.8 c -0.134,7.592 -0.375,9.184 -1.73,11.563 -3.005,5.265 -5.089,6.544 -6.971,4.275 z m 33.304,-2.052 -2.831,-3.035 0.384,-9.053 c 0.402,-9.388 0.857,-11.042 3.929,-14.34 2.135,-2.289 4.415,-2.52 6.132,-0.625 1.093,1.208 1.166,2.667 0.715,14.399 -0.438,11.309 -0.679,13.23 -1.82,14.371 -1.988,1.986 -3.4,1.614 -6.51,-1.722 z m -25.305,-26.67 c -4.116,-1.993 -5.33,-4.055 -3.48,-5.909 0.984,-0.985 3.321,-1.205 14.77,-1.393 14.275,-0.232 15.637,0 15.637,2.891 0,0.786 -1.187,2.512 -2.638,3.842 l -2.64,2.418 h -8.968 c -8.089,0 -9.33,-0.205 -12.681,-1.823 z m 109.071,30.413 v -41.437 l -29.821,0.188 -29.822,0.187 -0.187,40.357 c -0.1,22.197 0,40.758 0.152,41.249 0.267,0.714 6.932,0.893 30.007,0.893 h 29.671 z m -43.563,37.517 c -1.312,-1.581 -0.357,-4.125 2.288,-6.108 2.113,-1.58 3.129,-1.776 10.204,-1.955 7.458,-0.178 8.055,-0.09 11.785,1.866 4.304,2.25 5.482,4.616 3.146,6.331 -1.97,1.437 -26.216,1.321 -27.423,-0.179 z m -5.642,-5.625 c -1.155,-1.393 -1.191,-28.048 0,-29.435 1.425,-1.716 3.244,-1.154 5.947,1.838 l 2.544,2.86 v 8.879 c 0,9.598 -0.509,11.849 -3.394,14.867 -2.051,2.151 -3.845,2.5 -5.097,0.991 z m 32.114,-1.688 c -2.178,-2.643 -2.195,-2.732 -2.195,-11.152 0,-8.162 0.09,-8.652 2.264,-12.734 2.37,-4.447 4.014,-5.884 5.905,-5.158 1.814,0.697 2.054,3.264 1.517,16.242 -0.527,12.865 -1.192,15.463 -3.936,15.463 -0.75,0 -2.348,-1.197 -3.555,-2.661 z m -32.123,-31.181 c -0.572,-0.688 -0.759,-5.313 -0.625,-15.179 l 0.195,-14.193 2.151,-0.215 c 1.684,-0.169 2.69,0.348 4.643,2.367 l 2.493,2.578 -0.152,8.801 c -0.134,7.591 -0.375,9.183 -1.73,11.562 -3.005,5.265 -5.089,6.544 -6.973,4.275 z m 33.306,-2.052 -2.832,-3.035 0.384,-9.052 c 0.402,-9.389 0.857,-11.042 3.93,-14.341 2.138,-2.293 3.731,-2.484 5.391,-0.651 0.969,1.071 1.134,2.43 0.893,7.321 -0.161,3.303 -0.33,9.14 -0.366,12.971 -0.09,5.955 -0.276,7.17 -1.496,8.392 -2.015,2.015 -2.707,1.826 -5.908,-1.608 z m -25.305,-26.67 c -4.116,-1.993 -5.331,-4.055 -3.48,-5.908 0.984,-0.986 3.321,-1.206 14.77,-1.393 14.275,-0.232 15.637,0 15.637,2.891 0,0.785 -1.187,2.511 -2.639,3.842 l -2.64,2.418 h -8.967 c -8.091,0 -9.332,-0.206 -12.681,-1.824 z m 99.374,-2.794 c 19.732,-20.972 60.705,-64.465 75.375,-79.999 2.965,-3.143 27.765,-29.5 55.095,-58.572 27.34,-29.072 52.62,-55.946 56.18,-59.719 3.56,-3.774 6.86,-7.599 7.34,-8.498 0.63,-1.206 1.14,-17.02 1.88,-60.263 0.53,-32.246 0.89,-58.922 0.8,-59.28 -0.1,-0.358 -3.26,2.7 -6.97,6.801 -3.72,4.097 -24.44,26.702 -46.05,50.232 -21.6,23.531 -41.21,44.91 -43.57,47.512 -2.36,2.602 -27.268,29.763 -55.357,60.356 -28.089,30.595 -55.17,60.132 -60.179,65.641 l -9.107,10.012 v 23.424 c 0,12.884 0.143,23.425 0.313,23.425 0.169,0 1.357,-1.457 2.633,-3.238 2.322,-3.232 6.608,-6.323 11.34,-8.174 4.365,-1.712 6.42,-3.603 8.616,-7.96 2.83,-5.607 6.875,-9.403 13.232,-12.42 5.286,-2.51 7.384,-4.674 10.59,-10.929 1.722,-3.348 6.08,-7.994 7.5,-7.994 2.964,0 3.812,3.255 1.419,5.421 -0.803,0.75 -2.794,3.609 -4.375,6.36 -3.973,6.896 -6.455,9.335 -12.777,12.53 -6.009,3.04 -8.276,5.32 -11.366,11.446 -2.366,4.678 -3.866,5.91 -11.482,9.412 -4.669,2.15 -5.973,3.182 -9.357,7.415 -2.153,2.704 -4.455,5.357 -5.107,5.896 -0.937,0.777 -1.179,2.298 -1.179,7.433 v 6.451 l 2.741,-4.241 c 2.724,-4.211 7.116,-8.53 10.259,-10.087 0.902,-0.446 4.188,-1.956 7.286,-3.356 7.366,-3.319 11.321,-6.646 15.268,-12.843 5.58,-8.75 8.411,-10.824 10.205,-7.474 0.715,1.272 0.447,2.074 -1.66,5.179 -1.358,2.02 -3.134,4.797 -3.956,6.172 -1.911,3.2 -8.241,9.339 -11.928,11.564 -1.572,0.948 -5.304,2.775 -8.295,4.062 -6.071,2.614 -10.214,6.364 -14.42,13.06 -1.402,2.225 -3.205,4.255 -4.018,4.513 -1.444,0.456 -1.482,0.906 -1.482,17.506 0,9.37 0.206,17.58 0.465,18.244 0.419,1.107 0.526,1.097 1.206,-0.116 0.446,-0.732 10.723,-11.936 22.919,-24.901 z m 121.87,-155.305 c -1.15,-2.143 -0.27,-3.196 4.19,-5.259 4.94,-2.272 8.8,-5.852 12.97,-12.036 4.43,-6.569 9.09,-11.866 12.5,-14.213 1.63,-1.126 6.31,-3.37 10.39,-4.986 12.03,-4.759 13.64,-6.265 16.69,-15.566 0.8,-2.462 1.07,-4.678 0.8,-6.318 -0.44,-2.439 -0.53,-2.483 -1.84,-1.288 -0.73,0.679 -1.58,2.298 -1.82,3.594 -0.62,3.262 -2.57,4.954 -4.53,3.909 -3.03,-1.622 -1.4,-7.971 3.2,-12.433 2.97,-2.874 5.09,-3.705 7.77,-3.034 5.89,1.479 3.31,20.98 -3.79,28.564 -2.59,2.766 -8.32,5.804 -17.17,9.098 -5.92,2.203 -10.9,6.731 -17.25,15.679 -5.43,7.67 -9.11,11.189 -14.51,13.88 -4.3,2.142 -6.58,2.265 -7.57,0.411 z m -60.299,-0.857 c -0.803,-1.14 -0.893,-1.978 -0.357,-3.386 2.357,-6.19 7.527,-11.05 16.046,-15.076 9.17,-4.334 11.92,-7.376 13.95,-15.443 1.38,-5.491 5.96,-9.58 13.51,-12.074 5.59,-1.845 6.38,-2.355 10.71,-6.961 3.72,-3.959 5.03,-4.919 6.43,-4.721 1.27,0.178 1.82,0.758 1.97,2.051 0.18,1.408 -0.94,3.007 -5,7.264 -4.24,4.436 -5.94,5.705 -9.12,6.767 -2.15,0.723 -5.53,2.111 -7.5,3.093 -3.1,1.544 -3.77,2.269 -4.92,5.358 -4.57,12.266 -6.11,14.054 -16.93,19.665 -8.771,4.547 -10.914,6.449 -14.387,12.766 -1.42,2.584 -2.92,2.821 -4.411,0.696 z m 43.829,-26.352 c -1.43,-1.43 -1.43,-1.528 -0.18,-3.666 2.2,-3.783 6.9,-7.33 12.09,-9.13 2.7,-0.935 5.76,-2.127 6.81,-2.649 2.36,-1.176 6.35,-7.645 8.69,-14.051 2,-5.525 5.03,-10.257 6.96,-10.869 4.17,-1.324 5.84,4.142 2.11,6.904 -1.47,1.083 -2.58,2.946 -3.6,6.002 -1.64,4.933 -5.53,11.792 -8.39,14.783 -1.06,1.124 -4.65,3.041 -8.4,4.493 -4.82,1.868 -7.27,3.294 -9.34,5.421 -4.01,4.135 -4.96,4.528 -6.73,2.762 z M 396.115,853.105 c 0,-15.554 0.116,-17.154 1.395,-19.246 2.303,-3.779 3.658,-3.908 37.174,-3.528 16.695,0.187 31.32,0.312 32.5,0.277 1.179,0 16.045,-0.09 33.036,0 37.203,0 29.582,0 66.785,0 16.992,0 31.859,0 33.037,0 1.178,0 16.365,0 33.749,0 17.384,0 32.732,0 34.107,0 1.375,0 16.482,0 33.573,0 17.089,0 32.196,0 33.571,0 1.374,0 16.401,0 33.392,0 16.991,0 31.857,0 33.036,0 1.179,0 15.804,-0.09 32.501,-0.277 33.516,-0.375 34.871,-0.25 37.174,3.528 1.275,2.092 1.391,3.692 1.393,19.246 v 16.964 h 9.647 9.643 V 845.16 820.254 l -4.916,-0.482 c -2.703,-0.268 -5.691,-0.286 -6.638,-0.09 -2.439,0.616 -4.597,-1.784 -3.483,-3.867 1.077,-2.012 3.48,-2.483 9.741,-1.917 l 5.296,0.482 v -22.864 c 0,-20.032 -0.134,-22.815 -1.072,-22.454 -0.777,0.295 -1.071,-0.09 -1.071,-1.379 0,-1.784 0,-1.794 -8.036,-2.188 -6.971,-0.339 -458.555,-3.412 -491.786,-3.343 H 377.54 v 53.928 53.929 h 9.287 9.286 z m 455.462,-28.054 c -10.293,-3.086 -13.898,-15.514 -6.749,-23.27 9.14,-9.914 26.285,-3.84 26.285,9.312 0,4.448 -1.348,7.385 -4.84,10.536 -4.15,3.745 -9.479,4.985 -14.696,3.422 z m 9.715,-10.063 c 2.55,-2.706 2.511,-5.196 -0.125,-7.831 -1.637,-1.638 -2.728,-2.088 -5.054,-2.088 -2.326,0 -3.417,0.447 -5.055,2.088 -2.671,2.672 -2.762,5.615 -0.25,8.128 3.172,3.174 7.321,3.057 10.48,-0.294 z m -451.859,8.634 c -10.293,-3.086 -13.897,-15.513 -6.748,-23.27 9.139,-9.914 26.285,-3.84 26.285,9.313 0,4.448 -1.349,7.384 -4.84,10.536 -4.15,3.744 -9.479,4.984 -14.697,3.421 z m 9.715,-10.063 c 2.549,-2.706 2.51,-5.196 -0.125,-7.831 -1.635,-1.637 -2.727,-2.087 -5.053,-2.087 -2.327,0 -3.418,0.446 -5.056,2.087 -2.672,2.673 -2.762,5.615 -0.25,8.129 3.173,3.173 7.323,3.055 10.481,-0.295 z m 148.504,3.611 c -2.099,-0.375 -6.117,-1.704 -8.929,-2.954 -4.292,-1.909 -6.205,-2.322 -11.952,-2.573 -6.091,-0.268 -7.335,-0.1 -11.365,1.526 -4.835,1.952 -7.151,1.67 -7.151,-0.875 0,-2.734 4.775,-5.272 12.154,-6.46 5.94,-0.957 13.941,0.16 19.989,2.8 9.263,4.036 17.355,4.501 30.357,1.748 15.476,-3.278 16.58,-3.412 20.928,-2.539 2.214,0.447 5.282,1.641 6.821,2.659 2.536,1.679 3.332,1.829 8.51,1.601 4.832,-0.214 5.832,-0.09 6.507,0.998 1.029,1.611 -0.107,3.534 -2.475,4.198 -0.945,0.267 -3.993,0.509 -6.775,0.553 -4.548,0.09 -5.401,-0.161 -8.483,-2.199 -2.917,-1.932 -4.081,-2.27 -7.802,-2.268 -2.406,0 -8.069,0.884 -12.588,1.966 -9.104,2.177 -21.265,2.974 -27.746,1.817 z m 59.533,-11.399 c -2.751,-0.723 -6.899,-1.983 -9.22,-2.796 -5.719,-2.004 -10.695,-1.882 -17.543,0.428 -4.783,1.615 -5.831,1.763 -6.801,0.956 -2.936,-2.436 0.276,-5.505 7.824,-7.469 6.283,-1.637 12.134,-1.41 18.671,0.723 14.038,4.581 23.997,5.104 38.856,2.038 13.749,-2.835 22.916,-1.773 23.435,2.716 0.179,1.559 -0.125,2.022 -1.569,2.384 -0.985,0.25 -2.984,0.09 -4.442,-0.419 -3.16,-1.045 -9.19,-0.572 -18.783,1.458 -8.909,1.887 -23.234,1.879 -30.428,0 z m 263.786,-47.988 c 0.633,-0.634 0.857,-7.491 0.857,-26.428 v -25.571 h -15.179 c -8.348,-0.03 -107.269,-0.501 -219.821,-1.072 -112.555,-0.57 -221.439,-1.045 -241.965,-1.054 H 377.54 v 25.713 c 0,14.143 0.09,25.754 0.179,25.804 0.41,0.206 425.932,3.278 467.358,3.375 34.196,0.09 45.243,-0.1 45.894,-0.75 z m -342.254,-8.524 c -2.922,-0.375 -7.24,-1.671 -10.714,-3.216 -5.01,-2.228 -6.763,-2.635 -12.604,-2.918 -5.795,-0.276 -8.247,0 -16.786,1.926 -15.275,3.444 -31.325,4.374 -37.167,2.152 -3.716,-1.412 -4.05,-6.42 -0.428,-6.42 1.073,0 2.353,0.401 2.845,0.892 0.643,0.643 3.489,0.849 10.017,0.733 8.633,-0.152 13.792,-0.9 28.661,-4.157 8.1,-1.774 18.922,-1.168 25,1.399 2.555,1.079 6.089,2.439 7.857,3.022 4.134,1.361 17.764,1.501 25.227,0.259 4.896,-0.813 5.717,-0.795 6.679,0.169 1.596,1.596 0.572,3.896 -2.118,4.769 -2.871,0.932 -14.092,2.22 -18.359,2.107 -1.767,-0.09 -5.417,-0.366 -8.11,-0.714 z m 291.255,-5.617 c -5.374,-0.786 -8.647,-2.002 -14.157,-5.25 -4.059,-2.393 -5.751,-2.965 -9.484,-3.202 -3.604,-0.232 -4.7,-0.581 -5.294,-1.693 -0.59,-1.092 -0.465,-1.726 0.552,-2.854 1.138,-1.262 1.934,-1.406 6.132,-1.108 4.075,0.286 5.681,0.84 10.356,3.548 5.605,3.245 9.36,4.422 16.772,5.257 3.831,0.428 4.5,0.259 10.358,-2.626 5.205,-2.567 7.121,-3.136 11.35,-3.369 5.492,-0.303 8.126,0.545 8.126,2.606 0,2.197 -1.578,2.975 -6.036,2.979 -3.633,0 -5.402,0.517 -11.108,3.21 -7.188,3.398 -9.353,3.707 -17.568,2.502 z M 402.72,737.453 c -1.545,-0.625 -0.975,-3.387 1.254,-6.093 2.91,-3.531 7.254,-5.113 13.026,-4.745 3.759,0.241 5.101,0.705 7.978,2.763 3.451,2.473 3.469,2.477 11.044,2.39 5.174,-0.09 9.433,-0.572 13.379,-1.597 3.184,-0.83 8.838,-1.894 12.566,-2.364 7.157,-0.905 7.063,-0.917 19.837,2.611 8.088,2.235 17.464,0.242 20.098,-4.278 1.685,-2.89 1.662,-3.018 -0.75,-4.266 -3.847,-1.99 -9.097,-0.904 -8.268,1.709 1.101,3.468 -2.363,5.242 -5.029,2.575 -1.433,-1.433 -1.58,-2.011 -1.015,-3.981 1.956,-6.822 9.779,-9.133 17.566,-5.189 4.723,2.391 5.703,4.352 4.519,9.047 -0.977,3.88 -3.375,6.209 -9.237,8.97 -5.468,2.575 -15.102,2.636 -22.71,0.143 -4.609,-1.51 -6.092,-1.663 -12.857,-1.323 -4.57,0.232 -10.091,1.042 -13.719,2.019 -4.673,1.26 -8.056,1.647 -14.69,1.681 h -8.616 l -4.484,-2.764 c -4.011,-2.47 -4.86,-2.727 -8.036,-2.421 -2.875,0.277 -4.058,0.839 -6.214,2.941 -2.552,2.492 -3.681,2.917 -5.639,2.128 z m 427.993,-9.231 c -6.913,-4.172 -8.397,-4.582 -16.566,-4.582 -5.307,0 -9.831,0.509 -15.449,1.742 -12.297,2.696 -17.685,3.337 -21.683,2.579 -3.934,-0.75 -8.708,-2.515 -12.026,-4.458 -1.208,-0.704 -3.718,-1.493 -5.578,-1.747 -2.823,-0.384 -3.737,-0.205 -5.517,1.113 -2.393,1.769 -4.034,1.731 -5.2,-0.125 -0.949,-1.507 -0.161,-3.001 2.705,-5.143 1.524,-1.137 3.036,-1.464 6.783,-1.464 4.217,0 5.648,0.393 11.409,3.131 l 6.59,3.132 6.573,-0.384 c 3.615,-0.215 10.171,-1.221 14.566,-2.239 6.226,-1.442 9.879,-1.851 16.517,-1.851 9.584,0 12.136,0.643 18.799,4.759 4.111,2.537 4.426,2.615 7.633,1.887 1.838,-0.42 4.341,-1.172 5.56,-1.676 2.797,-1.158 4.57,-0.5 4.57,1.682 0,2.199 -1.685,3.639 -5.919,5.059 -5.541,1.859 -8.917,1.512 -13.767,-1.415 z m 82.418,6.522 c 5.375,-5.88 13.625,-14.891 18.34,-20.027 4.714,-5.133 15,-16.396 22.857,-25.026 7.857,-8.632 16.393,-17.944 18.973,-20.694 2.571,-2.75 7.884,-8.535 11.795,-12.857 3.91,-4.322 15.614,-17.165 26.024,-28.539 32.2,-35.193 35.03,-38.287 46.42,-50.732 6.09,-6.651 14.93,-16.302 19.65,-21.445 4.71,-5.143 13.23,-14.457 18.93,-20.698 5.7,-6.241 13.46,-14.724 17.26,-18.851 l 6.88,-7.505 0.53,-15.044 c 0.27,-8.274 0.36,-15.967 0.27,-17.095 -0.27,-1.882 -9.44,7.503 -111.15,113.12 L 898.971,704.524 v 22.078 22.082 l 2.196,-1.625 c 1.213,-0.894 6.598,-6.436 11.964,-12.315 z M 879.823,694.89 c -0.169,-2.455 -0.348,-4.505 -0.402,-4.556 -0.09,-0.09 -110.602,-0.331 -245.669,-0.616 l -245.576,-0.518 0.223,3.827 0.214,3.828 44.643,0.205 c 41.267,0.188 383.637,1.941 427.547,2.186 l 19.331,0.107 z m 11.86,0 -0.214,-4.464 -2.68,-0.223 c -2.513,-0.205 -2.676,-0.1 -2.669,1.786 0,1.103 0.205,3.211 0.446,4.685 0.41,2.486 0.615,2.678 2.884,2.678 h 2.44 z m -509.856,-1.607 c 0,-3.889 0,-3.928 -2.143,-3.928 -2.092,0 -2.144,0.09 -2.144,3.521 0,3.648 -0.1,3.54 3.751,4.238 0.295,0.05 0.536,-1.671 0.536,-3.831 z m 521.428,-5.981 v -3.215 l -2.142,2.053 c -1.759,1.686 -2.142,2.629 -2.142,5.268 v 3.213 l 2.142,-2.052 c 1.758,-1.685 2.142,-2.628 2.142,-5.267 z M 891.828,673.284 V 662.926 H 634.684 377.54 v 9.643 9.642 l 26.965,0.107 c 51.488,0.197 348.069,1.038 417.501,1.181 l 69.822,0.141 z m 119.942,-95.309 97.93,-101.738 v -5.753 -5.754 l -3.18,3.204 c -1.74,1.764 -46.68,49.418 -99.83,105.9 l -96.657,102.693 0.268,3.283 0.268,3.283 1.643,-1.691 c 0.901,-0.93 45.705,-47.472 99.568,-103.427 z m -1.42,-17.907 c 56.71,-60.303 105.02,-111.591 107.33,-113.972 l 4.21,-4.33 -0.18,-8.111 -0.17,-8.111 -50.73,53.849 c -27.89,29.616 -71.464,75.875 -96.831,102.798 -25.357,26.921 -52.598,55.847 -60.535,64.279 l -14.42,15.329 v 8.242 8.242 l 4.115,-4.285 c 2.269,-2.358 50.519,-53.626 107.231,-113.93 z m -595.163,91.217 c 3.455,-2.473 74.788,-52.15 158.517,-110.391 149.825,-104.219 152.24,-105.936 152.67,-108.538 0.518,-3.105 0.607,-13.716 0.116,-13.716 -0.384,0 -240.198,165.961 -298.021,206.244 -21.293,14.833 -38.73,27.372 -38.75,27.863 0,0.491 -0.295,0.893 -0.616,0.893 -0.322,0 -1.202,0.473 -1.965,1.049 -1.237,0.936 -0.142,1.051 10.188,1.071 H 408.9 Z m 23.495,3.092 c 0.357,-0.777 62.837,-44.474 138.848,-97.114 l 138.206,-95.712 -0.232,-5.205 c -0.125,-2.864 -0.331,-5.301 -0.438,-5.416 -0.152,-0.161 -293.134,203.308 -294.603,204.593 -0.161,0.143 3.724,0.259 8.64,0.259 8.193,0 8.993,-0.116 9.584,-1.406 z M 576.47,600.293 c 42.821,-30.515 93.928,-66.932 113.572,-80.927 l 35.713,-25.447 0.197,-15.497 c 0.107,-8.523 10e-4,-15.496 -0.232,-15.496 -0.447,0 -276.599,191.084 -277.781,192.21 -0.401,0.384 9.651,0.643 25,0.643 h 25.679 z m 69.286,39.574 c 12.965,-8.73 36.135,-24.326 51.491,-34.657 l 27.921,-18.781 0.473,-27.288 c 0.563,-32.386 0.607,-56.93 0.116,-56.93 -0.196,0 -30.489,21.475 -67.32,47.723 -36.833,26.248 -84.969,60.524 -106.969,76.17 -22,15.646 -40.305,28.724 -40.679,29.063 -0.383,0.348 23.933,0.607 55.357,0.598 h 56.036 z m 79.642,5.193 v -10.726 l -2.678,1.72 c -1.473,0.946 -4.446,2.115 -6.607,2.597 -4.509,1.006 -6.967,2.971 -10.458,8.362 -2.852,4.401 -4.621,5.588 -6.685,4.484 -1.599,-0.857 -1.938,-3.889 -0.536,-4.785 0.491,-0.312 2.104,-2.42 3.581,-4.681 3.462,-5.298 7.153,-7.935 12.782,-9.13 3.754,-0.793 4.973,-1.458 7.538,-4.099 l 3.063,-3.151 V 609.96 c 0,-11.269 -0.223,-15.553 -0.786,-15.202 -2.965,1.833 -88.992,59.827 -89.532,60.358 -0.419,0.41 16.641,0.669 44.822,0.669 h 45.5 z m 175.242,5.365 c 2.669,-2.945 4.545,-5.356 4.161,-5.356 -0.357,0 -3.188,1.19 -6.247,2.643 -10.093,4.792 -20.301,3.707 -18.5,-1.965 0.339,-1.08 1.206,-1.248 5.909,-1.15 4.96,0.107 6.075,-0.143 11.222,-2.51 6.535,-3.001 10.652,-3.973 12.018,-2.839 0.714,0.589 2.16,-0.473 6.151,-4.489 2.866,-2.891 5.009,-5.599 4.75,-6.017 -0.267,-0.421 -1.589,-0.972 -2.965,-1.229 -3.32,-0.625 -10.722,1.786 -19.942,6.496 -3.935,2.01 -8.963,4.076 -11.172,4.592 -5.462,1.275 -11.69,0.724 -16.022,-1.426 -3.115,-1.543 -3.857,-2.382 -6.276,-7.106 -2.627,-5.129 -2.726,-5.57 -2.304,-10.323 0.554,-6.186 2.051,-8.871 6.108,-10.928 3.885,-1.968 11.735,-2.23 15.078,-0.5 2.954,1.527 4.926,5.039 4.929,8.772 0,2.464 -0.419,3.511 -2.084,5.177 -2.209,2.209 -4.21,2.647 -5.626,1.231 -1.268,-1.268 -1.043,-3.039 0.571,-4.5 3.327,-3.01 0.804,-6.072 -5.014,-6.072 -5.505,0 -7.534,1.587 -8.197,6.403 -0.401,2.936 -0.178,4.22 1.294,7.441 2.11,4.607 4.05,6.055 8.891,6.627 4.91,0.58 10.172,-0.794 16.955,-4.425 7.134,-3.823 17.446,-7.474 21.098,-7.474 1.526,0 4.357,0.625 6.295,1.386 l 3.517,1.388 15.652,-16.566 c 8.607,-9.111 15.902,-16.967 16.197,-17.458 0.446,-0.714 -22.233,-0.893 -112.361,-0.893 H 731.828 v 16.085 16.085 l 1.964,-0.545 c 4.156,-1.163 8.742,-0.295 14.107,2.665 6.136,3.388 8.575,3.566 14.272,1.047 4.164,-1.841 6.347,-1.825 7.067,0.09 0.768,1.996 -0.518,3.392 -5.008,5.428 -6.762,3.064 -11.144,2.865 -17.843,-0.813 -6.445,-3.538 -11.309,-3.986 -12.39,-1.142 -0.357,0.946 -0.994,1.929 -1.411,2.187 -0.491,0.303 -0.759,4.908 -0.759,12.926 v 12.415 h 81.978 81.981 z m 105.18,-111.624 41.49,-44.09 -10.42,-0.223 c -5.73,-0.125 -65.866,0.268 -133.635,0.875 -67.767,0.598 -133.901,1.184 -146.962,1.293 l -23.748,0.196 v 34.352 c 0,18.894 -0.214,38.26 -0.464,43.036 l -0.465,8.684 h 116.36 116.36 z m -186.492,14.462 c -1.572,-0.518 -3.853,-0.967 -5.069,-0.997 -2.122,-0.09 -4.574,-1.873 -4.574,-3.393 0,-0.402 0.634,-1.298 1.405,-1.997 1.348,-1.222 1.665,-1.209 8.012,0.33 7.991,1.936 15.216,1.715 21.654,-0.661 16.629,-6.138 18.239,-6.311 22.534,-2.431 3.128,2.825 3.598,5.46 1.238,6.937 -0.995,0.625 -1.703,0.313 -3.728,-1.653 l -2.5,-2.423 -3.771,0.848 c -2.075,0.464 -5.49,1.643 -7.588,2.616 -2.099,0.973 -5.68,2.253 -7.96,2.844 -5.011,1.298 -15.689,1.289 -19.653,0 z m 1.762,-10.321 c -1.388,-0.357 -4.394,-1.627 -6.681,-2.83 -5.91,-3.11 -10.596,-3.028 -18.198,0.313 -4.926,2.167 -6.435,2.499 -11.286,2.491 -4.815,0 -6.395,-0.356 -11.304,-2.5 -6.614,-2.887 -8.25,-3.032 -11.501,-1.023 -1.889,1.167 -2.678,1.309 -3.835,0.688 -2.053,-1.098 -1.813,-2.98 0.687,-5.372 1.757,-1.683 2.919,-2.108 6.45,-2.364 3.793,-0.277 4.882,0 9.108,2.07 3.583,1.777 5.997,2.452 9.514,2.661 4.214,0.25 5.354,0 10.715,-2.365 5.704,-2.516 6.297,-2.631 12.071,-2.335 5.83,0.304 7.852,0.906 13.215,3.963 1.534,0.875 3.674,1.205 7.533,1.164 4.765,-0.09 6.156,-0.411 11.952,-3.079 7.821,-3.603 11.091,-3.778 11.454,-0.616 0.179,1.576 -0.17,2.12 -1.786,2.792 -1.105,0.455 -4.744,2.054 -8.082,3.546 -4.868,2.176 -7.204,2.785 -11.787,3.074 -3.141,0.197 -6.849,0.09 -8.236,-0.286 z m 63.238,-53.924 c 71.5,-0.599 139.002,-1.228 149.992,-1.4 l 20,-0.313 15.58,-16.554 c 8.57,-9.104 15.47,-16.67 15.32,-16.814 -0.71,-0.67 -350.954,2.747 -351.785,3.431 -0.67,0.544 -0.893,4.834 -0.894,16.896 v 16.162 l 10.894,-0.16 c 5.992,-0.09 69.393,-0.652 140.894,-1.248 z m 236.802,-30.326 v -6.097 l -2.08,2.13 c -1.9,1.955 -2.09,2.643 -2.37,8.396 l -0.27,6.267 2.38,-2.3 c 2.32,-2.251 2.37,-2.429 2.37,-8.396 z M 726.112,448.543 v -5.715 l -2.142,1.526 c -2.075,1.478 -2.143,1.706 -2.143,7.24 v 5.715 l 2.143,-1.526 c 2.075,-1.478 2.142,-1.707 2.142,-7.24 z m 13.572,-3.832 v -5.357 h -3.214 -3.214 v 5.357 5.357 h 3.214 3.214 z m 210.974,3.489 c 76.162,-0.616 139.062,-0.959 139.792,-0.768 0.94,0.25 2.55,-1.056 5.75,-4.663 l 4.46,-5.007 -115.672,0.446 c -63.616,0.242 -143.384,0.643 -177.267,0.885 l -61.608,0.438 v 5.342 5.342 l 33.036,-0.447 c 18.169,-0.25 95.347,-0.95 171.509,-1.563 z m 12.491,-16.181 143.121,-0.169 6.33,-6.429 6.33,-6.428 -9.44,-0.474 c -5.19,-0.259 -91.97,-0.705 -192.841,-0.988 l -183.393,-0.509 v 8.019 8.018 l 43.393,-0.437 c 23.865,-0.241 107.791,-0.509 186.5,-0.598 z" id="path1" /><rect style="fill:none;stroke:black;stroke-width:6.85982;stroke-linecap:round;stroke-linejoin:round;paint-order:markers fill stroke" id="rect1" width="1493.14" height="893.14" x="3.42991" y="292.448" /></g></svg>
