<svg xmlns="http://www.w3.org/2000/svg" viewBox="0 0 1500 900"><path d="m372 805-2-1V600l1-204a844 844 0 0 0 46-33c2-8 14-23 23-28 8-5 15-6 23-4 2 0 3 0 24-15a1009 1009 0 0 0 32-22 14889 14889 0 0 0 207-143l3-2 8 1h9l1-2 14-14c6-4 10-5 16-5l10 1c4 1 4 1 5-4l2-5c1-2 1-2 3-1h3l5 2 1 5v5l6-1c8-1 14 1 21 5 6 3 10 6 13 11l2 4h36l35-1 1-7c2-10 7-19 15-28 5-6 10-9 15-11 4-1 13-2 19 0 4 0 5 0 5-5l2-5 3-1 3 1c1-1 4 1 5 2l1 5v4h7c7-1 13 0 21 4a48 48 0 0 1 22 35c1 7 1 7 3 7l2-2c1-2 2-3 6-3l3-1c1 0 3 1 4 4v2h35c37-1 38-1 38 3v4l-1 37a80529 80529 0 0 1-4 284l-1 33-3 4-41 54-142 184a4264 4264 0 0 0-40 52l-262 1H373Zm520-18c0-12 0-12-2-11h-3c-3-1-5-1-11 4-5 4-13 7-18 8l-9-2c-12-5-12-5-16-3-5 2-7 2-7-1 0-2 0-3 2-4l6-2c4-1 3-1 19 5l4 1 5-2 11-5c8-6 12-7 17-5l2 1v-27h-92v46H463v-25l-6-4c-8-6-11-11-7-12 1 0 2 0 5 3l6 5 2 1v-6l-1-7h-84v55h514zm62-66 108-140 54-71 1-13c0-6 0-11-1-10l-16 20a22729 22729 0 0 0-104 123l-22 26-42 49-33 40v23l1 24 54-71zm-161 29v-34l-5-1h-9c-5 0-8-1-9-2v-20H470v91h323zm-236 26a432 432 0 0 0 9-46c0-5 1-6 3-6 3 0 5 1 5 3l1 1 3-1c6-2 14-2 17 0s5 5 5 8c1 8-5 15-15 20-7 4-12 5-15 4s-2-2-5 9l-3 8h-5zm23-25 8-5c7-6 7-15 0-15l-9 3-6 3-2 7-2 7 1 1c3 1 6 1 10-1zm24 25a432 432 0 0 0 9-46c1-5 1-6 4-6 2 0 4 1 4 3l1 1 4-1c5-2 14-2 16 0 3 2 5 5 5 8 1 8-5 15-15 20-7 4-12 5-15 4s-2-2-5 9c-1 6-2 8-3 8h-5zm24-25 7-5c7-6 7-15 0-15l-9 3-6 3-2 7-2 7 1 1c3 1 6 1 11-1zm29 8c-2-2-2-3 5-28a370 370 0 0 0 7-25c1-3 3-3 6-1l1 1-6 21-6 25c-1 8-4 11-7 7zm-155-1c-1-2-1-9 1-14 6-13 21-32 29-36 9-4 16-3 19 3 3 7 1 22-6 39-2 8-4 10-7 9s-3-3 0-9l5-15-15 2-11 1h-3l-2 4-3 10c-1 5-2 7-4 7l-3-1zm34-29 8-2 1-6-1-7c-3-3-10 0-18 8-7 8-7 8-2 8l12-1zm147 30c-5-2-7-5-7-9v-3c-1-1-1-4 1-5l4-5c7-8 15-12 22-10 3 1 5 4 5 7 0 2-3 6-6 7-2 2-9 4-15 5-3 1-3 1-3 3 0 4 2 5 7 4 4 0 6-1 10-3l6-2c2 0 2 1 1 3-2 5-17 10-25 8zm11-20c4-1 7-3 6-5-1-3-7-1-11 3-3 3-2 4 5 2zm24 19-2-2c-1-3 1-3 6-3l9-2c6-3 5-4-3-7-5-2-7-4-8-7-1-4 2-7 8-11 5-3 9-4 13-3 5 1 6 4 4 7-1 2-1 2-3 0l-5-1c-4 1-10 5-10 6l2 2c13 5 14 7 12 12-2 4-5 7-12 9-6 2-8 2-11 0zm-255-46v-26h313l12 12 12 12v14l1-1 6-2c5-1 10-1 18 3l11 3h6l3-3c4-3 6-3 7 0 0 3-7 9-12 9s-13-2-18-4c-7-3-11-4-16-2-3 2-6 6-6 9v2h32l46-1h14V616h-19v22c0 25-1 26-5 28l-34 1H435c-34 0-35 0-37-4-2-2-2-3-2-24v-23h-18v122h85zm-54-11c-6-1-11-7-11-13 0-8 7-15 15-15 6 0 11 4 14 9 5 11-5 22-18 19zm7-8c5-2 6-6 3-10-5-4-13-1-13 4 0 3 1 5 4 6h6zm438 8c-6-2-11-8-11-14 0-8 6-14 15-14 6 0 11 3 13 8 5 11-5 22-17 20zm7-8c4-2 5-7 2-10-4-5-13-2-13 3 0 3 2 5 4 6 3 2 4 2 7 0zm53 24a27448 27448 0 0 1 202-239l1-5a4148 4148 0 0 1 1-79v-4l-13 13-156 166-34 36-16 17v55l1 56 14-16zm8-26c-6-2-4-11 4-24 3-5 8-9 17-14 8-4 10-7 13-16l5-8c3-2 7-1 7 2 0 2-2 3-3 3l-3 5c-4 11-7 14-18 20-8 5-13 10-17 17-2 5-4 10-2 10l6-8c2-4 7-5 7-1s-7 13-11 14h-5zm70-129v-2c0-3 6-10 14-16s10-8 15-17c6-8 8-10 16-14l8-6c2-2 4-3 6 0l-1 4-8 6c-10 5-11 6-14 11-6 10-10 15-16 19l-11 10c-5 5-7 7-9 5zm39-57c-1-2 0-3 5-6 8-4 18-13 19-16v-4c0-3 7-11 13-15 3-2 6-4 10-10l7-9c2-2 5-3 6-1 1 1-1 3-7 12-6 8-9 11-12 13-5 3-10 8-11 11-1 5-1 7-3 9l-19 15c-5 3-8 3-8 1zM788 708l-6-6-6-6v13h6l6-1zm-326-48 1-42v-41h-60v83a419 419 0 0 0 59 0zm-43-4c-1-2-1-3 2-6l2-2h9l11 1c6 3 6 6 0 7-5 1-23 0-24-1zm-6-6v-15l1-15c1-1 2-1 5 2l3 3v10c-1 10-1 10-3 13s-4 3-6 2zm33-2-3-3v-8c0-8 0-9 2-13 3-4 4-6 6-5s2 3 2 16c-1 16-2 19-7 13zm-32-31-1-15v-14c2-2 4-1 7 2 2 2 2 3 2 11 0 9-1 12-4 15-2 2-3 2-4 1zm33-2c-3-3-3-4-2-17 0-5 0-6 2-8 3-3 4-4 6-2a374 374 0 0 0-1 29c-1 1-2 1-5-2zm-25-27c-5-2-6-4-4-6l15-1 14 1c2 1 1 4-2 6-2 1-3 2-11 2-9 0-9 0-12-2zm108 72v-83h-60v41l1 42a419 419 0 0 0 59 0zm-43-4c-1-2-1-4 2-6 2-2 3-2 10-2 8 0 8 0 12 2s6 4 3 6c-2 2-26 1-27 0zm-6-6v-29c2-2 3-1 6 2l3 3v9c0 9-1 11-4 14-2 3-4 3-5 1zm32-1c-2-3-2-3-2-11s0-9 2-13c3-6 7-7 8-3 1 3-1 26-2 28s-3 2-6-1zm-32-31v-30h2c2 0 3 0 5 2l2 3v9c0 7-1 9-2 11-3 6-5 7-7 5zm33-3-2-3v-9c0-9 1-11 4-14 2-2 4-2 5-1l1 8a415 415 0 0 0-2 21c-2 2-2 2-6-2zm-25-26c-4-2-5-4-3-6l14-1c15-1 16 0 16 2l-3 4-2 3h-9c-8 0-9-1-13-2zm108 71v-83h-60v41l1 42a420 420 0 0 0 59 0zm-44-4c-1-1-1-3 2-5l2-2h9l11 1c6 3 6 6 1 7l-25-1zm-5-5-1-15 1-15c2-2 2-1 5 2l3 3v10c0 10-1 10-3 12-2 3-4 4-5 3zm32-2-3-3 1-9c0-8 0-9 2-13l4-4c3 0 4 1 3 16l-2 14c-2 2-2 2-5-1zm-32-32-1-14 1-14c1-2 4-1 6 1 2 3 2 3 2 12 0 8-1 12-4 15-2 2-3 2-4 0zm33-1c-3-4-3-5-2-14 0-8 1-9 2-11 3-4 4-4 6-3l1 12c0 15 0 17-3 18l-4-2zm-25-27c-5-3-6-4-4-6l15-1h15c1 2 0 4-2 7l-12 2c-8 0-9 0-12-2zm175 71 1-42-1-41h-60v41l1 42a419 419 0 0 0 59 0zm-43-3c-1-1-1-3 2-5l2-3h9c7 0 9 1 11 2 6 2 6 6 1 6h-25zm-5-6-1-14 1-15c2-2 2-2 5 2l3 3v10c0 9-1 10-3 12-2 3-4 4-5 2zm32-2-3-2 1-9c0-9 0-9 2-13l4-4c3 0 4 1 3 15l-2 15c-2 2-2 1-5-2zm-32-31-1-14 1-15c1-1 4-1 6 2s2 3 2 11c0 9-1 12-4 16-2 2-3 2-4 0zm33-2c-3-3-3-4-2-14 0-7 1-8 2-11 3-3 4-3 6-2l1 12c0 15 0 17-3 17-1 1-2 0-4-2zm-25-27c-5-2-6-4-4-5l15-2 15 1c1 2 0 4-2 6-3 2-3 2-12 2-8 0-9 0-12-2zm107 71 1-42v-41h-60l-1 41 1 42a420 420 0 0 0 59 0zm-17-12-2-3v-9c0-8 1-9 3-13 2-3 2-4 4-4 3 0 3 1 2 16 0 12-1 14-2 15s-2 1-5-2zm2-33c-3-3-4-4-3-14 1-8 1-9 3-11 2-3 3-4 5-3s2 2 2 12c0 15-1 18-3 18s-3 0-4-2zm82 45 1-42v-41h-60v83a420 420 0 0 0 59 0zm-43-4c-1-1-1-3 1-5l3-2h9l11 1c6 3 6 6 0 7l-24-1zm-6-5-1-15c0-12 1-14 2-15 1-2 2-1 5 2l3 3-1 10c0 10 0 10-2 12-2 3-4 4-6 3zm32-2-2-3v-9c1-8 1-9 3-13l4-4c3 0 3 1 2 16l-1 14c-2 2-3 2-6-1zm-16-25c-3 0-4-1-5-2l-2-2 2-2 2-2h7c6 0 7 0 8 2l2 2-2 2c-3 2-3 2-12 2zm-15-7c-1-1-2-3-2-14l1-14c2-2 4-1 6 1 3 3 3 3 3 12 0 8-1 12-5 15-1 2-2 2-3 0zm33-1c-3-4-3-5-3-14 1-8 1-9 3-11 2-4 4-4 5-3 2 1 2 1 2 12 0 15-1 17-3 18l-4-2zm-26-27c-4-3-5-4-3-6l15-1h14c2 2 1 4-2 7l-11 2c-9 0-9 0-13-2zm-160 30v-42h-60v82l30 1h30zm-44 37c-2-1-1-3 1-5l3-2h8l12 1c5 3 6 6 0 7l-24-1zm-6-5-1-15 1-15c2-2 3-1 6 2l3 3-1 10c0 10 0 10-2 12-2 3-4 4-6 3zm32-2-2-3v-9c0-8 1-9 3-13 2-3 2-4 4-4 3 0 3 1 2 16 0 12-1 14-2 14-1 2-2 2-5-1zm-32-32-1-14 1-14c2-2 4-1 6 1 3 3 3 3 3 12 0 8-1 12-5 15-1 2-2 2-4 0zm34-1c-3-4-4-5-3-14 1-8 1-9 3-11 2-4 3-4 5-3s2 1 2 12c0 15-1 17-3 18l-4-2zm-26-27c-4-3-5-4-4-6l15-1h15c2 2 1 4-2 7l-11 2c-9 0-9 0-13-2zm-226 4c0-16 0-17 2-19 2-4 3-4 37-4h401c34 0 33 0 35 5 1 1 2 5 2 18v17h19v-50h-12c-2 0-4-2-3-4s3-3 10-2h5v-23l-1-22-1-1c0-2 0-2-8-3l-492-3h-12v108h18zm456-28c-6-1-11-8-11-14 0-8 7-14 15-14 6 0 11 3 14 8 5 11-6 23-18 20zm7-8c5-2 6-7 2-10-4-4-12-2-12 4 0 3 1 5 4 6h6zm-449 6c-6-1-11-7-11-13 0-8 7-14 15-14 6 0 11 3 14 8 5 11-6 22-18 19zm7-8c4-1 6-6 2-10s-12-1-12 4c0 3 1 5 4 6 3 2 3 2 6 0zm151 2-9-3c-5-2-6-2-12-2-6-1-8-1-12 1s-7 2-7-1 5-5 12-6c6-1 14 0 20 3 10 4 18 4 31 1 15-3 16-3 21-2l6 2c3 2 4 2 9 2l7 1c1 2-1 4-3 4l-7 1c-4 0-5 0-8-2s-4-3-8-3l-13 2c-9 2-21 3-27 2zm59-11-9-3c-6-2-11-2-18 0-4 2-5 2-6 1-3-2 0-5 7-7s13-2 19 1c14 4 24 5 39 2 14-3 23-2 23 2 1 2 0 2-1 3l-5-1c-3-1-9 0-18 2s-24 2-31 0zm291 46a213131 213131 0 0 1 136-145l56-59 8-9 1-57 1-59v-4l-7 7a20402 20402 0 0 1-205 224l-9 10v47l3-3c2-3 6-6 11-8s7-4 9-8c3-6 7-10 13-13 5-2 7-4 11-11 1-3 6-8 7-8 3 0 4 4 2 6l-5 6c-4 7-6 10-13 13-6 3-8 5-11 11-2 5-4 6-11 10-5 2-6 3-10 7l-5 6-1 7v7l3-4c2-5 7-9 10-11l7-3c8-3 12-7 15-13 6-9 9-11 11-7l-2 5-4 6-12 12-8 4c-6 2-10 6-15 13l-4 4-1 16 1 16v1l1 2 17-18zm127-161c-1-2 0-3 5-6 5-2 8-5 13-12l12-14 10-5c13-5 14-6 17-15l1-7c0-2-1-2-2-1l-2 4c0 3-2 5-4 4-3-2-2-8 3-13 3-3 5-4 8-3 6 2 3 21-4 29l-17 9c-6 2-11 6-17 15-6 8-10 12-15 14-4 2-7 3-8 1zm-60-1v-4c2-6 7-11 16-15s12-7 14-15c1-6 6-10 13-12 6-2 7-2 11-7l6-5c2 0 2 1 2 2 1 2-1 3-5 8-4 4-6 5-9 6l-7 3c-3 2-4 3-5 6-5 12-6 14-17 19-9 5-11 7-14 13-2 3-3 3-5 1zm44-26v-4c2-4 7-7 12-9l7-3c2-1 6-8 8-14s5-10 7-11c4-1 6 4 2 7l-3 6c-2 5-6 12-9 15l-8 4c-5 2-7 4-9 6-4 4-5 4-7 3zm-138 94 1-27v-25h-15a220399 220399 0 0 1-462-2h-37v51a178911 178911 0 0 0 513 3zm-342-9-11-3c-5-2-7-3-13-3l-16 2c-16 3-32 4-38 2-3-1-4-6 0-6l3 1h10c8 0 14-1 29-4 8-2 18-1 25 2l7 3h32c2 2 1 4-2 5l-18 2-8-1zm291-5c-5-1-9-2-14-6-4-2-6-3-10-3-3 0-4 0-5-2-1-1 0-1 1-2 1-2 2-2 6-2l10 4c6 3 9 4 17 5 4 1 4 0 10-2 5-3 7-4 12-4s8 1 8 3-2 3-6 3-6 0-11 3c-8 3-10 4-18 3zm-437-7c-2 0-1-3 1-6 3-3 7-5 13-4 4 0 5 0 8 2 3 3 3 3 11 3l13-2 13-2c7-1 7-1 20 2 8 3 17 1 20-4 2-3 2-3-1-4-4-2-9-1-8 1 1 4-2 6-5 3-2-1-2-2-1-4 2-7 10-9 17-5 5 2 6 4 5 9-1 4-3 6-9 9-6 2-15 3-23 0-5-1-6-2-13-1l-14 2-14 1h-9l-4-2c-4-3-5-3-8-3l-7 3c-2 3-3 3-5 2zm428-9c-7-4-9-4-17-4l-15 1c-13 3-18 4-22 3l-12-5-6-1c-2-1-3-1-5 1-3 2-4 1-5 0-1-2 0-3 2-6l7-1c4 0 6 0 12 3l6 3h7l14-2c7-2 10-2 17-2 9 0 12 0 19 5 4 2 4 2 7 1l6-1c3-1 4-1 4 1 0 3-1 4-6 6-5 1-8 1-13-2zm82 7a10620 10620 0 0 1 145-159 4023 4023 0 0 0 63-70v-32l-111 115-111 115v45l2-2 12-12zm-33-40-1-5H634l-246-1v4l1 4h44l428 2h19zm12 0-1-5h-2c-3 0-3 0-3 2l1 5c0 2 0 2 2 2h3zm-510-2c0-4 0-4-2-4s-2 0-2 4c0 3-1 3 3 4l1-4zm521-6v-4l-2 3c-2 2-2 3-2 5v4l2-3c2-1 2-2 2-5zm-11-14v-10H378v19h8l417 1 89 1zm120-95 98-102v-12l-87 93-100 106-13 13v4l1 3 1-2 100-103zm-16-2 111-118 15-16v-16l-51 53-97 103-61 64-14 16v16l97-102zm-585 78 3-2v-8l-1-8a365 365 0 0 0-27 19l11 1c12 0 12 0 14-2zm115-3v-19c-2-7-7-17-11-20-7-7-14-10-23-10h-5l1 4-1 4 3 1c4 0 6 2 4 4-1 2-13 1-20-1s-13-7-12-10 3-3 7 1l3 3v-3c1-3 0-3-1-5-3-3-11-5-17-4-5 0-12 4-19 11a47 47 0 0 0-14 47c0 2 3 2 52 2l52-1zm20 4h-15l8 1 7-1zm44 0-2-5-4 2-6 3c-3 1-3 1 4 1l8-1zm83-7c0-14 5-25 15-38l3-4-10-13c-5-5-9-6-17-6s-10 1-11 5v3l5-3c3-2 7 1 4 4-3 4-12 6-23 5-7-1-10-2-10-4s2-4 4-3c4 1 4 1 4-1l1-4 1-2-12-3c-4 0-11 2-14 4l-3 1v12l-1 16c-2 6-7 17-12 23l-4 7 2 5 1 4h77zm113-1c0-14-3-23-11-33-4-3-6-6-9-7-5-3-12-5-17-5l-11 3v2l1 4c0 2 1 2 5 1 2-1 4 1 3 2 0 3-3 4-10 5-11 1-20-1-23-5-2-4 1-7 4-4l6 3-1-4c-1-3-3-4-11-4s-13 2-19 9a49 49 0 0 0-14 41l54 1h53zm33 7-5-1h-8l-8-1c-5-2-6-2-6 1v3h28zm91-14 15-15-1-5-2-10c-3-10-12-23-20-27-4-2-5-2-11-2-8 0-10 1-11 5l-1 3 6-3c2-2 4-1 4 2s-4 6-10 7c-7 1-22-1-23-3-1-3 1-5 5-4l3 1v-3c1-6 1-6-3-6-12-3-24 1-33 11-7 8-10 17-11 29 0 8 1 19 3 25l5 7 3 4h68zm-337 10c10-2 18-9 25-23 6-11 6-14 6-27 0-12-1-16-7-25a32 32 0 0 0-33-16h-3v9h3c5-1 7 2 4 4l-11 1c-9 0-10 0-14-2-3-1-8-5-8-7l4-3 3 3c4 3 5 3 4-1s-2-5-8-6c-9-1-11-1-20 6-9 6-13 10-16 19-3 4-5 13-4 14l4 1c6 2 10 4 16 9 4 3 5 5 8 12 5 9 6 14 7 24v6l3 1 6-1 5 1 5 2 21-1zm241-4a79 79 0 0 1-1-41c0-5 13-22 20-26 3-2 3-2 3-5l2-8 1-5-3-1c-6-4-11-5-17-5h-8l-1 4 1 4c-1 1 0 1 3 1 5 0 6 1 4 4-2 2-2 2-11 2l-13-2c-4-1-8-4-9-6-1-3 3-6 6-3l3 3 2 1-1-3-1-4c-3-4-16-4-22-1-5 2-7 4-12 10l-5 4 2 3c5 7 11 18 12 24 0 5 1 6 3 8 4 2 12 13 15 18 2 5 5 15 5 19 0 3 0 3 2 3l3 1c2 2 7 3 13 2 4 0 5 0 4-1zm132-44c4-14 4-16 3-27-1-8-3-12-7-19-4-8-10-14-15-17-4-1-5-2-11-2-8 0-10 1-11 5l-1 4 6-3c2-2 4-1 4 2s-4 5-10 7c-7 1-22-1-23-4s1-4 5-3l3 1v-3c1-6 1-6-3-7-12-3-24 1-33 11-6 8-10 18-10 25l1 2c4-1 14-2 16-1l4 2h2l1-4c1-6 3-7 7-7h3l2 1c1 0 2 2 2 6v5l6-1c13-1 21 3 30 14 7 9 13 21 13 28 0 2 0 2 7-6 5-4 8-8 8-9zm-213 9c-2-14-4-20-5-16-1 3 0 13 2 17 2 3 3 2 3-1zm-251-7v-10c1-4 1-4-1-4-3 1-4 20 0 20l1-6zm223-4 10-1h7v-5l1-5h11l2 5c1 4 1 5 2 4 8-2 13-2 23 0 2 1 2 1 2-2l-8-17c-6-9-12-13-22-14-6 0-8 0-10 5v3l6-3h3c2 1 2 3-1 5-6 5-15 5-28 0l-4-3c0-2 1-3 5-2h3l1-3v-4c1-3-14-5-22-3l-3 1-1 6a69 69 0 0 1-5 16c7 5 12 9 17 16 2 4 2 4 4 3l7-2zm-212-9 2-9 1-4-5 3c-4 3-5 4-4 5l1 6c0 4 0 4 2 4s2 0 3-5zm153 3c2-4 4-14 3-17-2-4-4 2-6 16 0 3 1 4 3 1zm331-25 10-11a49 49 0 0 0-14-53c-7-8-14-10-24-8-5 1-7 2-8 6 0 3 1 4 4 0 3-3 6-3 6 0 2 3-6 8-14 10-6 1-17 0-18-2-3-2 0-4 5-4 2 1 2 0 2-3v-4l-4-2c-7 0-14 1-21 5-4 3-7 5-10 11l-3 4v6c0 6 1 7 3 7l1-4c1-5 2-6 7-6l3-1 2 1c1 1 2 2 2 6v5h6c16-1 26 5 36 22 6 10 9 25 7 36v3l6-7 16-17zm-104 19c2-3 3-18 1-18l-1 2-2 8v10l2-2zm-251-9c5-1 10 0 16 1 1 1 2 0 2-4l3-5h10l1 5 1 5h16l1-2c3-7 4-11 5-19 0-8 0-9-2-15-4-12-13-24-21-28-3-2-5-2-10-2-8 0-10 0-12 4v4l6-3c3-3 6 0 4 4-3 4-13 6-24 5-7-1-9-2-10-5 0-1 2-3 4-2 4 1 5 1 5-1v-4l1-2-12-3c-4 0-11 2-16 5-5 2-13 11-16 17l-4 16c0 3 0 3 2 3 6 0 16 4 23 9 2 2 10 12 12 18l1 3 5-1 9-3zm94-8 4-9v-4l-2 3-4 6c-2 4 0 7 2 4zm-161-10v-10c0-3-1-3-2-3s-2 5-2 11c1 5 2 9 4 9v-7zm198 2-5-1-6-2 2 2 6 3c1 1 1 0 2-1l1-1zm51-9v-10h-2c-2 1-2 15 0 19 2 3 3 2 2-9zm-66 5-3-2-2-1-3-2-4-2v7h4l7 1h3zm-25-7c1-5 3-5 7-5 2 1 2 0 3-1l3-6c3-6 5-11 5-19 1-7 0-14-3-21-5-11-11-18-17-21-5-2-15-3-17-2s-4 6-3 7l6-3h2c3 1 2 4 0 6-6 4-15 4-28 0l-4-3c-1-3 1-4 5-3 3 1 3 1 3-1l1-3c2-3 2-3-3-5-9-3-16-2-25 2-6 2-14 11-18 18-3 6-3 7-1 6 3-1 4 1 5 6v5h8l11 1c9 3 18 12 24 24 3 5 6 15 6 19l1 2c8-2 16-2 22 0l5 1 2-4zm50 1 7-4c3-1 3-1 1-9l-2-11c1-16 5-27 16-39 6-6 11-10 16-11 4-1 5-2 5-4 1-2 0-3-6-6-7-3-13-4-21-2l-1 3 1 4c-1 1 0 1 3 1 5 0 6 2 4 4s-3 2-12 2l-12-1c-4-2-8-4-9-6-2-4 3-6 5-3l3 2 2 2v-4l-2-4c-2-3-15-4-21-1-5 2-7 4-12 10l-5 5 2 2c6 8 10 18 12 27 1 9-1 24-5 32-2 4-2 4-1 6s10 6 14 7l9 1c5 0 5 0 9-3zm79 0 7-10 11-9c6-3 13-5 18-5h5l-1-6c0-9-2-14-7-22-5-7-7-9-14-12-6-3-11-4-17-4l-5 2v8l4-1c3 0 5 1 4 4-1 2-3 2-13 2-8 0-9 0-13-2s-8-5-8-7l2-2h3l2 2 2 1 2 2v-3c-1-5-3-7-10-7-6-1-11-1-15 2-8 4-16 14-20 24l-4 14 1 14c2 9 2 9 6 9l8 1c5 1 5 2 6-5 1-5 1-5 6-5 6 1 7 2 7 8l1 4h2c8-2 17 0 24 3l4 3 2-3zm-122 0-2 1h1l1-1zm-156-2a63 63 0 0 1 8-26l-22 16 4 1 5 2 1 5c1 4 1 5 2 4 1 0 2 0 2-2zm-17-3v-5c0-1-11 7-10 8h2l4 1c2 1 3 1 4-4zm463-14 15-16-5-1c-6-1-10-3-14-6l-2-2-2 4-5 8-3 4 1 6 1 12v6l14-15zm-283 14h-1c-1 0 0 0 0 0h1zm171-3c2-4 3-18 1-18l-1 2-2 7v10l2-1zm-272-23c2-4 3-16 2-18h-2l-1 3-1 7c-2 7-2 10-1 10l3-2zm370-12 3-4-4-8-6-15c-2-7-2-8-2-17l1-15 1-5-3-1c-6-4-11-5-17-5h-8l-1 4 1 4c-1 1 0 1 3 1 5 0 6 1 4 4-2 2-3 2-11 2l-13-2c-4-1-8-4-9-6-1-3 3-6 5-3l4 3 2 1-1-3c0-4-2-5-6-6-10-3-20 0-29 10l-3 4 3 4c7 9 12 20 13 30 0 6 0 6 2 6l2-4c1-6 1-7 4-7l5-1c2-1 4 1 5 6s0 5 9 4c8-1 13 0 19 3 7 3 18 15 21 22l1 3 2-2 3-7zm66-31 32-35c0-1-6-11-11-15-5-5-9-7-17-7s-10 1-11 5l-1 4 6-3c2-2 4-1 4 2s-4 5-10 7c-7 1-22-1-23-4s1-4 5-3l3 1v-3c1-6 1-6-3-7-12-3-24 1-33 11-8 10-11 18-11 33 0 9 0 11 2 16 4 11 8 18 12 22 5 5 8 7 15 8 9 3 5 6 41-32zm-169 23c6-5 14-8 22-10h2v-4c-1-14-12-32-22-37-4-2-5-2-11-2-8 0-10 1-11 5l-1 3 6-3c2-2 4-1 4 2s-4 6-10 7c-7 1-22-1-23-3-1-3 1-5 5-4l3 1v-3c1-6 1-6-3-7-8-2-16 0-24 4-7 4-17 17-18 24v3h5c7 1 7 1 7-4l2-5 3-1 3 1c1-1 4 1 5 2l1 5v4h17c6 2 15 6 18 10 4 3 10 12 12 17l1 3 2-3 5-5zm-274 3 3-9c2-3 3-6 2-7l-25 17 5 1h9c6 2 6 2 6-1zm315 1c2-2 2-8 2-13l-2-5-1 3-1 10c0 7 0 8 2 5zm-101-21c-1-10-1-12-3-10l-1 8c0 7 1 8 2 10l2 2v-10zm-149-3c2-3 3-7 4-13l-1-5-1 2a142 142 0 0 1-5 16c0 2 2 2 3 0zm42-26v-13l-13 9c-21 14-19 13-19 16v3h3c8 0 18 2 21 5 0 1 1 1 4-3l4-4zm46 10-1-10h-1c-2 1-2 14 0 18 2 3 3 2 2-8zm349-8v-6l-2 2c-2 2-2 4-2 9l-1 6 3-2c2-2 2-3 2-9zm-440 5c1-4 2-5 7-4 3 0 4 0 17-9l17-12 4-3v-6l1-8v-3l-2 2-65 44 5 1c3 0 6 0 9 2l5 1 2-5zm129 1a60 60 0 0 1 18-18c6-4 13-5 18-5h5l-1-7c0-8-2-14-7-22-5-7-7-9-14-12-6-3-11-4-18-3-4 0-5 1-4 2v7h3c4 0 6 1 5 3s-3 3-13 3c-8 0-9-1-13-2-4-2-8-6-8-7l2-3h3l2 2 2 2 2 1v-3c-1-5-3-6-10-7s-11 0-16 2c-7 5-15 15-20 24l-3 14c-1 8-1 9 1 15 2 8 2 9 6 9h8c5 2 5 2 6-4 0-6 1-6 6-5 6 0 7 1 7 7l1 4h2c8-2 17 0 24 4l4 2 2-3zm-73-3c4-2 4-2 2-7l-2-9c0-5-1-6-2-6-2 0-2 1-2 4a254 254 0 0 1 0 20l4-2zm128-5c3-4 4-18 2-18l-1 2-2 7-1 11 2-2zm89-17v-10h-2c-2 1-2 15 0 19 2 3 3 2 2-9zm-47 5 5-5-18-1h-19c-1-1-1-1-1 2v4l6-1c7 0 14 1 19 3l3 3 5-5zm-47-3c0-2-1-2-2-2l-2 1 1 2c2 1 3 1 3-1zm132-3a61 61 0 0 1 18-19c6-3 13-5 18-5h5l-1-6c0-9-2-14-7-22-5-7-7-9-14-12-6-3-11-4-17-4l-5 2v8l3-1c4 0 6 1 5 4-1 2-3 2-13 2-8 0-9 0-13-2s-8-5-8-7l2-2h3l2 2 2 1 2 2v-3c-1-5-3-7-10-7-7-1-11-1-15 2-8 4-16 14-20 24l-4 14c-1 7-1 8 1 14 2 9 2 9 6 9l8 1c5 1 5 2 6-5 0-5 1-5 6-5 6 1 7 2 7 8l1 4 2-1c8-1 17 0 24 4l4 3 2-3zm108 1-1-1-1 1 1 1 1-1zm-362-10 2-8 2-4h-9v16h2c2 0 2 0 3-4zm185 3-2-4-1-7-1-4h-33c-32 0-34 0-33 1l2 12v2h67zm183-14h-28l4 2 7 7 5 4 6 1h6l6-7 7-6zm-58 12 2-10-1-2-3 4c-2 8-1 12 2 8zm-247-33c-1-10-1-12-3-11l-1 9c0 6 0 8 2 9 0 2 1 2 2 2v-9zm182-27c-1-10-1-12-3-10l-1 8c0 7 1 8 2 10l2 2v-10z"/><path fill="none" stroke="#000" stroke-linecap="round" stroke-linejoin="round" stroke-width="6.9" d="M3 3h1493v893H3z" paint-order="markers fill stroke"/></svg>