<svg xmlns="http://www.w3.org/2000/svg" xml:space="preserve" viewBox="0 0 1500 898.9"><path d="m372 776.6-1.6-1.7V367.8l3.9-2.5a2265 2265 0 0 1 33.3-23l36.8-25.5a63669.2 63669.2 0 0 1 282.5-195c1.7-1.3 3.2-1.3 47.1-.7 25 .3 114.4.6 198.7.6 113.3 0 153.7.1 154.8.7 2 1 2.6 3.7 1.6 6.6a112 112 0 0 0-.8 17.3c0 8.3-1.1 84.2-2.5 168.7l-2.5 161.3c0 7.5 0 7.7-2 9.6-1.1 1-24.5 31.2-52 67a394654.1 394654.1 0 0 1-172 224c-1 1.2-14.5 1.3-262.4 1.3H373.5Zm519.8-18c0-12.2 0-12.6-1.3-11.9-1 .6-2 .5-3.6 0-3.1-1-4.7-.5-10.6 4-5.3 3.9-13 7.3-18.3 8-2.2.3-4.5-.2-9-1.9-12.2-4.5-11.8-4.4-16.1-2.8-5.3 2-7.1 1.7-7.1-1.1 0-1.8.4-2.4 2.6-3.4 1.5-.7 4.1-1.6 5.9-2.1 3.3-.9 3-1 18.4 4.6l4.1 1.4 5.6-2a43 43 0 0 0 10.4-5.4c7.8-5.7 12.3-7 17-4.5l2 1v-27.1h-92.1V761H463.3v-24.6l-6.2-4.2c-8.5-5.8-11.5-10.9-7.3-12.2 1-.3 2.4.5 5.2 3 2 2 4.8 4 6.1 4.8l2.3 1.4-.3-6.5a34 34 0 0 0-.7-7c-.2-.2-19.4-.2-42.6.1l-42.3.6V771h514.3zm37.3-34.3A451304 451304 0 0 1 1081.4 526l34.3-44.6.6-5.3c.5-6 .6-20.5 0-18.3-.5 1.7-2 3.6-16 20l-22 26.2-21.5 25.3a7733.6 7733.6 0 0 0-40.8 48.2l-20.3 24-21.4 25.3-42 49.6-33.3 39.3v23.9c0 13 0 23.7.2 23.5l29.9-38.8zm-135.8-3.5V687l-4.9-.5c-2.6-.2-7-.4-9.7-.4-4.6 0-7.4-.8-8.5-2.5-.3-.4-.5-5-.5-10.2v-9.5h-300v90.7h323.6Zm-330-37.6v-25.7h312.5l12 11.9 11.9 12v14l1.7-1c.9-.6 3.5-1.7 5.8-2.3 5-1.5 9.9-.7 17.7 2.8 3.8 1.8 6.7 2.5 11 3l5.8.4 3.2-3c3.9-3.5 6.4-3.7 6.8-.5.4 3.5-6.9 9.3-11.6 9.2a49 49 0 0 1-18.1-4c-6.8-3-11.5-3.5-15.7-1.5-3.1 1.4-6.6 6-6.6 8.7v2l32.2-.5c17.8-.3 38.5-.5 46.1-.5h13.8V587.5h-19.3v22.2c0 24.4-.1 25.3-4.3 27.5-1.8 1-6.2 1-33.7.8l-32.9-.3H432.8l-32.4.1-2-2-2-2-.1-23.1-.2-23.2h-18.6v121.4h85.8zm-54.6-10.7a14.2 14.2 0 0 1-6.7-23.3c9.1-10 26.3-3.8 26.3 9.3 0 4.5-1.4 7.4-4.9 10.5a15 15 0 0 1-14.7 3.5zm9.7-10.1c2.6-2.7 2.5-5.2 0-7.8a6 6 0 0 0-5.1-2.1 6 6 0 0 0-5.1 2c-2.7 2.7-2.8 5.7-.3 8.2 3.2 3.2 7.4 3 10.5-.3zm434.6 9.3a14.2 14.2 0 0 1-6.7-23.2c9.1-10 26.2-3.9 26.2 9.3 0 4.4-1.3 7.4-4.8 10.5a15 15 0 0 1-14.7 3.4zm9.7-10c2.6-2.7 2.5-5.2-.1-7.8a6 6 0 0 0-5-2.1 6 6 0 0 0-5.1 2c-2.7 2.7-2.8 5.7-.3 8.2 3.2 3.2 7.4 3 10.5-.3zm51.3 26.5a27234.3 27234.3 0 0 1 112.1-132.9 42214.3 42214.3 0 0 0 87.5-103.5c1.1-1.4 2.2-2.5 2.5-2.4.2 0 .4-2.5.4-5.7l1-44c.4-21 .7-38.3.6-38.6-.1-.3-5.9 5.5-12.8 12.8a341221 341221 0 0 1-190.5 202.2l-15.9 16.7v55.5c0 30.4.3 55.6.5 55.9.6.6.6.6 14.6-16zm8-25.7c-5.8-2.4-4.5-11.8 3.7-24.5a45 45 0 0 1 17.1-13.8c7.9-4.4 10-7 13.7-16.3 1.5-4 3.3-7.3 4.1-8 3-2 7.7-.8 7.7 2.2 0 1.7-2 3.4-3.6 3-.5 0-1.7 2.2-2.8 5-4.3 10.8-7.2 14.1-17.5 19.9a37.7 37.7 0 0 0-17 16.8c-2.8 5.8-4 10-2.8 10 1.2 0 5.8-5.2 6.9-7.7 1.7-4 6.8-5 6.8-1.2 0 3.7-7.5 13-11.7 14.5-2.3 1-2.5 1-4.5 0zm70.3-129c-.3-.3-.4-1.4-.4-2.5 0-2.5 6.5-9.7 14.4-16 7.7-6 9.5-8 15-16.4a32.3 32.3 0 0 1 16-15c4-2 7.2-4.1 8.2-5.5 1.7-2.4 3.9-2.6 5.2-.4.6 1 .5 1.8-.6 3.9-1.2 2.1-2.8 3.4-8.2 6.2-9.5 5-10.7 6-14.3 11.8-6 9.5-10 14.2-15.6 18.5-3 2.3-8 6.8-11 10-5 5.3-7.3 6.7-8.7 5.3zm38.4-57c-1-2.3.2-3.7 5.3-6.5 7.8-4.3 17.8-13 18.7-16l.7-3.5c0-3.5 6.5-11.2 13-15.4a35 35 0 0 0 9.1-9.5c2.9-3.9 6.2-8 7.4-9.4 2.4-2.5 5-3 6.1-1 .6 1-.8 3.2-7 11.6a45.8 45.8 0 0 1-12 13c-5.2 3.3-10 8.3-10.6 11-1.3 5.7-1.8 7.4-3.2 9A92.8 92.8 0 0 1 1039 475c-5.3 2.7-7.6 3-8.2 1.4zm-242.4 203c0-.2-2.8-3-6.1-6.3l-6-6v12.4h6c3.3 0 6 0 6-.2zm-325.8-89.9v-41.4l-29.8.2-29.8.2-.2 40.3c0 22.2 0 40.8.2 41.3.2.7 6.9.9 30 .9h29.6zM419 626.4c-1.3-1.6-.4-4.1 2.3-6 2-1.7 3.1-1.9 10.2-2 7.4-.2 8-.1 11.8 1.8 4.3 2.3 5.4 4.6 3.1 6.4-2 1.4-26.2 1.3-27.4-.1zm-5.7-5.6c-1.1-1.4-1.2-28 0-29.4 1.5-1.8 3.3-1.2 6 1.8l2.6 2.9v8.8c0 9.6-.5 11.9-3.4 14.9-2 2.2-3.9 2.5-5.1 1zm32.1-1.7c-2.1-2.7-2.1-2.7-2.1-11.6 0-8.8 0-9 2.3-12.8 2.7-4.6 4.3-5.8 6-4.6 1.6 1 2 5.7 1.3 19.4-.5 10.6-1 12.3-4 12.3-.7 0-2.2-1.2-3.5-2.7zm-32-31.2a55 55 0 0 1-.7-15.2l.2-14.1 2.1-.3c1.7-.1 2.7.4 4.7 2.4l2.5 2.6-.2 8.8c-.1 7.6-.3 9.2-1.7 11.5-3 5.3-5 6.6-7 4.3zm33.2-2-2.8-3 .4-9c.2-5 .8-10 1.2-10.8 1.5-3 4.5-5.6 6.2-5.6 3 0 3.3 2 2.8 16-.3 10.4-.6 13-1.6 14.1-1.8 2-3 1.6-6.2-1.7zm-25.3-26.7c-4-2-5.3-4-3.5-6 1-.9 3.4-1.1 14.8-1.3 14.3-.2 15.7 0 15.7 2.9 0 .8-1.2 2.5-2.7 3.8l-2.6 2.5h-9c-8 0-9.3-.3-12.7-1.9zm108.4 30.4v-41.4l-29.8.2-29.9.2-.1 40.3c-.1 22.2 0 40.8.1 41.3.3.7 7 .9 30 .9h29.7zM486 626.8c-1-1.8-.1-3.5 3-6 2-1.8 2.5-1.9 10.3-1.9 7.3 0 8.6.2 11.7 1.8 4.3 2.2 5.4 3.8 3.9 6-1 1.4-1.6 1.5-14.6 1.5-12.8 0-13.6 0-14.3-1.4zm-4.6-5c-1.1-1.2-1.3-3.3-1.7-14.3-.3-11.2-.2-13 .9-14.6 1.9-3 4.2-2.4 7.2 1.5l2.6 3.4-.5 9c-.6 10-.8 10.8-3.8 14-2.5 2.8-3 2.9-4.7 1zm31.7-1.9-2.4-2.5.2-9c.2-8.8.3-9.3 2.5-13 2.7-4.6 4.2-5.8 6-4.6 1.6 1 1.9 5.7 1.2 19.4-.5 10.5-1 12.3-3.8 12.3-.7 0-2.3-1.2-3.7-2.6zM481 588.5c-1-1.3-2-22-1.1-26.3 1-5 4.6-5 8.4 0 1.9 2.5 2 3 2 10.5s-.1 8-2.2 11.9a22.6 22.6 0 0 1-3 4.5 3 3 0 0 1-4.1-.6zm33.5-1.8-2.8-2.9v-8c0-4.4.3-9 .7-10.4 1-3.1 4.8-7.2 7-7.2 3 0 3.3 2 2.8 16-.4 10.5-.7 13-1.7 14.1-1.7 2-3 1.6-6-1.6zm-26-27c-2.7-1.4-3.6-2.3-3.8-3.8-.3-3.2 1.3-3.5 16.8-3.3l14.2.2.2 2.3c.1 1.8-.3 2.6-2.5 4.4l-2.7 2.3h-9.3c-8.8 0-9.5-.2-12.9-2zm108.2 30v-41.5l-29.8.2-29.8.2-.2 40.3c-.1 22.2 0 40.8.2 41.3.2.7 6.9.9 30 .9h29.6zM553.3 627c-1.3-1.5-.4-4 2.3-6 2-1.7 3-1.9 10.2-2 7.4-.2 8-.1 11.7 1.8 4.3 2.3 5.5 4.7 3.2 6.4-2 1.4-26.2 1.3-27.4-.2zm-5.7-5.6c-1.1-1.4-1.2-28 0-29.4 1.4-1.7 3.3-1.2 6 1.8l2.6 2.9v8.8c0 9.6-.6 11.9-3.4 15-2 2-3.9 2.4-5.1 1zm32.1-1.7c-2.1-2.6-2.2-2.7-2.2-11 0-8 .2-8.7 2.2-12.7 3-6 6.5-7.4 7.6-3.1a127 127 0 0 1-1.6 27.9c-1.5 2.3-3.5 2-6-1zm-32-31.2a57 57 0 0 1-.7-15.1l.2-14.2 2.1-.2c1.7-.2 2.7.3 4.7 2.3l2.5 2.6-.2 8.8c-.1 7.6-.4 9.2-1.7 11.6-3 5.2-5.1 6.5-7 4.2zm33.2-2-2.8-3 .4-9.1c.4-9.4.8-11 3.9-14.3 2.1-2.3 3.7-2.5 5.4-.7 1 1 1.1 2.4.9 7.3l-.4 13c0 6-.3 7.2-1.5 8.4-2 2-2.7 1.8-5.9-1.6zm-25.3-26.7c-4.1-2-5.3-4-3.5-5.9 1-1 3.4-1.2 14.8-1.4 14.3-.2 15.6 0 15.6 3 0 .7-1.1 2.4-2.6 3.7l-2.6 2.5h-9c-8.1 0-9.3-.2-12.7-1.9zM664 589.6v-41.4h-29.6c-26.3 0-29.6.1-30 1.1-.6 1.6-.6 80.7 0 81.3.3.2 13.8.4 30 .4H664zm-44.3 37.5c-1.3-1.5-.4-4 2.3-6 2-1.7 3.1-1.9 10.2-2 7.4-.2 8-.1 11.8 1.8 4.3 2.3 5.5 4.7 3.1 6.4-2 1.4-26.2 1.3-27.4-.2zm-5.6-5.6c-1.2-1.4-1.2-28 0-29.4 1.4-1.7 3.2-1.2 5.9 1.8l2.6 2.9v8.8c0 9.6-.5 11.9-3.4 15-2 2-3.9 2.4-5.1 1zm32-1.7c-2.1-2.6-2.1-2.7-2.1-11 0-8 .1-8.7 2.1-12.7 3-6 6.5-7.4 7.6-3.1.9 3.3-.5 26.1-1.6 27.9-1.5 2.3-3.4 2-6-1zm-32-31.2a57 57 0 0 1-.7-15.1l.2-14.2 2.2-.2c1.6-.2 2.7.3 4.6 2.3l2.5 2.6-.2 8.8c0 7.6-.3 9.2-1.7 11.6-3 5.2-5 6.5-7 4.2zm33.2-2-2.8-3 .4-9.1c.4-9.4.9-11 4-14.3 2-2.3 3.7-2.5 5.3-.7 1 1 1.2 2.4 1 7.3l-.5 13c0 6-.2 7.2-1.4 8.4-2 2-2.8 1.8-6-1.6zM622 559.9c-4-2-5.3-4-3.4-5.9 1-1 3.3-1.2 14.7-1.4 14.3-.2 15.7 0 15.7 3 0 .7-1.2 2.4-2.7 3.7l-2.6 2.5h-9c-8 0-9.3-.2-12.7-1.9zm109.1 29.7v-41.4l-29.8.2-29.8.2-.2 40.3c-.1 22.2 0 40.8.1 41.3.3.7 7 .9 30 .9h29.7zm-42.8 38.2c-1.3-1.5-.4-4 2.3-6 2-1.6 3-1.8 10.2-2 7.4-.2 8-.1 11.7 1.8 4.3 2.3 5.5 4.7 3.2 6.4-2 1.4-26.2 1.3-27.4-.2zm-5.7-5.6c-1.1-1.4-1.2-28 0-29.4 1.4-1.7 3.3-1.2 6 1.8l2.6 2.9v8.9c0 9.6-.6 11.8-3.4 14.8-2 2.2-3.9 2.5-5.1 1zm32.1-1.7c-2.1-2.6-2.2-2.7-2.2-11 0-8 .2-8.7 2.2-12.7 3-6 6.5-7.4 7.6-3.1a127 127 0 0 1-1.6 27.9c-1.5 2.3-3.5 2-6-1zm-32-31.1a57 57 0 0 1-.7-15.2l.2-14.2 2.1-.2c1.7-.2 2.7.3 4.7 2.3l2.5 2.6-.2 8.8c-.1 7.6-.4 9.2-1.7 11.6-3 5.2-5.1 6.5-7 4.2zm33.2-2.1-2.8-3 .4-9c.4-9.5.8-11.1 3.9-14.4 2.1-2.3 3.7-2.5 5.4-.7 1 1 1.1 2.5.9 7.3l-.4 13c0 6-.3 7.2-1.5 8.4-2 2-2.7 1.8-5.9-1.6zm-25.3-26.7c-4.1-2-5.3-4-3.5-5.9 1-1 3.4-1.2 14.8-1.4 14.3-.2 15.6 0 15.6 3 0 .7-1.1 2.4-2.6 3.8l-2.6 2.4h-9c-8.1 0-9.3-.2-12.7-1.8zm107.7 29v-41.4l-29.9.2-29.8.2-.2 40.3c0 22.2 0 40.8.2 41.3.2.7 7 .9 30 .9h29.7zM754 626.4c-1.3-1.6-.4-4.1 2.3-6 2-1.7 3.1-1.9 10.2-2 7.4-.2 8-.1 11.8 1.8 4.3 2.3 5.4 4.6 3.1 6.4-2 1.4-26.2 1.3-27.4-.1zm-5.7-5.6c-1.1-1.4-1.2-28 0-29.4 1.5-1.8 3.3-1.2 6 1.8l2.5 2.9v8.8c0 9.6-.5 11.9-3.4 14.9-2 2.2-3.8 2.5-5 1zm32.2-1.7c-2.2-2.6-2.2-2.7-2.2-11 0-7.8.1-8.9 1.8-12.3 3.2-6.3 5.2-7.6 7.8-5 1.2 1.2 1.2 2.6.8 14.5-.6 14.3-1.1 16.5-4.3 16.5-1.2 0-2.5-1-4-2.7zM748.3 588a64 64 0 0 1-.6-15.2l.2-14.1 2.1-.3c1.7-.1 2.7.4 4.7 2.4l2.5 2.6-.2 8.8c-.1 7.6-.3 9.2-1.7 11.5-3 5.3-5 6.6-7 4.3zm33.3-2-2.8-3 .4-9.1c.4-9.4.8-11 4-14.4 2-2.2 4.3-2.5 6-.6 1.1 1.2 1.2 2.7.8 14.4-.5 11.3-.7 13.2-1.9 14.4-2 2-3.4 1.6-6.5-1.7zm-25.3-26.7c-4-2-5.3-4-3.5-6 1-.9 3.4-1.1 14.8-1.3 14.3-.2 15.7 0 15.7 2.9 0 .8-1.2 2.5-2.7 3.8l-2.6 2.5h-9c-8 0-9.3-.3-12.7-1.9zm109.1 30.4v-41.4l-29.8.2-29.8.2-.2 40.3c-.1 22.2 0 40.8.1 41.3.3.7 7 .9 30 .9h29.7zm-43.6 37.5c-1.3-1.5-.3-4 2.3-6 2.1-1.7 3.2-1.9 10.2-2 7.5-.2 8-.1 11.8 1.8 4.3 2.3 5.5 4.7 3.2 6.4-2 1.4-26.3 1.3-27.5-.2zm-5.6-5.6c-1.2-1.4-1.2-28 0-29.4 1.4-1.7 3.2-1.2 6 1.8l2.5 2.9v8.8c0 9.6-.5 11.9-3.4 15-2 2-3.9 2.4-5.1 1zm32.1-1.7c-2.2-2.6-2.2-2.7-2.2-11.1 0-8.2.1-8.7 2.3-12.8 2.3-4.4 4-5.9 5.9-5.1 1.8.7 2 3.2 1.5 16.2-.5 12.9-1.2 15.5-4 15.5-.7 0-2.3-1.2-3.5-2.7zm-32.1-31.2c-.6-.6-.8-5.3-.6-15.1l.2-14.2 2.1-.2c1.7-.2 2.7.3 4.6 2.3l2.5 2.6-.1 8.8c-.1 7.6-.4 9.2-1.7 11.6-3 5.2-5.1 6.5-7 4.2zm33.3-2-2.8-3 .3-9.1c.4-9.4.9-11 4-14.3 2.1-2.3 3.7-2.5 5.4-.7 1 1 1.1 2.4.9 7.3a401 401 0 0 0-.4 13c-.1 6-.3 7.2-1.5 8.4-2 2-2.7 1.8-6-1.6zM824.2 560c-4.1-2-5.3-4-3.5-5.9 1-1 3.3-1.2 14.8-1.4 14.3-.2 15.6 0 15.6 3 0 .7-1.2 2.4-2.6 3.7l-2.7 2.5h-9c-8 0-9.3-.2-12.6-1.9zm99.4-2.8A89475 89475 0 0 1 1054 418.6l56.2-59.8a64 64 0 0 0 7.3-8.5c.7-1.2 1.2-17 2-60.2.5-32.3.8-59 .7-59.3 0-.4-3.2 2.7-7 6.8a25678.4 25678.4 0 0 1-89.6 97.7 47301.2 47301.2 0 0 1-115.5 126l-9.1 10v23.5c0 12.9.1 23.4.3 23.4a19 19 0 0 0 2.6-3.2 26 26 0 0 1 11.4-8.2 14 14 0 0 0 8.6-8c2.8-5.6 6.9-9.4 13.2-12.4 5.3-2.5 7.4-4.7 10.6-11 1.7-3.3 6.1-8 7.5-8 3 0 3.8 3.3 1.4 5.5-.8.8-2.8 3.6-4.3 6.4-4 6.9-6.5 9.3-12.8 12.5-6 3-8.3 5.3-11.4 11.4-2.3 4.7-3.8 6-11.5 9.4a20 20 0 0 0-9.3 7.5 67.2 67.2 0 0 1-5.1 5.9c-1 .7-1.2 2.3-1.2 7.4v6.4l2.7-4.2c2.8-4.2 7.2-8.5 10.3-10l7.3-3.4a31 31 0 0 0 15.3-12.9c5.5-8.7 8.4-10.8 10.2-7.5.7 1.3.4 2.1-1.7 5.2l-4 6.2a48.7 48.7 0 0 1-11.9 11.6c-1.6 1-5.3 2.7-8.3 4-6 2.6-10.2 6.4-14.4 13a13.8 13.8 0 0 1-4 4.6c-1.5.4-1.5.9-1.5 17.5 0 9.4.2 17.6.5 18.2.4 1.1.5 1.1 1.2 0 .4-.8 10.7-12 22.9-25zm121.8-155.3c-1.1-2.1-.2-3.2 4.2-5.2 5-2.3 8.8-5.9 13-12a58 58 0 0 1 12.5-14.3 70 70 0 0 1 10.4-5c12-4.7 13.6-6.2 16.7-15.5.8-2.5 1-4.7.8-6.4-.5-2.4-.6-2.4-1.9-1.2-.7.6-1.6 2.2-1.8 3.5-.6 3.3-2.6 5-4.5 4-3-1.7-1.4-8 3.2-12.5 3-2.9 5-3.7 7.7-3 6 1.5 3.4 21-3.7 28.6a49 49 0 0 1-17.2 9c-6 2.3-11 6.8-17.3 15.7a37.6 37.6 0 0 1-14.5 14c-4.3 2-6.6 2.2-7.5.3zm-60.3-.8c-.8-1.2-.9-2-.3-3.4 2.3-6.2 7.5-11 16-15.1 9.2-4.3 12-7.4 14-15.4 1.3-5.5 6-9.6 13.5-12.1 5.6-1.9 6.4-2.4 10.7-7 3.7-4 5-4.9 6.4-4.7 1.3.2 1.8.8 2 2 .2 1.5-1 3-5 7.3-4.3 4.5-6 5.7-9.1 6.8-2.2.7-5.6 2-7.5 3-3.1 1.6-3.8 2.3-5 5.4-4.5 12.3-6 14-16.9 19.7-8.8 4.5-10.9 6.4-14.4 12.8-1.4 2.5-2.9 2.8-4.4.7zm43.9-26.4c-1.5-1.4-1.5-1.5-.2-3.7a23 23 0 0 1 12-9 81 81 0 0 0 6.9-2.7c2.3-1.2 6.3-7.7 8.7-14 2-5.6 5-10.3 7-11 4.1-1.3 5.8 4.2 2 7-1.4 1-2.5 2.9-3.6 6a48 48 0 0 1-8.4 14.7c-1 1.2-4.6 3-8.4 4.5a24 24 0 0 0-9.3 5.4c-4 4.2-5 4.6-6.7 2.8zM396 564.1c0-15.6.1-17.2 1.4-19.3 2.3-3.7 3.7-3.9 37.2-3.5l32.5.3h334.2l32.6-.3c33.5-.4 34.8-.2 37.1 3.5 1.3 2.1 1.4 3.7 1.4 19.3v17h19.4v-49.9l-4.9-.4c-2.7-.3-5.7-.3-6.6-.1-2.5.6-4.6-1.8-3.5-3.9 1-2 3.5-2.5 9.7-2l5.3.6v-22.9c0-20-.1-22.8-1-22.5-.8.3-1.1 0-1.1-1.3 0-1.8 0-1.8-8-2.2-7-.4-458.6-3.4-491.8-3.4h-12.4V581h18.6zm455.5-28a14.2 14.2 0 0 1-6.8-23.3c9.2-10 26.3-3.9 26.3 9.3 0 4.4-1.3 7.4-4.8 10.5a15 15 0 0 1-14.7 3.4zm9.7-10.1c2.5-2.7 2.5-5.2-.1-7.9a6 6 0 0 0-5-2 6 6 0 0 0-5.1 2c-2.7 2.7-2.8 5.7-.3 8.2 3.2 3.1 7.3 3 10.5-.3zm-451.9 8.6a14.2 14.2 0 0 1-6.7-23.3c9.1-9.9 26.3-3.8 26.3 9.3a13 13 0 0 1-4.9 10.6 15 15 0 0 1-14.7 3.4zm9.7-10c2.6-2.8 2.6-5.3 0-7.9a6 6 0 0 0-5.1-2 6 6 0 0 0-5 2c-2.8 2.7-2.8 5.6-.3 8.1 3.1 3.2 7.3 3 10.4-.3zm148.6 3.6c-2.1-.4-6.2-1.8-9-3-4.3-2-6.2-2.3-12-2.6-6-.2-7.3 0-11.3 1.6-4.8 1.9-7.1 1.6-7.1-1 0-2.7 4.7-5.2 12.1-6.4 6-1 14 .2 20 2.8 9.3 4 17.4 4.5 30.4 1.8 15.4-3.3 16.5-3.4 20.9-2.6a23 23 0 0 1 6.8 2.7c2.5 1.7 3.3 1.8 8.5 1.6 4.8-.2 5.8-.1 6.5 1 1 1.6 0 3.5-2.5 4.2-.9.2-4 .5-6.7.5-4.6.1-5.4-.1-8.5-2.2a11 11 0 0 0-7.8-2.2c-2.4 0-8 .9-12.6 2-9.1 2.1-21.3 3-27.7 1.8zm59.5-11.4c-2.8-.8-7-2-9.2-2.8-5.8-2-10.7-2-17.6.4-4.8 1.6-5.8 1.7-6.8 1-3-2.5.3-5.6 7.8-7.5a31.7 31.7 0 0 1 18.7.7c14 4.6 24 5.1 38.9 2 13.7-2.8 22.9-1.7 23.4 2.7.2 1.6-.1 2-1.6 2.4-1 .3-3 .1-4.4-.4-3.2-1-9.2-.6-18.8 1.5a81.6 81.6 0 0 1-30.4 0zm263.8-48c.6-.7.8-7.5.8-26.5v-25.5h-15.2l-219.8-1.1c-112.5-.6-221.4-1-242-1h-37.3v25.7c0 14.1.1 25.7.2 25.8.4.2 426 3.2 467.4 3.3 34.2.1 45.2 0 45.9-.7zm-342.3-8.6c-3-.3-7.2-1.6-10.7-3.2-5-2.2-6.8-2.6-12.6-2.9-5.8-.3-8.2 0-16.8 2-15.3 3.4-31.3 4.3-37.2 2-3.7-1.3-4-6.3-.4-6.3 1 0 2.4.4 2.9.9.6.6 3.5.8 10 .7a125 125 0 0 0 28.6-4.2c8.1-1.7 19-1.1 25 1.4 2.6 1.1 6.1 2.5 7.9 3a80.2 80.2 0 0 0 25.2.3c5-.8 5.7-.8 6.7.2 1.6 1.6.6 3.9-2.1 4.8a95 95 0 0 1-18.4 2c-1.7 0-5.4-.3-8-.7zm291.3-5.6a34 34 0 0 1-14.2-5.2c-4-2.4-5.7-3-9.5-3.2-3.6-.3-4.7-.6-5.3-1.7-.6-1.1-.4-1.7.6-2.9 1.1-1.2 2-1.4 6.1-1 4.1.2 5.7.8 10.4 3.5 5.6 3.2 9.3 4.4 16.7 5.2 3.9.5 4.5.3 10.4-2.6a24 24 0 0 1 11.4-3.4c5.4-.3 8 .6 8 2.6 0 2.2-1.5 3-6 3-3.6 0-5.4.5-11 3.2-7.2 3.4-9.4 3.7-17.6 2.5zm-437.3-6.2c-1.5-.6-1-3.4 1.3-6 2.9-3.6 7.2-5.2 13-4.8 3.8.2 5.1.7 8 2.8 3.4 2.4 3.4 2.4 11 2.3 5.2 0 9.5-.5 13.4-1.5a120 120 0 0 1 12.6-2.4c7.1-1 7-1 19.8 2.6 8 2.2 17.5.2 20.1-4.3 1.7-2.9 1.7-3-.7-4.2-3.9-2-9.1-1-8.3 1.7 1 3.4-2.4 5.2-5 2.5-1.5-1.4-1.6-2-1-4 1.9-6.8 9.7-9 17.5-5.1 4.7 2.4 5.7 4.3 4.5 9-1 3.9-3.4 6.2-9.2 9a34.6 34.6 0 0 1-22.7.1 27 27 0 0 0-12.9-1.3c-4.5.2-10 1-13.7 2-4.7 1.3-8 1.7-14.7 1.7H427l-4.5-2.8c-4-2.4-4.8-2.7-8-2.4-2.9.3-4 .9-6.2 3-2.6 2.5-3.7 2.9-5.7 2zm428-9.2c-6.9-4.2-8.4-4.6-16.6-4.6a64 64 0 0 0-15.4 1.8c-12.3 2.7-17.7 3.3-21.7 2.5a40 40 0 0 1-12-4.4c-1.2-.7-3.7-1.5-5.6-1.8-2.8-.3-3.7-.2-5.5 1.2-2.4 1.7-4 1.7-5.2-.2-1-1.5-.2-3 2.7-5.1 1.5-1.2 3-1.5 6.8-1.5 4.2 0 5.6.4 11.4 3.2l6.6 3 6.6-.3c3.6-.2 10.1-1.2 14.5-2.2 6.2-1.5 9.9-1.9 16.5-1.9 9.6 0 12.2.7 18.8 4.8 4.1 2.5 4.5 2.6 7.7 1.9a62 62 0 0 0 5.5-1.7c2.8-1.2 4.6-.5 4.6 1.7s-1.7 3.6-6 5a14 14 0 0 1-13.7-1.4zm82.4 6.5a15616 15616 0 0 1 60.2-65.7l11.8-12.9 26-28.5 46.4-50.7a32388.8 32388.8 0 0 1 55.9-61l6.9-7.5.5-15c.3-8.4.3-16 .3-17.2-.3-1.9-9.5 7.5-111.2 113.1L899 415.5v44.2l2.3-1.7c1.2-.9 6.6-6.4 12-12.3zM879.8 406a29 29 0 0 0-.4-4.6l-245.6-.6-245.6-.5.2 3.8.2 3.8 44.7.2 427.5 2.2 19.3.1zm11.9 0-.2-4.5-2.7-.2c-2.5-.2-2.7-.1-2.7 1.8 0 1 .2 3.2.5 4.7.4 2.4.6 2.6 2.8 2.6h2.5zm-509.9-1.6c0-4 0-4-2.1-4s-2.2.1-2.2 3.6c0 3.6 0 3.5 3.8 4.2.3 0 .5-1.7.5-3.8zm521.5-6V395l-2.2 2c-1.7 1.7-2.1 2.7-2.1 5.3v3.2l2.1-2c1.8-1.7 2.2-2.7 2.2-5.3zm-11.5-14V374H377.5v19.2l27 .1 417.5 1.2 69.8.1zm120-95.3 97.9-101.8v-11.5l-3.2 3.2c-1.7 1.8-46.7 49.4-99.8 106L910 387.4l.3 3.3.3 3.3 1.6-1.7 99.6-103.4zm-1.5-18 107.4-114 4.2-4.3-.2-8-.2-8.2-50.7 53.9a667222.8 667222.8 0 0 1-157.4 167L899 372.9v16.5l4.1-4.3c2.3-2.4 50.6-53.6 107.3-114zm-595.1 91.3c3.4-2.5 74.8-52.2 158.5-110.4 149.8-104.2 152.2-106 152.7-108.6.5-3 .6-13.7 0-13.7-.3 0-240.1 166-298 206.3a821.1 821.1 0 0 0-38.7 27.8c0 .5-.3 1-.6 1s-1.2.4-2 1c-1.2 1-.1 1 10.2 1H409Zm23.5 3c.3-.7 62.8-44.4 138.8-97l138.2-95.8-.2-5.2c-.1-2.8-.3-5.3-.4-5.4a92147 92147 0 0 0-294.6 204.6c-.2.1 3.7.3 8.6.3 8.2 0 9-.2 9.6-1.4zm137.8-54 113.5-81 35.8-25.4.2-15.5c0-8.5 0-15.5-.3-15.5-.4 0-276.6 191-277.8 192.2-.4.4 9.7.7 25 .7h25.7zm69.3 39.5 51.4-34.6 28-18.8.4-27.3c.6-32.4.6-57 .2-57-.2 0-30.5 21.6-67.4 47.8a175443 175443 0 0 1-147.6 105.2c-.4.4 24 .7 55.3.6h56zm79.6 5.2v-10.7l-2.7 1.7c-1.5 1-4.4 2.2-6.6 2.6-4.5 1-7 3-10.4 8.4-2.9 4.4-4.7 5.6-6.7 4.5-1.6-.9-2-4-.6-4.8.5-.3 2.1-2.4 3.6-4.7 3.5-5.3 7.2-8 12.8-9.1 3.8-.8 5-1.5 7.5-4.1l3.1-3.2V321c0-11.2-.2-15.5-.8-15.2-3 1.9-89 59.9-89.5 60.4-.4.4 16.6.7 44.8.7h45.5zm175.2 5.4c2.7-3 4.6-5.3 4.2-5.3-.4 0-3.2 1.1-6.2 2.6-10.1 4.8-20.3 3.7-18.5-2 .3-1 1.2-1.2 5.9-1.1 5 0 6-.2 11.2-2.5 6.5-3 10.6-4 12-2.9.7.6 2.2-.4 6.2-4.5 2.8-2.8 5-5.6 4.7-6-.3-.4-1.6-1-3-1.2-3.3-.6-10.7 1.8-19.9 6.5-4 2-9 4-11.2 4.6-5.4 1.3-11.7.7-16-1.4-3.1-1.6-3.9-2.4-6.3-7.1-2.6-5.2-2.7-5.6-2.3-10.4.6-6.2 2-8.8 6.1-10.9 4-2 11.8-2.2 15.1-.5 3 1.5 5 5 5 8.8a6 6 0 0 1-2.1 5.1c-2.3 2.3-4.3 2.7-5.7 1.3-1.2-1.3-1-3 .6-4.5 3.3-3 .8-6-5-6-5.5 0-7.5 1.5-8.2 6.3-.4 3-.2 4.2 1.3 7.5 2 4.6 4 6 8.9 6.6 4.9.6 10.1-.8 17-4.4a67.3 67.3 0 0 1 21-7.5c1.6 0 4.4.6 6.3 1.4l3.5 1.4 15.7-16.6c8.6-9.1 15.9-17 16.2-17.5.4-.7-22.2-.9-112.4-.9H731.8v32.2l2-.5c4.1-1.2 8.7-.3 14.1 2.6 6.1 3.4 8.6 3.6 14.3 1 4.1-1.8 6.3-1.8 7 .2.8 2-.5 3.4-5 5.4-6.7 3-11.1 2.9-17.8-.8-6.5-3.6-11.3-4-12.4-1.2-.4 1-1 2-1.4 2.2-.5.3-.8 5-.8 13v12.4h164zm105.2-111.6 41.5-44.1-10.4-.2c-5.7-.2-65.9.2-133.6.8l-147 1.3-23.8.2v34.4c0 18.9-.2 38.2-.4 43l-.5 8.7h232.7zm-186.5 14.4c-1.5-.5-3.8-1-5-1-2.2 0-4.6-1.8-4.6-3.3 0-.4.6-1.3 1.4-2 1.3-1.3 1.7-1.3 8 .3 8 2 15.2 1.7 21.7-.7 16.6-6.1 18.2-6.3 22.5-2.4 3.1 2.8 3.6 5.5 1.2 7-1 .6-1.7.2-3.7-1.7l-2.5-2.4-3.8.8c-2 .5-5.5 1.6-7.6 2.6-2 1-5.6 2.3-8 2.9-5 1.3-15.6 1.3-19.6 0zm1.8-10.3a36 36 0 0 1-6.7-2.8c-5.9-3.1-10.6-3-18.2.3-5 2.2-6.4 2.5-11.3 2.5a22 22 0 0 1-11.3-2.5c-6.6-2.9-8.2-3-11.5-1-1.9 1.1-2.7 1.3-3.8.7-2-1.1-1.8-3 .7-5.4 1.7-1.7 2.9-2.1 6.4-2.4 3.8-.2 4.9 0 9.1 2.1a22 22 0 0 0 9.5 2.7c4.3.2 5.4 0 10.8-2.4 5.7-2.5 6.3-2.6 12-2.3 5.9.3 7.9.9 13.2 4 1.6.8 3.7 1.1 7.6 1 4.7 0 6.1-.3 12-3 7.8-3.6 11-3.8 11.4-.6.2 1.6-.2 2.1-1.8 2.8l-8 3.5a35 35 0 0 1-20 2.8zm63.2-53.9 150-1.4 20-.3 15.6-16.6c8.6-9 15.5-16.6 15.3-16.8-.7-.7-351 2.8-351.8 3.5-.6.5-.9 4.8-.9 16.8v16.2l11-.2 140.8-1.2zm236.8-30.3v-6.1l-2 2.1c-2 2-2.1 2.7-2.4 8.4l-.3 6.3 2.4-2.3c2.3-2.3 2.4-2.5 2.4-8.4zm-395-10.2v-5.7l-2.1 1.5c-2.1 1.5-2.2 1.7-2.2 7.3v5.7l2.2-1.5c2-1.5 2.1-1.7 2.1-7.3zm13.6-3.8v-5.4h-6.4v10.8h6.4zm211 3.5c76.1-.6 139-1 139.7-.8 1 .3 2.6-1 5.8-4.6l4.5-5-115.7.4c-63.6.2-143.4.6-177.3.9l-61.6.4v10.7l33-.4c18.2-.3 95.4-1 171.6-1.6zM963 143l143.2-.2 6.3-6.4 6.3-6.4-9.4-.5c-5.2-.3-92-.7-192.9-1l-183.3-.5v16l43.3-.4c24-.2 107.8-.5 186.5-.6z"/><path fill="none" stroke="#000" stroke-linecap="round" stroke-linejoin="round" stroke-width="6.9" d="M3.4 3.4h1493.1v893H3.4z" paint-order="markers fill stroke"/></svg>