<svg xmlns="http://www.w3.org/2000/svg" viewBox="0 0 2121.3 1500"><path d="M1416 1285.3c-3.4-1-5.4-3.5-6-7.6-.3-2.5-.2-4.3.7-6.6 1.8-4.5 2.6-5.2 6.5-5.2 6.4 0 15.1 6 15.1 10.5 0 .7-.5 2.4-1 3.7-2 4.1-9.8 6.8-15.3 5.2zm8.3-6c3.8-1.5 3.1-3.7-2-6.3-5.2-2.7-6.5-2.2-6.8 2.7-.2 2.9 0 3.4 1.4 4a9 9 0 0 0 7.4-.3zm-743-.6c-5.7-2-7.8-8.7-4-12.7 2-2.3 9.8-6.2 12.3-6.1 6 0 9.3 7 7 15-.5 2.2-1.2 3-3 3.8a21 21 0 0 1-12.4 0zm9.1-4.7c1-.5 1.4-1.5 1.4-3.5 0-3.8-.6-5-2.4-5-2 0-9 4-9 5.2 0 3 6.7 5 10 3.3zm757.6-1c-5-1-8.2-3-13-8.1a23.5 23.5 0 0 1-6.9-17.1c0-3.6.3-5 1.1-5.8 2.3-1.8 20.1-.4 29.6 2.4 4 1.2 6 3.7 8 10.7 2.5 8.9 2.4 12-.6 15-3.8 3.8-9.8 4.8-18.2 3zm13-5.5c2.5-1 2.8-2.2 1.5-7.4-1.5-6.6-2.8-9.4-4.9-10.2-3.4-1.3-17.6-3.6-20.9-3.4l-3.3.2v2.8c0 4 2.8 9 6.9 13 3.8 3.7 5 4.4 8 5.2 3.4.8 10.8.7 12.7-.2zm-815.6-.9c-3.7-1.3-5.3-3-6.2-6.2-.7-2.4-.5-3.8 1-9.3 2.7-9.3 3.6-10.8 7-12.2 4.2-1.7 18.3-4 24.7-4 4.4 0 5.7.3 6.6 1.4 1.7 1.8 1.6 9-.2 13.7a29.6 29.6 0 0 1-17 16.5 31.6 31.6 0 0 1-15.9.1zm15.2-5.6a23.3 23.3 0 0 0 13.4-17l.5-3.3h-4.2c-6.8 0-19.1 2-21.1 3.4-1.3 1-2.3 3-3.4 6.6-2.1 7.2-2 8.8.4 10.1a26.8 26.8 0 0 0 14.4.2zm741.2-13.8c-3.3-1.6-5.8-6.5-4.9-9.3 1-2.4 4.7-6.1 7-6.7 2-.5 7.8 1.4 9.8 3.3 1 .8 1.6 2 1.6 2.9 0 2.3-2.7 7.3-5 9.3-2.5 2-5 2.2-8.5.5zm6.7-6.6c1.4-2.4 1-3-2.3-4-2.7-.6-4.8 3.3-2.8 5.3 1.5 1.6 3.8 1 5.1-1.3zm-710.2 1.3c-2-1-5.8-7.9-5.8-10.2 0-2.8 5.5-6 10.5-6 2.4 0 3.2.5 5.4 2.9 3.4 3.8 3.5 7.2.2 11-1.9 2.1-2.9 2.7-5.5 3-1.8.1-3.9 0-4.8-.7zm7-6.5c.7-1 .6-1.4-.7-2.9-1.4-1.5-1.9-1.6-3.8-.9-3 1-2.9.9-2 2.6 2 3.7 4 4.1 6.5 1.2zm733.8-2.3a177.7 177.7 0 0 0-15.5-4.2c-4.6-1-9.1-2.5-10-3.3-3-2.2-4.7-6.9-4.7-12.2 0-4.2.2-5 1.9-6.6 1.7-1.7 2-1.8 7.6-1.3 12.8 1.1 24.4 4.4 29 8.2 4 3.3 4.8 5.2 4 10-1 5.5-2 7.3-4.9 8.2a17 17 0 0 1-7.4 1.2zm4.5-6c1.8-.6 2.2-1.1 2.4-3.7.4-3.3-1-5.4-4.6-7.3a75 75 0 0 0-19.2-4.4c-1.2.2-3.3 0-4.6-.7-1.3-.5-2.6-.8-3-.5-1.1.7-.8 5.5.5 8.2 1.6 3 3 3.8 12 5.5 3.8.8 8.3 2 9.9 2.5 3.5 1.3 3.8 1.4 6.5.4zM662 1226c-3.8-1.5-4.7-3-5.4-9.1-.4-4.2-.4-4.4 1.9-7a24 24 0 0 1 5.8-4.4 98.1 98.1 0 0 1 25.8-5.7c5.6-.4 5.9-.4 7.6 1.4 1.6 1.6 1.9 2.5 1.9 6.4 0 5.2-2.4 11-5.4 13-1 .5-6.2 2-11.5 3.1a150 150 0 0 0-11.7 2.8c-2.8 1-5.3 1-9-.5zm9.2-5.1c1.4-.5 5.2-1.4 8.6-2.1 11.7-2.6 11.7-2.6 13.3-6a13 13 0 0 0 1.5-5.4v-2.3l-3 .5a74.3 74.3 0 0 0-24.2 4.3c-4.3 2-5.5 3.9-5 7.7.3 2.1.8 3.4 1.6 3.6 2.1.5 4.7.4 7.2-.3zm714.8 0c-9.8-2.4-13.9-5.4-20-15a45 45 0 0 1-6-12c0-.3.7-1.5 1.8-2.8 1.7-2 2.1-2.1 6.7-2.1a34 34 0 0 1 17 4.8c8.1 5.1 15.3 24 10.5 27.4-2 1.4-3 1.4-10-.3zm6.2-6.6c-.6-2.7-2.5-6.6-5.8-11.7-2-3-3.1-4.1-6.4-5.6-4.2-1.9-13.7-3.2-13.7-1.9 0 1.2 7 12.5 9.1 14.7a22 22 0 0 0 11.7 5.8l5 1c.4 0 .4-1 .1-2.2zm-681 .5c-1-1.6-1.1-2.4-.4-5.9 1.2-5.6 5.6-14 9.4-17.8 4.2-4.2 10.6-6.5 18.9-6.8 5.3-.2 6 0 7.4 1.3 2.4 2.6 2.4 4.3-.1 8.8-8.1 14.5-13.5 19.2-24.4 21.3-7.5 1.4-9.4 1.3-10.8-1zm13.2-5.3c5-1.3 8.9-4.5 13-10.7a58 58 0 0 0 4.4-7.5c.5-1.6.3-1.6-3.3-1.6-5.9 0-12.2 2.4-15 5.7-2.6 3-6.5 10.4-7.3 13.7l-.5 2 3.1-.4c1.8-.2 4.3-.8 5.7-1.1zm657.4-26.2c-2.8-2.2-3-4.5-.8-9 1.5-2.9 2.5-4 4.3-4.6 3-1 4.6-.4 6.9 2.3 2.5 3 2.6 8.4 0 11-2.3 2.2-7.8 2.4-10.5.3zm6.8-4.7c.3-.6.2-1.6-.1-2.2-.6-.9-.8-.9-2.3.3-1 .8-1.4 1.7-1.1 2.2.7 1.2 3 1 3.5-.3zM717 1178c-2.3-2.3-2.9-5-1.9-8.3 1.4-4.5 5.7-6.9 9.3-5 1.7 1 5 6.6 5 8.5 0 2.3-1.4 4.8-3.3 5.7-3 1.4-7.2 1-9.1-1zm6.7-4.9c0-.7-2-2.6-3-2.6-.6 0-.7 3-.1 3.7.6.6 3.1-.3 3.1-1zm611.4 4.9c-10.2-1.6-14.3-5.6-15.3-15.2-.4-4.4-.4-4.4 1.6-5.2 4-1.5 11.3-1.6 17-.3 9.2 2.2 12.3 5.6 12.3 13.7 0 3.8-.3 4.7-1.7 6.2-2 2-4.9 2.2-14 .7zm10.5-5.6c.5-2.2-1.3-7-3-8a34.5 34.5 0 0 0-14.8-2.5c-2.1.4-2.3.7-2 3 .1 1.3.5 3 .9 3.7 1 1.8 6 4 9.8 4 1.8 0 4.2.4 5.3.7 2.8.7 3.5.5 3.8-1zm-584 1.7c-2.6-1.2-3.4-3-3.3-7.5 0-5.8 1.7-9.2 5.5-11.4 5.2-3 14.2-4 21.6-2.4 4.4.9 4.7 1.7 3.6 8-1.4 8-5.6 11.6-14.5 12.6l-8.2.9a12 12 0 0 1-4.6-.2zm15.4-6.5c3.8-1 5.7-3 6.4-6.3.5-2.8.4-3-1.2-3.7a14 14 0 0 0-4-.6 35 35 0 0 0-13.1 3.8c-.6.6-1.3 2.7-1.4 4.7l-.4 3.7 5.6-.5c3-.3 6.7-.8 8-1.2zm584.3 5.4c-4-2.7-5.3-7.9-3.2-12.8 1.3-3 3.2-4 6.2-3.5 7 1.4 8.8 4.2 8.5 13.2-.2 4.8-6.5 6.5-11.5 3zm6.5-6c0-2.3-.4-3.1-1.8-4-2.2-1.5-3.2-.8-3.2 2.1 0 1.7.4 2.8 1.6 3.5 2.5 1.9 3.4 1.4 3.4-1.7zm-628.2 2.8c-5-2-5.1-11.7-.3-16 1-.9 2.9-1.5 5.6-1.7 3.9-.2 4.2-.1 5.5 1.8a11 11 0 0 1 1.3 6c0 3.6-.2 4.3-2 6.3-2.1 2.3-5.9 4.3-7.7 4.2-.5 0-1.6-.3-2.4-.6zm5.3-6.1c2.7-2 1.7-7.2-1.2-6.2-1.7.6-2.2 1.6-2.2 4.6 0 3 .8 3.3 3.4 1.6zm616.5-11-7.3-1.1c-4.3-.5-7.5-3.2-10.5-8.7-3.7-6.9-2.8-8 6.9-8 11.4 0 14.9 1.5 17.8 7.3 2.5 4.8 2.8 7.9 1 9.7-1.6 1.6-1.9 1.6-8 .7zm2.3-8c-2-3.3-4.3-4.2-10.3-4l-5.1.3 2.4 2.6c2.1 2.5 2.6 2.7 6.3 2.7 2.2 0 4.6.3 5.4.7 2.3.9 2.7 0 1.3-2.4zm-622.7 3c-3-1.2-2.7-5.4.9-11.8 2.4-4.2 5.4-5.2 15.9-5.2 6.7 0 8.7.3 9.5 1.1 1.4 1.4 1.4 1.3 0 4-2 4-5.3 8.4-7.1 9.6a23 23 0 0 1-8 1.7c-3.4.2-7 .7-8 .9-.9.3-2.4 0-3.2-.3zm11.3-6.2c4.2-.3 5-.7 6.6-2.5 2.4-2.8 2.2-3.3-1.3-3.3-7 0-9.6.8-11.2 3.2-1.7 2.8-1.8 4.2-.1 3.5.7-.2 3.4-.7 6-.9zm571 5.4c-2.8-.8-3.5-1.9-4.2-6.5-.4-3-.3-3.6 1.1-5.1 1.3-1.4 2.3-1.8 5.3-1.8 4.6 0 8 1.2 9 3a13 13 0 0 1 1.6 7.5c-.8 3.2-7 4.7-12.9 3zm7.5-5.4c0-1.4-1.4-2.4-3.8-2.8-2.4-.4-2.6-.3-2.6 1.5 0 1.7.3 1.9 3.2 1.9 1.8 0 3.2-.3 3.2-.6zm-555.4.5c-2.3-1.8-2.6-5.1-.9-8.8 1.5-3 3.6-4 9.2-4 4.1 0 4.7.2 5.8 1.9.9 1.3 1 2.6.7 5.4-.6 5.1-2 6.3-8 6.8-4.2.2-5.1 0-6.8-1.2zm9.3-5.8c-.2-1-.5-1.5-.8-1.4l-2.6.1c-1.4 0-2.1.5-2.4 1.4-.3 1.3 0 1.5 2.8 1.5 2.9 0 3.2-.2 3-1.6zm508.1-1a12.7 12.7 0 0 1-7.4-12.4c0-3.8 1.3-4.6 8.2-4.6 6.5 0 8.5 1 11.5 5.4 1.7 2.5 2.1 6.9.9 9.2-1.8 3.3-8.9 4.6-13.1 2.4zm7.6-4.7c1-.7 1-1.4.5-3.2-.8-2.7-2.8-3.7-7-3.7-2.6 0-2.9.1-2.9 1.8 0 2 2.9 5 5.3 5.5 2.7.5 3 .5 4.1-.4zm-492.6 1.6c-3.3-1-4.8-3.1-4.8-6.7 0-3.5 1.8-7 4.7-9.2 1.7-1.3 3-1.5 8.3-1.5 8 0 8.9.6 8.3 5.9-.3 2-1 4.7-1.5 5.8-2.2 4.2-10.1 7.1-15 5.7zm7.5-6c2.2-1.2 3.6-3 3.6-5 0-.9-.9-1-3.9-1-3.3 0-4 .2-5.3 1.8-1.5 1.9-1.9 3.9-1 4.7.8.8 4.5.6 6.6-.6zm499.5.7a21.8 21.8 0 0 1-8.6-10c-3-6.3-2-8.5 4.5-11a37 37 0 0 1 12-2.2l7 1c7.2.6 8.7 1.5 9.4 5.3.5 3-.8 9.7-2.3 11.1-.6.6-3.4 1.2-7 1.5-5.5.5-6 .6-8.2 3-2.4 2.5-3.5 2.8-6.8 1.3zm4.7-6.7c2-2 5-3 10.4-3 3.1 0 3.7-.8 3.8-5 0-1.9-.1-2-5.5-2.4-9-.8-18 .5-18 2.8 0 1.6 5.8 9.6 7 9.6.2 0 1.2-.9 2.3-2zm-531.7 1c-2.3-2-3.3-2.4-8-2.8-3-.3-5.7-.7-6.1-1-1.5-1-2.5-3.8-2.9-8.2-.4-4-.2-4.6 1.3-6.4 1.7-2 2.3-2 9.5-2.7 8.8-.8 14.2 0 19.6 2.6 4.7 2.4 5.3 4.6 2.7 9.8-3.3 6.5-8.5 11.2-12.3 11.2-.6 0-2.3-1.1-3.8-2.4zm9-7.4c1.6-2 2.9-4.3 2.8-5-.6-2.7-12.2-4.5-20.7-3.1-2.3.3-2.6.7-2.6 2.2 0 4.6.4 5 6.1 5.5 4.5.4 5.7.8 7.6 2.5 1.2 1.1 2.6 2 3 1.8.3 0 2-1.9 3.7-4zm474.7 0c-8-2.6-11.7-6.2-11.9-11.6-.1-2.7.2-3.5 2-5.2 2-2 2.5-2 7.8-2 10.1 0 16.8 4 17.9 10.5.6 3.7-.8 6.6-4 7.8-4.6 1.8-7.2 2-11.8.5zm8.6-5c1.4-.5 1.8-1.1 1.6-2.6-.3-2.6-2.9-4.3-8.5-5.7-4.5-1-5-1-6.6 0-1 .7-1.8 1.6-1.8 2.2 0 1.5 3.1 4 6.8 5.4 4 1.5 5.8 1.7 8.5.7zm-451 2c-7.4-1.6-9-10.5-2.7-15.4a28.8 28.8 0 0 1 15.7-4.2c3.5.3 4.3.6 6.4 3 2.6 2.8 2.8 4.1 1.2 8.2-1.3 3.3-5.7 6.4-11.6 8.1-4.3 1.3-4.8 1.3-9 .3zm8.9-5.9c6.2-2.2 8.7-5.3 6-7.5-2.4-2-12.8.2-14.8 3.1-1.5 2-1.4 4.6.1 5 2.6.6 5.8.4 8.7-.6zm447.4-9.7c-3.8-1.5-5.2-4.4-3.8-8 .9-2.4 7.3-4.3 8.4-2.5.3.3 1 .7 1.8.7 1.7 0 5 4 5 6 0 3.7-6.4 5.8-11.4 3.8zm4.4-5.7c-.4-.4-1.3-.5-2-.2-1.2.4-1.1.6.4 1 2 .6 2.7.3 1.6-.8zm-473.9 1.9c-2.1-1.2-3-3-2.3-5 .8-2.3 3.3-4.6 5-4.6.9 0 1.8-.3 2-.7.3-.3 1.5-.7 2.6-.7 2.5 0 6.3 3.3 6.3 5.5 0 4.8-8.4 8.3-13.6 5.5zm7.2-5.3c0-.4-.6-.8-1.3-.8-.8 0-1.6.4-1.9.8-.2.4.4.7 1.4.7 1 0 1.8-.4 1.8-.7zm437.8.2a44 44 0 0 1-12-4c-4.5-2.3-5.7-3.9-5-6.5 1-4.3 6.5-7 16.3-8 3.3-.4 3.9-.2 6.2 1.9a21 21 0 0 1 6.2 11.7c0 3.3-2 4.8-6.6 5-2 .2-4.3 0-5.1-.1zm6-6.2c0-.5-1-2.3-2.2-4l-2.2-3-4.2.4c-2.3.3-5.1.8-6.3 1.3-2.2.8-2.2.8-.8 2.2 3 3 15.7 5.6 15.7 3zm-427.3 2c-4-2.8.2-13.9 6.4-17 1.9-1 2.8-1 6.9-.3 9.5 1.7 13.8 4.9 13.4 9.7-.1 1.4-.7 2.7-1.3 3l-4 2c-6.7 3.5-18.1 4.8-21.4 2.6zm14.5-5.6c2-.6 4.1-1.6 5-2.2 1.3-1 1.3-1 0-2a20 20 0 0 0-5.8-1.9c-4.3-.8-4.8-.8-6.1.4-1.9 1.7-4.3 6.4-3.6 7 .6.7 6 0 10.5-1.4zm436.6 5.5-5.5-.6c-3.7-.5-4.5-.9-10.4-5.7-3.5-3-6.7-6-7.2-6.7-1-2 1.6-5.4 5-6.5 2.9-1 14.5-.4 17.3.9 3.3 1.5 7.6 9.4 7.6 14.1 0 3-3 5-6.8 4.5zm.7-7.1c-.8-3.1-3.2-6.6-4.8-7-.8-.2-4.1-.3-7.2-.2l-5.7.2 4.9 3.9c4 3.2 5.6 4 8.5 4.3l4.2.6c.4 0 .4-.8.1-1.9zm-477 2.1a6.7 6.7 0 0 1-1.2-3.8c0-2.8 2.9-9.5 5-11.8 2-2.1 7.7-3.3 14.8-3 5.8.3 6 .3 8.3 3 2.3 2.5 2.4 2.8 1.5 4.3a70 70 0 0 1-13.2 11.1c-1 .4-4.4 1-7.8 1.2-5.5.3-6.3.2-7.4-1zm17.6-8.7 5-4h-6.3c-3.4-.2-6.8 0-7.6.4-1.4.8-4.2 5.6-4.2 7.3 0 .7 1 .8 4 .5 3.6-.3 4.7-.8 9-4.2zm142.9 5.6c-1.4-.8-1.7-3.1-.4-4 1.7-1 30-11 40.3-14.1 11.9-3.7 14-4 15.2-2.2 1.5 2.2-.4 3.4-8.8 5.8-7.5 2.2-26 8.5-36.9 12.6-6.2 2.4-8 2.7-9.4 1.9zm41.1-.3c-2-2-1-3.7 2.5-4.6 1.3-.3 8.6-3 16.2-5.8 7.6-3 16.5-6 19.7-7 5.4-1.5 6-1.6 7-.5 2.5 2.4.7 3.7-9.1 7-5.2 1.6-14.1 4.8-19.8 7-12.5 5-14.9 5.6-16.5 4zm75.9.1c-1.9-1.3-1-3.4 2.1-5.2 7.2-4 26.2-11.9 33.6-13.7 6-1.6 8-1.4 8 1 0 2.1-1.1 3-4.7 3.6-3.7.7-18.2 6.2-26.6 10.1-11.2 5.3-11 5.2-12.4 4.2zm65.8-.6c-.4-.4-.9-1.4-.9-2 0-1.5 2.6-3.5 4.3-3.5.6 0 4-1.3 7.7-2.9 6.5-2.8 8.8-3 9.6-1 .7 1.8-.3 3-3.7 4.3a151 151 0 0 0-8.3 3.6c-5.3 2.5-7.4 2.9-8.7 1.5zm-216.5-.4c-.6-.1-1.3-1-1.7-1.7-1-1.8.9-4.2 3.1-4.2.8 0 8-2 15.9-4.7 11.8-3.8 14.7-4.5 15.5-3.8 1.3 1 1.4 3.1.2 4.1-.5.5-5.5 2.2-11.2 4a884.2 884.2 0 0 0-20.8 6.8l-1-.5zm112.5-.3c-1.7-1-1.5-3.2.4-4.4.9-.6 4.6-2.2 8.4-3.6 3.7-1.4 12.1-4.9 18.7-7.8a164 164 0 0 1 13-5.4c1.5 0 2.5 2 1.7 3.5-1 1.6-10.3 6.2-25 12.2-14.6 5.9-15.8 6.3-17.2 5.5zm74.7-1c-.8-1-.8-1.5 0-3 .6-1 2-2.3 2.9-2.8 4.5-2.3 28-10.9 29.3-10.7 1.2.2 1.6.7 1.6 2.3 0 2.3.7 2-18.1 9-5.3 2-10.3 4.2-11 5-1.9 1.6-3.5 1.7-4.7.2zm-213-1.7c-1.3-2.5 2.2-5 12.5-9a176 176 0 0 1 28.1-8.8c1.6 0 2.3 1.1 1.7 3.2-.3 1.3-1.1 2-3.4 2.5a188.7 188.7 0 0 0-34 12.5c-1.2 1.5-4 1.2-4.9-.5zm333.5-6.7c-6.3-2.6-9.7-5.1-10.1-7.5a6.6 6.6 0 0 0-1.4-3 2.5 2.5 0 0 1 .4-4.1c.8-.4 6.2-.7 12.7-.7 10.7 0 11.3 0 12.7 1.6 3 3.3 2.6 12-.7 14.3-2.4 1.7-8.7 1.4-13.6-.6zm10.8-6.6.2-3h-7.9c-4.3 0-7.8.2-7.8.6 0 .8 6.4 4.2 9.6 5 4.8 1.1 5.6.8 5.8-2.6zm578.5-.6-26-12.8c-11.8-5.7-13.1-6.5-13.1-8.1 0-3.4 2.8-2.6 21.3 6.2 32.3 15.4 34.4 16.6 33.5 19-1 2.7-2.8 2.2-15.7-4.3zM849 1061a7.7 7.7 0 0 1-2.4-2.3c-1.3-2-1.1-10 .3-12.2 1-1.7 1.4-1.8 10.5-2 5.2 0 1-.2-9-.3a99 99 0 0 1-20.3-1c-2.2-1.2-2.7-3.5-3-15.3l-.2-9.3-33.4-.5a110787.7 110787.7 0 0 0-435.8-4.6c-16.4 0-16.8-.1-17.5-5l-.4-3.2-19.9-.3c-11-.2-20.3-.7-20.8-1-.4-.2-.8-1.1-.8-1.8 0-2.9 1.2-3 21.6-2.8l19.7.3-.1-11.4c-.1-9.8-2.6-174-3.1-199.2l-.2-8.8-3.3-.4c-2.8-.3-3.7-.8-6.6-4-3.3-3.8-3.4-3.8-7.4-3.8-3.7 0-5.2-.6-13.3-4.5-9-4.5-12.3-7.2-12.3-10.1a24 24 0 0 1 4.6-6.2c21.7-23.6 46.5-78.7 72.4-161a3092 3092 0 0 0 57.2-212l6.1-25.4 2.4-10-3.2-5-3.2-5.1v-8.5c0-8 0-8.7-1.7-11.2-4.7-6.8-4.7-7.5.4-13.9 1.7-2.1 4-5.8 5.3-8.1 1.9-3.7 2.5-4.3 4.2-4.3 1.7 0 2.4.8 6.5 8.2 2.5 4.5 5 9.7 5.6 11.5l1.2 3.4-2.7 3-2.6 2.8.5 5c.3 2.9.6 5.3.8 5.6.1.2 30 .6 66.5.9l441.8 3.6 49 .5 6.9-9.9a1836 1836 0 0 1 13-18.3 428 428 0 0 0 24.5-36.2c1-1.7 1.4-4.7 1.8-13.7.4-10 .7-11.6 1.8-12.5 1-.7 1.5-2.2 1.8-7.2.5-7.3 1-8.7 3.8-9.6 2-.7 2-1 2.5-7.6.2-3.8.2-12.5 0-19.4l-.6-12.6-3.4-4.1c-3.7-4.3-4.1-6.1-2.5-9.4a122 122 0 0 0 6.8-20.4c.8-4.5 1.7-6 3.6-6 1.6 0 3.6 2.6 3.6 4.7 0 2 4.7 18.4 6 21 2 3.8 1.6 5.9-2.3 10.5l-3.5 4.4-.5 12.2c-.9 23.6-.6 26.8 2.4 26.8 2 0 2.6 1.7 3.1 9.2.5 5.8.7 6.9 2 8 1.6 1 1.7 1.7 1.9 12.6.2 12.5-.2 11 5.8 21.3a1192 1192 0 0 0 30.5 44.9l8.2 11.7 10.6.4c5.9.3 44.7.6 86.3.9 41.6.2 110.8.6 153.7 1 139.2 1.2 306.5 2.3 306.8 2 .2-.2.6-2.9.8-6 .4-5.5.4-5.6-1.8-7.7-1.2-1.1-2.2-2.7-2.2-3.5 0-1.6 3.2-8.4 8-16.7 2.6-4.7 3.3-5.4 5-5.4 1.8 0 2.4.6 4.3 4.3a75 75 0 0 0 5.6 8.8c4.3 6 4.3 6.4-.4 13-1 1.5-1.3 3.6-1.6 10.8l-.2 9-3.2 5c-2.6 4-3 5.3-2.5 6.5l6.7 29.2c46 209.4 88 337.6 124.3 379.5 2.7 3 4.5 5.8 4.5 6.7 0 2.7-4.3 6-13 10-7 3.4-9 4-12.2 4-3.5 0-4.4.3-7.1 2.5a13.6 13.6 0 0 0-3.5 4c-.4 1-1.1 1.3-4 1.3h-3.4l-.3 3.7c-.2 2-.6 9.2-.8 15.8-3 92.4-6 193.3-6 196.5v4.1h19.7c21 0 21.9.2 21.3 3.3-.3 1.2-1.8 1.3-20.9 1.7l-20.5.3-.5 3.1c-.2 1.7-.9 3.4-1.4 3.8-.7.4-36.2.5-103.3.3-184.3-.8-380.5-2-381-2.3-.7-.4-1.2 3.6-1.7 14-.3 5.7-.8 9.6-1.4 10.4-1 1.4-1 1.4-32.8 1-16-.1-17.3-.2-18-1.4-.4-1-.3-12 .4-34.3.6-18.1 1-35.5 1-38.6V967l-11.8-3.8-19.6-6.2a41.1 41.1 0 0 0-8-2.1c-.3.1-.6 8.7-.8 18.8l-.3 18.5h4.5c6.8 0 7.1.5 6.3 8.1-.3 3.5-.5 6.6-.2 7 .1.3 1.6.6 3 .6 4.2 0 4.6 1 4.4 10.7l-.1 8.4h6c8.9 0 9 .1 9 8 0 3.6-.2 7.3-.5 8.2-1 3.9 3 3.7-96.3 3.7-82.5 0-224-1.5-238.2-2.6-7.3-.5-7.8-1-8.4-10-.4-6.6-.3-7.3 1-8.6 1.3-1.3 2.4-1.5 8-1.5h6.3v-8.2c0-9.4.8-11 5.4-11h2.6l-.6-6.8c-.6-8-.6-8 5.8-8h4.4l.5-18.6a144 144 0 0 0 0-18.9c-.2-.3-2.5.3-5.1 1l-18.3 5.5c-7.5 2.2-14.3 4.3-15.2 4.7l-1.7.7.5 38.7c.4 30.1.4 38.9-.3 39.7-.5.5-1.8 1-3 1-2.1 0-2.7 1-1 1.7 1.2.5 1.6 4 .5 4-.4 0-1 1-1.4 2a12 12 0 0 1-2.7 4c-4.2 4-16.8 7.2-20.5 5.4zm13.4-7.3c2.2-1.1 4-2.2 4-2.5 0-.7-14-1.7-15-1.1-.3.1-.6 1.7-.6 3.3v2.8l3.8-.3c2.2-.2 5.6-1.2 7.8-2.3zm358.8-12.8.4-4.4.2-4.2-113.6-.5a15284.5 15284.5 0 0 1-205.5-2H889l.4 4.3c.2 2.4.5 4.4.6 4.5.1.1 34.4.8 76.2 1.5 41.8.7 79 1.4 82.7 1.7 5.3.3 171.9-.5 172.3-1zm58.8-.6c.2-.9 1-16.2 1.8-34a4047 4047 0 0 1 1.7-34.4l.1-2-5.6-.5c-3.1-.3-12.7-.7-21.4-1l-15.8-.5-.4 8c-.8 15.3-2 63.8-1.6 64.9.3 1 3.2 1 20.6 1h20.3zm-407.7-25.8a1398 1398 0 0 0-.7-36.8l-.4-12.7-17.8.4-21.4.5h-3.6l1.2 32.8 1.3 36.2v3.4l19.4.1 20.8.2c1.4 0 1.4-.4 1.2-24.1zm334.8 5.2.2-7h-84c-46.2 0-111.5-.4-145-1l-67.7-1H904v13.3l5.9.5c13.2 1 148 2.3 220 2.2h77zm561.2-16.2 1.3-36.5c1-26.6 5.7-175.4 5.5-175.5l-117-1.6-160.4-2.2c-58-1-190-2.8-214.3-3-17.8-.2-19.5 0-20.1 1-1 1.8-4.7 1.7-5.6-.2-.7-1.4-1.4-1.4-16.8-1.3H1225v2.7l-.7 32.7c-1 43.8-2 98.4-2.2 113.9l-.1 13.4 2 1c2.2.9 15 3.8 17.3 3.8 1.2 0 1.4-.8 1.7-6.6l.3-6.5-2.7-2.5c-1.6-1.4-2.8-3-2.8-3.4 0-.8 4.4-7 9.3-13.1 3.1-4 4.9-3.6 8.6 1.4a72 72 0 0 0 5.8 7c3.3 3.7 3.1 4.7-1.7 9.4l-3.5 3.3v7c0 3.8 0 7 .2 7.3.3.2 23.9 5.4 29.8 6.5 1.1.1 2.3.8 2.6 1.5.4.7.1 11.4-.7 26.7l-1.3 26.3c0 .6 61 1 213.8 1.7a49294.6 49294.6 0 0 1 242 1.2h25.2zm-435.2-30c-.9-.4-3.3-3-5.5-5.9l-3.9-5.2V845.2l-2.4-2.4c-1.3-1.2-2.8-3-3.3-4s-2-3.1-3.3-4.7c-1.3-1.6-2.3-3.5-2.3-4.3 0-.7 1.5-2.7 3.4-4.3 3.7-3.1 5.8-6.9 6.2-10.5l.2-2.6c.2-1 3-1.4 4.3-.6a13 13 0 0 1 3.3 4.4c3.3 6.5-.5 6 38.4 5.5l34.7-.3 1-3.2c1.2-4.2 4.6-6.9 6.7-5.5.8.6 2 2.4 2.5 4.1 1.2 3.9 5.1 9.3 8.3 11.8 3 2.3 3.2 4.7.5 6.2-1 .6-3.3 2.4-5 4l-2.9 3.2-.5 58.2c-.4 52.3-.3 58.4.6 60.3a9.8 9.8 0 0 1 1.2 3.3c0 .6-2.2 3.2-4.8 5.8l-4.9 4.8h-35.4c-24 0-36-.3-37.1-.8zm71.7-6.5 2-1.8h-36c-20 0-36.4.2-36.7.4-.2.3 0 1.1.7 1.8 1.1 1.2 3.1 1.3 34.6 1.3h33.3zm-71.9-65.7V843h-3.5v52.8c0 29-.2 55.2-.4 58.2l-.5 5.4h4.5zm74.2 51.6c.2-3.6.6-29 .8-56.6l.5-51.5c0-1-.5-1.4-2.2-1.8l-2.3-.5V901c0 57 0 58.5 1.4 58.5 1.2 0 1.3-.7 1.7-6.6zm-9.4 3.8c.2-1.2.2-2.3 0-2.5a653 653 0 0 0-29.3-.4h-29v5h58zm-6.9-10.3V944l-8.9-.5c-4.9-.3-11-.4-13.5-.3-4.6.1-4.6.1-4.6 2.3v2.1l12.5.4 13.5.3c.7 0 1-.8 1-2.1zm6.8-48.3c0-33.4-.3-50.8-.7-50.8-.5 0-.8 17.4-.8 50.8s.3 50.8.8 50.8c.4 0 .7-17.4.7-50.8zm-39.8 47.6V943h-18.5v5h18.5zM1391 930l.2-7.6h-27.7v7.3c0 4 .2 7.6.5 7.9.3.2 6.4.4 13.7.2l13.1-.2zm-33.2-.2v-7.6l-3.3.4c-1.8.3-6 .5-9.2.5h-6v14.2h18.5zm.7-22.7v-9.6h-19.2v19.6l9.6-.2 9.6-.3zm27.9 9h4.8l-.2-9.3c0-5.1-.4-9.3-.7-9.3h-26.8V917l9-.4c5-.3 11.3-.4 14-.4zm-28.2-34.5c0-9-.1-10-1.3-10l-9.4.3h-8.2v20l9.4-.2 9.5-.2zm32.6-.2v-9.7l-13.2-.2-13.2-.2-.4 9.7a59 59 0 0 0 0 10.4c.1.3 6.3.3 13.6.1l13.2-.4zm-32.5-24.9.2-9.4h-19.2v19.2l9.4-.1 9.4-.2zm32.4 8.4c.2-.3.4-4.3.3-9l-.2-8.4h-26.2l-.2 8.5c-.1 4.7 0 9 .2 9.5.2.8 2.5.9 13 .5 6.9-.3 12.8-.7 13.1-1zm6.9-26.2v-2.9h-58.2v5.8h58.2zm15.4-4.3 2.3-2.8-2.8-4c-1.5-2.2-3-4.3-3.2-4.8-.2-.6-.5-.5-.8.2a22 22 0 0 1-3.3 3.9c-1.7 1.7-2.6 2.9-2 3 .5.3.8 1.7.8 3.7v3.4l3.4.1c3.1.1 3.6 0 5.7-2.7zm-80.2-2.5c0-3.8-.3-4.6-1.3-4.6-.6 0-2-1.1-3.1-2.5-1-1.3-2.1-2.5-2.4-2.5-.3 0-1.1 1.1-1.8 2.5a26 26 0 0 1-3 4l-1.7 1.5 1.5 2.2c1.9 2.6 5 4 9 4h3zm64-2c0-.2-.1-.8-.4-1.5-.3-1-3.6-1-29-1-23.9 0-28.7 0-29 .9-.2.6-.2 1.2 0 1.4.4.5 58.4.6 58.4.1zm92.7 143.2c-1.1-.6-3.8-3.2-5.8-6l-3.8-4.8v-117l-2.8-3a14.2 14.2 0 0 1-2.8-3.5 22 22 0 0 0-2.9-4.2c-1.5-2-2.8-4.1-2.8-4.8 0-.6 1.4-2.4 3.2-4 3.7-3.3 5.4-6.1 6-10 .8-5.8 5.3-5.2 8 1.1 1 2 2.2 4 2.7 4.5.6.4 13.2.5 35.8.3l34.8-.3 1-2.9c1-3.4 4-6.2 6-5.9 1.2.2 1.8 1.2 2.7 4a27 27 0 0 0 8.4 12.2c1.6 1.2 2.9 2.7 2.9 3.3 0 .5-1.2 1.7-2.7 2.7-1.5.9-3.7 2.8-5 4.2l-2.3 2.5-.6 58.8c-.5 49.6-.4 59 .4 60.2 1.7 2.5 1 4.2-3.7 9l-4.6 4.9h-35c-29.7 0-35.2-.2-37-1.1zm71.9-6.2 1.6-1.6-8-.5a1044 1044 0 0 0-61.4 0l-4.3.5 1 1.6 1.2 1.7h68.3zm-72.2-65.7v-58.1l-1.7-.3-1.6-.3-.5 35.1c-.3 19.3-.4 45.6-.4 58.5v23.3h4.2zm65 55.3v-2.4l-29.7-.2-29.6-.2v2.4c0 1.3.1 2.6.4 2.8.3.3 13.6.4 29.6.3l29.2-.2zm9.8-55.1c.2-31.9.3-58 .2-58.1l-2.4-.7-2.4-.5v117.4h4zm-17.2 44.5-.3-2.9h-26.8v5l5.2.2c2.8.2 9 .3 13.7.4l8.5.2zm7.3-47.9c0-39.6-.1-50.4-.8-50.6-.8-.3-1 10-1 49.4 0 27.3-.1 50.2-.4 50.9-.3.9 0 1.1 1 1 1.2-.4 1.3-1.8 1.3-50.7zm-40 47.5V943h-19.2v5h19.1zm0-15.2v-7.8h-6c-3.2 0-7.5.1-9.5.4l-3.7.4v14l6.2.3 9.6.3 3.3.2zm32.6-.5v-8.3l-7 .5c-3.7.3-9.8.4-13.4.4h-6.6v15.7h27zm-38-12.8 5.8-.4.1-9.5.2-9.5h-20v19.9h4.1l9.8-.4zm38-10.2V897h-4.4l-13.5.4-9.1.5v19h13.5l13.5-.2zm-32.3-25.2v-9.9l-4.6-.2c-2.6-.2-7 0-9.8.2l-5.1.5V892l9.7-.2 9.8-.2zm32.3 0v-10.3h-27V892h27zm-32.1-25 .2-9.4h-20v19.2l9.8-.2 9.8-.2zm26.2 9.3 5.9-.4v-18.2l-13.3.2-13.3.2-.2 8.4c-.1 4.7 0 9 .2 9.5.4 1 10.5 1.2 20.8.4zm13.3-27.6v-2.8l-29.6-.2-29.6-.2v6.4l29.6-.1 29.6-.2zm12.1-1c.4 0 1.8-1.3 3-2.8l2.4-2.8-3.3-4.7-3.2-4.6-3.6 3.7c-2 2-3.2 3.8-2.8 4 .5 0 .7 1.7.7 3.6 0 1.8.2 3.5.3 3.6.3.3 3.6.3 6.5 0zm-77-3.3c.3-1.8 0-3.4-.2-3.6-.3-.2-.3-1-.2-1.7.4-1 .1-1.4-1-1.4-.8 0-2.4-1.2-3.7-2.8l-2.2-2.8-2 3c-1 1.6-2.5 3.6-3.4 4.3l-1.5 1.4 2.1 2.6a8 8 0 0 0 5.5 3.4c6.3 1.3 6.4 1.3 6.7-2.4zm63.9-4.8c0-2.5-1.5-2.6-30.3-2.4l-28.3.2-.3 1.6-.2 1.6h29.5c24.6 0 29.5-.2 29.5-1zm90.5 144c-1.3-.4-4-3.2-6.3-6l-4-5.2v-58c0-60.5 0-61.2-3-62.2a3 3 0 0 1-1.6-1.7 40 40 0 0 0-3.6-5.4 22.2 22.2 0 0 1-3.1-4.8c0-.4 1.5-2.2 3.5-4 4-3.9 5.6-6.6 6.3-10.9.3-2.3.8-3 2.1-3.2 2.2-.3 4.1 1.6 6.2 6 1 2 2.2 3.8 2.6 4h35.5l34.6-.2.9-3c.9-3 3.6-6 5.7-6.1 1.5 0 2.4 1.2 3 4a28 28 0 0 0 8.3 12c3.5 2.2 3.5 5.2 0 6.7-1.2.4-3.2 2.2-4.5 3.8l-2.5 3-.5 58.3c-.4 54-.4 58.5.7 60.8 1.5 3.2 1.2 3.8-4.4 9.2l-4.3 4h-34.7c-27.4 0-35.1-.2-36.8-1zm71.3-6.3 1.6-1.7-10.2-.5c-12.5-.6-62-.2-62.7.5-.3.3 0 1.2.8 2 1.2 1.4 2.1 1.4 35 1.4h34zm-71.7-65.7c0-57.8 0-58.3-1.4-58.3l-2-.1c-.2-.1-.6 26-.8 58.2l-.4 58.4h4.6zm64.3 55.4v-2.5l-29.6-.2-29.7-.2v2.4c0 1.3.2 2.6.5 2.8.2.3 13.6.4 29.6.3l29.2-.2zm9.6-3.4.7-58 .5-52-2.4-.5-2.3-.4v117.1h1.8c1.7 0 1.8 0 1.8-6.2zm-16.5-7.1-.1-2.7h-27l-.3 2.3-.2 2.3 5.2.2c2.9.2 9.1.3 14 .4l8.7.2zm7.3-48.1c0-44.7-.1-50.8-1.1-50.8s-1 6.1-1 50.8c0 44.6 0 50.7 1 50.7s1-6 1-50.7zm-40.1 47.5v-2l-9.8-.3-9.8-.1v2c0 1.1.3 2.3.6 2.5.2.3 4.6.4 9.7.3l9.3-.2zm.1-15.4.2-7.6h-6.2c-3.5 0-8 .1-10 .4l-3.7.5v14l6.2.2c3.4.2 7.8.2 9.8.2h3.5zm32.7.3c0-4 0-7.7-.4-8a89 89 0 0 0-13.8-.2l-13.3.5v7.2c0 4 .2 7.4.5 7.7.3.3 6.4.5 13.7.3l13.1-.2zm-38-13.3 5.5-.5v-18.9h-19.9v9.4c0 5.2.2 9.7.4 10 .7.6 7 .6 14 0zm37.8-10.2v-9.6l-12.8.2c-7 0-13.2.3-13.7.5-.6.3-.8 2.8-.8 9.6v9.3l13.6-.2 13.7-.2zm-32.3-25.2v-10.3h-5.6c-3 0-7.5.2-10 .4l-4.3.5V892h19.9zm32.5-.2.2-10.1H1674l-.5 9.7c-.2 5.3-.2 10 0 10.3.2.3 6.4.5 13.7.4l13.2-.2zm-32.5-24.7v-9.6h-19.9v9.1c0 5 .2 9.4.4 9.6.3.3 4.8.5 10 .5h9.5zm26.8 9.1 5.8-.4v-18.2h-26.9v19.2h7.6c4.2 0 10.3-.3 13.5-.5zm13-27.6v-3.2l-29.7.2-29.6.2-.3 3-.2 3h59.7zm15-3.9 2.7-3-2-2.3a37.1 37.1 0 0 1-3.4-4.5c-1.3-2.2-2.4-2.9-2.4-1.5 0 .4-1.3 2-3 3.6-2 2.1-2.6 3.1-2 3.7.4.4.7 2.2.7 4v3.2h3.3c3-.2 3.7-.5 6-3.2zm-80-.8-.3-5c0-.7-.6-1.3-1.2-1.3-1 0-2.6-1.5-4.7-4.4-1-1.2-1.2-1-3.4 2.3a14 14 0 0 1-3.3 4c-1.4.6-1.2 1.6.9 4 1.8 2.3 5.9 3.8 10.4 4 1.9.1 1.9 0 1.6-3.6zm63.7-3.9c.3-.2.1-1-.2-1.7-.7-1.3-2.1-1.4-29.4-1.4a213 213 0 0 0-29.2.8c-.2.4-.2 1.2 0 1.8.4.8 4.7 1 29.4 1 16 0 29.3-.2 29.5-.5zM823.6 986c-.5-14-.7-26-.4-26.6.4-.8 5.2-2 16-4.2l16.4-3.4c1-.5 1.3-10 .3-13.5-.4-1.3-2.1-3.7-4-5.4-1.7-1.7-3.2-3.6-3.2-4.3 0-.6.8-2 1.9-3.1 1-1 3.6-4.1 5.7-6.7a23 23 0 0 1 4.7-5c1.8-.8 4 1 6.6 4.9a90 90 0 0 0 5 7c1.3 1.7 2.4 3.4 2.4 4 0 .5-1.4 2-3 3.5l-3 2.5.2 6c.1 3.3.5 6.2.8 6.6.7.6 15.3-1.8 18.9-3.2l2-.7-.5-81c-.2-44.5-.6-81.1-.9-81.4-.2-.3-7.3-.6-15.7-.7-14.7-.2-15.4-.2-16.7 1.2-1.7 1.8-3.2 1.9-5 .2-1.3-1.1-6.9-1.2-87.8-1.6-47.5-.3-162.4-.5-255.4-.6l-169-.2.3 23.3c0 12.9.5 38 .8 56 .4 18 1 57.3 1.4 87.3.5 30.1 1 56 1.2 57.6l.3 3 20 .4c11 .3 70.6 1 132.3 1.5 182.8 1.8 322.9 3.2 325.5 3.4 1.4.1 2.6-.2 2.7-.5.1-.4-.3-12.2-.8-26.3zm-419-17.2c-.4-.3-2.6-2.5-4.8-4.9-3.3-3.5-4-4.6-3.6-6.2.2-1 .7-2.1 1.2-2.5.6-.5.6-15.8.2-59.5L397 837l-3-3a26.9 26.9 0 0 0-4.9-4.2c-2.7-1.4-2.4-3.2 1-5.9a29 29 0 0 0 8.4-12.6c1.5-5.7 5.9-4.3 8.5 2.8l1.1 2.7h33.2a333 333 0 0 1 34.6.6c1.1.6 1.6.4 3.1-1.6 1-1.2 2.2-3.5 2.8-5 1.9-4.4 6.9-5.5 7-1.4 0 3.4 3 9 6.6 12 1.8 1.5 3.2 3.2 3.2 3.7 0 .6-1 2.4-2.3 4a36.8 36.8 0 0 0-3.3 4.7c-.5 1-2 2.8-3.3 4l-2.4 2.4v117.5l-4 5a34.8 34.8 0 0 1-5.5 5.8c-1.1.6-10.5.9-37 .9-19.5 0-35.8-.2-36.2-.6zm71.4-5.6c3.4-3 3.3-3-35.4-3.1H404l2 2.1 2.1 2.2h33.4c30 0 33.5-.1 34.6-1.2zm-69-66.9v-58.8l-2 .3c-1.2.2-2.2.7-2.4 1.1-.3 1.2.9 114.2 1.3 115.3.1.6 1 1 1.7 1 1.4 0 1.4-.3 1.4-58.9zm75 40.2-.2-58.4-.2-40.2H478v117.4l2-.3 2-.2zm-9.6 15v-3l-14 .4c-7.7.3-21 .5-29.8.5h-15.9v5h59.7zM414.9 893c0-44.7-.2-50.8-1.1-50.8-1 0-1 6.1-1 50.8 0 44.6 0 50.7 1 50.7s1-6 1-50.7zm32.6 48.2v-2.5l-13.7.2-13.6.2-.2 2.3-.3 2.3h27.8zm24.5-.3c0-2.1-.2-2.5-1.6-2.4l-9.6.1-8 .1.3 2.6.3 2.5 9.3-.2 9.3-.3zm-24.6-15.5-.2-7.6h-27l-.2 7.6-.2 7.7h27.8zm25 .6c0-4-.3-7.2-.6-7.4-.3-.2-4.7-.5-9.7-.6l-9.3-.3-.2 7.6-.2 7.7h20zm-25-23.3-.2-9.8-13.7-.2-13.7-.1.2 9.4.2 9.4 8.5.4 13.7.5 5.2.2zm24.8 0-.2-9.8-9.7-.2-9.8-.1v19.9h20zm.2-25.3v-10.3h-20v9.8c0 5.4.3 10 .6 10.3.2.2 4.7.4 9.9.4h9.5zm-24.9-.3v-9.9l-13.3-.3c-7.3-.2-13.6-.2-13.8 0-.7.3-.8 18.9-.1 19.5.2.3 6.5.5 13.8.5h13.4zm-.7-25.3v-9.6l-13.3.2-13.3.2-.2 8.4c-.1 4.7 0 9 .1 9.5.3.7 3.4.9 13.5.9h13.2zm25.6 0v-9.6h-20v19.2h20zm0-18.2V831h-59.7v5.6l29.3.2h29.8c.3-.1.6-1.5.6-3zm-65.4-3.9c0-1.7.5-3.5 1-4 .9-.9.7-1.3-1.4-3-1.4-1-2.8-2.7-3.3-3.6-1-2.1-1.7-2.2-2.3-.3-.2.7-1.7 3-3.2 4.8l-2.7 3.4 2.8 3c2.6 2.7 3.2 3 6 2.9l3.1-.2zm79.5 1.3c1.4-.7 3-2 3.9-3.1l1.4-2-2.3-2.6a23.7 23.7 0 0 1-3.1-4.3c-.4-.9-1-1.6-1.2-1.6-.2 0-1.3 1-2.4 2.4-1 1.4-2.6 2.5-3.3 2.5-1.5 0-2 2.3-1.6 7 .3 3 .3 3 3.2 3 1.7 0 4-.6 5.4-1.3zm-13.4-7.3c0-1.4-.5-1.4-29.5-1.4s-29.5 0-29.5 1.4.5 1.5 29.5 1.5 29.5 0 29.5-1.5zM554 965c-4.5-4.7-5.1-6.3-3.2-9 1-1.5 1-6.7.4-60.1l-.7-58.5-2-2.5c-1-1.4-3-3.2-4.4-4-1.4-1-2.8-2-3-2.3-.9-1.2.1-3 2.5-4.7 2.8-1.9 6.3-7 8.2-12 .7-1.8 1.7-3.6 2.3-4 1.4-.8 5.4 2.2 6 4.6.2 1 .6 2.4 1 3.2.7 1.4 1.3 1.4 34.1 1.2 21.8-.1 33.7 0 34.3.5 1.2 1 3.5-1.3 5.3-5.2 1.6-3.7 4.6-6 6.3-5 .7.5 1.4 2.2 1.7 3.8.7 3.7 3.5 8.7 5.8 10.2 2.1 1.4 4 3.3 4 4 0 .3-1.2 2.2-2.7 4-1.5 2-3.3 4.6-4 5.8-.6 1.3-1.5 2.3-2 2.3s-1.4 1-2.1 2.2c-1.2 2-1.2 6.3-1.2 60.4v58.2l-4 4.8a27 27 0 0 1-5.6 5.7c-1.4.6-11.7.8-37.2.8h-35.3Zm75.7-2.1c.9-.9 1.6-1.8 1.6-2.1 0-.4-16.7-.7-37-.7h-37l2 2.2 2 2.1h33.4c33.2 0 33.3 0 35-1.5zM561 896l.1-58.8-2 .5-2.4.7c-.6.4 0 91.9.6 107.3.4 9.2.5 9.5 2 9.3l1.5-.2zm74.7 20.9c0-21-.2-47.4-.5-58.6l-.5-20.4h-3.3v117.2h4.2zm-10 34.5v-2.9l-14 .4c-7.6.3-20.9.5-29.4.5h-15.5v5h58.9zM568.4 893a672 672 0 0 0-.9-50.8c-.4 0-.7 17.9-.7 50.8 0 40.1.2 50.7.9 50.7s.8-10.5.7-50.7zm32.5 48.3v-2.5H574l-.3 2.5-.3 2.4h27.4zm22.2 2c2.5-.4 2.6-.6 2.6-3s0-2.4-2.6-2c-1.5.3-5.8.5-9.6.5h-7v4.9h7c3.8 0 8.1-.1 9.6-.4zm-22.2-18v-7.8h-27v15.6h27zm24.8.3v-7.4h-6.9c-3.8 0-8.1-.2-9.6-.5l-2.6-.4v15.8h19.1zm-24.8-23v-10h-27v19.1l8.3.3 13.5.4 5.2.1zm24.7.1-.2-9.7-9.4-.2-9.4-.2v20h19.2zm.1-25.3v-10.3h-10c-8.8 0-10 0-9.6 1 .3.7.5 5.3.5 10.4v9.2h19.1zM601 877v-10h-10c-5.3 0-11.4-.1-13.5-.4l-3.7-.4V887h27zm-.2-25-.2-9.4-13.3-.2-13.3-.2v19.2h27zm25-.2v-9.6l-9.7.2-9.8.2-.2 9.4-.2 9.4h20zm0-18.1v-2.9h-58.9v5.8h58.9zm-64.6-4.3c0-1.8.4-3.6.8-4 .5-.5.2-1.2-1.2-2.3a22 22 0 0 1-3.6-3.8c-.9-1.2-1.7-2-1.7-1.5a25 25 0 0 1-3.1 4.8L549 827l2.6 3c2.4 3 2.7 3.2 6 3l3.4-.1zm78.6 2c1.3-.5 3.1-2 4.1-3.3l1.8-2.4-2.2-2.2a22.3 22.3 0 0 1-3.2-4.2c-.5-1-1.2-2-1.4-2-.2 0-1.3 1.2-2.5 2.5-1.2 1.4-2.7 2.5-3.4 2.5-1 0-1.2.9-1.4 5l-.1 5 3-.1c1.7 0 4-.4 5.3-1zm-13.2-7.7c0-1.4-.5-1.4-29.2-1.4-16 0-29 .2-29 .3l-.5 1.4c-.4 1 2.5 1.2 29.1 1.2 29 0 29.5 0 29.5-1.4zm83.1 140.6c-4.5-5-5-6.3-2.7-9 .4-.5.5-20.9.1-59.6l-.5-58.7-2.9-3.1a22.3 22.3 0 0 0-4.7-4c-2.8-1.3-2.6-3.4.5-6a25 25 0 0 0 8-11.7c1.6-4.6 2.9-5.5 5.5-4 2 1 3.4 3.3 4 6.5l.5 2H751c18.4 0 34.2.1 35 .4 1.4.3 2-.2 3.8-3.4 3.2-5.8 4.2-7 6-7 2 0 3.6 1.7 3 3.1-.6 1.8 2.9 7.9 6.2 10.9 4 3.5 4.2 5 1 9-1.4 1.6-3 4-3.6 5.2-.6 1.2-1.7 2.4-2.4 2.6-3 1-3 1.6-3 62.4V958l-3.6 4.4c-6.3 7.7-1.6 7-42.8 6.8H714zm76-1.6 1.7-1.5-2.9-.6c-4-.7-69.9-.5-69.9.2 0 .4.8 1.3 1.9 2 1.8 1.5 2.5 1.5 34.8 1.5H784zm-69-66.4v-58.9l-1.8.4c-1 .2-1.9.5-2 .8-.2.3-.2 26.4.2 57.9.6 58.7.6 58.5 3 58.6.4 0 .6-26.5.6-58.8zm74.8 58.3c.2-.3.1-26.6-.1-58.4l-.5-57.9-1.6-.2-1.6-.3v117.5h1.8c1 0 1.9-.3 2-.5zm-9.6-2.9.2-2.3h-59v5l29.3-.2 29.3-.1zm-57.4-58.4c0-33.1-.2-50.4-.7-50.4-.4 0-.7 17.3-.7 50.4 0 33.2.3 50.4.7 50.4.5 0 .7-17.2.7-50.4zm25.8 50 6.9-.5v-4h-27v5h6.6c3.6 0 9.7-.2 13.5-.5zM782 941v-2h-19.2v4.2H782zm-25-15.4-.3-7.7-13.3-.1-13.3-.2v15.6h27zm21.9 6.9h3.1l-.2-7-.2-6.9-9.4-.1-9.4-.2v15.2l6.5-.5c3.6-.3 7.9-.4 9.6-.4zm-22-29.7-.2-9.7-13.3-.3-13.3-.3v19.3l11.2.2c6.2 0 12.2.2 13.5.3l2.3.2zm24.7 0v-9.4h-19.2l-.2 6.6c-.1 3.6 0 8 .2 9.7l.5 3 9.3-.2 9.4-.2zm0-25.4v-9.9l-9.8-.2-9.7-.2V887l9 .2 9.8.2c.4-.1.7-4 .7-10zm-24.5 5.2c0-2.5-.2-7-.5-10l-.4-5.4h-26V887H757zm-.7-30.4V843H730v17.7l2 .3 13.1.4h11.2zm25.6 0V843h-20v18.5h20zm-.2-18.2-.2-2.7-29.3-.2-29.3-.2v5.7h59zm-65.2-4.5c0-1.8.3-3.5.7-4 .4-.3-.6-2-2.6-4.1-1.8-2-3.4-3.2-3.5-2.8-.2.5-1.6 2.6-3 4.7l-2.8 3.7 2.5 3c2.3 2.9 2.7 3 5.6 2.9l3.1-.2zm78.3 2a9.7 9.7 0 0 0 4.6-3.2l1.8-2.3-2.5-2.8a30.6 30.6 0 0 1-3.3-4.3c-.9-1.5-1-1.5-2.8 1a9 9 0 0 1-3.4 3c-1.3.3-1.5 1-1.6 4.9l-.1 4.6h2.2c1.3 0 3.6-.4 5.1-.9zm-12.4-7.5c-.2-1.1-2.2-1.2-29-1.4-28.7-.2-29.7-.1-29.8 2.1 0 .3 13.3.6 29.5.6 27.8 0 29.6-.1 29.3-1.3zm416.8 178.5.2-4.8-35.7.2a11867 11867 0 0 1-242.5-2.3h-9.4v9.1l12.2.4c6.7.3 35.6.8 64 1.2 28.6.5 53.7.8 55.8 1 2.2 0 38 .2 79.6 0h75.6zm-77.2-10c0-1.6-4.7-1.9-28-1.8-13.7 0-42-.3-62.8-.7-36.4-.7-42-.5-40.2 1.3.2.3 24.8.7 54.5 1 29.8.1 59.1.4 65.3.5 6.1 0 11.2 0 11.2-.2zm67.1-.5 1-107.4c.4-59 1-111.8 1.1-117.4l.4-10.3-5.9.4c-5.5.3-5.9.4-7.8 2.7a7.7 7.7 0 0 0-2 4.6c0 3.3-1 3.9-7.6 3.9s-6.8.2-7.5 5.5c-.5 4.5-1.4 5.1-6.5 5.1h-4.5l-.5 11.8c-.6 13.5-.4 13-7.4 13h-4.1l-.5 82.3c-.2 45.2-.6 87.7-.9 94.5l-.4 12.4 26.5-.4 26.6-.7zm-213.8-11.4c.3-9.2 1-85.7 1.2-157.4v-20.3l-4.6-.2c-3.2-.1-5-.5-5.6-1.3-.7-.8-1-4.4-1.2-12.4l-.3-11.3h-4.1c-5.7 0-6.5-.9-7.3-8.5-.2-1.7-.3-1.8-6.2-2-6.5-.2-7.8-.8-7.8-3.4 0-2.4-1.7-5.5-4-7.3-1.5-1.2-2.9-1.5-6.8-1.5H924v6.2l-.8 117.2c-.5 61-.7 111.2-.4 111.5.5.5 20.3 1.2 40.6 1.4l11.5.1zm156.1-57c.6-81 .7-114.6.1-114.6-.1 0-2.4 1.2-4.8 2.8l-4.6 2.9-.4 61.5c-.3 34-.6 72.2-.9 85.2l-.4 23.6 4.5 2.8a28 28 0 0 0 5.2 3c.5 0 1-19.7 1.3-67.3zm-145.7 63.7 4.6-2.7.4-6.4c.3-3.4.5-25.1.6-48.2l.6-79.1.5-37.2-4.9-3.2a24 24 0 0 0-5-2.8c-.3.1-.7 37.5-1 83-.9 92.9-1 99.3-.5 99.3l4.8-2.7zm67-8.1c.2-3.2.4-18.8.4-34.7v-28.8l-4.4-.5c-3-.2-4.7-.8-5.4-1.6-.7-1-.9-5.2-.9-16.4v-15.1l1.8-1.2c1.2-.8 2.9-1 5.5-.9l3.7.3.4-32.3c.2-17.8.2-32.6 0-32.8-.2-.3-12.9-.6-28.2-.8l-27.7-.2-.5 48-.8 85-.3 37 20.8.3c11.4 0 24 .2 28 .3l7 .2zm62.5 2.1c.1-2 .5-35.5.8-74.3.1-39 .6-75.4.8-81.2l.4-10.4h-56.8l-.4 17.1c-.3 9.4-.5 24.1-.5 32.7v15.5h5c4 0 5 .2 5.5 1.2.7 1.6 0 31.8-.7 32.6-.4.3-2.7.7-5.2.9l-4.6.2V928c0 6.7-.1 22.3-.4 34.7l-.5 22.5h56.2zm151.6-18.2c0-.3-1.3-.8-3-1-5-.6-20.8-.7-20.2 0 .3.3 5.1.8 10.6 1l11.4.6c.7 0 1.2-.2 1.2-.5zm-27.6-2.1c-.8-.8-1.2-2-1-2.7.2-1.1-.8-1.5-8.4-3.2-8-1.8-19.3-2.7-18-1.5.6.7 25.2 8.6 27.1 8.7 1.6 0 1.6 0 .3-1.3zm-353.7-5c16.3-4.9 16-4.8 11.8-5.4-2.6-.5-6 0-13.7 1.4-9.3 1.8-10.2 2-9.8 3.3 1 3-.5 3.4-13.4 3.5-6.7 0-13.1.3-14.3.6-1.2.2 4.6.3 12.8.1l14.9-.2zm365-6.8c0-3.5-.3-4.6-1-4.6-.6 0-1 1.3-1.4 4-.5 4.2-.3 5.2 1.4 5.2.8 0 1-1 1-4.6zm-386.3-3.3c0-3.7-.1-4.3-1.2-4-1 .1-1.3 1-1.5 3.6-.3 4.2.2 5.6 1.6 5 .8-.3 1.1-1.5 1.1-4.6zm351.8 1.4c.2-.2 1-36.9 1.8-81.6l1.8-91.4.3-10.1h-23.2l-.4 35.3-1 92-.4 56.8 10.5-.3a126 126 0 0 0 10.7-.7zm-298.3-66.8c.3-36 .5-77.4.5-92v-26.3l-10.9-.3c-6-.1-11 0-11.4.2-.2.3-.4 41.5-.3 91.6l.2 91.2 5.6.5 10.7.5 5 .2zm336.2 54.8 3.4-3.5-3-3.7a27 27 0 0 0-3.6-4c-.3 0-1.8 1.7-3.3 3.8l-2.6 3.9 1.6 2.3c1 1.3 2 2.9 2.2 3.5.7 2 1.6 1.6 5.3-2.3zm-390-.7a11 11 0 0 1 2.2-3.5l1.8-2.2-2.7-4.2c-1.5-2.3-3-4.1-3.2-4-.2 0-1.9 1.9-3.6 4l-3.3 4 3.3 3.7c3.6 4 4.8 4.4 5.5 2.2zm189.7-36.7.4-11.6h-5.8V910l2.6-.3 2.6-.3zm11.4 0 .2-11.6h-5.7V910l2.6-.3 2.7-.3zM1124 807a20 20 0 0 0 4.6-3c0-.3-20.6-.6-45.7-.7-25 0-57-.4-71-.6a239 239 0 0 0-25.3.2c0 .3 1.8 1.7 4 3.1l4.1 2.5 25.2.4 62.4.5 37.2.1zm20.2-18.3v-9.5l-44.6-.5-86.6-.8-42-.5v9.7c0 9.5 0 9.7 1.5 9.8 5.3.3 81.4 1 122.9 1.1l48.8.2zm641.2-3.7c.5-.6.7-1.2.5-1.4-.2-.2-85.5-1.3-189.5-2.4-104-1.2-214.7-2.5-246-3-35.7-.4-56.9-.4-57.3 0-1 1 9.4 1.4 51.6 1.9 66.3.6 397.8 5.1 412.6 5.5 21.4.6 27.1.5 28-.6zm-528-6.5c.5-.1.5-.4 0-.8-.3-.4-7.7-.8-16.3-1-13.3 0-15.6 0-15.8 1-.2.8 2.1 1 15.6 1 8.7 0 16.1-.1 16.5-.2zm29.4-.6c-.7-1-1.9-1.1-5.4-.9-2.4.2-4.8.7-5.3 1.2-.7.6.5.8 5.4.8 5.7 0 6.2-.1 5.3-1.1zm-11.3-6a20 20 0 0 1 8.3-1.3l3.6.4 1-10.7c.4-6 1-12 1.4-13.6 2.2-9.2 4.7-28.6 5.3-40.5.5-10-.4-8-2.4 5.4-1.8 11.9-4.5 24-6.2 27.3-1.5 3.1-3.7 3.9-5.3 1.9-1-1.3-1.1-2-.5-3.9a177 177 0 0 0 5.9-25.4c3-18.8 6.1-49.3 7.2-71.7.4-10.3.9-12 3-12 2.5 0 4.3 2.4 5 6.4 1.9 10.4 3.6 52.1 3.8 88 0 21.7 0 23.5-1.2 24.9-1.7 1.8-2.7 1.8-4.3 0-1.1-1.3-1.2-2.3-.8-8.3.3-3.9.2-6.6-.2-6.3a87 87 0 0 0-2.7 18.3c.6 1.6 6 2.8 10 2.3 3-.5 4.1-1 6.6-3.6 2.9-3.1 2.9-3.2 3.4-10 2.7-40.2 2.4-70.1-1.4-133.4-1-16-1.7-29.7-1.7-30.4 0-2-1.3-1.3-2.4 1.5a141.4 141.4 0 0 1-23.9 40.6c-4.4 5.3-6.8 8.7-6.8 10l-.5 3.5c-.3 1.4-1 8.6-1.6 16-4 49.8-7.3 84-10 100.1a313 313 0 0 0-3.9 28.3v2.6l3.4-2.4c1.9-1.4 5.5-3.1 8-4zm531.2 3.6 5.3-2.7-8.2-.4c-4.5-.3-38.8-.8-76.3-1.2l-111.8-1.4a92437.3 92437.3 0 0 0-288.4-4l-33.1-.5-.6 3c-.2 1.7-.3 3.2 0 3.4.3.3 50.7 1 112.1 1.7a167573 167573 0 0 1 389 4.7c6.5.1 6.9 0 12-2.6zm-916.7-.4c0-1-2.3-1-16.3-1-10.2 0-16.4.2-16.4.6 0 .5 5.9.8 15.1 1 8.3 0 15.7.2 16.3.3.7.1 1.3-.3 1.3-.9zm-67.5-.3c0-.4 0-.8-.2-.8l-476.5-2c-16.9 0-17 0-15.7 1.3 1.3 1.4 2.6 1.4 154.3 1.4 84.2 0 153.2.2 153.4.4.7.7 184.7.4 184.7-.4zm15.6-.4c-3.4-1.3-8.8-1.3-9.9 0-.8 1 0 1 5.8 1 6.3 0 6.5 0 4.1-1zm13-2.7A1586 1586 0 0 1 839.9 654c-.5-10-1.4-21-1.8-24.8l-.8-6.7-5.9-7.5a135 135 0 0 1-23-39.7l-2.5-5.4-.6 4.6c-1 8.5-5.5 70.5-6.2 86.6-1 20.8-1 47 0 65.6.7 14.7.8 14.9 2.8 17.9 2.4 3.4 5 4.6 10.1 4.6 3.7 0 7.7-1.6 7.7-3 0-3.4-2.6-20.4-3.1-20.4-.4 0-.5 3.2-.3 7.9.3 4.7.2 8.5-.2 9.2-1 1.8-4 1.7-5-.3-2-3.5 1.7-97.8 4.3-111.4a13 13 0 0 1 2.3-5.3c1.8-2 4.5-2.2 5.4-.4.4.7.8 8.7 1 17.9 1 31.5 6.1 75.5 10.5 87.8 1.3 3.7 1.3 4.2.3 5.7-2 3.2-4.6 1.5-6.3-4-1.5-5.3-4.6-21-6.1-31.5l-1.4-9.4.4 10c.4 11.2 2 26.7 3.5 36.2.9 5.3 3.2 25.7 3.2 28.4 0 .5 1 .6 2.5.5a30 30 0 0 1 18 6.1c2.6 2.1 2.8 2 2.4-1.5zm304 2c.7-.4 1.2-1.4 1.2-2.8v-2.4l-63-.4-98.6-.7c-35-.1-35.5 0-35.7 1.3-.4 3.7-5.5 3.5 88.8 4 82.8.6 105.8.8 106 1.2 0 0 .7 0 1.3-.3zm103-2.3c.1-.3.5-2 .7-4l.6-3.3H1225v7.1l14 .2c7.7 0 15 .3 16.2.3 1.3.1 2.5 0 2.6-.3zm-436.3-6.1v-3.2l-84.7-.4-259.7-.8-175-.3 5.8 2.8 5.9 2.8 162 .7a302866.7 302866.7 0 0 1 277 1.3l68.7.2zm68.2-.5v-3.5h-33.4v2c0 1 .2 2.6.4 3.5l.5 1.6H890zm926.6 1.8c0-.2-2-3-4.5-6.2-29.2-38.4-60.4-125.5-95.6-267.2-11.5-46.5-15-61.7-28.3-121.7-1.6-7.2-3.1-13.2-3.3-13.4-.2-.2-44.7-.8-98.9-1.3-256.1-2.3-350.3-3.2-398.5-3.8-28.7-.4-52.3-.5-52.5-.3-.2.2 2.7 4.7 6.3 10a6367.4 6367.4 0 0 1 44.4 66.4l1.8 2.7h11.2l.4-2.2c1-5 .4-6.2-5.9-11.5-.8-.7-1.4-1.5-1.4-1.8 0-.4 2-2.7 4.4-5.2 2.5-2.5 5.4-6.3 6.5-8.6 2.4-4.8 3.4-5.8 5.7-5.2 1.3.3 2.4 1.8 4.5 6.3a45 45 0 0 0 6.1 9.4c1.8 2 3.3 4 3.3 4.8 0 1.1-1.4 2.7-4.6 5-1.1.8-1.3 1.8-1.2 5.9 0 2.7.2 6 .5 7.5.4 2.5.4 2.6-3 4.2a22.4 22.4 0 0 0-7.4 6.6 32 32 0 0 1-10.3 8.9c-1.7 1.4-1.7 1.5-1.7 18.3 0 9.3-.2 33.4-.5 53.6-.4 31.6-.3 36.8.6 36.8a425.6 425.6 0 0 0 97.8-39.3c6.3-3.8 6.8-3.8 17.7-.2 5.7 2 8.2 3.1 8.8 4.2 1.1 2 1 9.4-.5 18.7-.8 5.4-1 8-.5 9.4.4 1 1 7.4 1.2 14.3.3 6.8.7 16.9 1.1 22.3a1019.8 1019.8 0 0 1 2.1 148.3c-.6 6.7-.7 7-3.6 10.4-4.1 5-6.8 6-14.1 6-3.4 0-7-.2-8-.5-1.5-.4-2-.3-2 .5s1.2 1.1 4.4 1.4c2.5.2 87.9 1.4 189.8 2.6l245.3 3.2c77 1 82.4 1.1 82.4.7zM1491.3 698l-54-.9a248 248 0 0 1-34.1-1.3c-1.7-.6-5-3.6-10.1-9-6.5-6.9-7.6-8.3-8-11-.2-1.6.2-35 1-74.3s1.3-71.4 1.2-71.5c0-.1-4.7-.5-10.4-.7l-10.2-.6-.2-2.7c-.3-2.9 1-5.6 7-16.1l16-28.8a10766 10766 0 0 1 36.3-65.1c1-1.1 3.2-1.3 26.5-1.3 20.4 0 25.5.2 26.2 1l13.8 22.6 26.7 44.3c25.2 41.7 28.4 47.2 28.4 48.6 0 1-.6 1.6-1.8 1.9a141 141 0 0 1-25-1.3c-.5-.4-.9-.7-.9-.5l-1.3 83.2-1.6 83.2c-.8.7-5.5.8-25.4.3zm17-5.5c0-.4-1.2-1.8-2.7-3.1l-2.8-2.5-41.8-.5-47.8-.6-6-.2-.2 2.6c-.2 2.2 0 2.7 1.4 3 .9.2 10.7.5 21.9.5 19.5.1 73.2 1 76.5 1.3.9 0 1.6-.2 1.6-.5zm-106.5-7.4a19551.2 19551.2 0 0 1 4.4-147.9l.2-7-6.5-.3-6.5-.2-.4 3.8c-.2 2.9-2.2 103.1-2.7 136.3v6.2l5.3 5.7a50 50 0 0 0 5.8 5.7c.2 0 .5-1 .5-2.3zm110.4-34.4c.2-19.9.8-51 1.1-69l.9-50.1.2-17h-5.7l-.2 7.7-2.4 151.9v7.6l2.3 2.5c1.3 1.3 2.5 2.4 2.8 2.4.2 0 .7-16.2 1-36zm-11.7 27.3c0-7.4 2.1-141.4 2.4-153.1l.4-13.1-11.8-20.3a3519.4 3519.4 0 0 0-20.4-35c-2.5-4.6-4-6.4-4-5a32 32 0 0 1-2.7 5.2c-15.4 25.8-24.3 42-23.8 43.3.3 1-.2 2.4-1.5 4.3-1 1.6-1.7 3-1.5 3.3.2.2 13.4.8 29.4 1.2l29 1c.2 0 .6.7 1 1.5.6 1.2.3 1.9-1.9 4.3-2.4 2.7-2.6 3.2-2.5 6.6.1 3-1.1 55.4-3.1 129.7-.4 12.5-.7 17.1-1.5 18.3l-1 1.6h-26.8c-22.5 0-27-.2-28.3-1-1.3-1-1.6-1-1.9 0-.5 1-4.4 1.4-5 .5-.1-.3 0-14.2.3-30.8 1.1-55.1 2-118.1 1.7-118.4-.2-.2-1.3 1.3-2.5 3.3-2.5 4-2.2 4-8.1 4h-4.3l-.8 27.7a13076.9 13076.9 0 0 1-3.5 107l-.4 16.1 15.5.2c8.6.2 29.5.3 46.6.4l31 .2zm-45.3-11.8c16.5.2 22.3 0 21.6-.5-.7-.5-9-1-22.8-1.3a426 426 0 0 1-22.7-.9c-.8-.3-1 .2-1 2.2 0 2.5 0 2.6 1.1 1.5 1-1 3.5-1.2 23.8-1zm29-27.5a46978.6 46978.6 0 0 0 3.1-113c.3-2.9.2-3-1.7-3h-2l-.4 14-.8 26.5c-1.7 59.3-2.5 82.4-2.9 89.1l-.4 8 2 1.4c1.1.8 2.1 1.4 2.2 1.3.1-.2.6-11 1-24.3zm-33 17.5v-2.5l-10.5-.2-10.5-.2v5.4h21zm23 .3V654h-17.6v5h17.8zm-22.7-15.9V633l-2.3-.4a125 125 0 0 0-10.3-.5l-8-.2v16.5l10.3.1 10.3.1zm23 .5c.1-4 .2-7.5 0-7.7-.2-.1-4.2-.4-8.9-.6l-8.4-.2v15.8h16.8zm.6-21.3c.1-4.4.2-8 .1-8.2 0-.1-4-.4-9-.6l-9-.5V627l2 .3 8.8.4h6.8zm-23-1 .1-8-4.4-.4-10.7-.6-6.2-.1v17h20.9zm23.5-21.5c0-7-.1-8.5-1-8.9-.7-.2-4.7-.4-9-.4h-7.7v17l3.7.2c2 .2 6 .3 9 .4l5 .1zm-23.3.3.2-8.7c0-1.1-1-1.3-9-1.8-9.6-.5-11.4-1.1-11-3.7.2-1.4.6-1.4 10.1-1.5h10v-17l-9-.3c-7.1-.3-9.3-.6-10.2-1.5-1-1-1-1.5-.3-2.8.8-1.6 1-1.6 10.4-1l9.5.4v-2.3c0-1.3.1-5 .4-8.3l.5-5.8h-5.7c-3 0-7.8-.3-10.6-.6l-5-.5-.5 13.2c-.3 7.2-.4 21.2-.4 31v18l5.8.2 10.3.3 4.5.2zm24-23v-8.4l-8.5-.5c-4.7-.3-8.7-.4-8.9-.2-.2.1-.5 4-.8 8.5l-.5 8.2 4.6.3 9.3.4 4.8.1zm.8-22.5V544h-5.5c-3 0-7.2-.2-9.2-.5l-3.8-.4v16.4l2 .3c1 .2 5.2.4 9.2.4l7.3.1zm.7-21.3.4-8-6.4-.4-9.3-.4h-3l-.5 7.5c-.2 4.2-.2 7.9.1 8.2.5.4 12.8 1.2 17.3 1 .8 0 1.1-1.6 1.4-8zm-24.1-1v-7.6l-9.7-.4c-5.6-.3-10-.8-10.6-1.3-.8-.7-1 .5-1 8.1v9l10 .2h10.7c.3-.2.6-3.7.6-8zm71-2.9c1.1 0 2.1-.2 2.1-.4 0-.5-6.5-11-6.9-11a47 47 0 0 0-.2 6.5c0 6.1 0 6.4 1.3 5.7.8-.4 2.4-.8 3.6-.8zm14.3-.8-12-19.8a24774.3 24774.3 0 0 0-45.8-75.8 37.4 37.4 0 0 0-6.2-8.9 14838 14838 0 0 1-52.1 82.5c-6.5 10.3-11.8 19-11.8 19.3 0 .4 1.7.7 3.8.7h3.9l4.3-6.2c2.7-3.8 4.3-6.8 4.3-8 0-1.1.3-2.1.6-2.2.5-.3 3.3-5 14-23.4 28.7-49.3 29.1-50 30.9-50 1.8 0 1.7-.2 29.4 46.4 5.7 9.7 8.8 14.3 9.6 14.3 1.6 0 2.4 1 9.6 12.4 13.5 21.5 12 19.5 15.3 19.5 2.3 0 2.8-.2 2.3-.8zm-132.4-6.4c13.5-21.2 62.7-99.4 62.7-99.7 0-.1-9-.3-19.9-.3h-19.8l-4 7.3-7.8 14a18467.8 18467.8 0 0 0-45.8 83c0 .1 7.2.3 16 .3h15.8zm54.5-3.1c23.2.5 26.6.4 26.6-.5 0-1-2.5-1.1-15.4-1.5l-27.2-1c-12.3-.6-12.7-.6-12.7 2.6 0 1.4.1 1.5 1 .8 1-.7 6.7-.8 27.7-.4zm50.8-8c0-.8-2-4.2-23-39.8a598.7 598.7 0 0 0-16.1-26.4c-.3 0-.8.7-1.1 1.6-.8 1.6.3 3.6 26.4 48.1 9.7 16.5 10 17 12 17 1 0 1.8-.2 1.8-.6zm-340.2 251.5c.8-1.8 1.4-3.4 1.3-3.5-.3-.3-161.2-1.8-194.9-1.7-32.9 0-37.5.2-35 1.7.3.2.9 1.3 1 2.5l.5 2 16.5.5c9 .2 54.8.7 101.7 1l96.3.7h11.2zm88-2.2c2.2-4.1 7.3-50.5 11.5-103.4l1.4-19.5c0-.8-1-.2-3 1.7-13.6 13-44 30-70 39.3l-6.5 2.4v27.4c0 15-.2 28-.4 28.8-.3 1.4 0 1.5 5.5 1.7 9.7.3 10.2 2.4 3.2 12.3a31.5 31.5 0 0 0-4.7 8.2v1.6l18.3.2 31.2.4c11.7.1 13 0 13.6-1.1zM821 755.2c0-.8-.4-1-1.6-.6-.9.3-3.8.6-6.6.8-7.1.4-11-1-15.4-6.2l-3.5-4-.6-11c-1-14.8-1-64.4 0-82.2 1-17.2 3.2-49 4.7-65l1.5-21.6c.2-6 .8-10.9 1.3-11.7.7-1.2.6-3.2-.4-10-1.5-10.1-1.6-15.7-.4-18 .7-1.2 3-2.3 9-4.4 10-3.3 12.3-3.4 16-.8 6.5 4.6 30 16.5 48.7 24.5 15.5 6.7 49.6 18.5 50.6 17.5.6-.6 1.5-105.4 1-107-.2-.8-2.2-2.5-4.4-3.8a21.6 21.6 0 0 1-5.5-4.9 24 24 0 0 0-9.3-9c-2.8-1.1-2.8-1.2-2.3-4 .2-1.7.6-4.9.7-7.2.2-4.3.2-4.3-3-7.2-1.7-1.6-3-3.4-3-4 0-.6 1.5-2.8 3.5-4.8 2-2.1 4.6-6 6-8.9 1.3-2.8 2.9-5.4 3.5-6 1.7-1.4 4.2-.6 5.4 1.8a53 53 0 0 0 9.6 13.4c3.2 2.5 3.1 4.2-.4 6.5-4.5 3-5.8 6-4.5 10.8.4 1.5.8 1.6 6.2 1.5h5.7l6.8-10c9.9-14.8 29.6-43.3 38.9-56.2a88.7 88.7 0 0 0 7.6-11.7 63494.8 63494.8 0 0 0-549-3.5c-.2.3-3.4 13-7 28.4C391.2 542 357.5 650.3 326 713.3a207.5 207.5 0 0 1-25 39.4l-2.2 2.3 28 .1 430.8 1.2c58 .1 63.4 0 63.4-1zm-179.1-64-44.6-.1V525.6H585c-11 0-12.4-.1-13-1.2-.6-1-.3-2 .8-3.7a18515.7 18515.7 0 0 1 69.7-111.4c.8-.8 5.5-1 25.3-1 22.3.2 24.6.3 26.2 1.5 2 1.5 3.2 3.4 51.4 94.2 8 15.2 9 18.6 6.2 20.2-.8.4-5.6.7-10.8.7h-9.4l.4 72c.2 39.6.2 73.2-.2 74.7-.5 2.1-2.3 4.4-8.6 10.7l-8 8-6.1.8c-3.3.4-9.7.6-14.2.5l-52.7-.4zm67.5-7.9-.2-2.7-49-.5-48.9-.5-2.7 2.7c-1.5 1.5-2.7 3-2.7 3.2 0 .3 23.3.6 51.8.6h51.9zm17.2-31.6-.5-73-.5-53.8h-13.4l.4 13.3c.3 7.3.8 41 1.2 74.8.4 33.7 1 63.1 1.1 65.2l.4 3.8 5.6-5.6 5.7-5.5zm-118.7-60.2v-84.3h-5.6v173.4l2.8-2.4 2.8-2.4zm101.3 77.7c-.2-3-.7-33.6-1.1-68-.4-34.3-1-65.7-1.1-69.7l-.5-7.3h-9l-4-5.9-3.9-5.8v152.9l-3.7.2c-2 .2-15.5.1-29.9-.1-23.8-.3-26.2-.5-27-1.6-1-1.3-1.5-23.3-2.3-109.2l-.4-43.6-2-2.2c-2.6-2.6-2.8-5.1-.5-5.6.9-.2 14.2-.5 29.6-.8a995 995 0 0 0 28.3-.6c.1-.2-3-6.1-7-13.3l-16-28.5c-8.5-15.1-8.7-15.5-9.8-13.9a6386.6 6386.6 0 0 0-34.8 57.5c-.6.8-.7 23.7-.6 85.7l.2 84.6 4.4.2 48 .4 43.5.1zm-25.2-9.7c0-1-2.9-1.1-21.3-1.1-35.5 0-27.5 1.3 12.6 2 7.3.1 8.7 0 8.7-1zm-46.5-9.5c-.2-2.2-.5-21.8-.7-43.4-.2-21.7-.6-50.8-.9-64.8l-.4-25.3-1.7-.3c-1-.2-1.8-.1-2 .1-.2.7 1 108.7 1.5 125.6l.4 14.3 2-1c2.1-1 2.2-1.3 1.8-5.2zm18.2 2.7h4.8v-4.9h-17.8v2.3c0 3.2.6 3.5 4.7 3 2-.2 5.7-.4 8.3-.4zm28.3-2.5v-2.4h-18.5v4.9H684zm-23.6-15.8-.2-7.6-8.7-.2-8.7-.2v15.7h17.8zm23.6-.6v-8.3l-4.8.5c-2.7.2-6.8.4-9.3.4h-4.4v15.7H684zM657.2 621l3.3-.4v-16.2h-8.8c-4.9 0-9 .3-9.1.6-.2.3-.1 4.1 0 8.5l.3 8h5.5c3 0 7-.2 8.8-.5zm26.8-8.4v-8.2h-18.5v16.4H684zM656.8 599l3.8-.4-.2-8.3-.2-8.2-9-.2-9.1-.2v8.4c0 4.6.2 8.6.4 8.9.6.6 9.4.6 14.3 0zm27.2-9v-9l-9 .3-9.1.2-.2 8.7-.2 8.7H684zm-24.1-14.5c.2-.2.3-4 0-8.5l-.2-8.1-4.8.4c-2.5.3-6.5.5-8.7.5H642v17.1l8.7-.5a41 41 0 0 0 9-.9zm19.3.2 4.8-.5v-17l-2.3.5a85 85 0 0 1-9.2.4h-7v17h4.4c2.5 0 6.6-.2 9.3-.4zm-21-22c1.6-.4 1.6-.7 1.6-8.6v-8.2l-4.8.4a98 98 0 0 1-9.2.5h-4.4V554h7.6c4.2 0 8.3-.2 9.2-.4zM684 545v-8h-18.5v16.3H684zm-24.2-21.3v-8.1h-18.4V532h18.4zm17.7 7.8 6.5-.5v-15.4h-18.5V532h2.7l9.3-.4zm-79.7-31c11.4-17.3 17.2-26.5 39.3-62.7 5-8.3 6.4-10 8-10.1 1.4-.2 2 .2 2.8 1.7l6.6 12a144920.5 144920.5 0 0 1 27.5 49c1.5 2.8 6.2 10.1 10.4 16.3l7.6 11.4 4.2.2c3.6.2 4 0 3.6-1-.4-1.1-13.3-22.4-46.4-76.6a1979.9 1979.9 0 0 1-15.7-25.6c-.4-.2-11.6 17.3-25.1 38.9a69671.8 69671.8 0 0 1-39.5 63.2l-1.6 2.6h5.5zm-.5 15.4c0-2.2-.2-3.8-.6-3.5-.4.2-1.7 2-2.9 3.9l-2.1 3.5h5.6zm148.8 1a11270 11270 0 0 0-41.6-78l-10-18.8-3-5.7-19.2-.6a257 257 0 0 0-20.1-.1c-.7.2-.6.8.4 2.3a20496.8 20496.8 0 0 0 60 98.4l2.8 4.7h31.8zm-80.8-6.8c14.9-.3 18.7-.6 18.7-1.4 0-.8-4.6-1-25.2-1-13.8 0-25.6.3-26.3.5-.6.2-1 .9-1 1.4 0 1.2 5 1.3 33.8.5zM620 483.7c28-46.4 27-44.4 26.2-46-.4-.9-.9-1.5-1.1-1.5-.2 0-6.8 10.4-14.6 23.1l-20 32.5a58.5 58.5 0 0 0-5.4 9.9c.1.3 1.1.5 2.1.4 1.6-.2 3.4-2.8 12.8-18.4zm298.4 270.7c0-1.3-1.5-4.2-4.3-8.2-4.3-6.2-5.2-9.2-3.4-11 .5-.5 3.1-.8 6.8-.8h5.9v-28c0-15.5.2-28.5.2-29 0-.4-4.9-2.8-11-5.3a230 230 0 0 1-64-37.7 15 15 0 0 0-3.6-3c-.3.4.2 7.6 2.7 45.1a702 702 0 0 0 7.5 75.4l.8 3.8 16 .2 31.3.3 15 .2zm274-3.5a24 24 0 0 1 3-4.3c3.3-4.4 3-4.8-3.8-4.2-2.5.2-23 .5-45.6.8l-66.8.8c-14.8.3-35.1.1-48.3-.3l-45.4-1.6c-12.5-.4-30-.7-38.8-.7a130 130 0 0 1-19.2-.6c-1.7-.5-4.6-.7-6.4-.6l-3.3.2 2.9 4.4 2.9 4.3 73.5.6c40.5.2 91.5.7 113.4 1 59 .7 82 .8 82 .2zm-36-14.6c1-.5 1.2-3.1 1.4-23.8.2-12.8.2-23.3 0-23.5a579.3 579.3 0 0 1-75.2 12.8c-13.6 1-44.3.5-56.4-1.1-17-2.3-50-8.8-62.6-12.3-2.6-.8-5-1.2-5.2-1-.1.2-.3 10.7-.3 23.3 0 22 0 23 1.4 23.7 1.4.7 26 2 46.5 2.3 25.3.5 149.2.1 150.3-.4zm29.9 0a835 835 0 0 1-.2-24.8V687h-3.7c-3.6 0-3.8 0-4-2-.2-1.6-.4-1.8-1.7-1.5a386.3 386.3 0 0 1-10.9 3.4l-.6 9.5c-.5 10.5-.5 10.6 4.6 9.7 4.5-.7 6.4 1.9 3.5 4.7-1 1-2.4 1.5-5 1.5h-3.5v24l6.2.3c9.3.4 15.5.2 15.3-.4zM951.7 723v-12h-2.4c-3.8 0-6.8-1.4-7.3-3.3-.7-3 .8-4 5.5-3.4l4.2.4-.2-9.7-.2-9.8-5.6-1.7c-6.8-2-6.8-2-6.8-.6 0 1.8-2.7 3-5.7 2.7l-2.8-.4v18c0 10-.2 21.2-.4 25l-.5 6.9h22.2zm145.2-29c35.4-5 77-14.3 91.7-20.8a281.5 281.5 0 0 0 38.8-15.9c29-15 45.5-29.4 64.9-57.1 9-12.8 13.6-23.3 17.5-39.8 1.9-8.1 4-21 4-24.9 0-2.4 0-2.4-6.6-4.7-3.6-1.3-7-2.3-7.5-2.3s-2.3 1-3.9 2a437.3 437.3 0 0 1-96.2 39.5c-2.5.7-9 2-14.2 3-5.4.9-15.6 3-22.9 4.9a377.5 377.5 0 0 1-43.3 8.7c-47.5 7-68.9 7.1-112 .4a466 466 0 0 1-49.5-10.2c-7.4-2-19-4.7-25.6-6-14.3-3-33.6-9-53.2-16.9a521.8 521.8 0 0 1-54-26l-5.6-3.5-6.8 2.3-6.8 2.2-.2 2.8c-.9 10.6 6 39.8 12.6 52.7 6 11.8 19.2 29.3 31.7 41.7a162.8 162.8 0 0 0 46.8 32.1c7.7 3.8 23.8 10.6 26.6 11.2.6.1 3.5 1.2 6.3 2.5 16.3 7 66.4 18.5 97 22.3 13.2 1.7 13.5 1.7 37.3 1.5 18-.2 24.5-.5 33-1.7zm-80.6-6.4c0-2.4 1.8-4.4 4.9-5.2 3.1-1 3.3-1.1 3.9-4.3.3-1.9.4-3.5.3-3.8-.3-.2-2 .8-3.8 2.2-4.3 3.3-7.6 4.6-11.3 4.6-9 0-13.7-9.5-9.3-19a37 37 0 0 1 12.8-13.6c5-2.4 11.1-1.5 15.1 2.3 1.4 1.3 1.6 2 1.2 4.4l-.7 3.3c-.2.2-3.3-1.1-7-3-3.8-2-7.4-3.5-8.2-3.5-1.5 0-3.7 2.8-5.4 6.8-1.3 3.1-1.5 8-.3 10.2 2 3.5 8.1 4.6 14.5 2.3 2.9-1 3.6-1.6 4.3-3.6.6-1.8 1.5-2.6 3.5-3.4 1.5-.6 2.8-1 3-.8a79 79 0 0 1-6.4 18.3 18 18 0 0 1-4.1 4c-2.8 1.8-7 2.9-7 1.8zm32.6-12.6v-1.8l-2.5 1.5c-3.3 2-5.7 1.8-7.8-.3-1.5-1.5-1.7-2.3-1.7-7.3 0-8 0-8.3 4.7-9.1l4-.8-.5 2.2c-1.2 6-1.3 8-.1 10.2 1.4 2.8 2.1 2.8 3.7.5.9-1.4 1-2.7.7-6.7l-.5-5h2.4c1.3 0 3-.2 4-.4 1.5-.5 1.5-.4 1.5 8.4v9l-3.6.7-3.9.8c-.1 0-.3-.9-.3-1.9zm14.2-4.8c0-6.8 0-6.8-1.7-6.8-1 0-1.8-.3-1.8-.6 0-1.2 1.3-2 5.3-3.3a153 153 0 0 0 5.2-1.6c.7-.3.9 1.8.9 9 0 8.3-.1 9.3-1.3 9.3l-3.9.4-2.7.4zm15.6 5.3c-1.7-1.3-1.7-1.6-1.7-13.6v-12.3l3.5-.9 4-1c.1 0 0 5-.3 11.2l-.6 11 1.8 1.4 1.8 1.3-2.1 2.1c-2.5 2.5-4 2.7-6.4.8zm12.8.5c-1.5-.8-1.8-1.5-2-5.2-.2-5.7.2-7 3.6-10.7 2.6-2.8 3.3-3.2 5.5-3l2.5.2.2-4.4c.2-4.1.4-4.4 1.9-4.4l3.7-.4 2-.5-.2 14.1-.2 14.1-2 .4c-3 .7-6 .7-5.5 0 .2-.3.2-2 0-3.9l-.4-3.2-3.7 3.9c-3.4 3.7-3.7 3.9-5.4 3zm7.5-9.2c2-3.9 1.8-4.8-1.6-4.8-1.4 0-1.5.2-1.4 4.2 0 2.3.4 4.3.5 4.3.3 0 1.4-1.7 2.4-3.7zm-35.4-12.5c-2.4-2.8-.7-6.6 3-6.6 2.5 0 3.6 1.2 3.6 3.7 0 3.7-4.1 5.6-6.6 2.9zm-143.5-23.1c-5.6-2.6-6.3-6.5-2-11.2 5.8-6.5 12.3-8.8 23.2-8.3 6 .3 7.3.2 8-.8a79 79 0 0 0 8.5-13.3c-.2-.2-2.9-.1-5.9.3-3 .4-5.7.6-5.8.5-1-1 2.6-3.1 6-3.8 6.7-1.3 14-1 16.1.6 2.3 1.9 2.3 1.7 4.7 16.8l2.3 13.7c.3.8-1.9 1.8-8.5 3.9-1.5.5-1.6.4-1.6-4.7 0-9 .4-8.6-8.2-8.2l-7.4.4-5.7 5.4a41.8 41.8 0 0 1-9.8 7.4c-4.7 2.1-10.8 2.7-14 1.3zm20.3-9.1 4.7-5.3c-.6-.4-18.6 1.1-19.1 1.6-.4.4-.9 1.9-1 3.3-.8 4.3 2 6.4 7.5 5.8 2.9-.3 3.6-.8 8-5.4zm23.7-9.3-1.1-6.2c-.5-2.6-1.1-4.9-1.3-5.2-.3-.2-2.4 2-4.6 5.2a35 35 0 0 0-3.9 6c.4.4 7 1.6 9.3 1.7 1.7 0 2-.2 1.6-1.5zm25.6 6.7-.6-4-3.4 3.7c-2.9 3.1-3.8 3.7-5.2 3.3-2-.5-2.6-2-2.6-7 0-4.2 1.6-7.7 4.8-10.3 2-1.7 3-2 4.9-1.7l2.4.4v-8.5l2.6-.5a50 50 0 0 0 3.8-.8c.9-.3 1 1.6 1 13.9v14l-2.4.4-3.7.8c-1 .3-1.2-.4-1.7-3.8zm-2.2-6.3c2-3.4 1.8-4.3-1-4.7-1.8-.1-1.8 0-1.8 4 0 2.2.2 4 .4 4 .3 0 1.4-1.5 2.4-3.3zm66.8 5.2c.5-5-.4-10.4-1.7-10.4-1.6 0-2.2 2.2-2.2 7.8v6.2l-3.4.4c-1.8.3-3.4.4-3.4.3l-.5-8.3-.2-8.2 3.1-1.2c4.1-1.5 4.3-1.5 4.3.2 0 1.4 0 1.4 2.9 0 3.3-1.7 6.6-1.4 7.8.7.8 1.5.9 7.5.2 11.5-.3 2.2-1 3-3.5 4.5-1.7 1-3.2 1.8-3.5 1.8-.2 0-.1-2.4 0-5.3zm-49.3-.8a18 18 0 0 0-3-6.4c-1-1-1.1-1.6-.6-3l1.4-3.4c.6-1.6.9-1.7 2.8-1 2.5.9 3.6 2.7 5.3 8.6a14 14 0 0 0 1.8 4.5c.4.2 1-1.5 1.5-3.6.7-3.1.7-4.3 0-5.4-.7-1.2-.5-1.5 1.7-2.5 2.3-1.1 2.5-1.1 3.9 0 2.6 2.5 1.3 7-3 10.3-1 .8-2.2 2.4-2.6 3.5a4 4 0 0 1-2.8 2.5l-3.3.8c-1.3.4-1.7-.2-3.1-4.9zm21.3 4c-2-1.5-3.1-6.6-2.6-10.8.4-2.6 1-3.6 3-5.2 2.3-1.9 2.8-2 6.8-1.6 5.2.5 7 1.8 7 5.3 0 1.4-.4 3-.6 3.4-1 1.4-3.6 2.4-6.2 2.4-2.8 0-3.3 1-1.1 2 1.8 1 4.5 1 5.5 0 .7-.7 1-.6 1 .3 0 .6-1.2 2-2.6 3.3-2 1.7-3.1 2.2-5.6 2.2a8 8 0 0 1-4.6-1.2zm8.3-9.4c.3-1.5-2.3-4.6-3.3-4-.4.4-.8 1.7-.8 3 0 2.4.2 2.5 2 2.3 1 0 2-.7 2.1-1.3zm35 9.3c-2.8-1.8-3.6-3.8-3.1-8.1.3-2 .1-3.6-.4-3.9-.5-.3-.3-1.7.5-4.2 1-3.4 1.4-3.7 3.5-3.8l3.2-.2c.4 0 .9.6.9 1.4 0 1.1.4 1.3 2.3 1.2 1.7-.2 2.3 0 2.3.9 0 2.2-1.5 3.9-3.2 3.9-1.6 0-1.8.3-1.8 3.1 0 3 1 5 3 5.6 1.2.4-2 5.5-3.6 5.5-.6 0-2.2-.6-3.5-1.4zm15.8.7c-2.7-1-3.8-3.5-3.8-8.2 0-7.8.3-8.6 4.4-9.6 2-.5 3.6-.7 3.8-.5.2.1 0 2.3-.5 4.7-.7 3.8-.7 4.9.3 7 1.3 2.7 1.9 2.9 3.7 1 1-1.3 1.2-2.3.8-6.9l-.5-5.3 4 .2 4 .2v8.4c0 4.6 0 8.4-.3 8.6-.2.2-2 .5-4 .8-3.5.4-3.7.4-3.7-1 0-1.9-.5-2-3.2-.1-2.3 1.5-2.8 1.6-5 .7zm27 .1c-5-.3-6-2.2-6-11.3v-7.4l2.3.4 3.5.4c.9 0 1.3.7 1.5 2.3l.3 2.4 1-2.4c1-2.6 3.2-3.8 5.6-3.2 1.3.3 1.5.7 1 2.6-1 5-1.4 5.5-3.5 4.6-1.6-.8-2-.7-2.9.5-1.2 1.7-1.3 5.3 0 5.3 2.3 0 2.8 1.2 1.4 3.6-1.2 2.3-1.5 2.4-4.3 2.2zm13.5-1.1c-1.5-1.6-1.7-2.3-1.7-7.7 0-5.8 0-5.9 2.5-7.9 2.4-2 2.7-2 7.1-1.5 5.6.6 6.7 1.6 6.7 5.7 0 2.7-.2 3.3-2 4.2a12 12 0 0 1-4.7 1c-2.8 0-3.1.5-1.3 2a6 6 0 0 0 6 .2c1.5-.8 1.5-.8.2 1.4-2.6 4.5-9.4 5.9-12.7 2.6zm8.8-9.3c.3-1.7-2.2-4.3-3.4-3.6-.4.3-.8 1.6-.8 3 0 2.3.2 2.4 2 2.2 1.3-.1 2-.6 2.2-1.6zm15 10.4a8 8 0 0 1-4-1.7c-1.5-1.4-1.6-2.1-1.6-9.3 0-6.7.2-7.7 1.1-7.3.6.2 2.2.4 3.6.4 2.2 0 2.4.2 2.4 2.2 0 1.3.3 2 .7 1.7.4-.2.7-1 .7-1.8 0-1.9 3-3.6 5.3-3a7 7 0 0 1 1.8.5l-1 3.8c-1.1 3.5-1.2 3.7-2.9 2.9-1.3-.6-2-.6-2.8.1-1.3 1.1-1.5 5.7-.2 5.7 2.3 0 2.8 1.2 1.7 3.4-1.4 2.7-1.6 2.8-4.7 2.4zm25.8-.2c-2.3-.7-2.8-1.6-1.7-3.3.4-.7 1-.7 2.7-.1 2.8 1 9 .6 9.3-.6.2-.6-.7-.9-3.1-.9-7.2 0-10.2-1.8-10.2-6 0-4.7 4-7.5 10.7-7.4 6.9.2 7.6.5 6.9 3.4-.4 1.5-1 2.2-1.6 2-2.3-.9-9-1.3-9-.6 0 1.3 2.7 2.2 6.2 2.2 4.7 0 7 1.3 7.2 4 .7 6-8.6 9.8-17.4 7.3zm80.5-6.4c-2-1.2-1.3-4 2-8 5.5-6.3 23.1-28 23.1-28.4 0-.3-5.3 3.6-11.8 8.4-8.4 6.4-12.4 9-13.8 9-1.9 0-2.8-1.1-2.8-3.3 0-.5 7.4-6.5 16.3-13.2a268 268 0 0 0 16.4-12.7c0-.2-1.2-1-2.6-1.7-4-2.2-5.9-7.3-4.5-12.6 1-4 5.7-8.7 9.7-9.8 4.2-1 11.4.6 13.5 3.2 2.4 3.1 4.5 7.8 4.5 10.4 0 2.4-3 7.7-4.3 7.7a243.5 243.5 0 0 1-13.5 16.4c-5.1 6-13.5 16-18.5 22.4-9.3 11.5-11.4 13.4-13.6 12.2zm40.6-55.3c2.7-1.6 3.3-2.8 2.7-5.1-1-4.3-7.2-7.2-11-5.2-2.8 1.4-4.5 4.2-4.2 7 .4 4.2 7.8 6.2 12.5 3.3zm-439.8 50.3c-1.2-1.3-6.4-7.6-11.4-14-5-6.5-12.7-16-17-21a149.9 149.9 0 0 1-11.4-14.8c-3-2.3-4.7-6-4.3-9 .4-3.3 5.2-10.6 7.2-11 6.8-1.6 8-1.7 10.9-1a16 16 0 0 1 9.4 9c1 3 .4 8-1.2 10.6-.7 1-2.5 2.4-4 3l-2.7 1.3 16 12.3c16 12.3 18 14.4 16 16.6-1.6 2-3.3 1.2-11.5-5.1l-12.6-9.8-4.6-3.5 2.9 3.5a390.5 390.5 0 0 1 24.4 32.2c0 1.6-1.3 3-2.8 3-.7 0-2.2-1-3.3-2.3zM833 556.5c1-.8 1.4-2.2 1.4-4 0-2-.5-3-2.5-4.8-1.4-1.2-3.3-2.2-4.2-2.2-3 0-6.4 2-7.8 4.5-1.6 3-1 5 2 7 2.8 1.7 8.9 1.5 11-.5zm329.2 45.7c-.3-1.2-.5-3.6-.5-5.3v-3.1h6.8l-.1 2.9c0 1.6-.3 4-.5 5.3-.5 2.2-.8 2.4-2.9 2.4-2 0-2.4-.2-2.8-2.2zm67.7-14c-1.5-3-.2-4 17.5-13.7 27.2-14.9 27.3-15 28.8-11.6 1 2.4 0 3.4-6.1 6.5a633 633 0 0 0-31.2 17c-5.5 3.4-7.8 3.9-9 1.8zm-350.8-4.5c-2.6-1.7-11.9-7-20.8-12a109 109 0 0 1-16.4-10 3 3 0 0 1 2-3.8c1.6-.4 16.6 7.5 35 18.4 8.9 5.3 9.8 6.1 9.2 8.6-.7 2.7-3.5 2.3-9-1.2zm214.3.1a1329 1329 0 0 0 65.1-10.3c1-.4 1.1-2.4 1.2-12 0-6.2.4-31.7.9-56.5.4-24.8.5-47 .2-49.3a53 53 0 0 1-.6-16.5c.6-3.5.5-3.7-2-7a443 443 0 0 1-18-28.7 1230.2 1230.2 0 0 0-58.3-88.8c-7-9.5-14.4-20-16.5-23.2l-4-6-3.6 5.2-16.1 22a1244 1244 0 0 0-55.4 80.8A981.7 981.7 0 0 1 962 431l-2.3 3 .6 6.6c.6 5.4.5 7.2-.4 9.8-1.5 4.2-1.4 1.2-1.3 65.4v55.8l6.7 1.5c7.8 1.8 47.7 8.8 59.8 10.5 8.4 1.2 39.7 2.4 50.7 1.9 3-.1 10.9-.8 17.6-1.6zm-46.3-60.6a78.2 78.2 0 0 1-62.9-60.3c0-1-.8-1.2-5.6-1.2-8.2 0-8.9-.7-9.2-9.5-.2-6.6-.2-6.7 1.6-8a6 6 0 0 1 3.6-.8c1.6.3 1.8.1 2.2-3a81.3 81.3 0 0 1 25.5-51 83.6 83.6 0 0 1 98.9-12.4 83.1 83.1 0 0 1 41.3 57.7c1.6 10.8 1.3 10 3.6 10 4.5 0 5.8 3.6 4.3 12.4-.8 5-2.4 6-9 6h-5.1l-1.2 4.1a73.7 73.7 0 0 1-19.5 33.5 76.2 76.2 0 0 1-68.5 22.5zm20.7-6.1c15.7-2 29-8 40.8-18.4a78.8 78.8 0 0 0 18.7-28.7c2-6.3 2.2-7 .6-6.7-.7.1-1.7 2-2.7 5.3a67.1 67.1 0 0 1-48.4 42.5c-20 4.8-40.3 1-57.5-10.6a64.7 64.7 0 0 1-24.5-32.3c-1.3-4-2.4-6.2-3-6.4-.7 0-1.2 0-1.2.2 0 1.1 4 12.6 5.1 15 2.5 5 8.7 14 12.3 18a76.5 76.5 0 0 0 33.5 20 64.7 64.7 0 0 0 26.3 2zm-13-12.8-.4-10.6c-.3-5.3-.3-14.8 0-21.2.4-11.6.4-11.6-1.2-12.7-.9-.5-2.2-.8-2.8-.6a727 727 0 0 0-37.8 25.5 52 52 0 0 0 12.2 10.9c6.3 4 13.2 7.1 19.8 8.7 6.2 1.6 10.3 1.6 10.2 0zm19.4.3c7-1.4 14-4.5 21.1-9.2 5.2-3.4 12.4-9.9 11.7-10.5l-28.5-19.6c-9.6-6.5-9.8-6.6-11.6-5.4l-1.7 1.1v16c0 8.7-.2 18.8-.5 22.3l-.4 6.5h2.2a55 55 0 0 0 7.8-1zm41.8-32.4c3.5-7 4.9-13.6 4.9-24a47 47 0 0 0-5.8-25.4l-2.5-4.5-1.8 1.2-4.4 2.7a268.5 268.5 0 0 0-35.5 26.7 72 72 0 0 0 14.3 11c8 5.2 17.1 11.7 20.4 14.2l6 4.6 1.4-1.6c.7-.8 2-3 3-4.9zm-100.7.2a824 824 0 0 1 20-13.4 88.8 88.8 0 0 0 13.6-10c.5-1.1-1-2.6-11-10.1a300.6 300.6 0 0 0-30-21.2 54.9 54.9 0 0 0-6.3 48.3c2 5.8 5 11.3 6.2 11.3.4 0 3.8-2.2 7.6-4.9zm129.4-18.5v-2.8h-7.5l-8-.2c-.2-.1-.6 1.2-.7 2.8l-.1 3h16.4zm-153.3-1.4-.2-2.9-8 .2c-7.6.2-7.9.3-8 1.9-.6 3.4 0 3.6 8.5 3.6h8zm73.3-.5c1-3.7-.8-6-4.8-6-3.6 0-4.7 1.3-4.7 4.9 0 2.8 1 3.4 5.2 3.4 3.5 0 3.7-.1 4.3-2.3zm72.2-9.4a77 77 0 0 0-94.6-67.6 77.4 77.4 0 0 0-55.6 50.9 79.2 79.2 0 0 0-3.2 16.1v2.2l3.7-.5c2-.2 3.9-.8 4.2-1.2.2-.5.7-2.5 1-4.5.6-4.8 4.1-15.3 6.5-19.5a85.1 85.1 0 0 1 13.2-16.8 71.5 71.5 0 0 1 74-13.5 68.4 68.4 0 0 1 36.2 33c2.8 5.5 6 17 6 21v2.5h4.3c4.2 0 4.3 0 4.3-2zm-81.8-27.3.2-24.6h-2c-3.8 0-14.7 2.8-19 4.9-8.2 3.8-20.3 12.5-20.2 14.5 0 .5 1 1.5 2.3 2.3 10.3 6.7 36 26 36.6 27.4.2.4.6.5 1 .4.7-.2 1-7.1 1-24.9zm22.3 16.5c6.2-4.7 15.6-11.3 20.7-14.6l9.3-6-4.6-4.3a61 61 0 0 0-36.6-16.1c-.4.5-1.2 49.6-.7 49.6.2 0 5.6-3.8 11.9-8.6zm100.1 137.4c4.4-1 8.2-2 8.5-2.3.3-.2.6-4.8.6-10l.1-9.6-2.8-.2c-3.7-.3-5-1.7-3.8-4.1.5-1.2 1.3-1.8 2.6-1.8a8 8 0 0 0 3.2-.7c1.3-.7 1.4-1.9 1.4-38.7v-38h-19.2l.1 5.2.2 5.1 2.9.1c4.4.1 6.5.9 7 2.5.9 2.6-1.4 4.2-6 4.2h-4l-.5 3.7c-.3 2-.4 5-.4 6.7 0 3.3.8 3.8 6 3.8 3.3 0 4.6 1 4.6 3.4 0 2.2-2.9 3.2-7.3 2.6l-3.4-.4.2 6.2.2 6.3 4.2.2c4.5.3 6 1 6 3 0 2.5-2.5 3.8-6.6 3.4l-3.8-.4-.4 15c-.3 8.2-.5 19.8-.5 25.8 0 12.8-1.1 11.8 10.9 9zm-226-25.5v-26l-3 .2c-5.2.3-6.2 0-7-2-.8-1.6-.7-2 .7-3 .8-.8 2.2-1.2 3-1 .7.2 2.5.2 3.8 0l2.5-.6v-12h-4.2c-5.4 0-7.6-1.9-5.8-4.9.5-.6 2.1-1 4.6-1.1a17 17 0 0 0 4.6-.6c.6-.4.8-3 .8-7.3v-6.8l-3.1.4c-3.9.5-6.5-.3-7.2-2.4-.8-2.7 1.4-4.2 6.2-4.2h4.1v-10.7h-19L932 496a1630 1630 0 0 0-.3 38.5l.3 4.2 2.5.4c3.4.6 4.2 1.2 4.2 3.2 0 2.4-1.5 3.4-4.5 2.8l-2.6-.5v20.7l8.7 2c4.8 1.3 9.3 2.2 10 2.3 1.2 0 1.2-1.6 1.2-26zM1189 456c.4-.8.6-1.7.4-1.9-.2-.1-5.2-.5-11-.7l-10.8-.4v4.5h10.3c9.7 0 10.3-.1 11-1.5zm-236-2.5c0-1-.5-2-1-2.1a94 94 0 0 0-11.2.2c-10.3.5-10.4.5-9.8 2.1.6 1.6.8 1.6 11.3 1.6H953zm248.7-10.4 3.2-4.5-11.1-.3c-6.1-.2-11.5-.6-12-1-.5-.3-.9-1.3-.9-2.2 0-2-32.9-51.5-66-99.2-23-33.2-35-50.7-41.6-61l-2.8-4.5-9-.2c-8.7-.2-9-.2-10.1 1.4l-9.1 13.5c-4.4 6.6-20.2 29-35 49.7-44.5 62-67.8 95.9-67.8 98.4s-1.6 3-13 3.1l-11.2.2 3.3 4.4 3.3 4.5h32.5l-.4-7-.5-6.9 3-3.9c2.6-3.3 13.7-20.3 30-46.1a1107 1107 0 0 1 52.8-76.1 597 597 0 0 0 15-20.8c2.8-4 4.2-5.4 5.8-5.7 3-.7 4.7.5 8.4 6.2 1.8 2.8 9.5 13.7 17 24.2a1359 1359 0 0 1 67.2 103 448 448 0 0 0 10.5 16.3l3.5 5-.4 6.6-.6 6.6 8.5.2 16.3.4 7.8.1zm8.3-13.7c0-2.4 0-2.5-2.5-2.5-2.3 0-2.5.1-2.5 2.5s.1 2.5 2.5 2.5 2.5-.1 2.5-2.5zm-295-2.5c0-2.3-.2-2.5-2.1-2.5-2 0-2.2.3-2.4 2.7-.3 2.7-.2 2.8 2.1 2.5 2.2-.2 2.4-.4 2.4-2.7zm297.6-7.9 1.6-1.5-2.4-3a27 27 0 0 1-3.4-5.3l-1-2.3-2.8 3.7-3.4 4.6c-.5.6 0 1.6 1 3 1.5 2 2.2 2.3 5.3 2.3 2.6 0 3.9-.3 5.1-1.5zm-294.5-2.9 2-2.2-2.5-3.4a64 64 0 0 1-3.4-4.6c-.7-1.2-.9-1.1-2 1.1a40 40 0 0 1-3.4 5.2l-2.2 2.7 1.7 1.8c1.2 1.3 2.3 1.7 4.7 1.7 2.6 0 3.4-.4 5.1-2.3zm764.6-65c.3-.7 1.5-3 2.9-5 1.3-2.1 2.3-4 2.2-4-.1-.1-6.3-.4-13.7-.6l-13.3-.3-1 2.4a7.5 7.5 0 0 1-1.3 2.4l-1.4.4c-1.6.6-3.4-1.7-2.9-3.7l.5-1.7h-70.2l-1.6 2.2c-2 2.7-4.6 2.6-5-.1v-1.9l-12.3-.4c-6.7-.3-18.2-.5-25.5-.5-12.5 0-13.3 0-13.7 1.4-.8 2.6-5.3 2.4-5.3-.3 0-.7-11.1-1-48-1.3l-65.8-.5h-17.6l-2.2 2.5c-2.4 2.7-3.5 3-5.2 1.3-.8-.8-1-1.4-.3-2.4.7-1.4.3-1.4-9.8-1.4h-10.5l-1 2.3c-1.9 4-6.3 3.1-5.4-1l.5-2h-40.7c-22.4 0-54.8-.2-72-.5l-31.3-.4-1 2.2c-1.5 3.8-6 4-5.5.1l.2-1.9-40.5-.4a1521 1521 0 0 0-40.7-.1c-.2.1 1.2 2.3 3 4.9l3.3 4.6h25.2l2.1-3c2.6-3.4 5.5-4.1 6-1.3 0 1-.3 2.1-.7 2.7-.4.6-.7 1.2-.5 1.4.6.6 121.6 1.5 121.9.9.5-1.3 4.7-4.8 5.8-4.8 2 0 3 1.8 2.1 3.4l-.8 1.7c0 .2 26.3.6 58.4.8l78.3.9 19.9.4 1-2.6c1.1-3.3 3.8-4.7 5.6-3 1 1 1 1.6.3 3.3l-.8 2.2h13.3l46.3.4 33 .5 1.6-2.7c1.2-2 2-2.5 3.1-2.4 1.2.2 1.7.8 1.8 2.4l.2 2.2 15.4.5c8.5.3 19.3.5 24 .5h8.7l2-2.6c1.7-2 2.5-2.5 3.7-2 1.1.3 1.5 1 1.5 2.5v2h21.8l1.4-2.3c.8-1.3 2-2.4 2.8-2.6 1.8-.3 3.3 1.9 2.8 4l-.4 1.6h22.4c20.8 0 22.5 0 23-1.2zm-723.3-5.5-1.2-2.2c-1-1.6-1-1.9 0-2.9 1.7-1.7 4.3-.6 6.1 2.6l1.6 2.9h25.5l3.3-4.5 3.2-4.4-18-.4c-9.9-.3-28.2-.5-40.7-.6h-22.7v2.2c0 2-.3 2.3-1.8 2.3-1.2 0-2.2-.7-3.2-2.2l-1.4-2.2-21-.4a7273 7273 0 0 0-72-1c-48.7-.4-51-.3-50.6.9 1.7 4.2-3 5.4-5.3 1.4l-1.5-2.5h-19.5c-.4 0-.5.7-.4 1.5.3 1.5-1 3.5-2.2 3.5-.4 0-1.8-1.3-3.3-2.8l-2.5-2.7-65.4-.5c-64.9-.5-65.5-.5-66 .9-.7 2.3-2.6 2.6-4.3.6l-1.5-1.8-25.3-.5-25.3-.5v1.8a3 3 0 0 1-1.4 2.6c-1.2.7-1.8.5-3.1-.9-1-.9-1.8-2-2-2.4-.2-.5-11.8-.8-35.3-1.1l-35-.4.4 1.7c.4 1.6-1 3.9-2.4 3.9-1 0-2.9-2.2-3.3-4l-.4-1.7h-13.8c-7.6 0-13.8.2-13.8.4s1.1 2.3 2.5 4.5c1.4 2.3 2.5 4.4 2.5 4.8 0 .8 43.5 2 44.7 1.3.4-.2.5-.9.3-1.4-.6-1.5 1-4 2.6-4 .8 0 2 1.2 3.2 2.9l1.8 2.8h10.6c10.2 0 10.7 0 10.3-1.3-.4-1.4 1.2-3.6 2.7-3.6.5 0 1.7 1 2.8 2.4l2 2.5 24.1.2 24.2.2-.4-1.6c-.3-1.3 1-3.7 2.2-3.7 1.2 0 3 1.6 3.8 3.5l.9 2.1h46.6c36.2 0 46.3-.1 45.7-.8-1.3-1.3-1-4 .4-4.8 1.7-.9 3.9.6 5 3.4 1 2 1 2.1 7.4 2.5 7.7.5 150.3 1.2 150.3.7 0-.1-.3-.9-.8-1.6-.7-1-.7-1.6 0-2.5 1.6-1.8 3.3-1.3 6 1.7l2.6 2.9 36.8.1 60.7.4c13.2.1 24 0 24-.2zm730-13.2V329l-3.1.2-3 .2-.2 3.4-.3 3.3h6.5zm-1250-7.4a9 9 0 0 1-.5-3.2c0-1.8-.3-2-2.5-2.5a7.6 7.6 0 0 0-2.8-.2l-.8 3.6-.5 3.4h3.7c3.1 0 3.7-.2 3.3-1.1zm1248.6-1.7c1.3 0 2.2-.5 2.5-1.3.3-.7 1.2-2.3 2.2-3.6l1.7-2.3-1.8-2.7-3.9-5.6-2-3-1.8 2.7a85 85 0 0 0-3.7 6.4l-1.8 3.6 2.3 3.3c1.3 2 2.6 3 3.2 2.8.5-.2 2-.3 3-.3zM439.6 312.4c.4-.9 1.3-2.2 2.1-2.9l1.5-1.3-1.8-3.7-3.6-6.6-1.8-3-4.2 5.7-4.2 5.7 2.1 2.5c1.2 1.3 2.2 2.9 2.2 3.4 0 1 1.3 1.3 5.9 1.7.7.1 1.5-.6 1.8-1.5zm629.2-57.8c0-8.3 0-8.7-1.6-9.2-2-.6-10.8-.6-11.8.1-.5.3-.7 3.8-.7 9.1v8.7h7l7.2.2zm-3.4-20.1-.3-4.3h-3.1c-2.8 0-3.1.2-3.2 1.6 0 1-.1 2.8-.4 4.3l-.5 2.7h7.7zm-.5-58 2-2.4-2-5.9c-2-5.9-3.2-8-3.2-6 0 .7-1 3.6-2 6.6l-2.1 5.4 2.1 2.5a9.7 9.7 0 0 0 2.6 2.4c.3 0 1.4-1.2 2.6-2.6zm747 880.4a615 615 0 0 1-36-19.6c-.8-1.1-.4-2.7 1-3.5 1.2-.8 6 1.5 30 14.4 11.8 6.3 14 7.4 16.2 8.1 2.2.7 1.1 5.5-1.2 5.4-.5 0-5-2.2-10-4.8zm-40.5-9.5c-10.1-5.1-19.3-10-20.4-10.7-2.1-1.5-2.5-3.5-.9-4.8 1-.7 2.9 0 11.6 4.6 5.7 3 15 7.6 20.7 10.3 13.2 6.4 12.5 6 12.5 7.9 0 1.4-.4 1.7-2.5 1.9-2 .2-6-1.6-21-9.1zm-1513.8 1.1c-2.7-2.7-.9-4 17-12.2l17-7.7 13-6c5.4-2.5 6.3-2.5 7.3-.5 1.3 2.3-.4 3.5-13.5 9.3a748.5 748.5 0 0 0-39.1 18.3c-.3 0-1-.6-1.7-1.1zm30 .4a2.8 2.8 0 0 1-1.2-2.3c0-1.3 3.6-3.3 23.3-13.2 24-12 26-12.7 25.5-8.7-.2 1.7-2.5 3-22.6 13.4a561.2 561.2 0 0 1-23 11.5 6 6 0 0 1-2-.7zm28.5-4.6c-1.5-1.9 0-3 7.9-6.7 4-1.8 13.8-6.5 21.5-10.3 11.3-5.7 14.3-7 15.3-6.3 2 1.2 1.7 2.9-.8 4.7a410.7 410.7 0 0 1-41.2 19.7 4 4 0 0 1-2.7-1.1z"/><path fill="none" stroke="#000" stroke-linecap="round" stroke-linejoin="round" stroke-width="8.9" d="M4.4 4.4h2112.4v1491.1H4.4z" paint-order="markers fill stroke"/></svg>