<svg xmlns="http://www.w3.org/2000/svg" xml:space="preserve" viewBox="0 0 3512 3021"><g stroke="#000"><path stroke-width="3.8" d="M2077 1420a177 177 0 0 1-57-13l-9-1c-15-1-48-8-56-12-5-3-9-7-7-8h4l6 4c8 4 40 11 52 11 5 0 5-1 5-4 0-5 9-18 16-25 9-8 20-15 33-19a126 126 0 0 1 97 15v-27a352 352 0 0 0-68-215l-10-8-9 4-7 4v8c-1 15-7 25-19 28-10 3-24-4-31-16-2-2-2-2-12-1-11 2-24 1-26-2-1-2-2-2-3-1-9 5-16 27-23 67-8 51-10 78-8 119 2 50 2 59 0 59a672 672 0 0 1 4-178c6-38 11-56 20-67l5-6-6-9c-19-29-50-111-56-146 0-4 0-4-4-2-6 3-20 6-32 8l-12 1-4 19c-8 38-18 69-32 98l-7 14 6 6c30 32 61 143 68 244 1 20 1 21-4 22-24 6-43 9-67 10l-16 3c-3 2-14 4-24 6-38 8-109 9-133 2-12-3-22-8-23-11-3-5-2-8 3-16 10-13 15-19 22-24l8-5-2-8c-2-14-3-47-2-64 5-48 18-99 35-139 8-18 18-35 22-40 3-3 3-4 4-21a515 515 0 0 1 43-177c4-8 4-9 3-20v-20l2-9-10-10c-22-24-36-50-42-84-3-14-6-33-6-45v-8l-8-4c-12-5-43-23-50-28-5-4-6-5-7-11-2-17 0-51 6-72 2-8 2-9 0-8-10 4-51 4-79-1-31-4-68-14-88-22l-10-5-5 5c-23 20-62 29-123 28-19 0-23 1-23 3s-3 2-18 2-19 0-28-3c-13-4-21-8-27-15-17-19-22-40-21-79 0-19 1-21 5-36l6-18c11-15 61-26 110-24 33 1 60 7 87 18 21 7 29 13 40 23l9 9 9-3a382 382 0 0 1 188-17c12 2 31 7 38 10l5 1 10-8 9-9 1-17c3-69 18-108 54-144 26-26 46-38 71-40 6-1 6-1 6 1s-1 3-5 3c-27 4-44 14-71 41-14 15-23 27-29 41-7 14-7 14 1 17a622 622 0 0 0 173 19l-2 13c-3 19-6 44-6 62 0 16 2 30 4 30l15-2c25-3 44-8 58-14 4-2 8-4 9-3 6 2-11 10-33 16a379 379 0 0 1-121 8l-54 43a76 76 0 0 0-20 24c-9 17-21 56-25 84a5129 5129 0 0 1-10 61c0 4 0 5 8 15 4 6 11 13 15 16 5 5 7 6 15 7 20 3 66 1 106-4a383 383 0 0 0 135-40l3-2v-17c0-26 5-48 17-68 7-13 21-27 34-33 7-4 9-4 20-4h13c0-3-30-48-38-58-11-13-26-26-54-43-5-3-5-4-4-5 3-4 2-36-1-55-8-48-23-77-55-109-23-23-50-38-74-42l-5-1-1 8-1 15v8l-8 1h-6v-11l1-26 1-15-5-5c-4-4-5-5-5-9 0-9 10-17 20-17 5 0 6 1 10 4 9 8 8 17-1 22l-5 3v9l-1 8 8 2c37 6 78 37 106 81 17 26 28 69 28 111l1 19 12 8c18 12 26 19 37 30a513 513 0 0 1 50 73 385 385 0 0 1 42 185v42l6 6c12 13 21 31 30 56a247 247 0 0 1-11 177c-5 8-7 10-12 12-10 5-29 8-58 10a131 131 0 0 1-55-4l1 8c2 12 4 30 4 43 0 6 1 11 2 11 2 0 17 16 24 25a348 348 0 0 1 58 208v26l6 5c13 12 20 19 20 21 0 6-16 15-37 20-11 3-15 3-40 4l-38-1zm76-7c14-4 27-9 34-14a123 123 0 0 0-105-45c-26 4-48 17-58 35-4 6-5 12-2 14s25 9 34 10a321 321 0 0 0 97 0zm-420-2c26-1 37-3 51-5 18-4 23-6 23-8a164 164 0 0 0-70-46c-11-4-13-4-27-4s-16 0-27 4c-14 4-27 12-34 19-3 2-8 9-12 15-6 8-7 10-6 12 4 6 25 12 48 13 19 2 19 2 54 0zm118-17c14-2 37-6 39-8a591 591 0 0 0-65-256l-4-5h-19c-16 0-21-1-25-2-2-2-4-2-5-2l-2 6c-5 16-20 25-31 18-8-5-13-17-13-29 0-5-1-5-4-6-6 0-8 2-16 16-22 44-39 102-44 156-2 25 0 71 4 71l7-3c16-6 36-9 49-7 12 2 30 9 41 14 14 7 25 15 38 28l12 12 12-1 26-2zm199-237c13-6 16-27 7-50-3-9-11-19-15-19l-3-2-4-1c-7 0-14 9-17 20-7 21 1 44 16 51 6 3 11 3 16 1zm-293-19c3-2 6-7 7-10 10-23 2-57-13-57-10 0-21 20-21 43s14 36 27 24zm254 1c2 0 2-1 1-6-4-20 3-43 15-50 9-5 16-3 25 7 6 6 13 22 13 27 0 4 1 4 5 2 8-4 8-5 7-26a230 230 0 0 0-6-44l-5-4c-10-6-18-15-20-24-1-8-7-25-8-26l-6-1c-5 0-15-6-19-11-5-8-6-18-4-31 2-5 3-7 8-12 5-6 6-6 12-6h6l10-51c10-34 22-57 41-76 8-8 10-11 9-12a346 346 0 0 0-29-48c-2-6-5-10-6-9l-1 5a343 343 0 0 1-30 71l-8 12 3 11 3 19c2 7 2 38 1 43l-1 4h-15c-23 1-39 6-59 20-14 9-23 19-31 33-5 12-6 12-5 21a513 513 0 0 0 60 156l7 8h12l15-2zm-188-35a495 495 0 0 0 35-110l1-6h-5l-12-2-12-3c-10-2-20-8-30-18-16-15-25-30-31-49l-3-10-3 7a535 535 0 0 0-39 193 883 883 0 0 1 5-11c6-29 25-39 38-19l4 9c0 2 0 6 2 9l1 14c-1 7 0 8 2 9 4 2 11 3 25 3h14zm310-55c28-2 41-4 52-8 8-2 9-4 18-21 6-12 8-16 12-41 5-28 6-50 3-76-4-44-24-91-44-105l-5-4v9c0 22-16 37-31 30-8-3-17-17-19-28-1-12-1-13-4-13l-8 3-5 2-12 12c-24 26-40 61-48 108-5 31-4 54 3 79l5 21c6 20 23 31 54 34l29-2zm-97-68-2-24-1-17-5-1c-17 0-21 37-6 46 4 3 14 5 15 4l-1-8zm-153 0c12-2 28-7 28-10l3-8c11-26 26-41 53-54 14-7 27-10 44-11l13-1v-18c0-17-3-40-6-46-1-1-3 1-6 5-9 10-20 22-27 27a120 120 0 0 1-35 19 209 209 0 0 1-179-22c-2 0-3 12-2 24s4 30 8 39c6 16 26 40 40 48l18 6c14 4 31 5 48 2zm44-95c13-3 13-3 11-11-3-12-5-31-5-53v-22l-3 1a369 369 0 0 1-142 3 148 148 0 0 1-64-17l5 12c8 18 16 31 31 45 14 14 25 22 44 30 13 5 40 13 54 14 15 2 60 0 69-2zm37-13c21-10 40-30 61-61 11-17 24-49 29-72l3-10-5-11a180 180 0 0 1-10-30c-1-1-2-1-5 1l-9 4-18 8a366 366 0 0 1-60 20c-2 4-8 29-10 44-3 22-3 85 0 99 2 11 5 15 10 14l14-6zm191-47c7-5 11-20 9-35-2-10-4-15-9-20-5-6-10-8-21-7-3 0-4 1-7 5-5 12-5 34 0 45 2 6 10 14 13 16 4 1 11 0 15-4zm-257-24 34-7 2-13c2-22 6-43 10-59 1-1 0-1-4-1l-34 6c-38 6-82 8-105 5l-15-1-9-9a147 147 0 0 1-22-27l-14 12-14 12-7-3-6-3c-3 0 2 44 6 60 2 5 14 13 27 18 14 4 41 9 73 11 11 1 67 0 78-1zm217-15c3 0 4 0 4-7l4-13c4-6 4-6 10-7l12-1c5 1 7 2 12 8 7 7 8 8 11 18l2 6c2 0 2-15 2-38 0-53-6-95-20-137-9-28-16-42-22-47-14-10-32-7-52 10a94 94 0 0 0-28 50 136 136 0 0 0-4 48c0 15 6 33 15 51a299 299 0 0 0 28 46l7 10 2 5 1 5 6-4c3-2 7-3 10-3zm-373-87c11-10 13-12 13-17a3498 3498 0 0 1 9-53c5-34 17-71 30-94 4-6 5-9 6-19a521 521 0 0 1 7-45v-4l-13-2a384 384 0 0 1-48-14c-2 0-31 27-40 37a281 281 0 0 0-59 171c1 9 1 11 4 14 6 5 19 12 48 27 23 11 27 13 29 12 1-1 8-6 14-13zm-423-108c6-3 9-9 11-22 2-8 3-35 2-40-1-2-1-2-10 0a440 440 0 0 1-88-2c-2-1-2 0-1 6l3 17c4 10 5 11 19 15 10 3 41 4 57 2 17-2 17-2 17 0s-11 4-32 5a148 148 0 0 1-52-5c-1 1 8 11 12 14 13 10 50 16 62 10zm64-5c37-3 57-8 77-23l7-5-4-5c-6-6-8-13-12-31-2-9-2-11 0-19 3-16 8-22 22-28l6-2-8-8c-16-15-51-29-89-35-13-3-54-4-65-3l-7 1 3 3c4 2 9 13 9 17l3 3c3 3 6 12 7 23l3 22 1 41c0 33 0 34-6 48 0 2 0 2 2 3 3 1 30 0 51-2zm265-4c5-2 5-3 9-16 11-31 33-68 52-88 12-13 13-11-9-17-27-7-38-8-74-8-25 0-36 0-48 2-34 5-71 14-97 23-16 5-21 9-24 20s-3 14-1 27c4 17 6 21 11 26 10 8 42 18 79 26a290 290 0 0 0 102 5zm-325-58 8-1v-24l-4 9c-5 10-7 11-17 10-16-2-21-10-22-31v-8h-5a371 371 0 0 1-51 5l-1 19v18l9 2 12 3c8 1 63-1 71-2zm522-36 15-12-18-3-24-3-6-2-2 14-6 36-1 5 14-11 28-24zm-522 17c4-8 4-9 4-25 0-23-3-27-18-30-6 0-6 0-8 4-5 6-7 15-7 29-1 14 0 21 5 26 3 3 5 4 14 4h6zm-61-28c29-3 27-2 28-9l6-15c4-9 4-9 16-7l5 1c1-1-3-9-7-12-3-3-4-4-17-3-9 0-15 1-22 3-22 6-28 11-32 22l-4 12c-3 11-3 11 3 10l24-2zm671-5-1-8c-2-15 1-66 6-89l1-5h-28a637 637 0 0 1-150-20l-4 15c-4 16-5 24-8 55l-2 22 4 3c5 5 39 15 72 20a585 585 0 0 0 110 6zm-73-53-3-1-4-3c-1-1 0-18 2-19s52 0 54 2c2 1 1 17-1 20l-24 1h-24zm45-8c2-10 4-9-23-10l-23-1-1 6c-1 6-1 6 2 7l23 1h21zm-112-1-11-3c-12-3-17-6-19-9-1-4 2-19 4-20l19 5c14 4 17 5 17 7l-5 20h-5zm2-7 1-7 1-5-14-4c-15-4-15-4-15 4-1 7 1 8 15 11 11 3 12 3 12 1zm93-131a312 312 0 0 0-1-46c-2 0-3 2-4 25-2 23-2 22 1 22l4-1zm6-53c10-5 10-12 2-17-5-3-6-3-10-2-7 2-11 6-10 12 0 4 1 5 4 7 6 2 8 2 14 0z"/><path fill="none" stroke-width="15.2" d="M8 8h3497v1483H8zm0 1521h1729v1485H8zm1768 0h1729v1485H1776z"/><path stroke-width="3.8" d="M507 2949c-13-3-19-7-19-13 0-4 4-8 7-8s3 2 0 4c-4 3-4 5 2 9s16 5 34 5c14 0 19 0 26-2 9-3 15-7 13-11-1-3-15-9-24-10-10-2-26-1-33 1-10 4-10 4-10 2 0-7 31-11 49-6 26 6 30 20 8 27-10 4-41 5-53 2zm-234-15a293 293 0 0 1-100-24c-5-2-2-10 8-18 9-7 16-14 16-15 0-3-5-7-12-9-5-2-11-2-27-2a181 181 0 0 0-32 2c-4-4 13-7 38-6 21 1 28 2 33 7 7 6 5 13-6 21l-12 11-5 5 6 3c14 7 41 14 68 18 46 6 127 2 164-7 21-6 39-16 43-24 2-5 2-5-6-23-5-12-6-16-6-22 0-8 0-8 6-14 10-9 14-10 44-10 25 0 47 2 48 5 2 2-2 3-13 1-9-1-20-2-37-1-29 0-33 1-40 10-4 4-4 5-4 11 0 4 3 10 6 18 10 21 9 28-3 37-21 15-57 23-118 26h-59zm-263-20c0-2 1-2 8-2 24 0 68-3 77-5 15-2 27-6 30-9l3-2-4-3c-10-9-12-12-12-15 0-5 5-9 9-9 3 1 3 4 0 5-2 0-4 2-5 3-1 2-1 3 12 13l5 6c0 3-7 8-17 11-17 6-32 7-71 8-32 1-35 0-35-1zm3043-33c0-3 5-5 15-8l34-12 70-24c4 0 3 4-1 5l-22 7-39 14a1369 1369 0 0 1-57 18zm121-1c0-2 3-3 33-12l48-16c7-3 10-3 9 0a555 555 0 0 1-90 28zm-68-2v-2c4-4 78-28 81-27 4 1-1 4-22 10a474 474 0 0 0-59 19zm-1005-2c0-3 6-5 37-15a558 558 0 0 0 35-11c4 2-3 5-28 14l-32 11c-9 3-13 3-12 1zm57-3 5-3a1428 1428 0 0 0 84-23c3 1 0 4-6 6l-34 10c-44 13-49 14-49 10zm-106 0v-3l93-29c2 0 2 3 1 4a800 800 0 0 1-71 23c-18 6-22 6-23 5zm-175-36c0-1 13-2 131-3h15l-2-3c-5-6-9-17-11-26-2-15 2-32 12-41l4-4-30-15c-33-18-82-40-88-41-7 0-5-3 4-5a9824 9824 0 0 0 130-30l-6-4a45 45 0 0 1-14-41c3-14 7-21 17-29l3-2-3-11c-3-9-4-12-4-24 1-23 8-41 25-58a79 79 0 0 1 39-22l-1-7v-15c3-13 14-35 22-45 17-21 48-37 67-35l9 2c3 1 3 0 3-4 0-15 6-30 16-42 13-14 36-30 43-30h3l-4-13a1351 1351 0 0 1-24-87c2-2 5-2 6 1 2 5 35 22 98 49a1774 1774 0 0 1 130 60v-6l-5-37c-6-51-12-79-24-120-7-24-7-26-5-27 3-1 11 7 81 78 36 38 89 88 91 88 3 0 4-2 8-11l34-73a2473 2473 0 0 0 61-141l-8-2c-11-5-18-6-36-6-28 0-40 4-59 20-6 5-12 9-14 9-1 1-6 0-11-1-19-6-34-5-52 4-17 9-28 23-28 38 0 6-2 6-7 4-7-3-11-1-19 11-2 2-2 2-3 1-2-2 1-7 7-13 5-4 5-4 11-4h6l1-4c1-9 6-18 13-25 18-18 46-25 70-18l11 3 13-9c16-14 27-18 50-20h25c12 1 29 6 31 9 1 2 4-5 13-34 12-38 22-64 24-66s4 2 6 10v147l-4 189c1 1 87-87 91-94 6-8 9-9 11-5 1 1 2 18 2 47 0 42 0 45 2 45 7 1 13-2 55-23a3551 3551 0 0 1 254-115c0 6-17 50-35 88l-7 15 8 2c13 4 27 17 36 35 3 7 4 10 4 17v9l4-1c15-2 41 15 50 31 4 8 7 20 5 22s-2 1-5-7c-3-14-9-22-21-31-10-7-30-13-32-9-1 2-6 2-7 0l1-7c2-11-4-27-16-40-10-11-20-16-28-14a1345 1345 0 0 0-63 129l-3 6a3091 3091 0 0 0 184-8 1202 1202 0 0 1 139-6c6-2-1 7-27 34a67379 67379 0 0 0-102 103c-4 1-1-3 9-14l112-116-14-2c-18-1-59 1-112 5a2089 2089 0 0 1-179 9c-16 1-18-2-11-13a1483 1483 0 0 1 58-128l2-2 27-57 19-47-25 11-42 19c-33 14-50 22-111 52a850 850 0 0 0-117 59h-7c-2 2-5 0-5-3 0-2-1-3-2-3-2 0-3-2-2-29l-1-45v-15l-7 9-29 31-42 43c-19 19-23 22-25 18l1-98a5261 5261 0 0 0 2-244 1349 1349 0 0 1-95 234c-30 64-39 84-39 87s-5 5-9 3a1732 1732 0 0 1-164-161 772 772 0 0 1 31 188c-2 2-2 2-6-2-6-6-48-26-116-55l-91-42-20-10 3 11a1629 1629 0 0 0 48 150 734 734 0 0 0 18 54l5 16c2 7 2 11 0 12l-7-1-16-3-41-7c-32-5-69-10-80-10h-7l3 6 10 22c8 17 15 30 31 54l18 33 17 33 8 14-2 3c-6 4-42 8-89 9l-31 1 10 8 20 14c13 8 14 10 6 12l-56 17a1329 1329 0 0 1-184 43 20663 20663 0 0 1 87 44c73 38 98 52 98 57 1 4-6 11-20 22l-11 8 524-6 523-6 3-3 26-18 7-4-4-5c-6-6-16-15-28-23a221 221 0 0 1-23-17l-3-3c-3-2-4-2 19-29l50-67a480 480 0 0 1 34-47c-2-2-17-6-42-9a2035 2035 0 0 1-119-20l8-8c12-11 37-40 35-42l-12 2-64 7a316 316 0 0 0-64 10l-1-3a945 945 0 0 0 46-113l2-4h-3l-10 1-67 12-47 9c-44 10-46 11-49 10s-3-1-2-6c0-6 16-59 18-65l-10 8-41 37-46 41c-14 13-16 15-20 15s-4-1-4-3 0-2 3-2c2 1 5-1 20-16a984 984 0 0 1 80-71c20-19 21-20 23-18a959 959 0 0 0-18 76l32-8a883 883 0 0 1 122-22c20-4 26-5 27-3l-2 6c-3 3-6 9-19 47a646 646 0 0 1-27 67c9-3 29-7 59-10l51-6c30-4 31-4 31-1 0 4-17 25-31 39l-11 13 22 3a1318 1318 0 0 1 134 24c5 4 5 5 0 10-6 5-22 26-35 43a1364 1364 0 0 1-67 91l27 21c10 7 32 26 33 29l-6 5-29 19a44685 44685 0 0 1 294-2h18l-1-7c-2-10-5-19-11-26-6-6-16-12-22-12-1 0-4-1-5-3-2-2-2-2 0-12 4-12 3-19-2-30-4-8-9-13-13-12l-4-1c-2-1-7 3-22 17l-38 31c-17 13-25 20-24 21l5 4 26 15c8 3 10 6 4 6-5-1-16-6-29-15l-12-9c0-1 5-8 8-10l19-15c10-7 27-22 39-33a765 765 0 0 1 69-59 849 849 0 0 1-49-22c-17-7-43-18-56-25-22-12-42-25-42-27 1-3 12-8 38-17 24-7 48-17 50-18a3429 3429 0 0 0-122-23c0-4 15-2 62 6 68 12 73 13 73 16 0 2-1 3-5 4l-19 6a698 698 0 0 1-64 23c-8 4-8 3 12 15 18 11 35 19 64 31a749 749 0 0 1 66 29c3 2 2 6-1 6-3 1-21 14-38 28l-12 10 5 1c6 3 11 8 15 17 5 10 6 19 3 30l-3 9 7 2c6 2 15 7 20 13 7 8 14 27 13 34-1 2 0 2 8 2 17 0 9 2-9 3a356492 356492 0 0 1-1569 16zm193-6c11-7 33-25 33-27 0-1-1-2-3-2l-11-7c-12-8-56-32-58-32-3 0-12 11-14 18-2 4-2 9-2 16 0 12 2 19 7 27l5 7c1 3 3 3 20 3s19-1 23-3zm4-168a1359 1359 0 0 0 85-25l-9-6-17-12-10-8c-5-2-6-5-3-8 2-2 5-2 27-2 40 1 95-4 95-8l-4-8-17-31c-6-14-15-30-20-37-17-27-25-40-34-62l-10-20c-4-5-4-7-3-8 2-2 5-3 5-1l14 2c20 1 39 4 70 9a1870 1870 0 0 0 63 10c3 2 1-6-10-40a2155 2155 0 0 1-24-73l-10-29-5 1c-6 1-13 6-27 18-18 15-25 27-26 45 0 8-1 11-2 12h-12c-12-2-19 0-35 7-26 14-48 42-52 70-2 6-2 9 0 14 3 7 2 8-8 11a82 82 0 0 0-55 76c-1 9 4 27 7 30 3 2 3 4-3 7-8 6-13 12-15 21-3 9-4 16-1 25 2 8 6 14 12 19 3 3 10 7 12 7l22-6zM568 2835c-15-2-18-3-19-5 0-2 0-3 4-2 21 4 57 5 70 2 13-4 20-8 27-15 11-12 14-29 7-41-5-10-17-19-90-67a1389 1389 0 0 1-134-102c-15-13-27-27-35-41-7-13-16-31-17-36-2-11-27-72-33-81l-2-4v12c0 11-2 19-6 30-2 5-3 7-9 10-9 6-14 7-22 5-14-4-26-17-38-40a81 81 0 0 1-12-53c2-19 3-23 10-33 7-9 11-12 19-14 9-3 16-3 22 0 7 3 8 2 7-7l-27-89c-10-28-21-48-38-64a159 159 0 0 0-137-38c-40 8-76 29-100 57-5 6-5 6-5 3 0-2 2-5 7-11 19-23 55-43 89-52 28-7 55-6 87 3 42 11 75 40 93 79 6 14 22 62 31 95 4 14 6 31 4 33l-5-1-10-5c-5-2-6-2-13-1-9 3-13 5-20 15-8 10-9 15-9 39l-1 18 7 14c8 16 19 34 25 39s15 9 21 9 17-6 19-10l5-14c2-9 2-12 2-25-1-14-1-15 1-15 5 1 20 34 39 84 18 48 27 63 54 85l28 25a436 436 0 0 0 62 47l47 32c76 51 83 56 89 69 3 5 3 7 3 16l-4 17c-7 13-19 22-34 26-8 3-46 4-59 2zm1799-20a341 341 0 0 0-55-43c-3-4 17-16 42-26 15-6 50-23 50-24l-15-20c-11-12-16-19-15-20a1698 1698 0 0 0 144-8 418 418 0 0 1-22-36c-17-26-22-34-70-95-47-59-47-61-49-65-1-3-1-4 1-6 3-4 5-4 22 0l36 7a4445 4445 0 0 1 139 25l46 8c14 3 15 3 15 0 0-4-8-26-29-75-25-62-31-77-31-85-1-6-1-7 1-7l3 3 39 41c65 67 91 94 91 96 0 4-7-2-37-33-48-50-90-93-90-91l24 63c27 64 34 83 34 89 0 2-1 4-3 5-3 2-4 2-19-1l-39-7a1962 1962 0 0 1-146-26l-36-8c-14-3-16-3-16 0s6 11 51 69a858 858 0 0 1 86 120l6 9c0 2-4 5-8 6a947 947 0 0 1-135 6l6 9 25 30-4 2a628 628 0 0 1-54 23c-17 7-28 13-33 17l-3 2 9 7a2831 2831 0 0 0 42 35l12 11c4 2 4 5 0 5-1 1-6-3-15-12zm-922-98c-15-3-36-12-37-16l-3-2c-5 0-5-5-2-18 7-33 16-64 26-85 8-17 19-35 25-42 5-5 5-5 5-15 0-16 8-55 19-88 5-15 6-18 13-29l3-7c-3-1-6-11-6-16l1-12c2-5 1-5-3-15-9-18-13-36-13-58v-15l-10-5a125 125 0 0 1-24-15l-14 52c-1 7-6 4-12-8l-4-7-18 16-17 16c-1 0-2-6-2-20l-1-20-33 6c-31 6-37 7-38 5l10-22a547 547 0 0 0 24-60c-4 0-66-20-68-21-1-2-1-2 2-4a832 832 0 0 1 81-35l-33-40c-13-14-16-19-12-18a1937 1937 0 0 1 94 17l-2-23c-2-25-2-30 1-30 2-1 4 2 10 17a1498 1498 0 0 0 29 69c0 2-4 1-5-1l-31-73c-2-1-1 4 1 25l2 20a1311 1311 0 0 0-92-16 731 731 0 0 1 45 55l-32 13-40 17-11 5 32 10 34 12a636 636 0 0 1-32 79l11-2c25-5 56-10 57-9 2 3 2 14 1 25v12l13-12 16-16c3-4 6-2 12 8 2 5 4 7 4 6a2847 2847 0 0 0 19-66c0-3 0-3-6-3-7 0-23-4-29-8-14-8-22-22-20-35 2-18 15-31 35-38 9-3 12-4 26-4 15 0 16 0 21 3 8 5 18 16 21 23 2 4 3 9 3 16 1 10 0 12-2 18l-7 11c-4 5-14 10-25 12l-11 2-2 8-3 8 5 4c6 5 28 17 43 23 16 6 62 19 75 21 7 1 11 0 23-12l8-8v-18c0-25-6-69-10-78l-10-12-9-8-22-1-37-4c-28-6-26-6-30-4-2 1-4 2-5 1s2-4 6-7c3-1 3-2 4-14l2-18c3-14 20-42 31-50 8-6 20-11 27-12 8-1 8-2 8-14 0-7 0-8-2-9-4-2-4-7 0-11 7-9 22-1 16 9l-1 14c0 10 1 12 3 12a73 73 0 0 1 40 22c14 15 24 42 24 65v11l6 4c20 15 35 51 38 90 4 42 3 57-5 85-3 12-3 13-2 18a161 161 0 0 1 2 82c0 6-18 14-34 16-7 0-8 1-8 2l9 43a287 287 0 0 0 8 43 339 339 0 0 1 25 99c0 5 0 6 8 14 10 10 17 21 16 23l-4 5c-4 3-5 3-21 3-26 1-54-1-59-4-4-2-6-3-16-3-15 0-18-1-21-8s-5-35-3-53c3-28 13-65 21-79 2-4 2-5 1-9l-4-7a232 232 0 0 1-33-84l-3 9c-8 26-30 72-44 93l-4 5 3 7c4 8 8 25 10 43a473 473 0 0 1 3 81c-1 8-2 9-9 10l-7 4c-2 3-16 7-32 9h-26zm44-7c14-4 14-5 8-13-17-22-26-29-38-29-10 0-21 6-38 23-5 4-8 8-8 9 1 2 16 9 24 11 12 3 37 3 52-1zm24-11c3-2 3-59 0-80-4-28-11-52-15-53l-4 6c-5 9-15 12-24 8-6-3-9-8-10-17l-2-8-7 10a305 305 0 0 0-45 128c1 4 4 2 14-8l20-15c8-5 11-6 16-6 12-1 19 2 29 13 5 5 12 12 14 16 5 6 6 7 9 7l5-1zm173-4 3-2-7-9c-9-11-17-19-22-21-9-3-20 1-33 13-12 11-17 17-15 19s15 3 45 3c26 0 27 0 29-3zm-68-16c17-17 24-21 36-21l8 1 3 1c1-2-2-23-5-38-3-13-15-51-18-57-1-2-1-2-3 2-3 6-6 9-11 9-4 0-6-1-9-5-4-4-8-13-8-19 0-4-2-4-8-1-8 4-10 7-14 17a250 250 0 0 0-13 118c2 5 4 6 19 6l10 1zm-133-104c4-2 9-12 10-21 1-10-4-20-10-23-4-2-5-2-9 0-8 5-14 22-12 34l4 8c3 3 5 4 9 4l8-2zm148-7c3-3 3-5 3-18 0-18-2-24-8-24-5 0-7 2-10 9-3 8-3 21-1 27 3 5 8 10 11 10 2 0 4-2 5-4zm-121-27c12-19 26-51 33-70 6-18 6-22 1-32-3-6-14-17-22-21-7-4-16-4-22-1-4 2-9 9-12 15l-3 6c-5 7-28 97-24 101l3-4c5-10 15-12 23-5 7 5 10 11 10 22v8l2-3c2-1 6-8 11-16zm92 5c7-3 7-3 8-7 1-6 5-13 8-16l7-1c4-1 5-1 5-3a280 280 0 0 0-23-88c-1-1-3 0-9 6-8 8-17 13-30 17-9 2-9 2-9 5a186 186 0 0 0 29 78c4 4 6 9 6 10 0 2 0 2 8-1zm44-82c10-3 11-4 9-11l-3-8h-9c-9 2-11 1-11-7v-5h-6c-7 0-10-1-10-3 0-1 2-2 9-1s11 0 18-2c12-3 14-2 13 7 0 7 3 21 5 21 2-1 5-16 6-30 1-20-3-50-7-53l-8 2c-7 4-20 5-26 3-2-1-3 0-6 6l-6 8c-1 1-2 4-2 11 0 6 0 12-2 16l-1 7 7 20c4 11 7 20 9 21 2 2 12 1 21-2zm-79-14c17-4 33-17 38-31 2-6 5-21 3-21l-6 3-17 8c-12 4-12 4-30 3-26-1-42-6-56-19l-7-5-1 9c0 7 0 10 2 13 3 4 2 4 8 2 11-5 24 0 37 12 7 8 12 16 13 23 1 4 1 4 5 4l11-1zm85-10 1-6c0-5 0-5-4-4-12 3-12 3-12 8v4l7-1 8-1zm-69-35c20-7 29-15 39-35 4-9 5-12 2-11-25 11-52 15-68 10l-6-2-2 19-2 21c-1 1 3 2 15 1 10 0 15 0 22-3zm-41-4c2-16 4-46 3-53l-5-26-19-6a354 354 0 0 1-44-14c-4 0-3 25 1 43 7 27 20 46 38 55 5 2 21 7 25 7l1-6zm109-31 7-5a147 147 0 0 0 11-81l-10 6-17 12c-7 5-9 7-8 8l1 14c1 13-1 28-6 40-2 6-3 8-2 9 3 1 19 0 24-3zm-54-6c10-2 25-8 30-12 3-2 3-3 3-20v-19c-1-1-3-1-10 4-8 5-12 7-12 4l-7-8-6-8-6 7c-11 11-17 15-21 15l-13-2-9-1 1 10 2 19c0 9 0 9 3 10l8 3c7 2 24 1 37-2zm29-56 28-19 13-11v-10c0-19-7-44-18-63-6-11-18-23-22-25l-11 1-17 3-10 1v12l2 22c5 26 8 58 6 73l-1 8 7 9 8 8 15-9zm-178-55c19-2 27-7 33-18 3-7 4-8 4-17 0-14-3-22-12-30-10-9-16-11-29-11-12 0-25 2-25 4l4 1c16 0 32 23 29 42-1 10-5 15-15 19-9 4-26 4-34 0l-4-1c3 3 14 8 23 10 10 2 13 2 26 1zm-15-12c5-2 11-7 13-11 3-5 3-17 0-23l-5-9c-11-17-36-16-47 1-5 7-6 21-2 28 3 5 8 11 14 13 5 2 20 2 27 1zm-26-11c-5-3-8-10-7-17 2-15 16-23 27-16 8 5 12 21 6 29-5 6-18 8-26 4zm177-45-7 1h-6l6 7 7 6v-14zm8-5c2-2 3-45 2-51l-1-4-19 1h-61l-9-1v22l2 26c2 4 3 4 10 6 13 2 15 2 46 2l30-1zm-73-24-9-1-2-4-1-7c0-3 0-3 11-3l11 1 1 6-1 7-10 1zm7-7c0-3-1-3-7-3-8-1-8 0-7 4l7 1c6 0 7 0 7-2zm38 7-3-3c-1-5 0-12 1-11a405 405 0 0 0 20 1c2 2 4 10 2 12-1 2-13 2-20 1zm16-7c-1-2-2-2-8-2s-7 0-7 2c0 3 1 3 8 3s8 0 7-3zm36 28 7-1 1-7c1-13-3-33-12-49-5-11-15-22-25-28-7-5-21-11-25-11s-6-3-6-14l-1-11c-4 0-5 20-1 21 3 1 0 3-5 3-17 0-34 10-45 25a87 87 0 0 0-19 57v10l3 1 9 1 5 1-1-8v-46l12 1h42l36-1h6l1 29v30l5-1 13-2zm-57-128c2-2 1-2-1-4-3-2-7-2-9 1-2 2-2 3-1 4 2 2 8 1 11-1zm1814 566c-1 0 0-4 2-7 4-10 3-21-4-30-3-4-3-6-1-6 5 0 11 11 12 22 0 6 0 9-3 15-3 7-5 10-6 6zm-3225-60c-16-2-33-15-38-28-3-10-5-24-4-31 4-17 15-26 33-27l11-2 1-14c0-19 6-35 15-44 13-11 28-14 42-7 10 5 22 18 29 32 8 15 11 24 14 40 2 15 1 22-5 34-6 13-13 18-28 20-7 0-7 1-7 4 1 2 0 5-1 8-3 6-9 10-22 13-10 2-31 3-40 2zm37-6c17-4 25-10 21-18-2-5-2-7 3-7 6 0 18-2 22-4 8-4 15-18 16-31 1-9-2-26-6-37-7-19-23-40-35-46s-25-4-37 7c-9 7-15 26-14 42l2 14c0 6 1 5-13 4-8-1-18 2-24 7-9 7-12 19-9 35 3 17 15 29 31 35 7 2 34 2 43-1zm3159-20c-4-4-8-6-12-8l-8-3 1-7c3-7 2-20-2-29-2-5-3-7-8-9-6-3-7-6-1-5 11 2 17 13 17 31l-1 13c-1 3 0 4 6 6 10 4 20 16 15 17-1 0-4-2-7-6zM248 2307c-7-6-13-25-23-64-9-38-8-40 8-15 11 16 17 25 27 34 4 5 4 6 3 9l-1 11c0 10-3 23-6 26s-5 3-8-1zm7-8 3-18v-14l-8-9a273 273 0 0 1-25-34l16 60c4 12 9 22 11 21l3-6zm690 9-5-1c-3 0-7-2-9-4l-4-2-6 3c-5 3-7 3-18 3-13 0-21-3-25-10-2-3-3-4-7-3-7 1-17-2-23-7l-6-9c-2-5-3-5-5-4-3 1-20-1-26-4-10-5-18-19-18-31 0-4-1-4-6-5-16-2-25-9-32-24-4-8-4-10-4-20 0-11 0-10-8-12-12-2-19-10-23-24-2-8-2-23-1-28 2-3 1-3-5-6s-13-10-16-17c-5-9-4-27 1-40l4-7-3-3c-5-3-6-8-6-19 1-7 1-11 4-16l3-6-5-1-12-2-6-2-8 5a81 81 0 0 1-46 15c-9 0-15-3-23-10-3-3-7-6-8-5l-3-1c-1-1-10 1-13 4l-1 8c0 7-1 9-7 21l-12 20c-21 28-66 57-113 72-38 12-63 15-84 9-9-3-20-10-23-15-4-7-1-7 5-1 12 11 24 15 48 14 13-1 19-1 32-5 18-4 45-15 60-22a226 226 0 0 0 71-55c7-7 15-23 17-33 3-14 1-32-7-50a140 140 0 0 0-48-59c-3-5-14-9-26-11a173 173 0 0 0-176 67c-6 9-10 11-18 14-17 6-28 19-34 40-3 11-4 37-2 46 3 17 15 34 28 40 6 3 8 3 23 4l17 1c0 4-19 5-30 2-20-4-34-18-41-41-3-11-2-44 2-56 6-21 16-32 32-39l11-3 7-9 17-20a170 170 0 0 1 123-53c34-1 55 3 66 12 6 4 6 4 12 2l5-1v-13c-1-19 4-32 14-42 7-8 21-11 32-8 4 1 4 1 8-3 8-10 17-17 28-23 29-15 56-18 72-7l5 3 4-3 12-7c21-11 43-15 57-11l5 2 2-3c4-8 13-12 23-12 5 0 5-1 6-5 1-6 8-16 16-23 14-11 37-20 47-18 5 0 5 0 7-4 2-5 9-11 14-13l16-1c13 0 20 2 29 8l5 4 5-4c11-10 24-15 41-15 11 0 19 2 27 8l5 4 2-3c4-6 9-7 20-6 14 1 26 6 34 16 6 6 6 6 10 4 6-3 17-2 26 2 10 5 21 14 25 22 2 5 3 5 6 5 6 0 15 4 20 8 4 4 7 15 6 18l2 2c14 3 27 10 32 18 3 4 5 12 5 20v5h6c7 1 17 5 21 9 5 5 9 12 9 19l1 6 5 1c13 1 28 11 35 25 4 7 4 9 4 18l1 11 5 4c10 7 19 18 23 28 2 5 3 15 2 31 0 4 0 4 4 5 12 4 32 37 29 52 0 3 0 4 2 5 4 1 11 9 13 14l1 13c0 6 0 7-2 7s-2-1-2-6c1-11-4-21-13-25-4-2-4-2-3-8 1-8-4-21-11-33-6-9-13-15-20-16l-4-1 1-6 1-17c0-11 0-12-4-19-5-8-16-19-23-23-5-3-5-3-4-7 1-6 0-15-2-22-1-4-4-8-9-13-10-10-19-14-28-13-7 1-6 1-6-8 0-16-12-26-32-27h-4l-1-11c0-8-1-12-3-15-5-8-23-18-33-17-4 1-4 0-4-2 2-9 1-11-1-15-4-7-16-12-24-9-2 0-2 0-4-5-2-8-12-18-22-23-11-5-19-6-26-2-4 2-8 2-8 0s-9-11-14-15c-7-4-18-7-26-7-5 0-12 4-14 8-1 5-3 5-9-1-7-6-13-8-22-9-16-2-32 4-43 14l-8 6-7-5-12-6c-7-3-24-3-31 0-5 3-11 9-11 12 0 4-3 5-11 4-23-1-61 26-58 43l1 4-6-1h-12c-5 2-13 8-13 11l4 6 5 7c0 1 1 1 5-1 8-3 22-4 33-2 18 3 29 9 37 20 4 5 4 6 10 6 8 0 20 4 26 8s11 12 12 18c1 3 2 4 7 5 13 3 27 11 36 20 10 10 14 17 15 29l2 8 9 2c10 1 22 6 33 12 7 4 8 5 11 4l7-5 3-3 4 5c6 7 16 11 26 8l6-1 2 4c3 7 18 17 25 17l7-2c5-2 6 0 6 7 0 11 12 21 26 23 9 1 10 2 9 5l1 9c2 6 14 20 20 21 5 1 5 3 2 8s-4 15-1 21c2 4 10 10 15 11 4 1 4 1 3 8-1 9 1 14 7 21 5 6 12 10 18 11 4 1 4 1 2 7-2 5-2 6 0 12l5 12c5 6 14 12 19 13l3 3c0 3-5 2-12-2-13-8-21-22-20-34l1-6-6-3c-13-5-23-22-22-34 0-3 0-4-3-5-10-4-17-14-17-24l2-10c3-5 2-6-2-7-4-2-15-14-17-19l-2-9c0-4-1-4-4-4-5 0-11-2-18-7s-12-12-13-18l-1-5-6 1c-5 0-8 0-12-2-7-4-16-12-17-15-1-2-3-2-11-2-11 0-16-2-22-8-3-3-4-3-12 2l4 6c6 7 9 13 9 19 0 5 0 6 2 5 10-2 36 17 40 30 2 6 3 19 1 23-1 2 0 3 3 5 12 6 26 26 30 44 4 14 3 20-7 32l-6 8s1 3 4 5c6 7 10 20 11 30 1 7 0 10-2 14-3 8-13 16-21 19-7 3-7 3-6 6l1 16c0 14-3 21-12 30s-16 12-28 13h-10v5c0 10-8 20-23 26-6 3-10 4-18 4h-10v4c0 8-13 16-26 16h-10zm-33-5 10-5c5-4 6-5 9-1 3 5 10 7 21 7 8 0 10-1 16-3 8-4 10-8 9-13l1-5h7c8 2 17 0 26-5 9-4 15-10 17-17 1-4 1-6-1-9-3-5-1-7 3-5 5 3 18 2 25-1 7-4 16-13 19-19 4-8 5-18 4-27-2-11-3-11 7-16 11-5 19-13 21-20 2-10-3-27-12-38l-6-6 8-9 9-12c3-8-1-25-9-38-5-9-18-22-24-24-5-1-5-4-2-7 3-4 3-16-1-24-4-7-14-16-24-21-6-2-8-2-13-2l-6 1 1-7c1-10-3-17-16-29-9-7-27-15-41-17l-10-1-1-10c-1-11-4-17-14-28-9-8-18-13-30-18-6-2-9-2-10-1-2 2-3 0-4-6-1-8-6-16-14-20-6-3-20-6-26-6-7 1-10 0-7-3 3-4-9-14-22-19-7-2-11-3-24-3-15 0-16 1-22 4-7 4-8 4-8 0 0-11-18-19-37-16a103 103 0 0 0-50 23l-5-4c-8-6-16-8-30-7-26 1-56 17-67 34l-4 6-11-1h-16c-13 3-25 27-23 46 1 11 1 11 11 8l13-3c11 3 39 44 44 66l2 18v11l-4 3-5 3 6 5c11 10 19 13 31 11 10-2 22-7 34-14l10-7 6 2a121 121 0 0 0 81-6l12-4 1 3c0 6 5 8 25 12 15 3 29 3 37 0 7-3 10-2 10 2 0 11 8 24 18 29 6 2 15 3 20 1s7-1 5 4c-4 10-1 26 6 35 4 6 13 13 19 14 7 2 7 4 1 13-13 20-16 37-7 47 3 3 3 4 2 5-2 0-3 0-5-2-10-9-8-30 5-49l5-9-5-2c-16-5-29-26-27-44v-7l-5 1c-8 1-17-3-24-9s-10-13-12-20l-1-5c-1-1-4 0-8 1-9 2-17 2-35-1s-25-6-27-10l-3-3-14 5c-15 5-25 7-39 7h-11l-3 5c-5 6-7 15-6 23 1 7 4 12 8 12 3 0 4 2 2 5l-5 9c-4 8-5 22-3 31 2 8 9 16 18 20 6 3 8 4 7 5-2 5-3 15-2 20 3 23 7 29 24 33 8 2 8 2 8 5-1 13-1 19 3 27 7 15 15 21 30 23h8v8l3 13c3 6 9 13 15 15 7 3 20 5 24 3 3-2 6 1 7 6s8 11 14 13l12 1c7-1 7 0 9 3 2 5 6 8 12 10 7 2 12 2 20 1zm-320-299 9-5v-6c1-10-3-24-8-35-8-17-24-41-32-45l-4-3-15 4-16 6c-1 0 0 2 3 4 11 9 28 30 35 44 4 8 10 28 11 36 1 5 1 6 4 5l13-5zm805 278-5-17c-1-1-5 1-9 3-17 10-23 11-20 3 5-11 11-28 10-28l-14-1c-18-1-19-2-5-12l14-11 4-3-14-10-15-12c1-1 12-5 25-8l25-8v-12c-2-20 0-20 11-2 7 12 8 16 5 16-1 0-4-4-6-9l-6-9v20l-23 6-23 8 14 9c11 8 13 9 12 11s-11 11-21 18l-3 3 13 1c11 0 12 1 12 3l-5 16-4 14 11-6 12-6c3 0 3 2 8 19l3 14 12-16c10-14 13-18 13-13 0 2-24 36-25 36-2 0-3-4-6-17zm937-46c-2-2 0-4 8-9s9-5 17-5l8-1c0-3 9-15 16-22 12-12 27-18 46-18 9 0 10 0 10 2-1 2-3 2-14 3-18 1-26 5-39 18-11 10-14 16-14 20 0 3 0 3-9 2-10 0-10 0-17 4-11 7-11 7-12 6zm1045-11c-3-1-1-4 5-11 9-9 8-17-3-16-5 0-8-3-4-5 3-3 1-8-7-15-16-16-33-18-60-7l-6 1c-1-1-1-5 1-11 4-16 4-25 1-31-2-5-3-6-8-8-7-3-25-2-38 2-9 3-12 2-9-1l2-5 20-33c17-24 43-44 56-44 6 0 10 4 11 11a103 103 0 0 1-4 37l12-9c15-9 35-19 50-24 15-4 34-5 40-2 7 4 9 9 9 21-1 12-4 19-19 41-17 25-24 36-23 39 0 1 2 3 7 4 9 3 13 8 13 16 0 4 0 6-3 9l-3 3 3 2 2 8c0 10-3 14-18 21-14 7-23 9-27 7zm22-10c15-6 18-9 18-17 0-5 0-6-4-7l-3-3 5-6c4-4 5-5 4-8-1-6-4-9-10-10-16-4-16-8 9-44l17-27c7-15 8-28 1-33-5-4-19-4-35 0-20 5-48 20-66 34-8 7-9 5-5-11s5-29 3-33c-6-12-38 10-60 40l-16 29 9-2c16-3 32-2 38 4 5 5 6 9 6 20a100 100 0 0 1-3 25l4-1c9-4 23-6 31-5 16 1 36 15 39 28 1 4 2 5 3 5l6 3c5 6 4 13-3 21-4 4-4 4-1 3l13-5zm-353-28-13-10c-6-3-7-3-18-3-11 1-12 1-14-2l-2-7c0-10-13-27-27-35-10-6-26-13-38-16s-23-3-34 2l-10 3c-3 0-7-5-7-8l-4-7c-9-13-37-28-63-34-23-5-44-4-53 2-3 2-4 3-5 2-5-4 7-10 22-12 37-3 98 22 106 45l3 7 10-3c18-7 37-4 65 9 13 7 16 9 24 17 11 10 15 17 16 27l1 6h10c12-1 18 0 26 6 6 4 15 14 14 16-1 3-3 2-9-5zm407-4c-3-1-4-3-4-5 0-8 7-13 18-13 8 0 13 2 14 6s-2 9-7 11c-5 3-17 3-21 1zm19-5 4-4c0-3-6-5-12-5-7 2-14 8-9 10 4 1 13 1 17-1zm-1436-34a545 545 0 0 1-34-11l-28-6c-11-2-18-4-25-7-11-5-19-12-19-17 0-9 17-21 44-32 22-9 38-18 46-26 9-9 11-13 10-25-1-9-3-15-11-32-3-7-4-10-4-18 0-13 2-14 15-14 8 0 45 6 63 11 19 4 32 4 45-2 20-9 36-39 42-74 2-18 4-21 14-42 5-11 8-16 12-19 13-12 17-9 29 24 6 18 8 28 12 50 3 17 20 75 23 78s-1 5-3 3c-4-4-20-57-25-84-6-33-18-67-24-72-5-4-12 5-22 26-9 18-9 20-12 38-2 15-6 27-14 44-10 19-20 29-35 34-12 4-26 4-44 0-37-9-68-13-71-9-2 4 0 16 5 27 7 16 9 22 10 32 0 8 0 10-3 16-4 8-16 19-28 26l-28 12c-26 11-42 22-41 29 1 3 14 12 22 14l20 5c16 2 52 12 61 16 2 1 2 0 0-7-2-6-2-8-1-13 3-13 15-26 34-35 9-5 19-8 32-9 12-2 12-1 13-11 1-15 10-32 26-48 12-12 25-22 36-26 9-3 14-3 20-1l5 2 1-4c0-3 1-5 4-6l8-6c6-5 9-6 17-5 6 1 13 6 11 8-1 1-3 0-6-1-9-5-16-3-21 4-2 2-4 4-6 4-2 1-2 2-3 6 0 6-2 7-7 4-8-5-21-2-38 9-24 16-41 40-43 63l-3 9-12 3c-13 1-20 3-28 7-14 6-28 18-33 28-3 7-4 9-1 20 3 13 1 16-7 10zm-1638-16-10-5c-11-5-14-9-14-20 0-9 3-15 8-17 6-3 22-5 33-4h9l-6-9c-13-16-15-20-17-38-1-8-1-12 1-26l3-18h3v5c-2 10-4 30-3 42 2 13 5 19 16 32 8 10 10 11 15 13l11 3 12 1c6-1 8-2 13-6 9-6 10-9 11-18 1-7 1-7-3-12-10-11-12-11-10-2 2 8 2 9 0 9s-3-3-4-7l-5-13-4-9 4-13c3-10 4-13 4-25l1-13c6 0 5 19-2 41l-3 10 2 4c2 3 4 4 5 4 3 0 10 6 15 11 4 5 4 6 4 11 0 12-2 17-9 23s-13 9-16 8l-6 1-3 2 3 2c2 3 2 4 2 10-1 13-7 19-20 22-7 1-32 2-40 1zm38-5c7-2 9-3 13-7 3-2 4-6 5-9 1-5 0-6-3-10-5-8-12-10-32-11-22 0-33 1-38 6-3 3-3 5-3 10 0 9 3 14 11 18 12 5 31 7 47 3zm-107-14c-22-11-28-18-36-40-3-6-3-10-3-19 0-13 1-24 3-27 3-4 4-1 2 10-2 15-1 29 3 39 7 17 15 24 35 34 10 6 21 7 31 4 6-2 9-1 7 1-1 3-12 4-22 4-8 0-10-1-20-6zm1506-11c-5-4-6-9-1-13 3-2 4-2 15-1 14 1 17 2 17 7-1 4-2 5-6 7-8 4-19 4-25 0zm24-5c2-2 2-2 1-3-2-2-15-2-21-1-4 1-5 4-2 6 4 2 20 1 22-2zm-1497-8c-12-9-17-17-20-31-4-15-2-47 3-47l1 4-2 19c-1 13 0 15 3 25 4 13 8 20 18 27 9 7 10 9 8 11 0 0-6-3-11-8zm-50-103c1-5 30-14 58-19 21-4 64-4 76-1 13 4 20 8 18 12-1 1-3 0-5-2-6-3-10-5-26-7a258 258 0 0 0-119 19l-2-2zm3061-2c-7-4-6-17 3-28 5-7 10-10 18-12 5 0 6 0 9 4 4 4 4 10 1 17-7 13-23 23-31 19zm15-8c9-5 17-22 12-26-3-2-12 0-17 4-5 5-10 14-10 20 0 7 5 8 15 2zm-350-73 12-14c14-15 17-19 14-27s-21-16-49-24c-3-1-7-3-8-5-5-4-5-10-2-22s3-12-9-11c-11 1-18-1-25-9-9-9-10-12-10-40 0-21 1-27 4-42 3-18 4-36 2-37a312 312 0 0 0-77 85c-10 15-13 19-18 19-3 0-10-7-13-13-2-4-2-4-4-3l-5 5c-3 3-8 17-8 21 0 6 3 10 4 5 1-2 2-2 9-2 11-1 13 0 15 5 1 2 2 4 3 3 9-3 16-4 30-5 12 0 16 1 19 2 13 7 21 26 20 44l-1 8 5 1c7 1 13 5 17 11 3 5 5 19 5 30v7l7-3c15-8 25-11 37-11 9 0 12 1 15 3 5 3 9 7 10 12 1 6-3 6-5-1-3-7-7-9-20-9-12 0-19 2-37 11l-11 4-1-10c0-27-6-40-19-40h-6c-2-1-3-7-1-12s-1-20-5-26c-3-8-9-14-14-15a81 81 0 0 0-48 6l-3-5-2-5h-8l-8 1c-2 2-9 1-11-1-2-5 2-25 8-33l7-5c4-2 4-2 7 1l6 8c3 4 5 6 7 6l6-8a339 339 0 0 1 81-94c13-8 16 4 9 38-3 20-5 59-3 67 2 7 6 12 12 17 4 4 5 4 17 4l14 1c3 2 3 7 0 17-2 8-2 11-1 14 2 5 3 5 14 8 17 4 40 15 45 22 3 4 3 13 0 20-3 6-15 18-22 23-5 4-6 4-7 3zm-338-86c-10-6-16-17-16-31-1-7 0-10 3-16 7-14 13-17 21-12 7 4 14 19 15 32 2 13 2 12 1 18-1 5-2 6-6 8-6 3-12 3-18 1zm16-7c2-2 2-4 2-14 0-9 0-13-3-20-3-9-9-16-13-16-5 0-12 12-14 22-1 7 2 18 6 24 6 8 17 10 22 4zm-254-14c-8-4-15-11-24-23l-12-14c-4-3-6-3-6 0s-3 11-5 13c-3 3-9 2-17-4-10-7-15-14-21-25-6-13-7-21-7-37 1-15 2-19 9-24 10-8 19-3 37 19l6 8v-4c0-10 8-17 18-17 5 0 7 1 10 4 9 9 22 32 27 49 10 30 9 50-1 55-5 2-8 2-14 0zm14-7c10-13-4-62-25-89-5-6-6-6-11-7-6 0-7 1-10 4-3 4-3 5-3 12v9c-1 4-4 1-10-7-7-11-22-27-27-28-2-1-4 0-7 2-7 5-9 9-8 27 0 14 1 17 4 25 5 11 12 19 21 26 10 8 13 7 15-2 2-8 4-10 8-9s13 9 18 17c7 10 14 17 20 20 7 5 12 5 15 0zm-351-9c-10-2-17-9-21-21-3-10-3-29-1-35 2-4 6-6 9-5h3c2-2 12-1 19 3 16 7 24 23 21 40-2 12-16 21-30 18zm18-7c6-4 8-10 7-20-1-13-6-21-17-27-7-3-12-4-19-3-5 1-6 1-7 5-2 6-1 23 2 31s9 14 15 16c5 1 14 0 19-2z"/></g></svg>